<?xml version="1.0" encoding="utf-8"?>
<!-- Generator: Adobe Illustrator 22.0.0, SVG Export Plug-In . SVG Version: 6.00 Build 0)  -->
<svg version="1.1" id="Layer_1" xmlns="http://www.w3.org/2000/svg" xmlns:xlink="http://www.w3.org/1999/xlink" x="0px" y="0px"
	 viewBox="0 0 1920 1080" style="enable-background:new 0 0 1920 1080;" xml:space="preserve">
<style type="text/css">
	.st0{fill:url(#SVGID_1_);}
	.st1{fill:url(#SVGID_2_);}
	.st2{fill:url(#SVGID_3_);}
	.st3{fill:url(#SVGID_4_);}
	.st4{fill:url(#SVGID_5_);}
	.st5{fill:url(#SVGID_6_);}
	.st6{fill:url(#SVGID_7_);}
	.st7{fill:url(#SVGID_8_);}
	.st8{fill:url(#SVGID_9_);}
	.st9{fill:url(#SVGID_10_);}
	.st10{fill:url(#SVGID_11_);}
	.st11{fill:url(#SVGID_12_);}
</style>
<g>
	<linearGradient id="SVGID_1_" gradientUnits="userSpaceOnUse" x1="507.9549" y1="513.0256" x2="526.2048" y2="513.0256">
		<stop  offset="0" style="stop-color:#FF7BAC"/>
		<stop  offset="1" style="stop-color:#FF7BAC;stop-opacity:0"/>
	</linearGradient>
	<path class="st0" d="M517.1,519.6c-1.6-1-2.9-2.3-3.8-3.9l-5.3-9.2l3.5,2c3.5,2,7.8,2,11.3,0l3.5-2l-5.3,9.2
		C520,517.3,518.6,518.6,517.1,519.6z"/>
	<linearGradient id="SVGID_2_" gradientUnits="userSpaceOnUse" x1="507.8449" y1="481.4415" x2="526.3136" y2="481.4415">
		<stop  offset="0" style="stop-color:#FF7BAC"/>
		<stop  offset="1" style="stop-color:#FF7BAC;stop-opacity:0"/>
	</linearGradient>
	<path class="st1" d="M511.4,486l-3.6,2.1l5.4-9.4c0.9-1.6,2.3-3,3.8-3.9c1.6,1,2.9,2.3,3.8,3.9l5.4,9.4l-3.6-2.1
		C519.2,484,514.9,484,511.4,486z"/>
	<linearGradient id="SVGID_3_" gradientUnits="userSpaceOnUse" x1="494.6751" y1="497.281" x2="507.9537" y2="497.281">
		<stop  offset="0" style="stop-color:#FF7BAC"/>
		<stop  offset="1" style="stop-color:#FF7BAC;stop-opacity:0"/>
	</linearGradient>
	<path class="st2" d="M508,506.5l-9.3-5.4c-1.6-0.9-3-2.3-3.9-3.8c1-1.6,2.3-2.9,3.9-3.8l9.2-5.3l-2,3.4c-2,3.5-2,7.8,0,11.3
		L508,506.5z"/>
	<linearGradient id="SVGID_4_" gradientUnits="userSpaceOnUse" x1="526.2048" y1="497.281" x2="539.4833" y2="497.281">
		<stop  offset="0" style="stop-color:#FF7BAC"/>
		<stop  offset="1" style="stop-color:#FF7BAC;stop-opacity:0"/>
	</linearGradient>
	<path class="st3" d="M526.2,506.5l2.1-3.6c2-3.5,2-7.8,0-11.3l-2-3.4l9.2,5.3c1.6,0.9,3,2.3,3.9,3.8c-1,1.6-2.3,2.9-3.9,3.8
		L526.2,506.5z"/>
	<linearGradient id="SVGID_5_" gradientUnits="userSpaceOnUse" x1="517.4362" y1="522.9261" x2="568.288" y2="522.9261">
		<stop  offset="0" style="stop-color:#FF7BAC"/>
		<stop  offset="1" style="stop-color:#FF7BAC;stop-opacity:0"/>
	</linearGradient>
	<path class="st4" d="M567.3,547.4c-5.6,1.3-11.6,1.3-17.4-0.3l-32.5-8.7l12.3-3.3c12.3-3.3,22-13,25.3-25.3l3.3-12.3l8.7,32.5
		C568.6,535.8,568.7,541.8,567.3,547.4z"/>
	<linearGradient id="SVGID_6_" gradientUnits="userSpaceOnUse" x1="465.9092" y1="471.7367" x2="517.4333" y2="471.7367">
		<stop  offset="0" style="stop-color:#FF7BAC"/>
		<stop  offset="1" style="stop-color:#FF7BAC;stop-opacity:0"/>
	</linearGradient>
	<path class="st5" d="M479.4,484.8l-3.4,12.7l-8.9-33.2c-1.5-5.8-1.6-11.8-0.3-17.4c5.6-1.3,11.6-1.3,17.4,0.3l33.2,8.9l-12.7,3.4
		C492.4,462.8,482.7,472.4,479.4,484.8z"/>
	<linearGradient id="SVGID_7_" gradientUnits="userSpaceOnUse" x1="466.0511" y1="522.997" x2="517.4333" y2="522.997">
		<stop  offset="0" style="stop-color:#FF7BAC"/>
		<stop  offset="1" style="stop-color:#FF7BAC;stop-opacity:0"/>
	</linearGradient>
	<path class="st6" d="M517.4,538.4l-33,8.8c-5.8,1.5-11.8,1.6-17.4,0.3c-1.3-5.6-1.3-11.6,0.3-17.4l8.7-32.6l3.3,12.2
		c3.3,12.3,13,22,25.3,25.3L517.4,538.4z"/>
	<linearGradient id="SVGID_8_" gradientUnits="userSpaceOnUse" x1="517.4333" y1="471.8076" x2="568.4298" y2="471.8076">
		<stop  offset="0" style="stop-color:#FF7BAC"/>
		<stop  offset="1" style="stop-color:#FF7BAC;stop-opacity:0"/>
	</linearGradient>
	<path class="st7" d="M558.4,497.5l-3.4-12.9c-3.3-12.3-13-22-25.3-25.3l-12.2-3.3l32.6-8.7c5.8-1.5,11.8-1.6,17.4-0.3
		c1.3,5.6,1.3,11.6-0.3,17.4L558.4,497.5z"/>
	<linearGradient id="SVGID_9_" gradientUnits="userSpaceOnUse" x1="443.5751" y1="624.6594" x2="590.2675" y2="624.6594">
		<stop  offset="0" style="stop-color:#FF7BAC"/>
		<stop  offset="1" style="stop-color:#FF7BAC;stop-opacity:0"/>
	</linearGradient>
	<path class="st8" d="M516.9,677.4c-12.5-7.7-23.1-18.6-30.7-31.7l-42.6-73.8l28,16.2c28.1,16.2,62.6,16.2,90.7,0l28-16.2
		l-42.6,73.8C540,658.9,529.4,669.7,516.9,677.4z"/>
	<linearGradient id="SVGID_10_" gradientUnits="userSpaceOnUse" x1="442.6905" y1="370.787" x2="591.1419" y2="370.787">
		<stop  offset="0" style="stop-color:#FF7BAC"/>
		<stop  offset="1" style="stop-color:#FF7BAC;stop-opacity:0"/>
	</linearGradient>
	<path class="st9" d="M471.6,407.6l-28.9,16.7l43.5-75.3c7.6-13.2,18.2-24,30.7-31.7c12.5,7.7,23.1,18.6,30.7,31.7l43.5,75.3
		l-28.9-16.7C534.2,391.4,499.6,391.4,471.6,407.6z"/>
	<linearGradient id="SVGID_11_" gradientUnits="userSpaceOnUse" x1="336.8324" y1="498.1046" x2="443.5649" y2="498.1046">
		<stop  offset="0" style="stop-color:#FF7BAC"/>
		<stop  offset="1" style="stop-color:#FF7BAC;stop-opacity:0"/>
	</linearGradient>
	<path class="st10" d="M443.6,571.9l-75-43.3c-13.2-7.6-24-18.2-31.7-30.7c7.7-12.5,18.6-23.1,31.7-30.7l74.1-42.8l-16,27.7
		c-16.2,28.1-16.2,62.6,0,90.7L443.6,571.9z"/>
	<linearGradient id="SVGID_12_" gradientUnits="userSpaceOnUse" x1="590.2675" y1="498.1046" x2="697" y2="498.1046">
		<stop  offset="0" style="stop-color:#FF7BAC"/>
		<stop  offset="1" style="stop-color:#FF7BAC;stop-opacity:0"/>
	</linearGradient>
	<path class="st11" d="M590.3,571.9l16.9-29.2c16.2-28.1,16.2-62.6,0-90.7l-16-27.7l74.1,42.8c13.2,7.6,24,18.2,31.7,30.7
		c-7.7,12.5-18.6,23.1-31.7,30.7L590.3,571.9z"/>
</g>
</svg>
