<?xml version="1.0" encoding="utf-8"?>
<!-- Generator: Adobe Illustrator 22.0.0, SVG Export Plug-In . SVG Version: 6.00 Build 0)  -->
<svg version="1.1" id="Plastic" xmlns="http://www.w3.org/2000/svg" xmlns:xlink="http://www.w3.org/1999/xlink" x="0px" y="0px"
	 viewBox="0 0 1000 1000" style="enable-background:new 0 0 1000 1000;" xml:space="preserve">
<style type="text/css">
	.st0{fill:#00B70B;}
</style>
<g>
	<path class="st0" d="M549.5,266.9v86c-2.6-1.5-5.4-2.7-8.3-3.8c-6.3-2.3-13-3.5-20.1-3.5h-42.5c-7.6,0-14.9,1.5-21.6,4.2
		c-2.3,0.9-4.5,2-6.7,3.2v-86c0-13.8,11.3-25.2,25.2-25.2h48.8C538.2,241.7,549.5,253.1,549.5,266.9z"/>
	<path class="st0" d="M579.4,394.2v19.6c-24.1,6-51,9.4-79.4,9.4s-55.3-3.4-79.4-9.4v-19.6c0-4.3,0.5-8.5,1.4-12.6
		c1.3-6.1,3.6-11.8,6.7-16.9c2.8-4.8,6.2-9.1,10.2-12.8c0.3-0.3,0.6-0.6,1-0.9c3.3-2.9,6.9-5.5,10.7-7.7c2.2-1.2,4.4-2.3,6.7-3.2
		c6.7-2.7,14-4.2,21.6-4.2h42.5c7.1,0,13.8,1.3,20.1,3.6c2.9,1.1,5.6,2.3,8.3,3.8c3.9,2.2,7.5,4.7,10.7,7.7c0.3,0.3,0.6,0.6,1,0.9
		c4,3.8,7.5,8.1,10.2,12.8v0c3.1,5.2,5.3,10.9,6.7,16.9C579,385.7,579.4,389.9,579.4,394.2z"/>
	<path class="st0" d="M500,456.7c28.4,0,55.3-3.4,79.4-9.4v32.5c-1.5,0.4-3,0.8-4.6,1.1s-3.1,0.7-4.6,1c-1.6,0.4-3.1,0.7-4.7,1
		c-1.6,0.3-3.2,0.6-4.7,0.9c-8.1,1.5-16.4,2.7-24.9,3.6c-1.3,0.1-2.7,0.3-4,0.4c-1.9,0.2-3.9,0.4-5.8,0.5c-1.4,0.1-2.9,0.2-4.3,0.3
		c-1,0.1-2.1,0.1-3.1,0.2c-1.4,0.1-2.9,0.2-4.3,0.2c-1.6,0.1-3.2,0.1-4.8,0.2c-3.2,0.1-6.4,0.1-9.6,0.1c0,0,0,0-0.1,0
		c-3.2,0-6.4,0-9.6-0.1c-1.6-0.1-3.2-0.1-4.8-0.2c-1.6,0-3.2-0.1-4.7-0.2c-1-0.1-2.1-0.1-3.1-0.2c-1.3-0.1-2.7-0.2-4-0.3
		c-4-0.3-7.9-0.7-11.8-1.1c-1.5-0.2-2.9-0.3-4.3-0.5c-1.5-0.2-3-0.4-4.5-0.6c-3-0.4-6-0.9-8.9-1.4c-1.1-0.2-2.2-0.4-3.2-0.6
		c-0.7-0.1-1.3-0.2-2-0.4c-1.6-0.3-3.2-0.6-4.7-0.9c-1.6-0.3-3.2-0.6-4.7-1c-1.5-0.3-3.1-0.7-4.6-1s-3.1-0.7-4.6-1.1v-32.5
		C444.7,453.4,471.6,456.7,500,456.7z"/>
	<path class="st0" d="M500,521.8c28.4,0,55.3-3.4,79.5-9.4v34.4c-24.1,6-51.1,9.4-79.5,9.4s-55.3-3.4-79.4-9.4v-34.4
		C444.7,518.4,471.6,521.8,500,521.8z"/>
	<path class="st0" d="M500,588.7c28.4,0,55.3-3.4,79.5-9.4v33.4c-24.1,6-51.1,9.4-79.5,9.4s-55.3-3.4-79.4-9.4v-33.4
		C444.7,585.3,471.6,588.7,500,588.7z"/>
	<path class="st0" d="M500,654.6c28.4,0,55.3-3.4,79.5-9.4v34.4c-24.1,6-51.1,9.4-79.5,9.4s-55.3-3.4-79.4-9.4v-34.4
		C444.7,651.3,471.6,654.6,500,654.6z"/>
	<path class="st0" d="M500,721.6c28.4,0,55.3-3.4,79.5-9.4v24.1c0,17.4-14.1,31.4-31.5,31.4H452c-17.4,0-31.4-14.1-31.4-31.4v-24.1
		C444.7,718.2,471.6,721.6,500,721.6z"/>
</g>
<g>
	<path class="st0" d="M747.7,377.7v67c-2.1-1.1-4.2-2.1-6.4-3c-4.9-1.8-10.1-2.8-15.6-2.8h-33.1c-6,0-11.6,1.1-16.8,3.2
		c-1.8,0.7-3.5,1.5-5.2,2.5v-67c0-10.8,8.8-19.6,19.6-19.6h38C738.9,358.1,747.7,367,747.7,377.7z"/>
	<path class="st0" d="M771,476.9v15.3c-18.8,4.7-39.7,7.3-61.8,7.3c-22.1,0-43.1-2.6-61.8-7.3v-15.3c0-3.4,0.4-6.6,1.1-9.8
		c1-4.7,2.8-9.2,5.2-13.2c2.2-3.7,4.8-7.1,7.9-10c0.3-0.2,0.5-0.5,0.7-0.7c2.5-2.3,5.3-4.3,8.3-6c1.7-0.9,3.4-1.8,5.2-2.5
		c5.2-2.1,10.9-3.2,16.9-3.2h33.1c5.5,0,10.8,1,15.6,2.8c2.2,0.8,4.4,1.8,6.4,3c3,1.7,5.8,3.7,8.3,6c0.3,0.2,0.5,0.4,0.7,0.7
		c3.1,2.9,5.8,6.3,7.9,10v0c2.4,4,4.1,8.5,5.2,13.2C770.6,470.3,771,473.6,771,476.9z"/>
	<path class="st0" d="M709.1,525.5c22.1,0,43.1-2.6,61.8-7.3v25.3c-1.2,0.3-2.4,0.6-3.5,0.9c-1.2,0.3-2.4,0.5-3.6,0.8
		c-1.2,0.3-2.4,0.5-3.6,0.8c-1.2,0.3-2.5,0.5-3.7,0.7c-6.3,1.1-12.8,2.1-19.4,2.8c-1,0.1-2.1,0.2-3.1,0.3c-1.5,0.1-3,0.3-4.5,0.4
		c-1.1,0.1-2.2,0.2-3.3,0.2c-0.8,0.1-1.6,0.1-2.4,0.1c-1.1,0.1-2.2,0.1-3.4,0.2c-1.2,0.1-2.5,0.1-3.7,0.1c-2.5,0.1-5,0.1-7.5,0.1
		c0,0,0,0,0,0c-2.5,0-5,0-7.5-0.1c-1.2,0-2.5-0.1-3.7-0.1c-1.2,0-2.5-0.1-3.7-0.2c-0.8,0-1.6-0.1-2.4-0.1c-1-0.1-2.1-0.1-3.1-0.2
		c-3.1-0.2-6.2-0.5-9.2-0.8c-1.1-0.1-2.2-0.3-3.4-0.4c-1.2-0.1-2.4-0.3-3.5-0.4c-2.3-0.3-4.6-0.7-6.9-1.1c-0.9-0.1-1.7-0.3-2.5-0.4
		c-0.5-0.1-1-0.2-1.5-0.3c-1.2-0.2-2.5-0.4-3.7-0.7c-1.2-0.2-2.5-0.5-3.7-0.8c-1.2-0.3-2.4-0.5-3.6-0.8c-1.2-0.3-2.4-0.6-3.5-0.9
		v-25.3C666.1,522.9,687,525.5,709.1,525.5z"/>
	<path class="st0" d="M709.1,576.2c22.1,0,43.1-2.6,61.9-7.3v26.8c-18.8,4.7-39.8,7.3-61.9,7.3c-22.1,0-43.1-2.6-61.8-7.3v-26.8
		C666.1,573.6,687,576.2,709.1,576.2z"/>
	<path class="st0" d="M709.1,628.3c22.1,0,43.1-2.6,61.9-7.3v26c-18.8,4.7-39.8,7.3-61.9,7.3c-22.1,0-43.1-2.6-61.8-7.3v-26
		C666.1,625.7,687,628.3,709.1,628.3z"/>
	<path class="st0" d="M709.1,679.7c22.1,0,43.1-2.6,61.9-7.3v26.8c-18.8,4.7-39.8,7.3-61.9,7.3c-22.1,0-43.1-2.6-61.8-7.3v-26.8
		C666.1,677.1,687,679.7,709.1,679.7z"/>
	<path class="st0" d="M709.1,731.8c22.1,0,43.1-2.6,61.9-7.3v18.8c0,13.5-11,24.5-24.5,24.5h-74.7c-13.5,0-24.5-11-24.5-24.5v-18.8
		C666.1,729.2,687,731.8,709.1,731.8z"/>
</g>
<g>
	<path class="st0" d="M329.4,377.7v67c-2.1-1.1-4.2-2.1-6.4-3c-4.9-1.8-10.1-2.8-15.6-2.8h-33.1c-6,0-11.6,1.1-16.8,3.2
		c-1.8,0.7-3.5,1.5-5.2,2.5v-67c0-10.8,8.8-19.6,19.6-19.6h38C320.6,358.1,329.4,367,329.4,377.7z"/>
	<path class="st0" d="M352.7,476.9v15.3c-18.8,4.7-39.7,7.3-61.8,7.3s-43.1-2.6-61.8-7.3v-15.3c0-3.4,0.4-6.6,1.1-9.8
		c1-4.7,2.8-9.2,5.2-13.2c2.2-3.7,4.8-7.1,7.9-10c0.3-0.2,0.5-0.5,0.7-0.7c2.5-2.3,5.3-4.3,8.3-6c1.7-0.9,3.4-1.8,5.2-2.5
		c5.2-2.1,10.9-3.2,16.9-3.2h33.1c5.5,0,10.8,1,15.6,2.8c2.2,0.8,4.4,1.8,6.4,3c3,1.7,5.8,3.7,8.3,6c0.3,0.2,0.5,0.4,0.7,0.7
		c3.1,2.9,5.8,6.3,7.9,10v0c2.4,4,4.1,8.5,5.2,13.2C352.3,470.3,352.7,473.6,352.7,476.9z"/>
	<path class="st0" d="M290.9,525.5c22.1,0,43.1-2.6,61.8-7.3v25.3c-1.2,0.3-2.4,0.6-3.5,0.9c-1.2,0.3-2.4,0.5-3.6,0.8
		c-1.2,0.3-2.4,0.5-3.6,0.8c-1.2,0.3-2.5,0.5-3.7,0.7c-6.3,1.1-12.8,2.1-19.4,2.8c-1,0.1-2.1,0.2-3.1,0.3c-1.5,0.1-3,0.3-4.5,0.4
		c-1.1,0.1-2.2,0.2-3.3,0.2c-0.8,0.1-1.6,0.1-2.4,0.1c-1.1,0.1-2.2,0.1-3.4,0.2c-1.2,0.1-2.5,0.1-3.7,0.1c-2.5,0.1-5,0.1-7.5,0.1
		c0,0,0,0,0,0c-2.5,0-5,0-7.5-0.1c-1.2,0-2.5-0.1-3.7-0.1c-1.2,0-2.5-0.1-3.7-0.2c-0.8,0-1.6-0.1-2.4-0.1c-1-0.1-2.1-0.1-3.1-0.2
		c-3.1-0.2-6.2-0.5-9.2-0.8c-1.1-0.1-2.2-0.3-3.4-0.4c-1.2-0.1-2.4-0.3-3.5-0.4c-2.3-0.3-4.6-0.7-6.9-1.1c-0.9-0.1-1.7-0.3-2.5-0.4
		c-0.5-0.1-1-0.2-1.5-0.3c-1.2-0.2-2.5-0.4-3.7-0.7c-1.2-0.2-2.5-0.5-3.7-0.8c-1.2-0.3-2.4-0.5-3.6-0.8c-1.2-0.3-2.4-0.6-3.5-0.9
		v-25.3C247.8,522.9,268.7,525.5,290.9,525.5z"/>
	<path class="st0" d="M290.8,576.2c22.1,0,43.1-2.6,61.9-7.3v26.8c-18.8,4.7-39.8,7.3-61.9,7.3s-43.1-2.6-61.8-7.3v-26.8
		C247.8,573.6,268.7,576.2,290.8,576.2z"/>
	<path class="st0" d="M290.8,628.3c22.1,0,43.1-2.6,61.9-7.3v26c-18.8,4.7-39.8,7.3-61.9,7.3s-43.1-2.6-61.8-7.3v-26
		C247.8,625.7,268.7,628.3,290.8,628.3z"/>
	<path class="st0" d="M290.8,679.7c22.1,0,43.1-2.6,61.9-7.3v26.8c-18.8,4.7-39.8,7.3-61.9,7.3s-43.1-2.6-61.8-7.3v-26.8
		C247.8,677.1,268.7,679.7,290.8,679.7z"/>
	<path class="st0" d="M290.8,731.8c22.1,0,43.1-2.6,61.9-7.3v18.8c0,13.5-11,24.5-24.5,24.5h-74.7c-13.5,0-24.5-11-24.5-24.5v-18.8
		C247.8,729.2,268.7,731.8,290.8,731.8z"/>
</g>
</svg>
