<?xml version="1.0" encoding="utf-8"?>
<!-- Generator: Adobe Illustrator 22.0.0, SVG Export Plug-In . SVG Version: 6.00 Build 0)  -->
<svg version="1.1" id="Layer_1" xmlns="http://www.w3.org/2000/svg" xmlns:xlink="http://www.w3.org/1999/xlink" x="0px" y="0px"
	 viewBox="0 0 1000 1000" style="enable-background:new 0 0 1000 1000;" xml:space="preserve">
<style type="text/css">
	.st0{fill:#EFEFEF;}
	.st1{fill:#525252;}
	.st2{fill:#4C4C4C;}
	.st3{opacity:0.1;}
</style>
<path class="st0" d="M679.2,329.3c0,43.6-17.5,83.2-45.9,112c-29,29.4-69.3,47.7-113.8,47.7s-84.8-18.2-113.8-47.7
	c-28.4-28.8-45.9-68.4-45.9-112c0-41.6,15.9-79.4,41.9-107.8c29.2-31.9,71.2-51.9,117.8-51.9s88.6,20,117.8,51.9
	C663.3,249.9,679.2,287.7,679.2,329.3z"/>
<path class="st1" d="M745.3,594.1v177.2c0,88.1-72.1,160.2-160.2,160.2H453.9c-88.1,0-160.2-72.1-160.2-160.2V594.1
	c0-71.3,47.3-132.2,112-152.8c15.2-4.9,31.4-7.5,48.2-7.5h131.2c16.8,0,33,2.6,48.2,7.5C698.1,461.9,745.3,522.8,745.3,594.1z"/>
<circle class="st0" cx="519.5" cy="682.7" r="34.5"/>
<circle class="st0" cx="519.5" cy="809.1" r="34.5"/>
<circle class="st0" cx="519.5" cy="556.3" r="34.5"/>
<path class="st1" d="M676.4,221.5H362.6c-15.6,0-21.3-20.6-7.9-28.6l53.4-31.7c11.1-6.6,18-18.6,18-31.5V84.7
	c0-10.5,9.8-18.2,20.1-15.8c21.8,5.1,46.8,8,73.4,8c26.6,0,51.6-2.9,73.3-8c10.3-2.4,20.1,5.3,20.1,15.8v44.9c0,13,6.8,24.9,18,31.5
	l53.4,31.7C697.7,200.8,692.1,221.5,676.4,221.5z"/>
<path class="st2" d="M650.5,307.9c-3.1-17.6-33.1-26.9-67-20.9c-25.2,4.5-45.4,16.1-52.9,29c-2.2,3.8-6.1,6.2-10.5,6.2h-1.1
	c-4.4,0-8.3-2.4-10.5-6.2c-7.5-12.9-27.7-24.6-52.9-29c-33.9-6-63.9,3.3-67,20.9c-3.1,17.6,21.8,36.7,55.8,42.7
	c28.9,5.1,54.9-0.9,64-13.7c2.3-3.2,5.9-5.2,9.8-5.2h2.9c3.9,0,7.6,1.9,9.8,5.2c9,12.8,35.1,18.8,64,13.7
	C628.6,344.6,653.6,325.4,650.5,307.9z M478.4,338.9c-7.2,0-13.1-5.8-13.1-13.1c0-7.2,5.9-13.1,13.1-13.1c7.2,0,13.1,5.9,13.1,13.1
	C491.5,333.1,485.6,338.9,478.4,338.9z M560.6,338.9c-7.2,0-13.1-5.8-13.1-13.1c0-7.2,5.9-13.1,13.1-13.1c7.2,0,13.1,5.9,13.1,13.1
	C573.7,333.1,567.8,338.9,560.6,338.9z"/>
<path class="st3" d="M745.3,594.1v177.2c0,88.1-72.1,160.2-160.2,160.2h-65.6V76.9c26.6,0,51.6-2.9,73.3-8
	c10.3-2.4,20.1,5.3,20.1,15.8v44.9c0,13,6.8,24.9,18,31.5l53.4,31.7c13.4,8,7.7,28.6-7.9,28.6h-39.1c26,28.4,41.9,66.3,41.9,107.8
	c0,43.6-17.5,83.2-45.9,112C698.1,461.9,745.3,522.8,745.3,594.1z"/>
</svg>
