<?xml version="1.0" encoding="utf-8"?>
<!-- Generator: Adobe Illustrator 22.0.0, SVG Export Plug-In . SVG Version: 6.00 Build 0)  -->
<svg version="1.1" xmlns="http://www.w3.org/2000/svg" xmlns:xlink="http://www.w3.org/1999/xlink" x="0px" y="0px"
	 viewBox="0 0 1000 1000" style="enable-background:new 0 0 1000 1000;" xml:space="preserve">
<style type="text/css">
	.st0{fill:#FD306D;}
	.st1{fill:#FFFFFF;}
</style>
<g id="Layer_1">
	<path class="st0" d="M850,1000H150C67.2,1000,0,932.8,0,850V150C0,67.2,67.2,0,150,0h700c82.8,0,150,67.2,150,150v700
		C1000,932.8,932.8,1000,850,1000z"/>
	<path class="st1" d="M775,950H225c-82.8,0-150-67.2-150-150V280c0-16.6,13.4-30,30-30h790c16.6,0,30,13.4,30,30v520
		C925,882.8,857.8,950,775,950z"/>
	<g>
		<circle class="st1" cx="244" cy="129.3" r="31.2"/>
		<circle class="st1" cx="756" cy="129.3" r="31.2"/>
	</g>
</g>
<g id="Layer_3">
</g>
<g id="Layer_2">
	<g>
		<g>
			<path class="st0" d="M547,829h-94c-13.8,0-25-11.2-25-25v-38c0-13.8,11.2-25,25-25h94c13.8,0,25,11.2,25,25v38
				C572,817.8,560.8,829,547,829z"/>
			<path class="st0" d="M291,829h-94c-13.8,0-25-11.2-25-25v-38c0-13.8,11.2-25,25-25h94c13.8,0,25,11.2,25,25v38
				C316,817.8,304.8,829,291,829z"/>
			<path class="st0" d="M803,829h-94c-13.8,0-25-11.2-25-25v-38c0-13.8,11.2-25,25-25h94c13.8,0,25,11.2,25,25v38
				C828,817.8,816.8,829,803,829z"/>
		</g>
		<g>
			<path class="st0" d="M547,627h-94c-13.8,0-25-11.2-25-25v-38c0-13.8,11.2-25,25-25h94c13.8,0,25,11.2,25,25v38
				C572,615.8,560.8,627,547,627z"/>
			<path class="st0" d="M291,627h-94c-13.8,0-25-11.2-25-25v-38c0-13.8,11.2-25,25-25h94c13.8,0,25,11.2,25,25v38
				C316,615.8,304.8,627,291,627z"/>
			<path class="st0" d="M803,627h-94c-13.8,0-25-11.2-25-25v-38c0-13.8,11.2-25,25-25h94c13.8,0,25,11.2,25,25v38
				C828,615.8,816.8,627,803,627z"/>
		</g>
		<g>
			<path class="st0" d="M547,425h-94c-13.8,0-25-11.2-25-25v-38c0-13.8,11.2-25,25-25h94c13.8,0,25,11.2,25,25v38
				C572,413.8,560.8,425,547,425z"/>
			<path class="st0" d="M291,425h-94c-13.8,0-25-11.2-25-25v-38c0-13.8,11.2-25,25-25h94c13.8,0,25,11.2,25,25v38
				C316,413.8,304.8,425,291,425z"/>
			<path class="st0" d="M803,425h-94c-13.8,0-25-11.2-25-25v-38c0-13.8,11.2-25,25-25h94c13.8,0,25,11.2,25,25v38
				C828,413.8,816.8,425,803,425z"/>
		</g>
	</g>
</g>
</svg>
