<?xml version="1.0" encoding="utf-8"?>
<!-- Generator: Adobe Illustrator 22.0.0, SVG Export Plug-In . SVG Version: 6.00 Build 0)  -->
<svg version="1.1" id="Layer_1" xmlns="http://www.w3.org/2000/svg" xmlns:xlink="http://www.w3.org/1999/xlink" x="0px" y="0px"
	 viewBox="0 0 1000 1000" style="enable-background:new 0 0 1000 1000;" xml:space="preserve">
<style type="text/css">
	.st0{fill:none;stroke:#000000;stroke-width:20;stroke-miterlimit:10;}
</style>
<path class="st0" d="M376.2,551.3c0.8,23.4,2.3,46.3,4.2,68.3c-25.9-2.3-50.7-5.2-74.2-8.9c0.5-2.6,0.8-5.3,0.8-8.1
	c0-7.9-2.1-15.4-5.8-21.8c-3.8-6.7-9.4-12.3-16.1-16.1c-6.4-3.7-13.8-5.8-21.8-5.8c-7.9,0-15.4,2.1-21.8,5.8
	c-6.7,3.9-12.3,9.4-16.1,16.1c-2.2,3.8-3.8,8-4.8,12.4c-87-22.9-141.8-56.2-141.8-93.3c0-41.8,69.5-78.8,176.2-101.5
	c37.6-8,79.9-14.2,125.4-18.2c-1.9,22.1-3.3,44.9-4.2,68.3c-0.6,16.8-0.9,33.9-0.9,51.3S375.6,534.5,376.2,551.3z"/>
<path class="st0" d="M921.2,500c0,41.8-69.5,78.8-176.2,101.5c-37.6,8-79.9,14.2-125.4,18.2c1.9-22.1,3.3-44.9,4.2-68.3
	c0.6-16.8,0.9-33.9,0.9-51.3s-0.3-34.5-0.9-51.3c-0.8-23.4-2.3-46.3-4.2-68.3c25.9,2.3,50.7,5.2,74.2,8.9c-0.5,2.7-0.8,5.5-0.8,8.4
	c0,7.9,2.1,15.3,5.8,21.8c3.9,6.7,9.4,12.3,16.1,16.1c6.4,3.7,13.8,5.8,21.8,5.8c7.9,0,15.4-2.1,21.8-5.8
	c6.7-3.9,12.3-9.4,16.1-16.1c2.2-3.9,3.9-8.2,4.9-12.7C866.4,429.5,921.2,462.9,921.2,500z"/>
<path class="st0" d="M619.6,619.6c-4,45.5-10.2,87.7-18.2,125.4c-2.5,11.7-5.1,22.9-7.9,33.6c-4.5-1.6-9.3-2.4-14.3-2.4
	c-7.9,0-15.4,2.1-21.8,5.8c-6.7,3.9-12.3,9.4-16.1,16.1c-2.2,3.8-3.8,8-4.8,12.4c-0.7,3-1,6.1-1,9.3c0,7.9,2.1,15.4,5.8,21.8
	c3.9,6.7,9.4,12.3,16.1,16.1c2.1,1.2,4.4,2.3,6.8,3.2c-18.8,38.3-40.8,60.3-64.3,60.3c-41.8,0-78.8-69.5-101.5-176.2
	c-8-37.6-14.2-79.9-18.2-125.4c22.1,1.9,44.9,3.3,68.3,4.2c16.8,0.6,33.9,0.9,51.3,0.9c17.4,0,34.5-0.3,51.3-0.9
	C574.7,623,597.5,621.6,619.6,619.6z"/>
<path class="st0" d="M619.6,380.4c-22.1-1.9-44.9-3.3-68.3-4.2c-16.8-0.6-33.9-0.9-51.3-0.9c-17.4,0-34.5,0.3-51.3,0.9
	c-23.4,0.8-46.3,2.3-68.3,4.2c4-45.5,10.2-87.7,18.2-125.4c3-14,6.2-27.3,9.6-39.9c3.9,1.1,8,1.7,12.3,1.7c7.9,0,15.4-2.1,21.8-5.8
	c6.7-3.9,12.3-9.4,16.1-16.1c2.2-3.9,3.9-8.2,4.9-12.7c0.6-2.9,0.9-5.9,0.9-9c0-7.9-2.1-15.4-5.8-21.8c-3.8-6.7-9.4-12.3-16.1-16.1
	c-1.2-0.7-2.4-1.3-3.6-1.9c18.1-34.8,39.1-54.6,61.5-54.6c41.8,0,78.8,69.5,101.5,176.2C609.5,292.7,615.7,334.9,619.6,380.4z"/>
<path class="st0" d="M579.3,500.3c0,11.7-7.6,21.7-18.2,25.2h0c-1.2-2.4-2.9-4.7-4.9-6.8c-2.4-2.4-5.1-4.2-8-5.5
	c1.1-4.2,1.8-8.6,1.8-13.2c0-4.6-0.6-9-1.8-13.2c2.9-1.3,5.6-3.1,8-5.5c1.9-1.9,3.4-4,4.6-6.2C571.5,478.5,579.3,488.5,579.3,500.3z
	"/>
<path class="st0" d="M450.1,500c0,4.6,0.6,9,1.8,13.2c-2.9,1.3-5.6,3.1-8,5.5c-2.1,2.1-3.7,4.4-5,6.9c-10.7-3.4-18.5-13.4-18.5-25.2
	c0-12,7.9-22,18.8-25.3c1.2,2.3,2.7,4.4,4.6,6.3c2.4,2.4,5.1,4.2,8,5.5C450.7,491,450.1,495.4,450.1,500z"/>
<path class="st0" d="M525.2,560.9c-3.3,10.9-13.4,18.9-25.4,18.9c-11.9,0-22-7.9-25.3-18.7c2.4-1.2,4.7-2.9,6.8-4.9
	c2.4-2.4,4.2-5.1,5.5-8c4.2,1.2,8.6,1.8,13.2,1.8s9-0.6,13.2-1.8c1.3,2.9,3.1,5.6,5.5,8C520.7,558.1,522.9,559.7,525.2,560.9z"/>
<path class="st0" d="M525,439.2c-2.3,1.2-4.4,2.8-6.3,4.7c-2.4,2.4-4.2,5.1-5.5,8c-4.2-1.1-8.6-1.8-13.2-1.8s-9,0.6-13.2,1.8
	c-1.3-2.9-3.1-5.6-5.5-8c-2-2-4.2-3.6-6.6-4.8c3.5-10.5,13.4-18.1,25.1-18.1C511.6,420.9,521.6,428.5,525,439.2z"/>
<path class="st0" d="M306.9,602.7c0,2.8-0.3,5.5-0.8,8.1c-0.9,4.9-2.6,9.5-5,13.7c-3.8,6.7-9.4,12.3-16.1,16.1
	c-6.4,3.7-13.8,5.8-21.8,5.8c-7.9,0-15.4-2.1-21.8-5.8c-6.7-3.9-12.3-9.4-16.1-16.1c-3.7-6.4-5.8-13.8-5.8-21.8c0-3.2,0.3-6.3,1-9.3
	c1-4.4,2.6-8.6,4.8-12.4c3.9-6.7,9.4-12.3,16.1-16.1c6.4-3.7,13.8-5.8,21.8-5.8c7.9,0,15.4,2.1,21.8,5.8c6.7,3.9,12.3,9.4,16.1,16.1
	C304.8,587.3,306.9,594.8,306.9,602.7z"/>
<path class="st0" d="M780.4,397.7c0,3.1-0.3,6.1-0.9,9c-1,4.5-2.6,8.8-4.9,12.7c-3.8,6.7-9.4,12.3-16.1,16.1
	c-6.4,3.7-13.8,5.8-21.8,5.8c-7.9,0-15.3-2.1-21.8-5.8c-6.7-3.9-12.3-9.4-16.1-16.1c-3.7-6.4-5.8-13.8-5.8-21.8
	c0-2.9,0.3-5.7,0.8-8.4c0.9-4.8,2.6-9.3,5-13.3c3.9-6.7,9.4-12.3,16.1-16.1c6.4-3.7,13.8-5.8,21.8-5.8c7.9,0,15.4,2.1,21.8,5.8
	c6.7,3.8,12.3,9.4,16.1,16.1C778.3,382.3,780.4,389.7,780.4,397.7z"/>
<path class="st0" d="M464.1,173.2c0,3.1-0.3,6.1-0.9,9c-1,4.5-2.6,8.8-4.9,12.7c-3.8,6.7-9.4,12.3-16.1,16.1
	c-6.4,3.7-13.8,5.8-21.8,5.8c-4.3,0-8.4-0.6-12.3-1.7c-3.3-1-6.5-2.3-9.5-4c-6.7-3.9-12.3-9.4-16.1-16.1c-3.7-6.4-5.8-13.8-5.8-21.8
	c0-2.9,0.3-5.7,0.8-8.4c0.9-4.8,2.6-9.3,5-13.3c3.9-6.7,9.4-12.3,16.1-16.1c6.4-3.7,13.8-5.8,21.8-5.8c6.5,0,12.6,1.4,18.1,3.9
	c1.3,0.6,2.5,1.2,3.6,1.9c6.7,3.8,12.3,9.4,16.1,16.1C462,157.8,464.1,165.3,464.1,173.2z"/>
<path class="st0" d="M623,819.8c0,2.8-0.3,5.5-0.8,8.1c-0.9,4.9-2.6,9.5-5,13.7c-3.8,6.7-9.4,12.3-16.1,16.1
	c-6.4,3.7-13.8,5.8-21.8,5.8c-5.3,0-10.3-0.9-15-2.6c-2.4-0.9-4.6-1.9-6.8-3.2c-6.7-3.9-12.3-9.4-16.1-16.1
	c-3.7-6.4-5.8-13.8-5.8-21.8c0-3.2,0.3-6.3,1-9.3c1-4.4,2.6-8.6,4.8-12.4c3.9-6.7,9.4-12.3,16.1-16.1c6.4-3.7,13.8-5.8,21.8-5.8
	c5,0,9.8,0.8,14.3,2.4c2.6,0.9,5.1,2,7.5,3.4c6.7,3.9,12.3,9.4,16.1,16.1C620.9,804.5,623,811.9,623,819.8z"/>
<path class="st0" d="M556.2,556.2c-8.4,8.4-21,10-31,4.8c-2.3-1.2-4.5-2.8-6.5-4.8c-2.4-2.4-4.2-5.1-5.5-8
	c16.9-4.6,30.3-18,34.9-34.9c2.9,1.3,5.6,3.1,8,5.5c2,2,3.7,4.3,4.9,6.8h0C566.1,535.4,564.5,547.9,556.2,556.2z"/>
<path class="st0" d="M486.8,451.8c-17,4.6-30.3,18-34.9,34.9c-2.9-1.3-5.6-3.1-8-5.5c-1.9-1.9-3.4-4-4.6-6.3
	c-5.4-10-3.8-22.7,4.6-31.2c8.4-8.4,20.9-10,30.9-4.8c2.4,1.2,4.6,2.8,6.6,4.8C483.7,446.2,485.5,448.9,486.8,451.8z"/>
<path class="st0" d="M486.8,548.1c-1.3,2.9-3.1,5.6-5.5,8c-2,2-4.3,3.7-6.8,4.9c-9.9,5.1-22.4,3.4-30.7-4.9
	c-8.3-8.3-9.9-20.7-5-30.6c1.3-2.5,2.9-4.8,5-6.9c2.4-2.4,5.1-4.2,8-5.5C456.5,530.2,469.8,543.5,486.8,548.1z"/>
<path class="st0" d="M560.8,475.1c-1.2,2.2-2.7,4.3-4.6,6.2c-2.4,2.4-5.1,4.2-8,5.5c-4.6-17-18-30.3-34.9-34.9
	c1.3-2.9,3.1-5.6,5.5-8c1.9-1.9,4-3.5,6.3-4.7c10-5.3,22.7-3.8,31.2,4.7C564.7,452.3,566.2,465,560.8,475.1z"/>
<path class="st0" d="M549.9,500c0,4.6-0.6,9-1.8,13.2c-4.6,16.9-18,30.3-34.9,34.9c-4.2,1.2-8.6,1.8-13.2,1.8s-9-0.6-13.2-1.8
	c-16.9-4.6-30.3-18-34.9-34.9c-1.1-4.2-1.8-8.7-1.8-13.2c0-4.6,0.6-9,1.8-13.2c4.6-17,18-30.3,34.9-34.9c4.2-1.1,8.6-1.8,13.2-1.8
	s9,0.6,13.2,1.8c17,4.6,30.3,18,34.9,34.9C549.3,491,549.9,495.4,549.9,500z"/>
</svg>
