<?xml version="1.0" encoding="utf-8"?>
<!-- Generator: Adobe Illustrator 22.0.0, SVG Export Plug-In . SVG Version: 6.00 Build 0)  -->
<svg version="1.1" id="Layer_1" xmlns="http://www.w3.org/2000/svg" xmlns:xlink="http://www.w3.org/1999/xlink" x="0px" y="0px"
	 viewBox="0 0 1000 1000" style="enable-background:new 0 0 1000 1000;" xml:space="preserve">
<style type="text/css">
	.st0{fill:#FFB408;}
	.st1{opacity:0.1;}
</style>
<path class="st0" d="M707,500c0,10.2-3.9,20.4-11.7,28.2L398.2,825.3c-15.6,15.6-40.8,15.6-56.4,0l-37.2-37.2
	c-15.6-15.6-15.6-40.8,0-56.4l203.5-203.5c7.8-7.8,11.7-18,11.7-28.2c0-10.2-3.9-20.4-11.7-28.2L304.6,268.3
	c-15.6-15.6-15.6-40.8,0-56.4l37.2-37.2c15.6-15.6,40.8-15.6,56.4,0l297.1,297.1C703.2,479.6,707,489.8,707,500z"/>
<path class="st1" d="M707,500c0,10.2-3.9,20.4-11.7,28.2L398.2,825.3c-15.6,15.6-40.8,15.6-56.4,0l-37.2-37.2
	c-15.6-15.6-15.6-40.8,0-56.4l203.5-203.5c7.8-7.8,11.7-18,11.7-28.2H707z"/>
<rect x="-378" y="-213.5" style="fill:none;" width="5.5" height="1"/>
</svg>
