<?xml version="1.0" encoding="utf-8"?>
<!-- Generator: Adobe Illustrator 22.0.0, SVG Export Plug-In . SVG Version: 6.00 Build 0)  -->
<svg version="1.1" id="Layer_1" xmlns="http://www.w3.org/2000/svg" xmlns:xlink="http://www.w3.org/1999/xlink" x="0px" y="0px"
	 viewBox="0 0 2000 2000" style="enable-background:new 0 0 2000 2000;" xml:space="preserve">
<style type="text/css">
	.st0{fill:#FFC81D;stroke:#000000;stroke-width:30;stroke-miterlimit:10;}
	.st1{opacity:0.1;stroke:#000000;stroke-width:30;stroke-miterlimit:10;}
	.st2{opacity:0.1;}
</style>
<path class="st0" d="M720.9,750.4h-342c-44.2,0-80.1-35.8-80.1-80.1V459.1c0-44.2,35.8-80.1,80.1-80.1h342
	c44.2,0,80.1,35.8,80.1,80.1v211.2C801,714.5,765.2,750.4,720.9,750.4z"/>
<path class="st0" d="M1621.1,548c44.2,0,80.1,35.8,80.1,80.1v644.2c0,31.8-25.8,57.6-57.6,57.6H356.5c-17.5,0-33.2-7.8-43.8-20.2
	c-8.6-10.1-13.8-23.1-13.8-37.4V628.1c0-44.2,35.8-80.1,80.1-80.1H1621.1z"/>
<path class="st0" d="M1701.1,797.1v644.2c0,31.8-25.8,57.6-57.6,57.6H356.5c-17.5,0-33.2-7.8-43.8-20.2
	c-8.6-10.1-13.8-23.1-13.8-37.4V797.1c0-25.8,12.2-48.8,31.2-63.4c13.5-10.5,30.5-16.7,48.9-16.7h1242.1
	C1665.3,717,1701.1,752.8,1701.1,797.1z"/>
<path class="st1" d="M1406,993H744c-22.6,0-41-18.4-41-41v-47c0-22.6,18.4-41,41-41h662c22.6,0,41,18.4,41,41v47
	C1447,974.6,1428.6,993,1406,993z"/>
<path class="st1" d="M1406,1353.5H744c-22.6,0-41-18.4-41-41v-47c0-22.6,18.4-41,41-41h662c22.6,0,41,18.4,41,41v47
	C1447,1335.1,1428.6,1353.5,1406,1353.5z"/>
<path class="st2" d="M1701.1,591.5v205.5c0-44.2-35.8-80.1-80.1-80.1h-177.3L1670,564.7L1701.1,591.5z"/>
<path class="st2" d="M1701.1,797.1v644.2c0,31.8-25.8,57.6-57.6,57.6H356.5c-17.5,0-33.2-7.8-43.8-20.2L1033.9,993l191.6-129
	l218.3-147h177.3C1665.3,717,1701.1,752.8,1701.1,797.1z"/>
</svg>
