<?xml version="1.0" encoding="utf-8"?>
<!-- Generator: Adobe Illustrator 22.0.0, SVG Export Plug-In . SVG Version: 6.00 Build 0)  -->
<svg version="1.1" id="Layer_1" xmlns="http://www.w3.org/2000/svg" xmlns:xlink="http://www.w3.org/1999/xlink" x="0px" y="0px"
	 viewBox="0 0 1000 1000" style="enable-background:new 0 0 1000 1000;" xml:space="preserve">
<style type="text/css">
	.st0{fill:#FF6699;}
	.st1{fill:#990033;}
	.st2{fill:#66CCFF;}
	.st3{fill:#FB4B02;}
	.st4{fill:#FFFE56;}
</style>
<path class="st0" d="M925,513.9H75c0-11.2,1.6-22,4.5-32.2c5.3-18.5,14.9-35,27.8-48.3c19.9-20.6,47.5-33.4,77.9-33.4h629.6
	c50,0,92.3,34.5,105.7,81.7C923.4,491.9,925,502.7,925,513.9z"/>
<path class="st0" d="M925,513.9V650H75V513.9c0-11.2,1.6-22,4.5-32.2c5.3-18.5,14.9-35,27.8-48.3c19.9-20.6,47.5-33.4,77.9-33.4
	h629.6c50,0,92.3,34.5,105.7,81.7C923.4,491.9,925,502.7,925,513.9z"/>
<path class="st1" d="M50,338.5L50,338.5z"/>
<path class="st2" d="M925,513.9v58.5c-1.6-1.3-3.1-2.7-4.6-4.2c-8.9-9.2-20.6-13.8-32.3-13.8c-11.7,0-23.4,4.6-32.3,13.8
	c-8.9,9.2-20.6,13.9-32.3,13.9s-23.4-4.6-32.3-13.9c-8.9-9.2-20.6-13.8-32.3-13.8c-11.7,0-23.4,4.6-32.3,13.8
	c-8.9,9.2-20.6,13.9-32.3,13.9c-11.7,0-23.4-4.6-32.3-13.9c-8.9-9.2-20.6-13.8-32.3-13.8c-11.7,0-23.4,4.6-32.3,13.8
	c-8.9,9.2-20.6,13.9-32.3,13.9c-11.7,0-23.4-4.6-32.3-13.9c-8.9-9.2-20.6-13.8-32.3-13.8s-23.4,4.6-32.3,13.8
	c-8.9,9.2-20.6,13.9-32.3,13.9c-11.7,0-23.4-4.6-32.3-13.9c-8.9-9.2-20.6-13.8-32.3-13.8c-11.7,0-23.4,4.6-32.3,13.8
	c-8.9,9.2-20.6,13.9-32.3,13.9c-11.7,0-23.4-4.6-32.3-13.9c-8.9-9.2-20.6-13.8-32.3-13.8c-11.7,0-23.4,4.6-32.3,13.8
	c-8.9,9.2-20.6,13.9-32.3,13.9s-23.4-4.6-32.3-13.9c-8.9-9.2-20.6-13.8-32.3-13.8c-11.7,0-23.4,4.6-32.3,13.8
	c-1.5,1.5-3,2.9-4.6,4.2v-58.5c0-11.2,1.6-22,4.5-32.2l0.1,0.1c8.9,9.2,20.6,13.8,32.3,13.8c11.7,0,23.4-4.6,32.3-13.8
	c8.9-9.2,20.6-13.8,32.3-13.8s23.4,4.6,32.3,13.8c8.9,9.2,20.6,13.8,32.3,13.8c11.7,0,23.4-4.6,32.3-13.8
	c8.9-9.2,20.6-13.8,32.3-13.8c11.7,0,23.4,4.6,32.3,13.8c8.9,9.2,20.6,13.8,32.3,13.8c11.7,0,23.4-4.6,32.3-13.8
	c8.9-9.2,20.6-13.8,32.3-13.8c11.7,0,23.4,4.6,32.3,13.8c8.9,9.2,20.6,13.8,32.3,13.8s23.4-4.6,32.3-13.8
	c8.9-9.2,20.6-13.8,32.3-13.8c11.7,0,23.4,4.6,32.3,13.8c8.9,9.2,20.6,13.8,32.3,13.8c11.7,0,23.4-4.6,32.3-13.8
	c8.9-9.2,20.6-13.8,32.3-13.8c11.7,0,23.4,4.6,32.3,13.8c8.9,9.2,20.6,13.8,32.3,13.8c11.7,0,23.4-4.6,32.3-13.8
	c8.9-9.2,20.6-13.8,32.3-13.8s23.4,4.6,32.3,13.8c8.9,9.2,20.6,13.8,32.3,13.8c11.7,0,23.4-4.6,32.3-13.8l0.1-0.1
	C923.4,491.9,925,502.7,925,513.9z"/>
<g>
	<path class="st2" d="M524.7,243.8v108.7c0,8.4-6.8,15.2-15.2,15.2h-18.9c-8.4,0-15.2-6.8-15.2-15.2V243.8c0-8.4,6.8-15.2,15.2-15.2
		h18.9C517.8,228.6,524.7,235.4,524.7,243.8z"/>
	<path class="st3" d="M500,213.9L500,213.9c-8.5,0-14.4-1.8-18.2-4.6c-1.2-0.9-2.2-1.9-3-3c-12.1-16.4,14.4-53.6,17.6-56
		c1.2-0.9,2.6-1.3,3.6-1.3h0.1c1,0,2.4,0.4,3.6,1.3c1.2,0.8,5.4,6.3,9.8,13.8c0.8,1.4,1.7,2.9,2.5,4.5
		C525.9,187.3,533.3,213.9,500,213.9z"/>
	<path class="st4" d="M500,204.2L500,204.2c-4.9,0-8.3-1-10.5-2.7c-0.7-0.5-1.3-1.1-1.7-1.7c-7-9.4,8.3-30.8,10.1-32.1
		c0.7-0.5,1.5-0.7,2.1-0.7c0,0,0,0,0,0c0.6,0,1.4,0.2,2.1,0.7c0.7,0.5,3.1,3.6,5.6,7.9c0.5,0.8,1,1.7,1.4,2.6
		C514.9,188.9,519.1,204.2,500,204.2z"/>
	<path class="st2" d="M253,367.8h-18.9c-8.4,0-15.2-6.8-15.2-15.2V243.8c0-8.4,6.8-15.2,15.2-15.2H253c8.4,0,15.2,6.8,15.2,15.2
		v108.7C268.3,360.9,261.4,367.8,253,367.8z"/>
	<path class="st3" d="M243.6,213.9L243.6,213.9c-8.5,0-14.4-1.7-18.2-4.6c-1.2-0.9-2.2-1.9-3-3c-12.1-16.4,14.4-53.6,17.6-56
		c1.2-0.9,2.6-1.3,3.6-1.3c0,0,0,0,0.1,0c1,0,2.4,0.4,3.6,1.3c1.2,0.8,5.4,6.3,9.8,13.8c0.8,1.4,1.7,2.9,2.5,4.5
		C269.5,187.4,276.9,213.9,243.6,213.9z"/>
	<path class="st4" d="M243.6,204.2L243.6,204.2c-4.9,0-8.3-1-10.5-2.7c-0.7-0.5-1.3-1.1-1.7-1.7c-7-9.4,8.3-30.8,10.1-32.1
		c0.7-0.5,1.5-0.7,2.1-0.7c0,0,0,0,0,0c0.6,0,1.4,0.2,2.1,0.7c0.7,0.5,3.1,3.6,5.6,7.9c0.5,0.8,1,1.7,1.4,2.6
		C258.5,188.9,262.7,204.2,243.6,204.2z"/>
	<path class="st2" d="M781.1,243.8v108.7c0,8.4-6.8,15.2-15.2,15.2H747c-8.4,0-15.2-6.8-15.2-15.2V243.8c0-8.4,6.8-15.2,15.2-15.2
		h18.9C774.2,228.6,781.1,235.4,781.1,243.8z"/>
	<path class="st3" d="M756.4,213.9L756.4,213.9c-8.5,0-14.4-1.8-18.2-4.6c-1.2-0.9-2.2-1.9-3-3c-12.1-16.4,14.4-53.6,17.6-56
		c1.2-0.9,2.6-1.3,3.6-1.3h0.1c1,0,2.4,0.4,3.6,1.3c1.2,0.8,5.4,6.3,9.8,13.8c0.8,1.4,1.7,2.9,2.5,4.5
		C782.3,187.3,789.7,213.9,756.4,213.9z"/>
	<path class="st4" d="M756.4,204.2L756.4,204.2c-4.9,0-8.3-1-10.5-2.7c-0.7-0.5-1.3-1.1-1.7-1.7c-7-9.4,8.3-30.8,10.1-32.1
		c0.7-0.5,1.5-0.7,2.1-0.7c0,0,0,0,0,0c0.6,0,1.4,0.2,2.1,0.7c0.7,0.5,3.1,3.6,5.6,7.9c0.5,0.8,1,1.7,1.4,2.6
		C771.3,188.9,775.5,204.2,756.4,204.2z"/>
</g>
<path class="st0" d="M925,786.1c0,11.2-1.6,22-4.5,32.2c-5.3,18.5-14.9,35-27.8,48.3c-19.9,20.6-47.5,33.4-77.9,33.4H185.2
	c-50,0-92.3-34.5-105.7-81.7c-2.9-10.2-4.5-21-4.5-32.2H925z"/>
<path class="st2" d="M925,650v136.1c0,11.2-1.6,22-4.5,32.2c-5.3,18.5-14.9,35-27.8,48.3c-19.9,20.6-47.5,33.4-77.9,33.4H185.2
	c-50,0-92.3-34.5-105.7-81.7c-2.9-10.2-4.5-21-4.5-32.2V650H925z"/>
<path class="st0" d="M925,727.6v58.5c0,11.2-1.6,22-4.5,32.2c0,0-0.1-0.1-0.1-0.1c-8.9-9.2-20.6-13.8-32.3-13.8
	c-11.7,0-23.4,4.6-32.3,13.8c-8.9,9.2-20.6,13.9-32.3,13.9s-23.4-4.6-32.3-13.9c-8.9-9.2-20.6-13.8-32.3-13.8
	c-11.7,0-23.4,4.6-32.3,13.8c-8.9,9.2-20.6,13.9-32.3,13.9c-11.7,0-23.4-4.6-32.3-13.9c-8.9-9.2-20.6-13.8-32.3-13.8
	c-11.7,0-23.4,4.6-32.3,13.8c-8.9,9.2-20.6,13.9-32.3,13.9c-11.7,0-23.4-4.6-32.3-13.9c-8.9-9.2-20.6-13.8-32.3-13.8
	s-23.4,4.6-32.3,13.8c-8.9,9.2-20.6,13.9-32.3,13.9c-11.7,0-23.4-4.6-32.3-13.9c-8.9-9.2-20.6-13.8-32.3-13.8
	c-11.7,0-23.4,4.6-32.3,13.8c-8.9,9.2-20.6,13.9-32.3,13.9c-11.7,0-23.4-4.6-32.3-13.9c-8.9-9.2-20.6-13.8-32.3-13.8
	c-11.7,0-23.4,4.6-32.3,13.8c-8.9,9.2-20.6,13.9-32.3,13.9s-23.4-4.6-32.3-13.9c-8.9-9.2-20.6-13.8-32.3-13.8
	c-11.7,0-23.4,4.6-32.3,13.8l-0.1,0.1c-2.9-10.2-4.5-21-4.5-32.2v-58.5c1.6,1.3,3.1,2.6,4.6,4.2c8.9,9.2,20.6,13.8,32.3,13.8
	c11.7,0,23.4-4.6,32.3-13.8c8.9-9.2,20.6-13.8,32.3-13.8s23.4,4.6,32.3,13.8c8.9,9.2,20.6,13.8,32.3,13.8c11.7,0,23.4-4.6,32.3-13.8
	c8.9-9.2,20.6-13.8,32.3-13.8c11.7,0,23.4,4.6,32.3,13.8c8.9,9.2,20.6,13.8,32.3,13.8c11.7,0,23.4-4.6,32.3-13.8
	c8.9-9.2,20.6-13.8,32.3-13.8c11.7,0,23.4,4.6,32.3,13.8c8.9,9.2,20.6,13.8,32.3,13.8s23.4-4.6,32.3-13.8
	c8.9-9.2,20.6-13.8,32.3-13.8c11.7,0,23.4,4.6,32.3,13.8c8.9,9.2,20.6,13.8,32.3,13.8c11.7,0,23.4-4.6,32.3-13.8
	c8.9-9.2,20.6-13.8,32.3-13.8c11.7,0,23.4,4.6,32.3,13.8c8.9,9.2,20.6,13.8,32.3,13.8c11.7,0,23.4-4.6,32.3-13.8
	c8.9-9.2,20.6-13.8,32.3-13.8s23.4,4.6,32.3,13.8c8.9,9.2,20.6,13.8,32.3,13.8c11.7,0,23.4-4.6,32.3-13.8
	C921.9,730.3,923.4,728.9,925,727.6z"/>
</svg>
