<?xml version="1.0" encoding="utf-8"?>
<!-- Generator: Adobe Illustrator 22.0.0, SVG Export Plug-In . SVG Version: 6.00 Build 0)  -->
<svg version="1.1" id="Layer_1" xmlns="http://www.w3.org/2000/svg" xmlns:xlink="http://www.w3.org/1999/xlink" x="0px" y="0px"
	 viewBox="0 0 1000 1000" style="enable-background:new 0 0 1000 1000;" xml:space="preserve">
<style type="text/css">
	.st0{fill:none;stroke:#000000;stroke-width:8;stroke-miterlimit:10;}
</style>
<path id="XMLID_29_" class="st0" d="M789.5,302.3H208.3c-18.1,0-32.8,14.7-32.8,32.8v360.1c0,19.2,16,35,35.2,35h591.1
	c12.5,0,22.7-10.2,22.7-22.7V336.5C824.5,317.3,808.6,302.3,789.5,302.3z M500.1,635.9c-39.1,0-73.9-18.7-95.7-47.7
	c-15.2-20.1-24.3-45.2-24.3-72.3c0-26.9,8.8-51.7,23.8-71.7c21.9-29.3,56.8-48.3,96.3-48.3c39.4,0,74.4,19,96.3,48.3
	c14.9,20,23.8,44.8,23.8,71.7c0,27.2-9,52.2-24.3,72.3C573.9,617.2,539.2,635.9,500.1,635.9z"/>
<polyline id="XMLID_18_" class="st0" points="824.5,444.3 818,444.3 596.5,444.3 "/>
<polyline id="XMLID_16_" class="st0" points="403.5,444.3 203.2,444.3 175.5,444.3 "/>
<polyline id="XMLID_14_" class="st0" points="595.5,588.3 805.3,588.3 824.5,588.3 "/>
<polyline id="XMLID_11_" class="st0" points="175.5,588.3 192.2,588.3 404.5,588.3 "/>
<path id="XMLID_12_" class="st0" d="M744,378.7L744,378.7c-10.4,0-18.9-8.5-18.9-18.9v0c0-10.4,8.5-18.9,18.9-18.9h0
	c10.4,0,18.9,8.5,18.9,18.9v0C762.9,370.2,754.4,378.7,744,378.7z"/>
<path id="XMLID_4_" class="st0" d="M759.8,415.6h-85.7c-8.4,0-15.3-6.9-15.3-15.3v-56.3c0-8.4,6.9-15.3,15.3-15.3h85.7
	c8.4,0,15.3,6.9,15.3,15.3v56.3C775.2,408.7,768.3,415.6,759.8,415.6z"/>
<path id="XMLID_1_" class="st0" d="M331.3,407.9H244c-6.1,0-11.2-5-11.2-11.2v-42c0-6.1,5-11.2,11.2-11.2h87.4
	c6.1,0,11.2,5,11.2,11.2v42C342.5,402.9,337.5,407.9,331.3,407.9z"/>
<circle id="XMLID_3_" class="st0" cx="500" cy="515.8" r="80.5"/>
<circle id="XMLID_5_" class="st0" cx="523.3" cy="513.4" r="31.8"/>
<path class="st0" d="M239.8,301v-15c0-9.1,7.4-16.5,16.5-16.5H319c9.1,0,16.5,7.4,16.5,16.5v15"/>
</svg>
