<?xml version="1.0" encoding="utf-8"?>
<!-- Generator: Adobe Illustrator 22.0.0, SVG Export Plug-In . SVG Version: 6.00 Build 0)  -->
<svg version="1.1" id="Layer_1" xmlns="http://www.w3.org/2000/svg" xmlns:xlink="http://www.w3.org/1999/xlink" x="0px" y="0px"
	 viewBox="0 0 2000 2000" style="enable-background:new 0 0 2000 2000;" xml:space="preserve">
<style type="text/css">
	.st0{fill:none;stroke:#000000;stroke-width:10;stroke-miterlimit:10;}
</style>
<path class="st0" d="M1482,400H518c-65.2,0-118,52.8-118,118v964c0,65.2,52.8,118,118,118h964c65.2,0,118-52.8,118-118V518
	C1600,452.8,1547.2,400,1482,400z M1475,1357c0,65.2-52.8,118-118,118H643c-65.2,0-118-52.8-118-118V643c0-65.2,52.8-118,118-118
	h714c65.2,0,118,52.8,118,118V1357z"/>
<circle class="st0" cx="1000" cy="1000" r="62.5"/>
<path class="st0" d="M1307.6,1304.6L1307.6,1304.6c-9.8,9.8-25.6,9.8-35.4,0l-190.9-190.9c-9.8-9.8-9.8-25.6,0-35.4l0,0
	c9.8-9.8,25.6-9.8,35.4,0l190.9,190.9C1317.4,1279,1317.4,1294.8,1307.6,1304.6z"/>
<path class="st0" d="M1004.5,887.5L1004.5,887.5c-13.8,0-25-11.2-25-25V683.3c0-13.8,11.2-25,25-25l0,0c13.8,0,25,11.2,25,25v179.3
	C1029.5,876.3,1018.3,887.5,1004.5,887.5z"/>
</svg>
