<?xml version="1.0" encoding="utf-8"?>
<!-- Generator: Adobe Illustrator 22.0.0, SVG Export Plug-In . SVG Version: 6.00 Build 0)  -->
<svg version="1.1" id="Layer_1" xmlns="http://www.w3.org/2000/svg" xmlns:xlink="http://www.w3.org/1999/xlink" x="0px" y="0px"
	 viewBox="0 0 2000 2000" style="enable-background:new 0 0 2000 2000;" xml:space="preserve">
<style type="text/css">
	.st0{fill:none;stroke:#000000;stroke-width:30;stroke-miterlimit:10;}
</style>
<path class="st0" d="M1405.8,1457.3c-157.5,188.9-499.3,159.3-576.6,0c-11.1-22.8-17.2-49.3-18.4-78.3c-0.2-3.7-0.2-7.4-0.2-11.2
	V722.3c0-61.5,49.9-111.4,111.4-111.4c30.8,0,58.6,12.5,78.8,32.6c20.2,20.2,32.6,48,32.6,78.8v107c0,49.4,40.1,89.5,89.5,89.5
	c0,0,201.5-37.7,282.9,24.1C1545.2,1048.9,1522.5,1317.4,1405.8,1457.3z"/>
<path class="st0" d="M810.7,1379c-0.2-2.4-0.2-4.9-0.2-7.3v-3.9C810.5,1371.6,810.6,1375.3,810.7,1379z"/>
<path class="st0" d="M810.5,959v460.1h-185c-35.9,0-65-30.9-65-69V1028c0-38.1,29.1-69,65-69H810.5z"/>
</svg>
