<?xml version="1.0" encoding="utf-8"?>
<!-- Generator: Adobe Illustrator 22.0.0, SVG Export Plug-In . SVG Version: 6.00 Build 0)  -->
<svg version="1.1" id="Layer_1" xmlns="http://www.w3.org/2000/svg" xmlns:xlink="http://www.w3.org/1999/xlink" x="0px" y="0px"
	 viewBox="0 0 1000 1000" style="enable-background:new 0 0 1000 1000;" xml:space="preserve">
<style type="text/css">
	.st0{fill:none;stroke:#000000;stroke-width:10;stroke-miterlimit:10;}
</style>
<path class="st0" d="M602.1,141.8c0,3.7-1.2,7.2-3.3,10.3c-1.2,1.8-2.7,3.4-4.5,4.8c-1.8,1.4-3.8,2.6-6,3.6
	c-3.8,1.7-8.2,2.6-12.8,2.6H439.5c-14.7,0-26.7-9.5-26.7-21.3c0-1.3,0.1-2.6,0.4-3.8c0.5-2.3,1.5-4.4,2.8-6.4c0,0,0,0,0,0
	c1.2-1.8,2.7-3.4,4.5-4.8c1.8-1.4,3.8-2.6,6-3.6c3.8-1.7,8.2-2.6,12.8-2.6h135.9c13.1,0,24,7.5,26.2,17.5
	C601.9,139.2,602.1,140.5,602.1,141.8z"/>
<path class="st0" d="M492.6,512.3v-78c0-1.1-0.9-1.9-1.9-1.9h-24.6c-1.4,0-2.4-1.5-1.7-2.8l54.2-106.7c0.9-1.8,3.6-1.2,3.6,0.9v78
	c0,1.1,0.9,1.9,1.9,1.9h24.6c1.4,0,2.4,1.5,1.7,2.8l-54.2,106.7C495.4,515,492.6,514.3,492.6,512.3z"/>
<path class="st0" d="M592.2,587.1H422.7c-35.4,0-64.3-28.9-64.3-64.3V313.3c0-35.4,28.9-64.3,64.3-64.3h169.5
	c35.4,0,64.3,28.9,64.3,64.3v209.5C656.5,558.2,627.5,587.1,592.2,587.1z"/>
<line class="st0" x1="412.8" y1="141.8" x2="412.8" y2="249"/>
<line class="st0" x1="602.1" y1="141.8" x2="602.1" y2="249"/>
<path class="st0" d="M437,587.1v35.4c0,12.4,10.1,22.5,22.5,22.5h96c12.4,0,22.5-10.1,22.5-22.5v-35.4"/>
<path class="st0" d="M484.2,645v291.6c0,11.8,9.6,21.4,21.4,21.4h3.7c11.8,0,21.4-9.6,21.4-21.4V645"/>
</svg>
