<?xml version="1.0" encoding="utf-8"?>
<!-- Generator: Adobe Illustrator 22.0.0, SVG Export Plug-In . SVG Version: 6.00 Build 0)  -->
<svg version="1.1" id="Layer_2" xmlns="http://www.w3.org/2000/svg" xmlns:xlink="http://www.w3.org/1999/xlink" x="0px" y="0px"
	 viewBox="0 0 1000 1000" style="enable-background:new 0 0 1000 1000;" xml:space="preserve">
<style type="text/css">
	.st0{fill:#C7E094;}
	.st1{fill:#00D18D;}
	.st2{opacity:5.000000e-02;}
	.st3{fill:#52AC62;}
</style>
<g id="Layer_1">
	<path id="XMLID_16_" class="st0" d="M1000,500c0,1.4,0,2.7,0,4.1C997.8,778.3,774.8,1000,500,1000c-1.7,0-3.4,0-5,0
		C221.1,997.3,0,774.5,0,500C0,223.9,223.9,0,500,0S1000,223.9,1000,500z"/>
</g>
<ellipse id="FACE" class="st1" cx="503" cy="210.2" rx="111" ry="116.1"/>
<path id="SHADOW" class="st2" d="M1000,504.1c-2.2,273.5-224.9,494.6-499.3,494.6c-1.7,0-3.4,0-5,0L278,781.2l470.7-528.1
	L1000,504.1z"/>
<path id="R_x5F_UP" class="st1" d="M643.3,410c20.2-4.1,37.5-7.6,59.1-23.9c9.8-7.4,58.2-44,57.9-96.8c0-6.2-0.1-28.6-11.9-36.8
	c-16.1-11.2-43.5,11.9-46.7,14.6c-15,12.7-12.1,19.2-30.3,36.7c-5,4.8-2.8,1.9-31.7,24.9c-11.8,9.3-20,16-28.3,27.8
	c-6,8.5-9.4,13.6-9.6,21c-0.3,13.8,10.8,26.5,21.7,31.1C631.3,412.1,638.4,410.9,643.3,410z"/>
<path id="R_x5F_DOWN" class="st1" d="M575.9,662.8c2.8,20.4,5.1,37.9,20,60.5c6.8,10.2,40.2,60.9,92.8,64c6.2,0.4,28.6,1.7,37.5-9.5
	c12.3-15.4-9-44.1-11.6-47.6c-11.7-15.7-18.4-13.3-34.7-32.7c-4.4-5.3-1.8-2.9-22.8-33.3c-8.5-12.3-14.7-21-25.9-30.1
	c-8.1-6.5-12.9-10.3-20.4-10.9c-13.8-1.2-27.1,9.1-32.4,19.6C574.5,650.6,575.2,657.9,575.9,662.8z"/>
<path id="L_x5F_UP" class="st1" d="M357.6,410c-20.2-4.1-37.5-7.6-59.1-23.9c-9.8-7.4-58.2-44-57.9-96.8c0-6.2,0.1-28.6,11.9-36.8
	c16.1-11.2,43.5,11.9,46.7,14.6c15,12.7,12.1,19.2,30.3,36.7c5,4.8,2.8,1.9,31.7,24.9c11.8,9.3,20,16,28.3,27.8
	c6,8.5,9.4,13.6,9.6,21c0.3,13.8-10.8,26.5-21.7,31.1C369.6,412.1,362.4,410.9,357.6,410z"/>
<path id="L_x5F_DOWN" class="st1" d="M425.5,663.8c-2.8,20.4-5.1,37.9-20,60.5c-6.8,10.2-40.2,60.9-92.8,64
	c-6.2,0.4-28.6,1.7-37.5-9.5c-12.3-15.4,9-44.1,11.6-47.6c11.7-15.7,18.4-13.3,34.7-32.7c4.4-5.3,1.8-2.9,22.8-33.3
	c8.5-12.3,14.7-21,25.9-30.1c8.1-6.5,12.9-10.3,20.4-10.9c13.8-1.2,27.1,9.1,32.4,19.6C426.9,651.6,426.1,658.9,425.5,663.8z"/>
<path id="TAIL_1_" class="st0" d="M557.3,861.1c-34.2-4.2-64.4-27.6-74.4-61.3c-3.5-11.7-4.1-23.5-2.4-34.7c0.2-1,1.3-1.6,2.4-1.4
	c13.9,3.5,27.7,7.1,41.4,11c0.8,0.2,1.3,0.9,1.2,1.7c-1.2,7.9-1.3,16.1-0.2,24.5c3.2,24.2,16,44.7,33.5,57.4
	C560.3,859.3,559.1,861.4,557.3,861.1z"/>
<path id="TAIL" class="st3" d="M577.1,864.3c-25.6-15.2-41.7-40.3-41.5-70.4c0.1-10.4,2.1-20.7,5.8-30.6c0.4-1-0.3-1.8-1.6-2.1
	c-21.4-4.3-42.9-8.3-64.6-12.1c-1.7-0.3-3.7,0.6-4.2,1.8c-5.3,14.1-6.9,28.8-3.8,43.3c8.7,41.7,52.4,69.8,106.8,73.7
	C576.8,868.1,579.1,865.5,577.1,864.3z M548.6,855c-29.7-4-56-26.3-64.7-58.3c-3-11.2-3.6-22.4-2.1-33c0.1-0.9,1.1-1.6,2.1-1.3
	c12.1,3.3,24.1,6.8,36,10.5c0.7,0.2,1.2,0.9,1.1,1.6c-1,7.5-1.1,15.3-0.2,23.3c2.8,23,13.9,42.5,29.2,54.6
	C551.2,853.3,550.2,855.2,548.6,855z"/>
<ellipse id="SHELL" class="st3" cx="500" cy="500" rx="244.9" ry="297.3"/>
<path id="RT" class="st0" d="M539.5,388h119.1c22,0,36.1-23.5,25.7-42.9c-31.7-59.6-81.2-102.1-138.5-114.7
	c-18.2-4-35.5,9.8-35.5,28.5v100C510.3,374.9,523.4,388,539.5,388z"/>
<path id="RM" class="st0" d="M683.8,397.2H539.5c-16.1,0-29.2,13.1-29.2,29.2v122.3c0,16.1,13.1,29.2,29.2,29.2h149.3
	c14.5,0,26.7-10.6,28.8-24.9c2.5-17,3.9-34.5,3.9-52.5c0-28.1-3.3-55.3-9.4-80.8C709.1,406.5,697.3,397.2,683.8,397.2z"/>
<path id="RB" class="st0" d="M510.3,616.2v125.8c0,18.6,17.3,32.5,35.5,28.5c66.1-14.5,121.7-68.8,151.8-143.2
	c7.8-19.2-6.3-40.2-27-40.2H539.5C523.4,587,510.3,600.1,510.3,616.2z"/>
<path id="RT_1_" class="st1" d="M549.4,369.8h90.4c16.7,0,27.4-17,19.5-31.2c-24.1-43.3-61.6-74.2-105-83.3
	c-13.8-2.9-26.9,7.1-26.9,20.7v72.6C527.3,360.4,537.2,369.8,549.4,369.8z"/>
<path id="RM_1_" class="st1" d="M667.7,423.6H561.4c-11.9,0-21.5,9.6-21.5,21.5v90.1c0,11.9,9.6,21.5,21.5,21.5h110
	c10.7,0,19.7-7.8,21.3-18.3c1.9-12.5,2.9-25.5,2.9-38.7c0-20.7-2.4-40.7-6.9-59.5C686.3,430.5,677.7,423.6,667.7,423.6z"/>
<path id="RB_1_" class="st1" d="M534.3,629.3v90.4c0,13.4,12.4,23.3,25.5,20.5c47.5-10.4,87.5-49.4,109-102.9
	c5.6-13.8-4.5-28.9-19.4-28.9h-94.2C543.6,608.4,534.3,617.8,534.3,629.3z"/>
<path id="LT_2_" class="st0" d="M463.4,388.3H344.3c-22,0-36.1-23.5-25.7-42.9c31.7-59.6,81.2-102.1,138.5-114.7
	c18.2-4,35.5,9.8,35.5,28.5v100C492.5,375.3,479.5,388.3,463.4,388.3z"/>
<path id="LM_2_" class="st0" d="M319.1,397.5h144.3c16.1,0,29.2,13.1,29.2,29.2l0,122.3c0,16.1-13.1,29.2-29.2,29.2H314.1
	c-14.5,0-26.7-10.6-28.8-24.9c-2.5-17-3.9-34.5-3.9-52.5c0-28.1,3.3-55.3,9.4-80.8C293.8,406.8,305.6,397.5,319.1,397.5z"/>
<path id="LB_1_" class="st0" d="M492.5,616.5v125.8c0,18.6-17.3,32.5-35.5,28.5C391,756.2,335.3,702,305.3,627.5
	c-7.8-19.2,6.3-40.2,27-40.2h131.1C479.5,587.4,492.5,600.4,492.5,616.5z"/>
<path id="LT_1_" class="st1" d="M453.5,370.2h-90.4c-16.7,0-27.4-17-19.5-31.2c24.1-43.3,61.6-74.2,105-83.3
	c13.8-2.9,26.9,7.1,26.9,20.7V349C475.6,360.7,465.7,370.2,453.5,370.2z"/>
<path id="LM" class="st1" d="M335.1,424h106.4c11.9,0,21.5,9.6,21.5,21.5v90.1c0,11.9-9.6,21.5-21.5,21.5h-110
	c-10.7,0-19.7-7.8-21.3-18.3c-1.9-12.5-2.9-25.5-2.9-38.7c0-20.7,2.4-40.7,6.9-59.5C316.5,430.8,325.2,424,335.1,424z"/>
<path id="LB_2_" class="st1" d="M468.6,629.7V720c0,13.4-12.4,23.3-25.5,20.5c-47.5-10.4-87.5-49.4-109-102.9
	c-5.6-13.8,4.5-28.9,19.4-28.9h94.2C459.2,608.7,468.6,618.1,468.6,629.7z"/>
<circle id="R_x5F_EYE" class="st3" cx="550.4" cy="159.4" r="19.7"/>
<circle id="L_x5F_EYE" class="st3" cx="455.4" cy="159.4" r="19.7"/>
</svg>
