<?xml version="1.0" encoding="utf-8"?>
<!-- Generator: Adobe Illustrator 22.0.0, SVG Export Plug-In . SVG Version: 6.00 Build 0)  -->
<svg version="1.1" id="Layer_1" xmlns="http://www.w3.org/2000/svg" xmlns:xlink="http://www.w3.org/1999/xlink" x="0px" y="0px"
	 viewBox="0 0 1000 1000" style="enable-background:new 0 0 1000 1000;" xml:space="preserve">
<style type="text/css">
	.st0{fill:#3372CC;}
	.st1{fill:#29FF2B;}
	.st2{fill:#5587FF;}
	.st3{fill:#407CDB;}
	.st4{fill:#699BFF;}
	.st5{opacity:5.000000e-02;}
</style>
<g>
	<path class="st0" d="M800,682.3v30.2c0,20.7-16.3,37.5-36.4,37.5H236.4c-20.1,0-36.4-16.8-36.4-37.5v-30.2
		c0-20.7,16.3-37.5,36.4-37.5h527.3C783.7,644.7,800,661.5,800,682.3z"/>
	<g>
		<ellipse class="st1" cx="268" cy="697.4" rx="18.6" ry="19.2"/>
		<ellipse class="st1" cx="324.5" cy="697.4" rx="18.6" ry="19.2"/>
		<ellipse class="st1" cx="384.2" cy="697.4" rx="19" ry="19.7"/>
	</g>
</g>
<g>
	<path class="st2" d="M800,419.1v30.2c0,20.7-16.3,37.5-36.4,37.5H236.4c-20.1,0-36.4-16.8-36.4-37.5v-30.2
		c0-20.7,16.3-37.5,36.4-37.5h527.3C783.7,381.6,800,398.4,800,419.1z"/>
	<g>
		<ellipse class="st1" cx="266.7" cy="434.2" rx="18.6" ry="19.2"/>
		<ellipse class="st1" cx="323.2" cy="434.2" rx="18.6" ry="19.2"/>
		<ellipse class="st1" cx="382.9" cy="434.2" rx="19" ry="19.7"/>
	</g>
</g>
<path class="st3" d="M800,550.7v30.2c0,20.7-16.3,37.5-36.4,37.5H236.4c-20.1,0-36.4-16.8-36.4-37.5v-30.2
	c0-20.7,16.3-37.5,36.4-37.5h527.3C783.7,513.2,800,530,800,550.7z"/>
<g>
	<ellipse class="st1" cx="264.8" cy="565.8" rx="18.6" ry="19.2"/>
	<ellipse class="st1" cx="321.3" cy="565.8" rx="18.6" ry="19.2"/>
	<ellipse class="st1" cx="381.1" cy="565.8" rx="19" ry="19.7"/>
</g>
<path class="st4" d="M800,287.5v30.2c0,20.7-16.3,37.5-36.4,37.5H236.4c-20.1,0-36.4-16.8-36.4-37.5v-30.2
	c0-20.7,16.3-37.5,36.4-37.5h527.3C783.7,250,800,266.8,800,287.5z"/>
<g>
	<ellipse class="st1" cx="268" cy="302.6" rx="18.6" ry="19.2"/>
	<ellipse class="st1" cx="324.5" cy="302.6" rx="18.6" ry="19.2"/>
	<ellipse class="st1" cx="384.2" cy="302.6" rx="19" ry="19.7"/>
</g>
<path class="st5" d="M800,287.5v30.2c0,20.7-16.3,37.5-36.4,37.5H500V250h263.6C783.7,250,800,266.8,800,287.5z"/>
<path class="st5" d="M800,419.1v30.2c0,20.7-16.3,37.5-36.4,37.5H500V381.6h263.6C783.7,381.6,800,398.4,800,419.1z"/>
<path class="st5" d="M800,550.7v30.2c0,20.7-16.3,37.5-36.4,37.5H500V513.2h263.6C783.7,513.2,800,530,800,550.7z"/>
<path class="st5" d="M800,682.3v30.2c0,20.7-16.3,37.5-36.4,37.5H500V644.7h263.6C783.7,644.7,800,661.5,800,682.3z"/>
</svg>
