<?xml version="1.0" encoding="utf-8"?>
<!-- Generator: Adobe Illustrator 22.0.0, SVG Export Plug-In . SVG Version: 6.00 Build 0)  -->
<svg version="1.1" id="Layer_3" xmlns="http://www.w3.org/2000/svg" xmlns:xlink="http://www.w3.org/1999/xlink" x="0px" y="0px"
	 viewBox="0 0 1000 1000" style="enable-background:new 0 0 1000 1000;" xml:space="preserve">
<style type="text/css">
	.st0{fill:#FFCC99;}
	.st1{fill:#C11F50;}
	.st2{fill:#FFFFFF;}
</style>
<path id="hand" class="st0" d="M590.1,495.7c-5.1,0.1-14.1,0.4-25.4,0.8c-48.8,1.8-139.9,5.9-139.9,5.9c-22.8,0-41.6,17.1-44.4,39.1
	c-0.3,1.9-0.4,3.9-0.4,5.8v0.4c0,18.9,7.6,36,20,48.4c12.4,12.4,29.5,20.1,48.4,20.1c12.1,0,30.7,13.3,31.2,13.7
	c24.7,20.7,3.4,58.1-26.7,58.5l-52.8,0.7c-17.2,0.2-33.9-6.6-46.1-18.8L157,473.1c-10.1-10.1-23.3-15.1-36.5-15.1
	c-13.2,0-26.4,5-36.5,15.1c-24.6,24.6-24.6,64.3,0,88.9l181.8,181.8c18.9,18.8,39.6,35.6,61.9,49.9c22.3,14.3,81.8,39.6,81.8,39.6
	c17.7,6.6,58.5,17.4,101.1,27.5c12.9,3.1,32.3,5.5,54.1,7.3c12.2,1,25.2,1.9,38.3,2.5c55.5,2.9,231.2-38.1,268.4-68.6
	c36.2-29.6,58.8-65.1,62.5-103.1c0.4-4.4,0.6-8.9,0.5-13.4C932.5,577.2,778.3,492.2,590.1,495.7z M559.9,799.4l-1.2-1.2h1.2V799.4z"
	/>
<g>
	<path class="st1" d="M580.6,291.6h114.5L535.7,458.1L376.3,291.6h88.6c2.4,0,4.5-1.4,5.2-3.4l1.5-3.9l16.7-44.9c0,0,1.6-4,3.1,0
		L534.9,356l0,0c1.1,3.1,4.2,4.6,7.2,4.6c3,0,6-1.5,7.2-4.6l21.7-58.3C572.3,294,576.2,291.6,580.6,291.6z"/>
	<path class="st1" d="M635.4,414.4L635.4,414.4C635.6,414.3,635.5,414.3,635.4,414.4z"/>
	<path class="st2" d="M706.3,279.5c-1.6,1.9-3.2,3.8-4.9,5.6l-6.2,6.5H580.6c-4.4,0-8.3,2.5-9.6,6.2l-21.7,58.3
		c-1.1,3.1-4.2,4.6-7.2,4.6c-3,0-6-1.5-7.2-4.6l0,0l-43.5-116.7c-1.5-4-3.1,0-3.1,0l-16.7,44.9l-1.5,3.9c-0.7,2-2.8,3.4-5.2,3.4
		h-88.6l-6.2-6.5c-1.7-1.8-3.4-3.7-4.9-5.6H459c0,0,0,0,0,0l23.7-63.5c1.1-3.1,4.2-4.6,7.2-4.6c3,0,6,1.5,7.2,4.6v0l44.5,119.5
		c0.2,0.4,0.8,0.4,1,0l16.3-43.7c2.7-7.3,10.4-12.2,19.1-12.2H706.3z"/>
	<path class="st1" d="M726.9,225.9c-0.7,19.7-8.2,38.4-20.6,53.6H577.9c-8.7,0-16.4,4.9-19.1,12.2l-16.3,43.7c-0.2,0.4-0.8,0.4-1,0
		L497,216v0c-1.1-3.1-4.2-4.6-7.2-4.6c-3,0-6,1.5-7.2,4.6L459,279.4c0,0,0,0,0,0h-93.9c-12.4-15.2-19.9-33.9-20.6-53.6
		c-0.3-7,0.3-14.5,2-22.4c11.6-52.3,65.8-69.2,69.5-70.3c41.9-12.4,89.6,4.7,119.6,43.1c30-38.4,77.7-55.4,119.7-43.1
		c3.7,1.1,57.9,18.1,69.5,70.3C726.6,211.4,727.2,218.9,726.9,225.9z"/>
</g>
</svg>
