<?xml version="1.0" encoding="utf-8"?>
<!-- Generator: Adobe Illustrator 24.1.2, SVG Export Plug-In . SVG Version: 6.00 Build 0)  -->
<svg version="1.1" id="Layer_1" xmlns="http://www.w3.org/2000/svg" xmlns:xlink="http://www.w3.org/1999/xlink" x="0px" y="0px"
	 viewBox="0 0 1000 1000" style="enable-background:new 0 0 1000 1000;" xml:space="preserve">
<style type="text/css">
	.st0{fill:#00B70B;}
</style>
<path class="st0" d="M737.3,586.1h-78.5v-70.8h42.5c10.1,0,18.3-8.2,18.3-18.3s-8.2-18.3-18.3-18.3h-42.5v-70.8h78.5
	c10.1,0,18.3-8.2,18.3-18.3c0-10.1-8.2-18.3-18.3-18.3h-78.5v-64.7h42.5c10.1,0,18.3-8.2,18.3-18.3c0-10.1-8.2-18.3-18.3-18.3h-42.8
	c-4.7-45.8-41.4-82-87.4-86.1v-72c0-10.1-8.2-18.3-18.3-18.3c-10.1,0-18.3,8.2-18.3,18.3v71.6h-68.9v-39c0-11.6-8.2-21-18.3-21.1
	c-10.1,0-18.3,9.5-18.3,21.1v39h-0.4v0.4c-43.2,3.9-78.1,36.3-85.9,78.2l-1.6,9.3h-42.5c-10.1,0-18.3,8.2-18.3,18.3
	c0,10.1,8.2,18.3,18.3,18.3h42.5v70.8h-78.5c-10.1,0-18.3,8.2-18.3,18.3c0,10,8.2,18.2,18.3,18.2h78.5v70.8h-42.5
	c-10.1,0-18.3,8.2-18.3,18.3c0,10.1,8.2,18.3,18.3,18.3h42.5v70.8h-78.5c-10.1,0-18.3,8.2-18.3,18.3c0,10.1,8.2,18.3,18.3,18.3h78.5
	v64.7h-42.5c-10.1,0-18.3,8.2-18.3,18.3c0,10.1,8.2,18.3,18.3,18.3h42.9c4,46.4,40.8,83.3,87.1,87.6v0.3h0.3v70.3
	c0,10.1,8.2,18.3,18.3,18.3c10.1,0,18.3-8.2,18.3-18.3v-70.3h68.9v37.6c0,11.7,8.2,21.1,18.3,21.1c10.1,0,18.3-9.5,18.3-21.1V819
	c6.5-0.5,12.8-1.8,18.8-3.6c0.1,0,0.1,0,0.2-0.1c37.2-11,65.1-44,68.6-83.9h0.2V730h42.5c10.1,0,18.3-8.2,18.3-18.3
	c0-10.1-8.2-18.3-18.3-18.3h-42.5v-70.8h78.5c10.1,0,18.3-8.2,18.3-18.3C755.5,594.3,747.3,586.1,737.3,586.1z M613.7,632.4
	c0,23.8-8.6,45.6-22.9,62.4c-9.8,11.5-22.3,20.7-36.5,26.6c-11.4,4.7-23.9,7.3-37,7.3h-34.6c-15.3,0-29.8-3.6-42.7-10
	c-15.3-7.6-28.3-19.1-37.7-33.2c-10.1-15.2-16-33.5-16-53.2V369.8c0.2-28.1,12.5-53.3,31.9-70.8c8.6-7.7,18.6-14,29.6-18.2
	c10.8-4.2,22.6-6.5,34.9-6.5h34.6c13.1,0,25.6,2.6,37,7.3c14.2,5.9,26.7,15.1,36.5,26.6c14.3,16.8,22.9,38.6,22.9,62.4V632.4z"/>
<g id="Dots">
	
		<ellipse id="Dot_2_" transform="matrix(0.3162 -0.9487 0.9487 0.3162 -33.22 744.7106)" class="st0" cx="500" cy="395.4" rx="26.6" ry="26.6"/>
	<circle id="Dot_1_" class="st0" cx="500" cy="501.7" r="26.6"/>
	
		<ellipse id="Dot" transform="matrix(0.7071 -0.7071 0.7071 0.7071 -283.4713 531.6481)" class="st0" cx="500" cy="608" rx="26.6" ry="26.6"/>
</g>
</svg>
