<?xml version="1.0" encoding="utf-8"?>
<!-- Generator: Adobe Illustrator 22.0.0, SVG Export Plug-In . SVG Version: 6.00 Build 0)  -->
<svg version="1.1" id="Earth" xmlns="http://www.w3.org/2000/svg" xmlns:xlink="http://www.w3.org/1999/xlink" x="0px" y="0px"
	 viewBox="0 0 1000 1000" style="enable-background:new 0 0 1000 1000;" xml:space="preserve">
<style type="text/css">
	.st0{fill:#56BAFF;}
	.st1{fill:#00B70B;}
</style>
<path id="Earth_x5F_OCEAN" class="st0" d="M980.2,500c0,265.2-215,480.2-480.2,480.2h-4.3c-45.7-0.4-90-7.2-131.8-19.6
	c-12.8-3.8-25.6-8.2-37.9-13c-14.9-5.8-29.4-12.3-43.5-19.5C126.6,848.8,19.8,686.9,19.8,500c0-53.4,8.7-104.8,24.8-152.8l0,0
	c2.6-7.7,5.3-15.3,8.3-22.7C122.6,147.3,294.4,21.6,495.7,19.9c1.5,0,2.9,0,4.3,0c35.6,0,70.3,3.9,103.7,11.2
	c8.4,1.8,16.6,3.9,24.8,6.1c42.8,11.9,83.2,29.5,120.4,52.1c14.5,8.8,28.4,18.3,41.9,28.6l0,0c89.9,68.5,155,168.2,179.1,282.8
	c1,5.1,2,10.1,2.9,15.2C977.7,443.2,980.2,471.3,980.2,500z"/>
<path id="_x34_" class="st1" d="M449.7,639.8c0,2.9-0.7,5.7-1.9,8.3l-11,22.7c-0.7,1.4-1.2,2.9-1.5,4.4l-7.2,34.4
	c-0.7,3.5-1.7,6.9-2.8,10.3c-1.3,3.9-3.6,7.4-6.5,10.1c-2.9,2.7-6.5,4.7-10.5,5.8l-4.6,1.2c-6.9,1.8-12.2,7.3-13.8,14.2l-4.1,18.1
	l-2.7,13.1c-2.1,10.2-6.9,19.8-13.8,27.6l0,0c-0.7,0.8-1.4,1.8-2,2.7c-3.5,5.8-7,11.5-10.5,17.3c-3.6,6-6.3,13.1-11,18.3
	c-4.5,5-10.7,8.1-15.2,13.1c-4.9,5.5-7.7,13-9.2,20.1c-1.6,7.5-4.8,14.9-4.3,22.6c0.4,7.5,4.2,14.3,5,21.7c0.4,3.6,0.9,7.2,1.5,10.8
	c0.5,3.2,2.3,7.5,1.8,10.5c-7.4-0.5-14.6-5.7-21.2-8.7c-7.2-3.2-14.4-6.7-21.5-10.2l-7.6-26.9c-0.7-2.5-1.2-5.1-1.5-7.6L268,844
	c-0.1-0.7-0.1-1.4-0.1-2v-90.7c0-0.7,0-1.4-0.1-2l-3.5-32.2c-0.6-5.1-3.2-9.8-7.2-13L238,689.2c-5-3.9-9-9.1-11.4-15l-11.8-28.4
	c-0.4-1.1-1-2.1-1.6-3.1l-16.6-25.5c-2-3.1-3.1-6.7-3.1-10.3v-12c0-10.1,3.4-19.9,9.5-27.8c4.6-6,9.4-12.1,12-19.3
	c2.8-7.8,0.9-15.6,2.7-23.4c2.5-11,8.3-21,16.5-28.7l1.3-1.2c6.4-6,14.9-9.3,23.6-9.3c5.3,0,10.6,0.8,15.7,2.2l0.4,0.1
	c7.3,2.1,14.2,5.7,20.2,10.4c7,5.5,14.8,10.1,21.8,15.6c5.9,4.6,10.4,10.6,17.3,13.8c8.4,3.9,14,10.2,20.1,16.9
	c7,7.8,14.1,15.7,21.1,23.5c11.7,13,28.7,20.1,43.9,28.6c3.4,1.9,6.6,4.2,9.5,6.9l7.6,6.9C445,617.8,449.7,628.5,449.7,639.8z"/>
<path id="_x33_" class="st1" d="M603.7,31.1l-9.2,4.4c-2.3,1-4.1,2.9-5.1,5.1l-15.2,31.9c-8,16.7-21.2,30.4-37.6,39l-36.5,19
	l-4.3,2.2l-6,3.1c-0.2,0.1-0.5,0.2-0.8,0.4l-7.2,4.5c-19.7,12.1-45.2-0.7-47.2-23.7l-2.3-26.5c-0.8-9.3-6.5-17.5-14.9-21.5
	c-12.2-5.8-28.8-13.4-31.9-13.4c-2.1,0-6.7,2.5-11.1,5.4c-6.8,4.3-9.1,13.1-5.5,20.3l11.1,21.9c6,11.8,4.6,26-3.4,36.4
	c-1.5,1.9-2.3,4.3-2.3,6.7c0,1.4,0.3,2.7,0.8,4.1l12.3,30.6c0.2,0.4,0.3,0.9,0.4,1.3l4.8,18.2c6.5,25-9.9,50.2-35.4,54.4
	c-7,1.2-13.9,3.2-20.5,5.9c-6.6,2.7-12.8,6.2-18.6,10.4l-11.4,8.3l-19.4,14c-10.7,7.7-19.2,18-24.8,30L232.8,387
	c-3.6,7.6-14,8.5-18.8,1.6l-0.9-1.3c-5.4-7.7-17.3-5.4-19.5,3.7l-1.3,5.7c-3.4,14.6-2.6,29.9,2.3,44.2l20.5,59.6
	c0.8,2.2,0.8,4.5,0.1,6.7c-1.5,4.8-5.9,7.7-10.4,7.7c-2.3,0-4.7-0.7-6.7-2.3l-53.8-42.1L108,444.3c-24.1-17.3-42.5-41.4-52.9-69.2
	l-10.4-27.9l0,0c2.6-7.7,5.3-15.3,8.3-22.7C122.6,147.3,294.4,21.6,495.7,19.9c1.5,0,2.9,0,4.3,0C535.6,19.8,570.3,23.7,603.7,31.1z
	"/>
<path id="_x32_" class="st1" d="M546,133.2l1.9,3.9c1.3,2.8,3.9,4.7,6.8,5.4l9.1,2c5.7,1.2,11.7,0,16.4-3.3l9.3-6.6l0.4-3.1
	c0.6-4.6-2.6-8.9-7.2-9.6l-13.4-2.2c-1.1-0.2-2.2-0.1-3.2,0.1l-15.5,3.6C546.3,124.4,544.1,129.2,546,133.2z"/>
<path id="_x31_" class="st1" d="M950.6,427c-1.1,4.9-3.6,9.4-7.3,13.1l-28,28l-0.2,0.2l-4.9,2.4c-0.3,0-0.6,0.1-0.9,0.1l-10.3,0.7
	c-11.9,0.8-23.2-5.1-29.3-15.4l-9.4-15.7c-0.6-1-1.2-2-1.7-3.1l-26.6-54l-8.5,1.5l-3.7,0.7l17.3,67.1l49.2,40.4
	c1.8,1.5,3.8,2.5,6,3.1c10.4,2.8,17.4,12.3,17.4,22.8c0,1.2,0,2.5-0.3,3.7c-1.2,7.6-4.2,14.7-8.7,20.9l-38.5,51.9
	c-6.8,9.2-9.5,20.8-7.4,32.1l3.1,16.2c2.4,12.5,1.1,25.4-3.8,37.1l-23.5,56.7l-25.7,46.4c-4.9,8.8-12,16.2-20.6,21.3l-22.9,13.7
	c-16-3.5-28.6-15.6-32.8-31.5l-19-71.7c-1-3.9-1.7-7.9-2.1-12l-6.3-75.3c-0.3-2.9-0.7-5.8-1.3-8.6l-12.7-56.4
	c-0.9-4.1-2.7-7.9-5.2-11.2s-5.7-6-9.4-8.1c-11-6-24-7.4-36.1-3.7L628,543c-16.5,5.1-34.5,1.6-47.7-9.5c-0.5-0.4-0.9-0.7-1.1-1
	c-1.7-1.7-8.3-12-13.7-20.7c-5-8.1-8.2-17.1-9.3-26.6l-3.4-27.5c-0.9-7-0.8-14,0.1-20.8c0.1-0.5,0.1-1,0.2-1.5l8.2-15.1
	c6.5-11.9,14.2-23,23-33.3c5.1-6,11-11.2,17.4-15.6c6.5-4.3,13.5-7.8,21-10.4l13.5-4.6c22.3-7.6,47.6-8.7,71-8.4
	c16.7,0.2,33.3,1.6,49.8,3.5c3.6,0.4,47.3,4.9,47.3,5l14.6-7.6c2-1,3.2-3.1,3.2-5.2V343c-1.3-11.3-9.3-20.7-20.2-23.8l-19.5-5.4
	c-0.5-0.1-1.1-0.2-1.6-0.2c-2.7,0-5.2,1.9-5.8,4.7c-0.5,2.4-2.5,4.2-4.9,4.6l-4.2,0.7c-0.9,0.1-1.7,0.2-2.6,0.2
	c-4.9,0-9.6-2.3-12.6-6.4c-6.8-9.4-20.8-9.4-27.7,0l-0.1,0.1c-2.8,3.9-8.3,4.8-12.2,2l-0.2-0.1c-5.1-3.5-6.2-10.6-2.6-15.6l3.8-5.1
	c1.5-2,1.6-4.8,0.1-6.9c0,0-16.5-23.7-16.9-24.2c-4.6-6.6-18,0.5-23.8,1.8c-1.7,0.4-3.1,1.5-3.9,3c-3.4,6.6-12.5,24.2-15.4,27.2
	c-3.6,3.6-19.1,18-21.3,18c-1,0-8.1,1.3-15.3,2.6c-9.4,1.8-19-3.1-23.1-11.8l-2.9-6.1c-3.2-7-2.2-15.2,2.7-21.2l2.3-2.8
	c7.3-8.9,17.1-6.1,26.7-9.1c9.2-2.9,15.7-11.7,15.7-21.4v-0.3c0-7.6,3.2-14.7,8.8-19.8l9.7-8.8c6.9-6.2,15.3-8.5,24.1-11.1
	c10.7-3.2,21.7-5.7,32.5-8.6c3.5-0.9,6.9-2.4,10.1-4.2l15.8-9.2c4.5-7,8.9-13.8,12.7-21.2c1-1.9,1.6-4.2,0.5-6.1
	c-1.1-2-3.7-2.8-5.8-2.9c-6.2-0.1-12.1,2.6-17.3,5.9c-2.4,1.5-22.9,17.8-25.1,15.6c-0.7-0.7-6.6-1.9-13.4-3.2
	c-12.6-2.3-21.5-13.6-20.8-26.4l0.3-4.8c0.9-17.4,12.2-32.5,28.6-38.4l37.5-13.2c4.4-1.6,9.1-2.3,13.7-2
	c14.5,8.8,28.4,18.3,41.9,28.6l0,0c89.9,68.5,155,168.2,179.1,282.8l-35.5-9.4c-3-0.8-5.9-2.2-8.3-4.1l-21.4-16.6
	c-4-3.1-9.8,0-9.5,5l0.1,2.7c0.1,2.3,0.7,4.4,1.6,6.4c1.9,4.2,5.3,7.6,9.6,9.3l21.6,8.8c0.4,0.2,0.9,0.4,1.3,0.6l5.9,2.8
	C943.7,410.3,949.3,418.1,950.6,427z"/>
</svg>
