<?xml version="1.0" encoding="utf-8"?>
<!-- Generator: Adobe Illustrator 22.0.0, SVG Export Plug-In . SVG Version: 6.00 Build 0)  -->
<svg version="1.1" id="Layer_1" xmlns="http://www.w3.org/2000/svg" xmlns:xlink="http://www.w3.org/1999/xlink" x="0px" y="0px"
	 viewBox="0 0 1000 1000" style="enable-background:new 0 0 1000 1000;" xml:space="preserve">
<style type="text/css">
	.st0{fill:#FFFFFF;}
</style>
<g id="Bulb">
	<path id="XMLID_3_" d="M524.8,896.7h-43.4c-5.6,0-10.1-4.5-10.1-10.1v-1.9c0-5.6,4.5-10.1,10.1-10.1h43.4c5.6,0,10.1,4.5,10.1,10.1
		v1.9C534.9,892.2,530.3,896.7,524.8,896.7z"/>
	<path id="XMLID_29_" d="M561.2,793.2l-1.8,14l-1.3,10.2l0,0l-1.2,9.4l-2.1,16.3l-0.4,3.3l-2.6,19.6l-0.6,4.6l-0.2,1.2
		c-0.1,0.5-0.2,0.9-0.3,1.4c-1.6,5.9-8.6,10.4-16.4,10.4l-61.8,0.1c-1.3,0-2.6-0.1-3.9-0.4c-3.4-0.6-6.6-2.2-8.9-4.2
		c-2.2-2-3.7-4.4-4.1-7.1l-0.8-6l-1.4-10l-1.3-9.6l-1.8-13.5l-0.8-6l-2-15l-0.2-1.3l-0.4-3.3l-1.9-14c-0.2-1.2,0.9-2.2,2.2-2.2H559
		C560.4,791,561.4,792,561.2,793.2z"/>
	<path id="XMLID_9_" d="M683.2,411.5c7.9,42.8,1.2,83.7-16,118.4l-73.5,240.4c-5.2,17.1-25.7,29.8-46.1,29.8h-96.9
		c-20.3,0-40.8-12.7-46.1-29.8L331.1,530c-12.4-25-19.3-53.1-19.3-82.9c0-115.1,103.8-206,222.9-184
		C603.4,275.7,670.6,342.8,683.2,411.5z"/>
</g>
<g id="Flare">
	<path d="M297.8,579.1l-84.5,22.5c-6.8,1.8-13.7-2.2-15.5-9l0,0c-1.8-6.8,2.2-13.7,9-15.5l84.5-22.5c6.8-1.8,13.7,2.2,15.5,9l0,0
		C308.6,570.4,304.5,577.3,297.8,579.1z"/>
	<path d="M262.2,460.2h-29c-7,0-12.7-5.7-12.7-12.7l0,0c0-7,5.7-12.7,12.7-12.7h29c7,0,12.7,5.7,12.7,12.7l0,0
		C274.9,454.5,269.2,460.2,262.2,460.2z"/>
	<path d="M315.3,717l-27.1,10.5c-6.5,2.5-13.9-0.7-16.4-7.3l0,0c-2.5-6.5,0.7-13.9,7.3-16.4l27.1-10.5c6.5-2.5,13.9,0.7,16.4,7.3
		l0,0C325.1,707.2,321.8,714.5,315.3,717z"/>
	<path d="M512.7,113.8v87.4c0,7-5.7,12.7-12.7,12.7l0,0c-7,0-12.7-5.7-12.7-12.7v-87.4c0-7,5.7-12.7,12.7-12.7l0,0
		C507,101.1,512.7,106.8,512.7,113.8z"/>
	<path d="M356.3,242.4l-14.5-25.1c-3.5-6.1-1.4-13.8,4.6-17.3l0,0c6.1-3.5,13.8-1.4,17.3,4.6l14.5,25.1c3.5,6.1,1.4,13.8-4.6,17.3
		l0,0C367.5,250.6,359.8,248.5,356.3,242.4z"/>
	<path d="M216.2,277l75.7,43.7c6.1,3.5,8.1,11.3,4.6,17.3l0,0c-3.5,6.1-11.3,8.1-17.3,4.6l-75.7-43.7c-6.1-3.5-8.1-11.3-4.6-17.3
		l0,0C202.3,275.5,210.1,273.5,216.2,277z"/>
	<path d="M702.2,579.1l84.5,22.5c6.8,1.8,13.7-2.2,15.5-9l0,0c1.8-6.8-2.2-13.7-9-15.5l-84.5-22.5c-6.8-1.8-13.7,2.2-15.5,9l0,0
		C691.4,570.4,695.5,577.3,702.2,579.1z"/>
	<path d="M737.8,460.2h29c7,0,12.7-5.7,12.7-12.7l0,0c0-7-5.7-12.7-12.7-12.7h-29c-7,0-12.7,5.7-12.7,12.7l0,0
		C725.1,454.5,730.8,460.2,737.8,460.2z"/>
	<path d="M684.7,717l27.1,10.5c6.5,2.5,13.9-0.7,16.4-7.3l0,0c2.5-6.5-0.7-13.9-7.3-16.4l-27.1-10.5c-6.5-2.5-13.9,0.7-16.4,7.3l0,0
		C674.9,707.2,678.2,714.5,684.7,717z"/>
	<path d="M643.7,242.4l14.5-25.1c3.5-6.1,1.4-13.8-4.6-17.3l0,0c-6.1-3.5-13.8-1.4-17.3,4.6l-14.5,25.1c-3.5,6.1-1.4,13.8,4.6,17.3
		l0,0C632.5,250.6,640.2,248.5,643.7,242.4z"/>
	<path d="M783.8,277l-75.7,43.7c-6.1,3.5-8.1,11.3-4.6,17.3l0,0c3.5,6.1,11.3,8.1,17.3,4.6l75.7-43.7c6.1-3.5,8.1-11.3,4.6-17.3l0,0
		C797.7,275.5,789.9,273.5,783.8,277z"/>
</g>
<path id="Electric" class="st0" d="M553.3,515.4L499.1,622L485,649.7c-1.2,2.3-4.6,1.4-4.6-1.1v-98.2c0-1.3-1.1-2.4-2.4-2.4h-30.9
	c-1.8,0-3-1.9-2.2-3.5l54.2-106.6l14.1-27.7c1.2-2.3,4.6-1.4,4.6,1.1v98.2c0,1.3,1.1,2.4,2.4,2.4h30.9
	C552.9,511.9,554.1,513.8,553.3,515.4z"/>
</svg>
