<?xml version="1.0" encoding="utf-8"?>
<!-- Generator: Adobe Illustrator 22.0.0, SVG Export Plug-In . SVG Version: 6.00 Build 0)  -->
<svg version="1.1" id="save_live" xmlns="http://www.w3.org/2000/svg" xmlns:xlink="http://www.w3.org/1999/xlink" x="0px" y="0px"
	 viewBox="0 0 1000 1000" style="enable-background:new 0 0 1000 1000;" xml:space="preserve">
<path id="hand" d="M590.1,495.7c-5.1,0.1-14.1,0.4-25.4,0.8c-48.8,1.8-139.9,5.9-139.9,5.9c-22.8,0-41.6,17.1-44.4,39.1
	c-0.3,1.9-0.4,3.9-0.4,5.8v0.4c0,18.9,7.6,36,20,48.4s29.5,20.1,48.4,20.1c12.1,0,30.7,13.3,31.2,13.7c24.7,20.7,3.4,58.1-26.7,58.5
	l-52.8,0.7c-17.2,0.2-33.9-6.6-46.1-18.8L157,473.1C146.9,463,133.7,458,120.5,458s-26.4,5-36.5,15.1c-24.6,24.6-24.6,64.3,0,88.9
	l181.8,181.8c18.9,18.8,39.6,35.6,61.9,49.9c22.3,14.3,81.8,39.6,81.8,39.6c17.7,6.6,58.5,17.4,101.1,27.5
	c12.9,3.1,32.3,5.5,54.1,7.3c12.2,1,25.2,1.9,38.3,2.5c55.5,2.9,231.2-38.1,268.4-68.6c36.2-29.6,58.8-65.1,62.5-103.1
	c0.4-4.4,0.6-8.9,0.5-13.4C932.5,577.2,778.3,492.2,590.1,495.7z"/>
<g id="heart">
	<path d="M580.6,291.6h107.6c2.6,0,3.9,3.1,2.1,5L535.7,458.1L381,296.6c-1.8-1.9-0.5-5,2.1-5h81.7c2.4,0,4.5-1.4,5.2-3.4l1.5-3.9
		l16.7-44.9c0,0,1.6-4,3.1,0L534.9,356l0,0c1.1,3.1,4.2,4.6,7.2,4.6s6-1.5,7.2-4.6l21.7-58.3C572.3,294,576.2,291.6,580.6,291.6z"/>
	<path d="M726.9,225.9c-0.7,18.8-7.5,36.7-18.9,51.5c-1,1.3-2.6,2.1-4.2,2.1H577.9c-8.7,0-16.4,4.9-19.1,12.2l-16.3,43.7
		c-0.2,0.4-0.8,0.4-1,0L497,216c-1.1-3.1-4.2-4.6-7.2-4.6s-6,1.5-7.2,4.6l-21.7,58.4c-1.1,3-4,5-7.3,5h-85.9c-1.7,0-3.2-0.8-4.2-2.1
		c-11.4-14.8-18.3-32.7-18.9-51.5c-0.3-7,0.3-14.5,2-22.4c11.6-52.3,65.8-69.2,69.5-70.3c41.9-12.4,89.6,4.7,119.6,43.1
		c30-38.4,77.7-55.4,119.7-43.1c3.7,1.1,57.9,18.1,69.5,70.3C726.6,211.4,727.2,218.9,726.9,225.9z"/>
</g>
</svg>
