<?xml version="1.0" encoding="utf-8"?>
<!-- Generator: Adobe Illustrator 22.0.0, SVG Export Plug-In . SVG Version: 6.00 Build 0)  -->
<svg version="1.1" id="Chip" xmlns="http://www.w3.org/2000/svg" xmlns:xlink="http://www.w3.org/1999/xlink" x="0px" y="0px"
	 viewBox="0 0 1000 1000" style="enable-background:new 0 0 1000 1000;" xml:space="preserve">
<style type="text/css">
	.st0{fill:#00B70B;}
	.st1{fill:#FFFFFF;}
</style>
<g id="Man">
	<path id="Hand" class="st0" d="M582.6,427.6H351c-19.7,0-35.9-16.2-35.9-35.9v0c0-19.7,16.2-35.9,35.9-35.9h231.6
		c19.7,0,35.9,16.2,35.9,35.9v0C618.5,411.4,602.3,427.6,582.6,427.6z"/>
	<circle id="Head" class="st0" cx="391" cy="177.4" r="113.1"/>
	<g id="Legs">
		<path class="st0" d="M206.1,877.6V646c0-19.7,16.2-35.9,35.9-35.9h0c19.7,0,35.9,16.2,35.9,35.9v231.6c0,19.7-16.2,35.9-35.9,35.9
			h0C222.2,913.5,206.1,897.3,206.1,877.6z"/>
		<path class="st0" d="M330.3,874.8V643.2c0-19.7,16.2-35.9,35.9-35.9h0c19.7,0,35.9,16.2,35.9,35.9v231.6
			c0,19.7-16.2,35.9-35.9,35.9h0C346.4,910.7,330.3,894.6,330.3,874.8z"/>
	</g>
	<path id="Body" class="st0" d="M430.7,382v272c0,31.7-25.7,57.5-57.5,57.5H235c-31.7,0-57.5-25.7-57.5-57.5V382
		c0-69.9,56.7-126.6,126.6-126.6C374,255.4,430.7,312,430.7,382z"/>
</g>
<path class="st0" d="M800.3,622l-2.6,33.2l-18.4,235.4c-1.2,14.8-13.5,26.2-28.3,26.2h-89.7c-14.8,0-27.1-11.4-28.3-26.2
	l-18.4-235.4L612,622H800.3z"/>
<path class="st0" d="M822.5,619v21c0,8.4-6.8,15.2-15.2,15.2H605c-8.4,0-15.2-6.8-15.2-15.2v-21c0-8.4,6.8-15.2,15.2-15.2h202.2
	C815.7,603.7,822.5,610.6,822.5,619z"/>
<g>
	<path id="Tturn_1_" class="st1" d="M739,732.8l-8.7,16.5c-0.2,0.4-0.7,0.7-1.2,0.7l-17.1-0.9c-0.5,0-0.9-0.3-1.1-0.7
		c0-0.1-0.1-0.2-0.1-0.2c-0.1-0.2-0.1-0.4,0-0.7c0-0.1,0-0.2,0.1-0.2c0.1-0.2,0.3-0.4,0.5-0.5l2.6-1.5c0.6-0.4,0.8-1.1,0.5-1.8
		l-3.5-6.1c0,0,0,0,0,0c0,0-0.1-0.1-0.1-0.1c-0.5-0.7-1.2-1.1-2-1.1h-5.3c-0.9,0-1.7,0.5-2.1,1.2l-8.5,15c-0.7,1.2-2.2,1.5-3.5,0.8
		l-16.5-9.3c-1.3-0.7-1.7-2.2-1.1-3.4l5.2-9.3c6.4-11.3,17.7-17,29-16.9h0c1.6,0,3.2,0.1,4.7,0.3c0,0,0.1,0,0.1,0
		c9.5,1.4,18.4,6.8,23.9,16.3c0.2,0.4,0.7,0.6,1.1,0.6c0.2,0,0.4-0.1,0.6-0.2l0.7-0.4C738.4,730.4,739.6,731.6,739,732.8z"/>
	<path id="Rturn_1_" class="st1" d="M762.5,791.4c-1.8,15.8-15,29.5-33,29.5c-0.5,0-0.9,0.3-1.1,0.6c-0.1,0.2-0.2,0.4-0.2,0.6l0,0.8
		c0,1.3-1.7,1.8-2.4,0.7l-10-15.7c-0.3-0.4-0.3-1,0-1.4l9.3-14.4c0.7-1.1,2.4-0.6,2.4,0.7l0,3c0,0.7,0.6,1.3,1.3,1.3l7-0.1
		c0.9,0,1.7-0.5,2.1-1.2l2.5-4.4l0.1-0.2c0.4-0.8,0.4-1.7,0-2.4l-8.8-14.9c-0.7-1.1-0.2-2.7,1-3.4l16.3-9.7c1.2-0.7,2.8-0.4,3.5,0.7
		l5.5,9.1C762,777.4,763.3,784.6,762.5,791.4z"/>
	<path id="Lturn_1_" class="st1" d="M695.9,800l-0.1,18.9c0,1.4-1.1,2.6-2.4,2.6l-10.6,0c-18.2-0.1-31.4-14-33-30
		c-0.2-2.3-0.2-4.7,0.1-7c0.5-4.5,2-8.9,4.6-13.2c0.2-0.4,0.2-0.9,0-1.3c-0.1-0.2-0.3-0.4-0.5-0.5l-0.7-0.4
		c-1.1-0.7-0.7-2.4,0.6-2.4l18.6-0.4c0.5,0,1,0.3,1.2,0.7l7.6,15.4c0.6,1.1-0.7,2.3-1.8,1.7l-2.5-1.5c-0.6-0.4-1.4-0.2-1.8,0.4
		l-0.9,1.5l-2.7,4.5c-0.4,0.8-0.5,1.7,0,2.4l0,0.1l2.5,4.6c0.4,0.8,1.2,1.2,2.1,1.3l17.3,0.1C694.8,797.4,695.9,798.6,695.9,800z"/>
</g>
<ellipse id="Trash" class="st0" cx="677.6" cy="498" rx="32.4" ry="46.5"/>
</svg>
