<?xml version="1.0" encoding="utf-8"?>
<!-- Generator: Adobe Illustrator 22.0.0, SVG Export Plug-In . SVG Version: 6.00 Build 0)  -->
<svg version="1.1" id="Layer_4" xmlns="http://www.w3.org/2000/svg" xmlns:xlink="http://www.w3.org/1999/xlink" x="0px" y="0px"
	 viewBox="0 0 1000 1000" style="enable-background:new 0 0 1000 1000;" xml:space="preserve">
<style type="text/css">
	.st0{fill:#00B70B;}
	.st1{fill:#FFFFFF;}
</style>
<path id="Body" class="st0" d="M761.6,207.9l-7.2,81.8l-51.1,580.7c-3.2,36.4-37.4,64.5-78.6,64.5H375.3
	c-41.2,0-75.4-28.1-78.6-64.5l-51.1-580.7l-7.2-81.8H761.6z"/>
<path id="Top" class="st0" d="M823.4,124.3v44.3c0,27.2-22.1,49.3-49.3,49.3H225.9c-27.2,0-49.3-22.1-49.3-49.3v-44.3
	c0-27.2,22.1-49.3,49.3-49.3h548.1C801.3,75,823.4,97.1,823.4,124.3z"/>
<g id="Recycle">
	<path id="Tturn_1_" class="st1" d="M591.4,423.7l-24.1,45.7c-0.6,1.2-1.9,2-3.3,1.9l-47.6-2.4c-1.5-0.1-2.5-0.9-3-2
		c-0.1-0.2-0.2-0.4-0.2-0.6c-0.2-0.6-0.2-1.2,0-1.8c0.1-0.2,0.1-0.4,0.2-0.6c0.3-0.6,0.8-1.1,1.5-1.5l7.1-4.1c1.7-1,2.3-3.2,1.3-4.9
		l-9.9-16.8c0,0,0,0,0-0.1c-0.1-0.1-0.2-0.2-0.2-0.4c-1.3-1.8-3.4-2.9-5.6-2.9h-14.8c-2.4,0-4.7,1.3-5.9,3.4l-23.7,41.8
		c-1.8,3.2-6.1,4.2-9.6,2.2l-45.7-25.9c-3.5-2-4.8-6.2-3-9.4l14.5-25.7c17.7-31.4,49.2-47.1,80.6-47h0.1c4.4,0,8.8,0.3,13.1,1
		c0.1,0,0.2,0,0.2,0c26.3,3.9,51.2,19,66.3,45.4c0.7,1.1,1.9,1.8,3.1,1.8c0.6,0,1.2-0.2,1.8-0.5l1.9-1.1
		C589.5,417.2,593.1,420.5,591.4,423.7z"/>
	<path id="Rturn_1_" class="st1" d="M656.6,586.7c-5,43.9-41.7,82-91.7,82c-1.3,0-2.4,0.7-3.1,1.8c-0.3,0.5-0.5,1.1-0.5,1.8l0,2.3
		c0,3.6-4.6,5-6.6,1.9l-27.7-43.7c-0.7-1.2-0.7-2.7,0-3.8l25.7-40.1c1.9-3,6.6-1.6,6.5,1.9l0,8.2c0,2,1.6,3.6,3.6,3.6l19.5-0.2
		c2.4,0,4.6-1.3,5.8-3.4l7-12.3l0.3-0.5c1.2-2.1,1.2-4.7,0-6.8l-24.5-41.3c-1.9-3.2-0.6-7.4,2.8-9.4l45.2-26.8c3.4-2,7.8-1.1,9.6,2
		l15.2,25.3C655.1,547.8,658.8,567.8,656.6,586.7z"/>
	<path id="Lturn_1_" class="st1" d="M471.4,610.5l-0.3,52.6c0,4-3,7.2-6.7,7.2l-29.5-0.1c-50.5-0.1-87.2-39-91.6-83.4
		c-0.6-6.4-0.6-13,0.2-19.6c1.5-12.4,5.6-24.9,12.7-36.7c0.7-1.1,0.6-2.5,0-3.5c-0.3-0.5-0.7-1-1.3-1.3l-1.9-1.1
		c-3.1-1.8-1.9-6.5,1.7-6.6l51.7-1.2c1.4,0,2.7,0.7,3.3,2l21.1,42.7c1.6,3.2-2,6.5-5,4.6l-7-4.3c-1.7-1-3.9-0.5-4.9,1.2l-2.5,4.3
		l-7.4,12.6c-1.2,2.1-1.3,4.7-0.1,6.8l0.1,0.2l7.1,12.7c1.2,2.1,3.4,3.5,5.8,3.5l48,0.3C468.5,603.2,471.5,606.5,471.4,610.5z"/>
</g>
</svg>
