<?xml version="1.0" encoding="utf-8"?>
<!-- Generator: Adobe Illustrator 22.0.0, SVG Export Plug-In . SVG Version: 6.00 Build 0)  -->
<svg version="1.1" id="Recycle" xmlns="http://www.w3.org/2000/svg" xmlns:xlink="http://www.w3.org/1999/xlink" x="0px" y="0px"
	 viewBox="0 0 1000 1000" style="enable-background:new 0 0 1000 1000;" xml:space="preserve">
<path id="Tturn" d="M738.1,235.2l-62.9,119.2c-1.7,3.2-5.1,5.1-8.7,4.9c0,0-123.9-6.3-123.9-6.3c-4.6-0.2-8.5-4.1-8.8-8.7
	c-0.4-7.6,8.5-10.7,14-13.8c3.1-1.8,6.2-3.6,9.4-5.3c4.5-2.5,6-8.3,3.4-12.7l-25.7-43.9c0-0.1-0.1-0.1-0.1-0.2
	c-0.2-0.3-0.4-0.6-0.6-0.9c-3.3-4.8-8.8-7.7-14.6-7.7h-38.4c-6.3,0-12.2,3.4-15.4,8.8L404,377.4c-4.7,8.4-15.9,11-25,5.8
	l-119.2-67.5c-9.1-5.1-12.6-16.1-7.8-24.4l37.7-67.1c46-81.9,128.1-122.8,210.1-122.5h0.2c11.4,0,22.8,0.9,34.1,2.5
	c0.2,0,0.4,0.1,0.6,0.1c13.7,0,29.7,5.9,42.6,10.3c14.3,4.8,28.1,11,41.2,18.5c27.2,15.5,51.2,36.5,70.3,61.3
	c4.8,6.3,9.4,12.8,13.6,19.5c3.5,5.6,7,15.1,15.5,12.8c2.7-0.7,4.9-2.6,7.4-3.9C733.2,218.5,742.5,226.9,738.1,235.2z"/>
<path id="Rturn" d="M908.1,660c-6.3,54.8-31.8,106.8-71.1,145.5c-22.2,21.9-48.8,39.2-77.7,50.8c-26.1,10.5-54,16.5-82.2,16.8
	c-6.3,0.1-14.1,0.8-16.6,6.6c-1.2,2.8-0.7,6-0.7,9c-0.1,8.9-11.7,13.5-16.9,5.3c0,0-72.2-113.8-72.2-113.8c-1.9-3-1.9-6.9,0-10
	l67.1-104.4c5-7.8,17.1-4.2,17,5l-0.1,21.4c0,5.2,4.2,9.3,9.4,9.3L715,701c6.3-0.1,12.1-3.5,15.2-8.9l18.4-32.1l0.7-1.3
	c3.1-5.5,3.1-12.2,0-17.7l-63.9-107.6c-4.9-8.2-1.6-19.3,7.3-24.6l117.8-69.9c9-5.3,20.2-2.9,25.1,5.3l39.5,66
	C904.1,558.5,913.8,610.7,908.1,660z"/>
<path id="Lturn" d="M425.5,721.9l-0.9,137c-0.1,10.4-7.9,18.8-17.5,18.7l-76.9-0.2C198.7,877,102.9,775.7,91.5,660
	c-1.7-16.8-1.5-33.9,0.5-51c2.3-19.5,7.2-38.8,14.2-57.1c2.9-7.6,6.3-15.1,10-22.4c1.9-3.7,3.9-7.4,6.1-11c1.8-3.1,4.3-6.4,4-10.3
	c-0.4-5.7-5.1-7.8-9.5-10.4c-8-4.7-4.8-17,4.5-17.2l134.7-3.2c3.6-0.1,6.9,1.9,8.5,5.2l54.9,111.3c4.1,8.3-5.2,16.8-13.1,12
	L288,594.7c-4.4-2.7-10.2-1.2-12.8,3.2l-6.5,11.1l-19.3,32.7c-3.2,5.4-3.3,12.2-0.2,17.7l0.3,0.6l18.4,33c3.1,5.5,8.9,9,15.2,9.1
	l125.2,0.8C417.9,703,425.6,711.5,425.5,721.9z"/>
</svg>
