<?xml version="1.0" encoding="utf-8"?>
<!-- Generator: Adobe Illustrator 22.0.0, SVG Export Plug-In . SVG Version: 6.00 Build 0)  -->
<svg version="1.1" id="Tree_Saw" xmlns="http://www.w3.org/2000/svg" xmlns:xlink="http://www.w3.org/1999/xlink" x="0px" y="0px"
	 viewBox="0 0 1000 1000" style="enable-background:new 0 0 1000 1000;" xml:space="preserve">
<style type="text/css">
	.st0{fill:#754C24;}
	.st1{fill:#00B70B;}
	.st2{fill:#FF0000;}
	.st3{fill:#808080;}
</style>
<g id="Tree">
	<path id="Stem" class="st0" d="M587.3,972H402.8c-24.1,0-42.5-21.3-39.2-45.1l37.5-266.1l29.1-206.1c2.8-19.5,19.4-34,39.2-34h51.2
		c19.7,0,36.4,14.5,39.1,34l28.7,203.7l16.4,116C606,782,600,789,592.2,789h-79.8c-6.3,0-12.2,1.6-17.3,4.5c-2.9,1.6-5.5,3.6-7.9,6
		c-6.5,6.5-10.5,15.4-10.5,25.2c0,13.3,7.4,25.1,18.4,31.2c5.1,2.9,11.1,4.5,17.4,4.5h93.5c6.4,0,11.8,4.7,12.7,11l7.8,55.4
		C629.8,950.7,611.4,972,587.3,972z"/>
	<path id="Leaves" class="st1" d="M785.9,461c-5,5-10.3,9.6-15.9,13.6c7.5,42.7-5.3,88.3-38.3,121.3c-33.4,33.4-79.7,46-122.9,38
		c-5.1,7.8-11.1,15.2-17.9,22c-0.8,0.8-1.6,1.6-2.5,2.4c-8.3,7.9-17.3,14.5-26.9,20C541,690.1,518,696.1,495,696.3
		c-24,0.3-48.1-5.7-69.6-17.9c-8.6-4.9-16.7-10.7-24.3-17.6c-1.7-1.5-3.4-3.2-5.1-4.8c-5.8-5.8-10.9-12-15.5-18.5
		c-42.2,6.8-86.9-6.1-119.4-38.6c-33.8-33.8-46.4-80.9-37.7-124.6c-6.8-4.7-13.3-10.1-19.4-16.2c-53.8-53.8-53.8-141.1,0-194.9
		c5.9-5.9,12.3-11.3,18.9-15.9c-7.7-42.9,5-88.8,38.1-122c33.2-33.1,79.1-45.9,122-38.2c4.6-6.7,9.9-13,15.8-18.9
		c26.5-26.5,61.3-40,96.1-40.3c35.7-0.4,71.5,13.1,98.8,40.3c5.8,5.8,11,12,15.5,18.5c42.2-6.7,86.9,6.2,119.4,38.6
		c33.8,33.8,46.4,80.9,37.7,124.6c6.9,4.7,13.3,10.1,19.5,16.1C839.8,320,839.8,407.2,785.9,461z"/>
</g>
<g id="Saw">
	<g id="SawTeeth">
		<path d="M534,801.1l-4.3,7.6h12.5l-4.4-7.6C536.9,799.6,534.8,799.7,534,801.1z"/>
		<path d="M554.5,801.1l-4.3,7.6h12.5l-4.4-7.6C557.4,799.6,555.3,799.7,554.5,801.1z"/>
		<path d="M574.1,801.1l-4.3,7.6h12.5l-4.4-7.6C577,799.6,574.9,799.7,574.1,801.1z"/>
		<path d="M594.6,801.1l-4.4,7.6h12.5l-4.3-7.6C597.5,799.7,595.4,799.6,594.6,801.1z"/>
		<path d="M614.7,801.1l-4.4,7.6h12.5l-4.3-7.6C617.6,799.7,615.5,799.6,614.7,801.1z"/>
		<path d="M618.4,850.2l4.3-7.5h-12.5l4.4,7.5C615.5,851.6,617.6,851.6,618.4,850.2z"/>
		<path d="M534,849l-4.3-7.5h12.5l-4.4,7.5C536.9,850.4,534.8,850.4,534,849z"/>
		<path d="M554.5,849l-4.3-7.5h12.5l-4.4,7.5C557.4,850.4,555.3,850.4,554.5,849z"/>
		<path d="M574.1,849l-4.3-7.5h12.5l-4.4,7.5C577,850.4,574.9,850.4,574.1,849z"/>
		<path d="M594.6,849l-4.4-7.5h12.5l-4.3,7.5C597.5,850.4,595.4,850.4,594.6,849z"/>
	</g>
	<g id="SawBody">
		<path class="st2" d="M748.3,816.1v19c0,5.5-1.4,10.7-3.9,15.2c-1.2,2.1-2.6,4.1-4.2,6c-5.9,6.5-14.4,10.7-23.8,10.7h-54.1
			c-15.1,0-27.7-10.4-31.1-24.5h9.8c4.7,0,8.9-1.9,12-5c3.1-3.1,5-7.3,5-12c0-9.4-7.6-17-17-17h-9.8c3.4-14.1,16-24.5,31.1-24.5
			h54.1c6.3,0,12.1,1.8,17,4.9c2.5,1.6,4.8,3.6,6.8,5.8c1.7,1.8,3,3.9,4.2,6C746.9,805.4,748.3,810.6,748.3,816.1z"/>
		<path class="st2" d="M657.9,825.6c0,4.7-1.9,8.9-5,12c-3.1,3.1-7.3,5-12,5h-9.8c-0.6-2.4-0.9-4.9-0.9-7.5v-19
			c0-2.5,0.3-5.1,0.9-7.5h9.8C650.3,808.7,657.9,816.3,657.9,825.6z"/>
		<path class="st3" d="M657.9,825.6c0,4.7-1.9,8.9-5,12c-3.1,3.1-7.3,5-12,5H532.2c-9.4,0-17-7.6-17-17c0-4.7,1.9-8.9,5-12
			c3.1-3.1,7.3-5,12-5H641C650.3,808.7,657.9,816.3,657.9,825.6z"/>
		<path class="st2" d="M762.8,815.8v19.4c0,1.2-0.1,2.3-0.1,3.5c-0.4,6.8-8.3,12.1-18.1,12.1l0,0c-2.1,0-4.1-1.1-5.8-3
			c-0.9-1-1.7-2.2-2.3-3.6c-1.7-3.4-2.8-8-2.8-13v-11.6c0-5,1-9.5,2.8-13c2-4,4.9-6.5,8.2-6.5l0,0c9.6,0,17.6,5.3,18.1,12.1
			C762.8,813.4,762.8,814.6,762.8,815.8z"/>
	</g>
</g>
</svg>
