<?xml version="1.0" encoding="utf-8"?>
<!-- Generator: Adobe Illustrator 22.0.0, SVG Export Plug-In . SVG Version: 6.00 Build 0)  -->
<svg version="1.1" id="Tree_Axe" xmlns="http://www.w3.org/2000/svg" xmlns:xlink="http://www.w3.org/1999/xlink" x="0px" y="0px"
	 viewBox="0 0 1000 1000" style="enable-background:new 0 0 1000 1000;" xml:space="preserve">
<g id="Axe">
	<path id="_x32_" d="M756.2,914.9c-3.4,8.1-13.8,13-22,9.1c0,0-94.7-41.7-94.7-41.7c-1.4-0.6-3.7-1.1-3.8-3l-3-33.9
		c-0.2-1.8,1.6-3,3.2-2.3l111.4,49.1C755.9,895.8,759.9,906,756.2,914.9z"/>
	<path id="_x31_" d="M624.9,903.8l-79.7-29.6c-8-2.9-10.2-13.3-4-19.2l51.2-49.5c3.2-3.1,7.9-4.1,12.1-2.5l5.7,2.1
		c0.1,0,0.1,0,0.1,0l16.2,6.1c4.2,1.5,7.1,5.3,7.5,9.8l0.7,7.1v0.5l1.3,14.3l2.8,30.6l0.8,8.7l0.9,9.6
		C641.2,900.4,632.8,906.8,624.9,903.8z"/>
</g>
<g id="Tree_1_">
	<path id="Stem" d="M588.4,988.3H411.6c-21.2,0-36.6-26.1-31.1-52.6l45.8-220.6l0.1-0.7l14.6-70.1l12.7-61
		c2.4-11.5,12.5-19.8,24.3-19.8H522c11.8,0,21.9,8.2,24.3,19.8l10.7,51.3l16.4,78.8l0.2,0.9l12.9,62.2c0.1,0.7,0.2,1.3,0.2,2
		c0,2.5-1,5-2.8,6.8l-70.5,70.4c-9.7,9.7-5.9,26.1,7,30.6l90.8,32c3.2,1.2,5.6,3.9,6.3,7.2c3.1,14.9,5.2,29.1-1.8,43.3
		C610.6,979.4,600.7,988.3,588.4,988.3z"/>
	<path id="Leaves" d="M814.3,479.6c-5.4,5.4-11.1,10.3-17.1,14.7c8,46.2-5.8,95.4-41.4,131c-36.1,36.1-86.1,49.8-132.7,41.1
		c-5.5,8.4-12,16.3-19.3,23.7c-9.2,9.3-19.5,17.1-30.3,23.4c-0.5,0.3-0.9,0.6-1.4,0.9c-21.2,12.1-44.6,18.5-68.3,19.3
		c-26.6,0.9-53.5-5.2-77.4-18.6c-0.5-0.2-0.9-0.5-1.4-0.7c-11.4-6.5-22.1-14.5-31.7-24.2c-6.3-6.2-11.8-12.9-16.8-19.9
		c-45.5,7.3-93.8-6.6-128.9-41.7C211,592,197.5,541.2,206.9,494c-7.4-5.1-14.4-10.9-20.9-17.5c-58.2-58.2-58.2-152.4,0-210.6
		c6.4-6.4,13.3-12.1,20.4-17.1c-8.4-46.4,5.4-96,41.3-131.8c35.8-35.8,85.4-49.6,131.8-41.2c5-7.2,10.7-14,17.1-20.5
		c29.6-29.6,68.6-44.1,107.4-43.6c37.4,0.5,74.6,15,103.2,43.6c6.3,6.3,11.8,13,16.8,20c45.5-7.3,93.8,6.6,128.9,41.7
		c36.6,36.6,50.1,87.4,40.7,134.6c7.4,5.1,14.4,10.9,20.9,17.5C872.4,327.1,872.4,421.4,814.3,479.6z"/>
</g>
</svg>
