<?xml version="1.0" encoding="utf-8"?>
<!-- Generator: Adobe Illustrator 22.0.0, SVG Export Plug-In . SVG Version: 6.00 Build 0)  -->
<svg version="1.1" id="Layer_1" xmlns="http://www.w3.org/2000/svg" xmlns:xlink="http://www.w3.org/1999/xlink" x="0px" y="0px"
	 viewBox="0 0 1000 1000" style="enable-background:new 0 0 1000 1000;" xml:space="preserve">
<style type="text/css">
	.st0{fill:none;stroke:#000000;stroke-width:20;stroke-miterlimit:10;}
</style>
<path class="st0" d="M643.3,212.6c0,10.2-0.9,20.3-2.5,30c-4.5,26.4-14.9,50.5-29.6,70.7c-0.9,1.2-2.8,4-2.8,4l-5.3,49.4L560,770
	H430.9l-43.1-403.3l-6.4-49.4c-0.2-1.4-0.7-2.8-1.6-4c-14.7-20.2-25.1-44.3-29.6-70.7c-1.7-9.7-2.5-19.7-2.5-30
	c0-12.1,1.2-23.9,3.5-35.3C365.8,105,424.9,50.9,495.5,50.9h0c70.6,0,129.6,54.1,144.3,126.5C642.1,188.7,643.3,200.5,643.3,212.6z"
	/>
<g id="Layer_2">
</g>
<path class="st0" d="M653.2,187v45.9c0,5.3-4.3,9.7-9.7,9.7H347.3c-5.3,0-9.7-4.3-9.7-9.7V187c0-5.3,4.3-9.7,9.7-9.7h296.2
	C648.9,177.3,653.2,181.7,653.2,187z"/>
<path class="st0" d="M495.5,651L495.5,651c-12.4,0-22.5-10.1-22.5-22.5v0c0-12.4,10.1-22.5,22.5-22.5h0c12.4,0,22.5,10.1,22.5,22.5
	v0C518,640.9,507.8,651,495.5,651z"/>
<path class="st0" d="M495.5,580.2L495.5,580.2c-12.4,0-22.5-10.1-22.5-22.5v0c0-12.4,10.1-22.5,22.5-22.5h0
	c12.4,0,22.5,10.1,22.5,22.5v0C518,570,507.8,580.2,495.5,580.2z"/>
<polygon class="st0" points="609,317.3 603.7,366.7 388.4,366.7 381.9,317.3 "/>
<path class="st0" d="M560,770l-4,37.4c-0.2,1.2-0.4,2.3-0.5,3.5v0c-2.5,23.3-22.1,40.9-45.5,40.9h-29.3c-23.4,0-43-17.6-45.5-40.9
	l-4.4-40.9H560z"/>
</svg>
