<?xml version="1.0" encoding="utf-8"?>
<!-- Generator: Adobe Illustrator 22.0.0, SVG Export Plug-In . SVG Version: 6.00 Build 0)  -->
<svg version="1.1" id="Waves" xmlns="http://www.w3.org/2000/svg" xmlns:xlink="http://www.w3.org/1999/xlink" x="0px" y="0px"
	 viewBox="0 0 1000 1000" style="enable-background:new 0 0 1000 1000;" xml:space="preserve">
<style type="text/css">
	.st0{fill:#00B70B;}
	.st1{fill:#63D5FF;}
</style>
<g id="BOttle_2">
	<path class="st0" d="M463.5,322.6l-10.2,10.2c-15.6-9.4-31.4-21.6-46.1-36.4c-14.8-14.8-27-30.5-36.4-46.1l10.2-10.2
		c2.2-2.2,4.7-4.2,7.2-5.8c3.8-2.5,8-4.2,12.2-5.3c3.9-1,7.9-1.5,11.9-1.4c0.3,0,0.6,0,1,0c3.2,0.2,6.4,0.7,9.5,1.6
		c1.7,0.5,3.5,1.1,5.1,1.8c4.9,2.1,9.4,5.1,13.4,9.1l22,22c3.7,3.7,6.5,7.8,8.6,12.3c0.9,2,1.7,4.1,2.3,6.3c0.9,3.1,1.4,6.3,1.6,9.5
		c0,0.3,0,0.6,0,0.9c0.1,4-0.3,8.1-1.4,12l0,0c-1.1,4.3-2.9,8.4-5.3,12.2C467.7,317.9,465.8,320.3,463.5,322.6z"/>
	<path class="st0" d="M389.9,313.7c14.8,14.8,30.5,27,46.1,36.4L419.1,367c-1-0.6-2-1.2-2.9-1.8c-1-0.6-2-1.2-2.9-1.9
		c-1-0.6-2-1.3-2.9-1.9c-1-0.6-2-1.3-2.9-2c-4.9-3.4-9.9-7.1-14.8-11.1c-0.8-0.6-1.5-1.2-2.3-1.9c-1.1-0.9-2.2-1.8-3.3-2.8
		c-0.8-0.7-1.6-1.4-2.4-2.1c-0.6-0.5-1.1-1-1.7-1.5c-0.8-0.7-1.6-1.4-2.4-2.1c-0.9-0.8-1.7-1.6-2.6-2.4c-1.7-1.6-3.4-3.3-5.1-4.9
		c0,0,0,0,0,0c-1.7-1.7-3.3-3.4-4.9-5c-0.8-0.9-1.6-1.7-2.4-2.6c-0.8-0.8-1.6-1.7-2.3-2.6c-0.5-0.6-1-1.1-1.5-1.7
		c-0.6-0.7-1.3-1.5-1.9-2.2c-1.9-2.2-3.8-4.4-5.6-6.7c-0.7-0.8-1.3-1.7-2-2.5c-0.7-0.9-1.4-1.8-2-2.6c-1.4-1.8-2.6-3.5-3.9-5.3
		c-0.5-0.7-0.9-1.3-1.4-2c-0.3-0.4-0.6-0.8-0.8-1.2c-0.7-1-1.3-1.9-2-2.9c-0.7-1-1.3-2-1.9-3c-0.6-1-1.2-1.9-1.9-2.9s-1.2-2-1.8-2.9
		l16.9-16.9C362.9,283.3,375.1,299,389.9,313.7z"/>
	<path class="st0" d="M356.1,347.5c14.7,14.7,30.5,27,46.1,36.4l-17.9,17.9c-15.7-9.4-31.4-21.6-46.1-36.4
		c-14.7-14.7-27-30.5-36.4-46.1l17.9-17.9C329.1,317,341.3,332.8,356.1,347.5z"/>
	<path class="st0" d="M321.3,382.3c14.7,14.7,30.5,27,46.1,36.4L350.1,436c-15.7-9.4-31.4-21.6-46.1-36.4s-27-30.5-36.4-46.1
		l17.4-17.4C294.3,351.8,306.6,367.5,321.3,382.3z"/>
	<path class="st0" d="M505,250.1l-35.3,35.3l-51.5-51.5l35.3-35.3c7.2-7.2,19-7.2,26.1,0l25.3,25.3
		C512.2,231.1,512.2,242.9,505,250.1z"/>
</g>
<g id="Bottle_1">
	<path class="st0" d="M778.5,322.6l-10.2,10.2c-15.6-9.4-31.4-21.6-46.1-36.4s-27-30.5-36.4-46.1l10.2-10.2c2.2-2.2,4.7-4.2,7.2-5.8
		c3.8-2.5,8-4.2,12.2-5.3c3.9-1,7.9-1.5,11.9-1.4c0.3,0,0.6,0,1,0c3.2,0.2,6.4,0.7,9.5,1.6c1.7,0.5,3.5,1.1,5.1,1.8
		c4.9,2.1,9.4,5.1,13.4,9.1l22,22c3.7,3.7,6.5,7.8,8.6,12.3c0.9,2,1.7,4.1,2.3,6.3c0.9,3.1,1.4,6.3,1.6,9.5c0,0.3,0,0.6,0,0.9
		c0.1,4-0.3,8.1-1.4,12l0,0c-1.1,4.3-2.9,8.4-5.3,12.2C782.7,317.9,780.7,320.3,778.5,322.6z"/>
	<path class="st0" d="M704.8,313.7c14.8,14.8,30.5,27,46.1,36.4L734,367c-1-0.6-2-1.2-2.9-1.8c-1-0.6-2-1.2-2.9-1.9
		c-1-0.6-2-1.3-2.9-1.9c-1-0.6-2-1.3-2.9-2c-4.9-3.4-9.9-7.1-14.8-11.1c-0.8-0.6-1.5-1.2-2.3-1.9c-1.1-0.9-2.2-1.8-3.3-2.8
		c-0.8-0.7-1.6-1.4-2.4-2.1c-0.6-0.5-1.1-1-1.7-1.5c-0.8-0.7-1.6-1.4-2.4-2.1c-0.9-0.8-1.7-1.6-2.6-2.4c-1.7-1.6-3.4-3.3-5.1-4.9
		c0,0,0,0,0,0c-1.7-1.7-3.3-3.4-4.9-5c-0.8-0.9-1.6-1.7-2.4-2.6c-0.8-0.8-1.6-1.7-2.3-2.6c-0.5-0.6-1-1.1-1.5-1.7
		c-0.6-0.7-1.3-1.5-1.9-2.2c-1.9-2.2-3.8-4.4-5.6-6.7c-0.7-0.8-1.3-1.7-2-2.5c-0.7-0.9-1.4-1.8-2-2.6c-1.4-1.8-2.6-3.5-3.9-5.3
		c-0.5-0.7-0.9-1.3-1.4-2c-0.3-0.4-0.6-0.8-0.8-1.2c-0.7-1-1.3-1.9-2-2.9c-0.7-1-1.3-2-1.9-3c-0.6-1-1.2-1.9-1.9-2.9s-1.2-2-1.8-2.9
		l16.9-16.9C677.8,283.3,690.1,299,704.8,313.7z"/>
	<path class="st0" d="M671,347.5c14.7,14.7,30.5,27,46.1,36.4l-17.9,17.9c-15.7-9.4-31.4-21.6-46.1-36.4s-27-30.5-36.4-46.1
		l17.9-17.9C644,317,656.3,332.8,671,347.5z"/>
	<path class="st0" d="M636.3,382.3c14.7,14.7,30.5,27,46.1,36.4L665,436c-15.7-9.4-31.4-21.6-46.1-36.4s-27-30.5-36.4-46.1
		l17.4-17.4C609.3,351.8,621.5,367.5,636.3,382.3z"/>
	<path class="st0" d="M819.9,250.1l-35.3,35.3l-51.5-51.5l35.3-35.3c7.2-7.2,19-7.2,26.1,0l25.3,25.3
		C827.2,231.1,827.1,242.9,819.9,250.1z"/>
</g>
<g id="Water">
	<path class="st1" d="M944.8,537.1v0.7c0,11.4-6.3,21.9-16.4,27.2c-18.5,9.7-41.3,15.3-66,15.3c-32.3,0-61.4-9.7-81.9-25.4
		c-5.3-4-12.5-4-17.7,0c-20.4,15.6-49.6,25.4-81.9,25.4c-32,0-60.8-9.6-81.3-24.9c-5.1-3.8-12.1-3.9-17.2-0.1
		c-4.1,3-8.2,5.9-8.9,6.3c-39.1,23.5-89.6,25.5-131.4,8c-8.7-3.6-16.9-8.3-24.5-13.9c0,0,0,0,0,0c-5.2-3.9-12.3-3.9-17.5-0.1
		c-20.4,15.2-49.2,24.7-81,24.7c-32.3,0-61.4-9.7-81.9-25.4c-5.3-4-12.5-4-17.7,0c-20.4,15.6-49.5,25.4-81.9,25.4
		c-24.7,0-47.5-5.7-66-15.3c-10.1-5.3-16.4-15.8-16.4-27.2v-0.7c0-20.5,19.7-35.5,39.3-29.6c13.3,3.9,27.8,6.1,43.1,6.1
		c26.3,0,50.4-6.4,69.6-17.3c4.4-2.5,8.5-5.2,12.4-8.1c5.2-4,12.4-4,17.6,0c3.8,2.9,8,5.7,12.4,8.1c19.1,10.8,43.3,17.3,69.6,17.3
		c25.3,0,48.8-6,67.6-16.2c4.9-2.6,9.4-5.5,13.6-8.7c5.1-3.8,12.1-3.8,17.1,0c4.2,3.2,8.8,6.1,13.7,8.7c41.4,22.1,96.6,22.1,138,0
		c4.9-2.6,9.4-5.5,13.7-8.7c5.1-3.8,12.1-3.8,17.1,0c4.2,3.1,8.7,6.1,13.6,8.7c18.8,10.1,42.2,16.2,67.6,16.2
		c26.3,0,50.5-6.4,69.6-17.3c4.4-2.5,8.6-5.2,12.4-8.1c5.2-4,12.4-4,17.6,0c3.8,2.9,8,5.7,12.4,8.1c19.1,10.8,43.3,17.3,69.6,17.3
		c15.3,0,29.8-2.2,43.1-6.1C925.2,501.6,944.8,516.6,944.8,537.1z"/>
	<path class="st1" d="M944.8,405.6v0.7c0,11.4-6.3,21.9-16.4,27.2c-18.5,9.7-41.3,15.3-66,15.3c-32.3,0-61.4-9.7-81.9-25.4
		c-5.3-4-12.5-4-17.7,0c-20.4,15.6-49.6,25.4-81.9,25.4c-32,0-60.8-9.6-81.3-24.9c-5.1-3.8-12.1-3.9-17.2-0.1
		c-4.1,3-8.2,5.9-8.9,6.3c-39.1,23.5-89.6,25.5-131.4,8c-8.7-3.6-16.9-8.3-24.5-13.9c0,0,0,0,0,0c-5.2-3.9-12.3-3.9-17.5-0.1
		c-20.4,15.2-49.2,24.7-81,24.7c-32.3,0-61.4-9.7-81.9-25.4c-5.3-4-12.5-4-17.7,0c-20.4,15.6-49.5,25.4-81.9,25.4
		c-24.7,0-47.5-5.7-66-15.3c-10.1-5.3-16.4-15.8-16.4-27.2v-0.7c0-20.5,19.7-35.5,39.3-29.6c13.3,3.9,27.8,6.1,43.1,6.1
		c26.3,0,50.4-6.4,69.6-17.3c4.4-2.5,8.5-5.2,12.4-8.1c5.2-4,12.4-4,17.6,0c3.8,2.9,8,5.7,12.4,8.1c19.1,10.8,43.3,17.3,69.6,17.3
		c25.3,0,48.8-6,67.6-16.2c4.9-2.6,9.4-5.5,13.6-8.7c5.1-3.8,12.1-3.8,17.1,0c4.2,3.2,8.8,6.1,13.7,8.7c41.4,22.1,96.6,22.1,138,0
		c4.9-2.6,9.4-5.5,13.7-8.7c5.1-3.8,12.1-3.8,17.1,0c4.2,3.1,8.7,6.1,13.6,8.7c18.8,10.1,42.2,16.2,67.6,16.2
		c26.3,0,50.5-6.4,69.6-17.3c4.4-2.5,8.6-5.2,12.4-8.1c5.2-4,12.4-4,17.6,0c3.8,2.9,8,5.7,12.4,8.1c19.1,10.8,43.3,17.3,69.6,17.3
		c15.3,0,29.8-2.2,43.1-6.1C925.2,370.1,944.8,385.1,944.8,405.6z"/>
	<path class="st1" d="M944.8,813.8v0.7c0,11.4-6.3,21.9-16.4,27.2c-18.5,9.7-41.3,15.3-66,15.3c-32.3,0-61.4-9.7-81.9-25.4
		c-5.3-4-12.5-4-17.7,0c-20.4,15.6-49.6,25.4-81.9,25.4c-32,0-60.8-9.6-81.3-24.9c-5.1-3.8-12.1-3.9-17.2-0.1
		c-4.1,3-8.2,5.9-8.9,6.3c-39.1,23.5-89.6,25.5-131.4,8c-8.7-3.6-16.9-8.3-24.5-13.9c0,0,0,0,0,0c-5.2-3.9-12.3-3.9-17.5-0.1
		c-20.4,15.2-49.2,24.7-81,24.7c-32.3,0-61.4-9.7-81.9-25.4c-5.3-4-12.5-4-17.7,0c-20.4,15.6-49.5,25.4-81.9,25.4
		c-24.7,0-47.5-5.7-66-15.3c-10.1-5.3-16.4-15.8-16.4-27.2v-0.7c0-20.5,19.7-35.5,39.3-29.6c13.3,3.9,27.8,6.1,43.1,6.1
		c26.3,0,50.4-6.4,69.6-17.3c4.4-2.5,8.5-5.2,12.4-8.1c5.2-4,12.4-4,17.6,0c3.8,2.9,8,5.7,12.4,8.1c19.1,10.8,43.3,17.3,69.6,17.3
		c25.3,0,48.8-6,67.6-16.2c4.9-2.6,9.4-5.5,13.6-8.7c5.1-3.8,12.1-3.8,17.1,0c4.2,3.2,8.8,6.1,13.7,8.7c41.4,22.1,96.6,22.1,138,0
		c4.9-2.6,9.4-5.5,13.7-8.7c5.1-3.8,12.1-3.8,17.1,0c4.2,3.1,8.7,6.1,13.6,8.7c18.8,10.1,42.2,16.2,67.6,16.2
		c26.3,0,50.5-6.4,69.6-17.3c4.4-2.5,8.6-5.2,12.4-8.1c5.2-4,12.4-4,17.6,0c3.8,2.9,8,5.7,12.4,8.1c19.1,10.8,43.3,17.3,69.6,17.3
		c15.3,0,29.8-2.2,43.1-6.1C925.2,778.3,944.8,793.3,944.8,813.8z"/>
	<path class="st1" d="M944.8,682.3v0.7c0,11.4-6.3,21.9-16.4,27.2c-18.5,9.7-41.3,15.3-66,15.3c-32.3,0-61.4-9.7-81.9-25.4
		c-5.3-4-12.5-4-17.7,0c-20.4,15.6-49.6,25.4-81.9,25.4c-32,0-60.8-9.6-81.3-24.9c-5.1-3.8-12.1-3.9-17.2-0.1
		c-4.1,3-8.2,5.9-8.9,6.3c-39.1,23.5-89.6,25.5-131.4,8c-8.7-3.6-16.9-8.3-24.5-13.9c0,0,0,0,0,0c-5.2-3.9-12.3-3.9-17.5-0.1
		c-20.4,15.2-49.2,24.7-81,24.7c-32.3,0-61.4-9.7-81.9-25.4c-5.3-4-12.5-4-17.7,0c-20.4,15.6-49.5,25.4-81.9,25.4
		c-24.7,0-47.5-5.7-66-15.3c-10.1-5.3-16.4-15.8-16.4-27.2v-0.7c0-20.5,19.7-35.5,39.3-29.6c13.3,3.9,27.8,6.1,43.1,6.1
		c26.3,0,50.4-6.4,69.6-17.3c4.4-2.5,8.5-5.2,12.4-8.1c5.2-4,12.4-4,17.6,0c3.8,2.9,8,5.7,12.4,8.1c19.1,10.8,43.3,17.3,69.6,17.3
		c25.3,0,48.8-6,67.6-16.2c4.9-2.6,9.4-5.5,13.6-8.7c5.1-3.8,12.1-3.8,17.1,0c4.2,3.2,8.8,6.1,13.7,8.7c41.4,22.1,96.6,22.1,138,0
		c4.9-2.6,9.4-5.5,13.7-8.7c5.1-3.8,12.1-3.8,17.1,0c4.2,3.1,8.7,6.1,13.6,8.7c18.8,10.1,42.2,16.2,67.6,16.2
		c26.3,0,50.5-6.4,69.6-17.3c4.4-2.5,8.6-5.2,12.4-8.1c5.2-4,12.4-4,17.6,0c3.8,2.9,8,5.7,12.4,8.1c19.1,10.8,43.3,17.3,69.6,17.3
		c15.3,0,29.8-2.2,43.1-6.1C925.2,646.9,944.8,661.8,944.8,682.3z"/>
</g>
</svg>
