<?xml version="1.0" encoding="utf-8"?>
<!-- Generator: Adobe Illustrator 22.0.0, SVG Export Plug-In . SVG Version: 6.00 Build 0)  -->
<svg version="1.1" id="Layer_1" xmlns="http://www.w3.org/2000/svg" xmlns:xlink="http://www.w3.org/1999/xlink" x="0px" y="0px"
	 viewBox="0 0 2000 2000" style="enable-background:new 0 0 2000 2000;" xml:space="preserve">
<style type="text/css">
	.st0{fill:none;stroke:#000000;stroke-width:50;stroke-miterlimit:10;}
</style>
<path id="Body" class="st0" d="M1240,1401H760c-33,0-60-27-60-60V659c0-33,27-60,60-60h480c33,0,60,27,60,60v682
	C1300,1374,1273,1401,1240,1401z"/>
<path id="L" d="M825.3,599L825.3,599c-13.4,0-24.3-10.9-24.3-24.3V423.2c0-13.4,10.9-24.2,24.3-24.2l0,0c13.4,0,24.3,10.9,24.3,24.2
	v151.5C849.5,588.1,838.6,599,825.3,599z"/>
<path id="Line" class="st0" d="M700,791h600v550c0,33-27,60-60,60H760c-33,0-60-27-60-60V791z"/>
<path id="R" d="M1174.3,599L1174.3,599c-13.4,0-24.3-10.9-24.3-24.3V423.2c0-13.4,10.9-24.2,24.3-24.2l0,0
	c13.4,0,24.3,10.9,24.3,24.2v151.5C1198.5,588.1,1187.6,599,1174.3,599z"/>
</svg>
