<?xml version="1.0" encoding="utf-8"?>
<!-- Generator: Adobe Illustrator 22.0.0, SVG Export Plug-In . SVG Version: 6.00 Build 0)  -->
<svg version="1.1" id="Layer_1" xmlns="http://www.w3.org/2000/svg" xmlns:xlink="http://www.w3.org/1999/xlink" x="0px" y="0px"
	 viewBox="0 0 1000 1000" style="enable-background:new 0 0 1000 1000;" xml:space="preserve">
<style type="text/css">
	.st0{fill:#BB3300;}
	.st1{fill:#FFFFFF;}
	.st2{fill:#A02E00;}
	.st3{opacity:0.1;}
</style>
<path class="st0" d="M891.1,519C781.9,633.8,628.4,689.6,500,689.6S218.1,633.8,108.9,519c-9.6-10.1-9.6-27.9,0-38
	C218.1,366.2,371.6,310.3,500,310.3S781.9,366.2,891.1,481C900.8,491.1,900.8,508.9,891.1,519z"/>
<path class="st1" d="M621.4,500c0,51.5-43.8,94.1-101.3,102.3c-3.5,0.5-6.6-2.3-6.6-5.8v-50.7c0-3.6-3.2-6.4-6.7-5.8
	c-2.2,0.4-4.4,0.6-6.7,0.6s-4.5-0.2-6.7-0.6c-3.5-0.6-6.7,2.2-6.7,5.8v50.7c0,3.5-3.1,6.3-6.6,5.8c-57.5-8.2-101.3-50.8-101.3-102.3
	s43.8-94.1,101.3-102.3c3.5-0.5,6.6,2.3,6.6,5.8v50.7c0,3.6,3.2,6.4,6.7,5.8c2.2-0.4,4.4-0.6,6.7-0.6s4.5,0.2,6.7,0.6
	c3.5,0.6,6.7-2.2,6.7-5.8v-50.7c0-3.5,3.1-6.3,6.6-5.8C577.5,405.9,621.4,448.5,621.4,500z"/>
<path class="st2" d="M546.2,500c0,20.2-12.9,37.3-30.9,43.6c-4.8,1.7-9.9,2.6-15.3,2.6s-10.5-0.9-15.3-2.6
	c-18-6.3-30.9-23.4-30.9-43.6s12.9-37.3,30.9-43.6c4.8-1.7,9.9-2.6,15.3-2.6s10.5,0.9,15.3,2.6C533.3,462.7,546.2,479.8,546.2,500z"
	/>
<path class="st3" d="M891.1,519C781.9,633.8,628.4,689.6,500,689.6V310.3c128.4,0,281.9,55.9,391.1,170.6
	C900.8,491.1,900.8,508.9,891.1,519z"/>
</svg>
