<?xml version="1.0" encoding="utf-8"?>
<!-- Generator: Adobe Illustrator 22.0.0, SVG Export Plug-In . SVG Version: 6.00 Build 0)  -->
<svg version="1.1" id="Layer_1" xmlns="http://www.w3.org/2000/svg" xmlns:xlink="http://www.w3.org/1999/xlink" x="0px" y="0px"
	 viewBox="0 0 1000 1000" style="enable-background:new 0 0 1000 1000;" xml:space="preserve">
<style type="text/css">
	.st0{fill:none;stroke:#BB3300;stroke-width:40;stroke-miterlimit:10;}
	.st1{fill:#BB3300;}
</style>
<circle class="st0" cx="496" cy="500" r="266.9"/>
<circle class="st0" cx="496" cy="500" r="157.8"/>
<circle class="st1" cx="496" cy="500" r="27.9"/>
<path class="st1" d="M520,119.8v298.4c-7.6-2.2-15.6-3.4-23.9-3.4s-16.3,1.2-23.9,3.4V119.8c0-18.5,10.7-33.4,23.9-33.4
	c6.6,0,12.6,3.7,16.9,9.8C517.3,102.2,520,110.6,520,119.8z"/>
<path class="st1" d="M913.2,500c0,6.6-3.8,12.6-9.9,16.9c-6.1,4.3-14.5,7-23.8,7H577.8c2.2-7.6,3.4-15.6,3.4-23.9
	c0-8.3-1.2-16.4-3.4-24h301.8C898.2,476.1,913.2,486.8,913.2,500z"/>
<path class="st1" d="M520,581.8v306.4c0,14-10.7,25.4-23.9,25.4c-6.6,0-12.6-2.8-16.9-7.4c-4.3-4.6-7-11-7-18V581.8
	c7.6,2.2,15.6,3.4,23.9,3.4S512.4,584,520,581.8z"/>
<path class="st1" d="M410.8,500c0,8.3,1.2,16.3,3.4,23.9H112.8c-14.4,0-26.1-10.7-26.1-23.9c0-6.6,2.9-12.6,7.6-16.9
	c4.7-4.3,11.2-7,18.4-7h301.4C412,483.6,410.8,491.7,410.8,500z"/>
</svg>
