<?xml version="1.0" encoding="utf-8"?>
<!-- Generator: Adobe Illustrator 22.0.0, SVG Export Plug-In . SVG Version: 6.00 Build 0)  -->
<svg version="1.1" id="Layer_1" xmlns="http://www.w3.org/2000/svg" xmlns:xlink="http://www.w3.org/1999/xlink" x="0px" y="0px"
	 viewBox="0 0 1000 1000" style="enable-background:new 0 0 1000 1000;" xml:space="preserve">
<style type="text/css">
	.st0{fill:#5E9CF5;}
	.st1{fill:#FFFFFF;}
</style>
<circle class="st0" cx="500" cy="500" r="500"/>
<g>
	<path class="st1" d="M200,501.6v-3.2c0-11,9-20,20-20h560c11,0,20,9,20,20v3.2c0,11-9,20-20,20H220C209,521.6,200,512.6,200,501.6z
		"/>
	<path class="st1" d="M498.6,200h2.8c11.2,0,20.2,9,20.2,20.2v559.6c0,11.2-9,20.2-20.2,20.2h-2.8c-11.2,0-20.2-9-20.2-20.2V220.2
		C478.4,209,487.5,200,498.6,200z"/>
</g>
</svg>
