<?xml version="1.0" encoding="utf-8"?>
<!-- Generator: Adobe Illustrator 22.0.0, SVG Export Plug-In . SVG Version: 6.00 Build 0)  -->
<svg version="1.1" id="Layer_1" xmlns="http://www.w3.org/2000/svg" xmlns:xlink="http://www.w3.org/1999/xlink" x="0px" y="0px"
	 viewBox="0 0 1000 1000" style="enable-background:new 0 0 1000 1000;" xml:space="preserve">
<style type="text/css">
	.st0{fill:#8C6239;stroke:#000000;stroke-width:10;stroke-miterlimit:10;}
	.st1{fill:#FFFFFF;stroke:#000000;stroke-width:10;stroke-miterlimit:10;}
	.st2{fill:#FFFFFF;stroke:#000000;stroke-width:5;stroke-miterlimit:10;}
</style>
<path class="st0" d="M836.8,515.1c-24.4,29.8-51.3,55.6-79.8,77.5c-24.6,18.9-50.3,35-76.5,48.1C620.1,671,557.1,686,500,686
	c-57.4,0-120.7-15.1-181.4-45.7c-26.2-13.2-51.9-29.3-76.5-48.3c-28.1-21.8-54.8-47.4-78.9-76.9c-8.3-10.2-8.3-28,0-38.1
	c24.1-29.5,50.8-55.1,78.9-76.9c24.6-19,50.3-35.1,76.5-48.3c60.7-30.6,124-45.7,181.4-45.7c57.1,0,120.1,15,180.5,45.3
	c26.2,13.1,51.9,29.2,76.5,48.1c28.5,21.9,55.4,47.8,79.8,77.5C845.1,487.1,845.1,504.9,836.8,515.1z"/>
<path class="st0" d="M836.8,504.3c-24.4,12.9-51.3,24.1-79.8,33.6c-24.6,8.2-50.3,15.1-76.5,20.8c-60.4,13.1-123.4,19.6-180.5,19.6
	c-57.4,0-120.7-6.5-181.4-19.8c-26.2-5.7-51.9-12.7-76.5-20.9c-28.1-9.4-54.8-20.5-78.9-33.3c-8.3-4.4-8.3-12.1,0-16.5
	c24.1-12.8,50.8-23.9,78.9-33.3c24.6-8.2,50.3-15.2,76.5-20.9c60.7-13.3,124-19.8,181.4-19.8c57.1,0,120.1,6.5,180.5,19.6
	c26.2,5.7,51.9,12.6,76.5,20.8c28.5,9.5,55.4,20.7,79.8,33.6C845.1,492.1,845.1,499.9,836.8,504.3z"/>
<path class="st1" d="M318.6,351.7v288.6c-26.2-13.2-51.9-29.3-76.5-48.3V400.1C266.7,381,292.4,364.9,318.6,351.7z"/>
<path class="st1" d="M757,399.4v193.2c-24.6,18.9-50.3,35-76.5,48.1V351.3C706.7,364.4,732.4,380.5,757,399.4z"/>
<path class="st2" d="M644.6,423.1c0,3.4-1.2,6.4-3.1,8.6c-1.9,2.2-4.5,3.5-7.4,3.5h-3.3v15.5c0,6.7-4.7,12.1-10.4,12.1
	c-2.9,0-5.5-1.4-7.4-3.5c-1.9-2.2-3.1-5.2-3.1-8.6v-15.5h-27.7v15.5c0,6.7-4.7,12.1-10.4,12.1c-2.9,0-5.5-1.4-7.4-3.5
	c-1.9-2.2-3.1-5.2-3.1-8.6v-15.5h-26.7v14.5c0,6.7-4.7,12.1-10.4,12.1c-2.9,0-5.5-1.4-7.4-3.5c-1.9-2.2-3.1-5.2-3.1-8.6v-14.5h-25.6
	v14.5c0,6.7-4.7,12.1-10.4,12.1c-2.9,0-5.5-1.4-7.4-3.5c-1.9-2.2-3.1-5.2-3.1-8.6v-14.5h-27.7v14.5c0,6.7-4.7,12.1-10.4,12.1
	c-2.9,0-5.5-1.4-7.4-3.5c-1.9-2.2-3.1-5.2-3.1-8.6v-14.5h-27.7v14.5c0,6.7-4.7,12.1-10.4,12.1c-2.9,0-5.5-1.4-7.4-3.5
	c-1.9-2.2-3.1-5.2-3.1-8.6v-14.5h-4.4c-5.8,0-10.4-5.4-10.4-12.1c0-6.7,4.7-12.1,10.4-12.1h4.4v-14.5c0-6.7,4.7-12.1,10.4-12.1
	c5.8,0,10.4,5.4,10.4,12.1V411h27.7v-14.5c0-6.7,4.7-12.1,10.4-12.1c5.8,0,10.4,5.4,10.4,12.1V411h27.7v-14.5
	c0-6.7,4.7-12.1,10.4-12.1c5.8,0,10.4,5.4,10.4,12.1V411h25.6v-14.5c0-6.7,4.7-12.1,10.4-12.1c5.8,0,10.4,5.4,10.4,12.1V411h26.7
	v-13.5c0-6.7,4.7-12.1,10.4-12.1s10.4,5.4,10.4,12.1V411H610v-13.5c0-6.7,4.7-12.1,10.4-12.1s10.4,5.4,10.4,12.1V411h3.3
	C639.9,411,644.6,416.4,644.6,423.1z"/>
</svg>
