<?xml version="1.0" encoding="utf-8"?>
<!-- Generator: Adobe Illustrator 22.0.0, SVG Export Plug-In . SVG Version: 6.00 Build 0)  -->
<svg version="1.1" id="Layer_1" xmlns="http://www.w3.org/2000/svg" xmlns:xlink="http://www.w3.org/1999/xlink" x="0px" y="0px"
	 viewBox="0 0 1000 1000" style="enable-background:new 0 0 1000 1000;" xml:space="preserve">
<style type="text/css">
	.st0{fill:#00740E;}
</style>
<path id="Main_1_" class="st0" d="M747.3,587.5h-88.4v-70.8h52.4c10.1,0,18.3-8.2,18.3-18.3c0-10.1-8.2-18.3-18.3-18.3h-52.4v-70.8
	h88.4c10.1,0,18.3-8.2,18.3-18.3c0-10.1-8.2-18.3-18.3-18.3h-88.4v-64.7h52.4c10.1,0,18.3-8.2,18.3-18.3s-8.2-18.3-18.3-18.3h-52.7
	c-4.1-46.6-41.3-83.6-87.9-87.5v-87c0-10.1-8.2-18.3-18.3-18.3c-10.1,0-18.3,8.2-18.3,18.3v86.6h-68.9v-53.9
	c0-11.7-8.2-21.1-18.3-21.1c-10.1,0-18.3,9.5-18.3,21.1v54.3c-43.2,3.9-78.1,36.3-85.9,78.2h-54c-10.1,0-18.3,8.2-18.3,18.3
	s8.2,18.3,18.3,18.3h52.4v70.8h-88.4c-10.1,0-18.3,8.2-18.3,18.3c0,10.1,8.2,18.3,18.3,18.3h88.4V477h-52.4
	c-10.1,0-18.3,8.2-18.3,18.3c0,10.1,8.2,18.3,18.3,18.3h52.4v70.8h-88.4c-10.1,0-18.3,8.2-18.3,18.3c0,10.1,8.2,18.3,18.3,18.3h88.4
	v64.7h-52.4c-10.1,0-18.3,8.2-18.3,18.3c0,10.1,8.2,18.3,18.3,18.3h52.4v0.7c0,50.3,38.4,91.5,87.5,96v84c0,10.1,8.2,18.3,18.3,18.3
	c10.1,0,18.3-8.2,18.3-18.3v-83.6h68.9v53.9c0,11.7,8.2,21.1,18.3,21.1c10.1,0,18.3-9.5,18.3-21.1v-54.3c6.6-0.5,13-1.8,19.1-3.6
	c0.1,0,0.1,0,0.2-0.1c37.2-11,65.1-44,68.6-83.9h52.7c10.1,0,18.3-8.2,18.3-18.3s-8.2-18.3-18.3-18.3h-52.4v-70.8h88.4
	c10.1,0,18.3-8.2,18.3-18.3C765.5,595.7,757.3,587.5,747.3,587.5z M613.7,632.4c0,23.8-8.6,45.6-22.9,62.4
	c-9.8,11.5-22.3,20.7-36.5,26.6c-11.4,4.7-23.9,7.3-37,7.3h-34.6c-15.3,0-29.8-3.6-42.7-10c-15.3-7.6-28.3-19.1-37.7-33.2
	c-10.1-15.2-16-33.5-16-53.2V370.6c0-0.3,0-0.6,0-0.8c0.2-28.1,12.5-53.3,31.9-70.8c8.6-7.7,18.6-14,29.6-18.2
	c10.8-4.2,22.6-6.5,34.9-6.5h34.6c13.1,0,25.6,2.6,37,7.3c14.2,5.9,26.7,15.1,36.5,26.6c14.3,16.8,22.9,38.6,22.9,62.4V632.4z"/>
<circle id="Dot_2_" class="st0" cx="500" cy="395.4" r="26.6"/>
<circle id="Dot_1_" class="st0" cx="500" cy="501.7" r="26.6"/>
<circle id="Dot" class="st0" cx="500" cy="608" r="26.6"/>
</svg>
