<?xml version="1.0" encoding="utf-8"?>
<!-- Generator: Adobe Illustrator 22.0.0, SVG Export Plug-In . SVG Version: 6.00 Build 0)  -->
<svg version="1.1" id="Layer_1" xmlns="http://www.w3.org/2000/svg" xmlns:xlink="http://www.w3.org/1999/xlink" x="0px" y="0px"
	 viewBox="0 0 1000 1000" style="enable-background:new 0 0 1000 1000;" xml:space="preserve">
<style type="text/css">
	.st0{fill:#FFFFFF;stroke:#000000;stroke-width:10;stroke-miterlimit:10;}
	.st1{opacity:0.1;}
</style>
<path class="st0" d="M601,365.5v435c0,22.1-17.9,40-40,40H439c-22.1,0-40-17.9-40-40v-435c0-21.2,8.9-40.3,23.2-53.8
	c4.5-4.2,9.4-7.9,14.8-10.9c2.7-1.5,5.6-2.9,8.5-4.1c8.5-3.4,17.8-5.3,27.5-5.3h54c9,0,17.5,1.6,25.5,4.5c3.7,1.3,7.2,3,10.5,4.8
	c5.4,3,10.4,6.7,14.8,10.9C592.1,325.2,601,344.3,601,365.5z"/>
<path class="st0" d="M563,191.5v109.3c-3.3-1.9-6.8-3.5-10.5-4.8c-8-2.9-16.5-4.5-25.5-4.5h-54c-9.7,0-19,1.9-27.5,5.3
	c-2.9,1.2-5.8,2.5-8.5,4.1V191.5c0-17.6,14.4-32,32-32h62C548.6,159.5,563,173.9,563,191.5z"/>
<path class="st1" d="M500,159.5v681h-61c-22.1,0-40-17.9-40-40v-435c0-21.2,8.9-40.3,23.2-53.8c4.5-4.2,9.4-7.9,14.8-10.9V191.5
	c0-17.6,14.4-32,32-32H500z"/>
</svg>
