<?xml version="1.0" encoding="utf-8"?>
<!-- Generator: Adobe Illustrator 22.0.0, SVG Export Plug-In . SVG Version: 6.00 Build 0)  -->
<svg version="1.1" id="Layer_1" xmlns="http://www.w3.org/2000/svg" xmlns:xlink="http://www.w3.org/1999/xlink" x="0px" y="0px"
	 viewBox="0 0 1000 1000" style="enable-background:new 0 0 1000 1000;" xml:space="preserve">
<style type="text/css">
	.st0{fill:#BB3300;}
	.st1{fill:#D3B900;}
	.st2{opacity:0.1;}
</style>
<path class="st0" d="M868,900.5H132c-68.9,0-111.9-74.6-77.5-134.2l368-637.3c17.2-29.8,47.3-44.7,77.5-44.7s60.3,14.9,77.5,44.7
	l368,637.3C979.9,825.9,936.8,900.5,868,900.5z"/>
<path class="st1" d="M502.6,774.7h-5.2c-0.1,0-0.1,0-0.1-0.1v-0.3c0-0.1,0-0.1,0.1-0.1h5.2c0.1,0,0.1,0,0.1,0.1L502.6,774.7
	C502.7,774.6,502.7,774.7,502.6,774.7z"/>
<circle class="st1" cx="500" cy="774.4" r="48.3"/>
<path class="st1" d="M500,690L500,690c-27.2,0-49.2-22-49.2-49.2V346.4c0-27.2,22-49.2,49.2-49.2h0c27.2,0,49.2,22,49.2,49.2v294.4
	C549.2,668,527.2,690,500,690z"/>
<path class="st2" d="M868,900.5H500V84.2c30.1,0,60.3,14.9,77.5,44.7l368,637.3C979.9,825.9,936.8,900.5,868,900.5z"/>
</svg>
