<?xml version="1.0" encoding="utf-8"?>
<!-- Generator: Adobe Illustrator 19.0.0, SVG Export Plug-In . SVG Version: 6.00 Build 0)  -->
<svg version="1.1" xmlns="http://www.w3.org/2000/svg" xmlns:xlink="http://www.w3.org/1999/xlink" x="0px" y="0px"
	 viewBox="0 0 2000 2000" style="enable-background:new 0 0 2000 2000;" xml:space="preserve">
<style type="text/css">
	.st0{display:none;}
	.st1{display:inline;fill:#FFFFFF;stroke:#201600;stroke-miterlimit:10;}
	.st2{fill:#3EB5F1;}
	.st3{opacity:6.000000e-002;fill:#201600;}
	.st4{fill:#FFDA7E;stroke:#201600;stroke-miterlimit:10;}
	.st5{fill:#6FCAFF;}
</style>
<g id="Layer_1" class="st0">
	<rect id="XMLID_1_" class="st1" width="2000" height="2000"/>
</g>
<g id="Layer_2">
	<path id="XMLID_32_" class="st2" d="M1712,661.3v677.4c0,26.9-21.8,48.3-48.7,48.3H336.7c-26.9,0-48.7-21.4-48.7-48.3V661.3
		c0-26.9,21.8-48.3,48.7-48.3h1326.6C1690.2,613,1712,634.4,1712,661.3z"/>
	<path id="XMLID_29_" class="st3" d="M1712,661.3v677.4c0,26.9-21.8,48.3-48.7,48.3H545.9l774.7-774h342.7
		C1690.2,613,1712,634.4,1712,661.3z"/>
</g>
<g id="Layer_3">
	<path id="XMLID_4_" class="st4" d="M641.8,1009H438.2c-3.4,0-6.2-2.8-6.2-6.2V798.2c0-3.4,2.8-6.2,6.2-6.2h203.7
		c3.4,0,6.2,2.8,6.2,6.2v204.7C648,1006.2,645.2,1009,641.8,1009z"/>
	<path id="XMLID_15_" class="st4" d="M503,865.3v62.5c0,2.9-2.4,5.3-5.3,5.3h-60.5c-2.9,0-5.3-2.4-5.3-5.3v-62.5
		c0-2.9,2.4-5.3,5.3-5.3h60.5C500.6,860,503,862.4,503,865.3z"/>
	<path id="XMLID_22_" class="st4" d="M503,938.3v65.5c0,2.9-2.4,5.3-5.3,5.3h-60.5c-2.9,0-5.3-2.4-5.3-5.3v-65.5
		c0-2.9,2.4-5.3,5.3-5.3h60.5C500.6,933,503,935.4,503,938.3z"/>
	<path id="XMLID_21_" class="st4" d="M578,987.3v16.5c0,2.9-2.4,5.3-5.3,5.3h-64.5c-2.9,0-5.3-2.4-5.3-5.3v-16.5
		c0-2.9,2.4-5.3,5.3-5.3h64.5C575.6,982,578,984.4,578,987.3z"/>
	<path id="XMLID_16_" class="st4" d="M648,869.3v61.5c0,2.9-2.4,5.3-5.3,5.3h-59.5c-2.9,0-5.3-2.4-5.3-5.3v-61.5
		c0-2.9,2.4-5.3,5.3-5.3h59.5C645.6,864,648,866.4,648,869.3z"/>
	<path id="XMLID_27_" class="st4" d="M648,941.3v62.5c0,2.9-2.4,5.3-5.3,5.3h-59.5c-2.9,0-5.3-2.4-5.3-5.3v-62.5
		c0-2.9,2.4-5.3,5.3-5.3h59.5C645.6,936,648,938.4,648,941.3z"/>
	<path id="XMLID_12_" class="st4" d="M578,904.3v72.5c0,2.9-2.4,5.3-5.3,5.3h-64.5c-2.9,0-5.3-2.4-5.3-5.3v-72.5
		c0-2.9,2.4-5.3,5.3-5.3h64.5C575.6,899,578,901.4,578,904.3z"/>
	<path id="XMLID_3_" class="st4" d="M503,797.3v57.5c0,2.9-2.4,5.3-5.3,5.3h-60.5c-2.9,0-5.3-2.4-5.3-5.3v-57.5
		c0-2.9,2.4-5.3,5.3-5.3h60.5C500.6,792,503,794.4,503,797.3z M572.8,792h-64.5c-2.9,0-5.3,2.4-5.3,5.3v16.5c0,2.9,2.4,5.3,5.3,5.3
		h64.5c2.9,0,5.3-2.4,5.3-5.3v-16.5C578,794.4,575.6,792,572.8,792z M572.8,819h-64.5c-2.9,0-5.3,2.4-5.3,5.3v69.5
		c0,2.9,2.4,5.3,5.3,5.3h64.5c2.9,0,5.3-2.4,5.3-5.3v-69.5C578,821.4,575.6,819,572.8,819z M642.8,792h-59.5c-2.9,0-5.3,2.4-5.3,5.3
		v61.5c0,2.9,2.4,5.3,5.3,5.3h59.5c2.9,0,5.3-2.4,5.3-5.3v-61.5C648,794.4,645.6,792,642.8,792z"/>
	<path id="XMLID_13_" class="st5" d="M1299.2,828h-29.1c-12.3,0-22.3-10-22.3-22.3v-56.8c0-12.3,10-22.3,22.3-22.3h29.1
		c12.3,0,22.3,10,22.3,22.3v56.8C1321.5,818,1311.5,828,1299.2,828z"/>
	<path id="XMLID_11_" class="st5" d="M1401,828h-29.1c-12.3,0-22.3-10-22.3-22.3v-56.8c0-12.3,10-22.3,22.3-22.3h29.1
		c12.3,0,22.3,10,22.3,22.3v56.8C1423.4,818,1413.4,828,1401,828z"/>
	<path id="XMLID_10_" class="st5" d="M1501.8,828h-29.1c-12.3,0-22.3-10-22.3-22.3v-56.8c0-12.3,10-22.3,22.3-22.3h29.1
		c12.3,0,22.3,10,22.3,22.3v56.8C1524.2,818,1514.2,828,1501.8,828z"/>
	<path id="XMLID_9_" class="st5" d="M1602.3,828h-29.1c-12.3,0-22.3-10-22.3-22.3v-56.8c0-12.3,10-22.3,22.3-22.3h29.1
		c12.3,0,22.3,10,22.3,22.3v56.8C1624.6,818,1614.6,828,1602.3,828z"/>
	<path id="XMLID_17_" class="st5" d="M466.6,1277.1h-29.1c-12.3,0-22.3-10-22.3-22.3V1198c0-12.3,10-22.3,22.3-22.3h29.1
		c12.3,0,22.3,10,22.3,22.3v56.8C489,1267.1,479,1277.1,466.6,1277.1z"/>
	<path id="XMLID_2_" class="st5" d="M568.5,1277.1h-29.1c-12.3,0-22.3-10-22.3-22.3V1198c0-12.3,10-22.3,22.3-22.3h29.1
		c12.3,0,22.3,10,22.3,22.3v56.8C590.8,1267.1,580.8,1277.1,568.5,1277.1z"/>
	<path id="XMLID_6_" class="st5" d="M1401,1277.1h-29.1c-12.3,0-22.3-10-22.3-22.3V1198c0-12.3,10-22.3,22.3-22.3h29.1
		c12.3,0,22.3,10,22.3,22.3v56.8C1423.4,1267.1,1413.4,1277.1,1401,1277.1z"/>
	<path id="XMLID_5_" class="st5" d="M1502.9,1277.1h-29.1c-12.3,0-22.3-10-22.3-22.3V1198c0-12.3,10-22.3,22.3-22.3h29.1
		c12.3,0,22.3,10,22.3,22.3v56.8C1525.2,1267.1,1515.2,1277.1,1502.9,1277.1z"/>
</g>
</svg>
