<?xml version="1.0" encoding="utf-8"?>
<!-- Generator: Adobe Illustrator 22.0.0, SVG Export Plug-In . SVG Version: 6.00 Build 0)  -->
<svg version="1.1" id="Layer_1" xmlns="http://www.w3.org/2000/svg" xmlns:xlink="http://www.w3.org/1999/xlink" x="0px" y="0px"
	 viewBox="0 0 1000 1000" style="enable-background:new 0 0 1000 1000;" xml:space="preserve">
<style type="text/css">
	.st0{fill:#F8F8F8;}
	.st1{fill:#DBDBDB;}
	.st2{opacity:0.1;}
</style>
<path class="st0" d="M828.7,353.2V834c0,29.5-23.8,53.3-53.3,53.3H224.6c-29.5,0-53.3-23.8-53.3-53.3V166
	c0-29.5,23.8-53.3,53.3-53.3h363.6c1.9,0,3.7,0.2,5.5,0.6c4.5,1.1,8.6,3.3,11.9,6.6l215.9,215.9c2.4,2.4,4.3,5.3,5.5,8.4
	c0,0,0,0,0,0.1C828.1,347,828.7,350,828.7,353.2z"/>
<path class="st1" d="M593.8,297.8H317.2c-13.4,0-24.3-10.9-24.3-24.3v-41.6c0-13.4,10.9-24.3,24.3-24.3h276.6V297.8z"/>
<path class="st1" d="M682.8,734.4H317.2c-13.4,0-24.3-10.9-24.3-24.3v-41.6c0-13.4,10.9-24.3,24.3-24.3h365.6
	c13.4,0,24.3,10.9,24.3,24.3v41.6C707.1,723.5,696.2,734.4,682.8,734.4z"/>
<path class="st1" d="M682.8,518.5H317.2c-13.4,0-24.3-10.9-24.3-24.3v-41.6c0-13.4,10.9-24.3,24.3-24.3h365.6
	c13.4,0,24.3,10.9,24.3,24.3v41.6C707.1,507.6,696.2,518.5,682.8,518.5z"/>
<path class="st2" d="M828.7,353.2V834c0,29.5-23.8,53.3-53.3,53.3H500V112.7h88.2c1.9,0,3.7,0.2,5.5,0.6c4.5,1.1,8.6,3.3,11.9,6.6
	l215.9,215.9c2.4,2.4,4.3,5.3,5.5,8.4c0,0,0,0,0,0.1C828.1,347,828.7,350,828.7,353.2z"/>
<path class="st2" d="M827,344.1h-202c-17.3,0-31.3-12.8-31.3-28.5V113.3c4.5,1.1,8.6,3.3,11.9,6.6l215.9,215.9
	C823.9,338.1,825.8,341,827,344.1C827,344.1,827,344.1,827,344.1z"/>
</svg>
