<?xml version="1.0" encoding="utf-8"?>
<!-- Generator: Adobe Illustrator 22.0.0, SVG Export Plug-In . SVG Version: 6.00 Build 0)  -->
<svg version="1.1" id="Layer_1" xmlns="http://www.w3.org/2000/svg" xmlns:xlink="http://www.w3.org/1999/xlink" x="0px" y="0px"
	 viewBox="0 0 1000 1000" style="enable-background:new 0 0 1000 1000;" xml:space="preserve">
<style type="text/css">
	.st0{fill:#99CC00;}
</style>
<path class="st0" d="M619.9,460c0,3.9-1.2,7.9-3.8,11.6l-77.5,112.2l-14.6,21.1c-10.7,15.5-37.5,15.5-48.3,0l-92-133.3
	c-10.7-15.5,2.7-35,24.1-35c7.7,0,14.7-2.6,19.7-6.8c5-4.2,8.2-10,8.2-16.5V266.7c0-12.9,12.5-23.3,27.9-23.3h72.6
	c15.4,0,27.9,10.4,27.9,23.3v146.6c0,12.9,12.5,23.3,27.9,23.3C608.3,436.6,619.9,447.8,619.9,460z"/>
<path class="st0" d="M886,863H114c-35.3,0-64-28.7-64-64v0c0-35.3,28.7-64,64-64h772c35.3,0,64,28.7,64,64v0
	C950,834.3,921.3,863,886,863z"/>
<path class="st0" d="M290,556.5c0,2.9-0.9,5.9-2.8,8.7L229,649.4l-10.9,15.9c-8,11.6-28.2,11.6-36.2,0l-69-100
	c-8-11.6,2-26.2,18.1-26.2c5.8,0,11-2,14.8-5.1c3.8-3.2,6.1-7.5,6.1-12.4v-110c0-9.7,9.4-17.5,20.9-17.5h54.5
	c11.5,0,20.9,7.8,20.9,17.5v110c0,9.7,9.4,17.5,20.9,17.5C281.2,539,290,547.4,290,556.5z"/>
<path class="st0" d="M890,556.5c0,2.9-0.9,5.9-2.8,8.7L829,649.4l-10.9,15.9c-8,11.6-28.2,11.6-36.2,0l-69-100
	c-8-11.6,2-26.2,18.1-26.2c5.8,0,11-2,14.8-5.1c3.8-3.2,6.1-7.5,6.1-12.4v-110c0-9.7,9.4-17.5,20.9-17.5h54.5
	c11.5,0,20.9,7.8,20.9,17.5v110c0,9.7,9.4,17.5,20.9,17.5C881.2,539,890,547.4,890,556.5z"/>
</svg>
