<?xml version="1.0" encoding="utf-8"?>
<!-- Generator: Adobe Illustrator 22.0.0, SVG Export Plug-In . SVG Version: 6.00 Build 0)  -->
<svg version="1.1" id="Layer_1" xmlns="http://www.w3.org/2000/svg" xmlns:xlink="http://www.w3.org/1999/xlink" x="0px" y="0px"
	 viewBox="0 0 2000 2000" style="enable-background:new 0 0 2000 2000;" xml:space="preserve">
<style type="text/css">
	.st0{fill:none;}
	.st1{fill:#1CA3EC;}
	.st2{fill:#FFFF00;}
	.st3{opacity:0.1;}
</style>
<path class="st0" d="M1001.6,318.3h-4.7c0.5-0.7,0.8-1,0.8-1c0.5-0.4,1.1-0.6,1.5-0.6c0.4,0,1,0.2,1.6,0.6
	C1000.8,317.3,1001.1,317.6,1001.6,318.3z"/>
<path class="st1" d="M999.2,1683.3L999.2,1683.3c-987.5,0-55.7-1293.2-3.8-1363.1c0.9-1.2,2.3-1.9,3.8-1.9h0c1.5,0,2.9,0.7,3.8,1.9
	C1054.9,390.2,1986.7,1683.3,999.2,1683.3z"/>
<path class="st2" d="M953.3,1477v-245.8c0-3.3-2.7-6.1-6.1-6.1h-77.4c-4.5,0-7.4-4.8-5.4-8.8l170.8-336c2.9-5.7,11.5-3.6,11.5,2.7
	v245.8c0,3.3,2.7,6.1,6.1,6.1h77.4c4.5,0,7.4,4.8,5.4,8.8l-170.8,336C961.9,1485.4,953.3,1483.3,953.3,1477z"/>
<path class="st3" d="M999.2,1683.3v-1365c1.5,0,2.9,0.7,3.8,1.9C1054.9,390.2,1986.7,1683.3,999.2,1683.3z"/>
</svg>
