<?xml version="1.0" encoding="utf-8"?>
<!-- Generator: Adobe Illustrator 22.0.0, SVG Export Plug-In . SVG Version: 6.00 Build 0)  -->
<svg version="1.1" xmlns="http://www.w3.org/2000/svg" xmlns:xlink="http://www.w3.org/1999/xlink" x="0px" y="0px"
	 viewBox="0 0 1000 1000" style="enable-background:new 0 0 1000 1000;" xml:space="preserve">
<style type="text/css">
	.st0{fill:#56BAFF;}
	.st1{fill:#009200;}
	.st2{opacity:0.1;}
</style>
<g id="Layer_3">
	<path class="st0" d="M900,500c0,220.9-179.1,400-400,400c-51.5,0-100.8-9.7-146-27.5c-12.3-4.8-24.4-10.3-36.1-16.3
		C188.5,790,100,655.3,100,500c0-45.3,7.5-88.8,21.4-129.4v0C175.2,213.2,324.4,100,500,100c28.2,0,55.8,2.9,82.3,8.5
		c48.5,10.1,93.8,29.1,134.1,55.1c87.8,56.6,152,146.6,174.6,252C896.9,442.8,900,471,900,500z"/>
</g>
<g id="Layer_1">
	<path class="st1" d="M458.1,619.1c0,2.4-0.5,4.8-1.6,6.9l-9.2,18.9c-0.6,1.2-1,2.4-1.3,3.7l-6,28.7c-0.6,2.9-1.4,5.8-2.3,8.6
		c-1.1,3.3-3,6.1-5.4,8.4c-2.4,2.3-5.5,4-8.8,4.8l-3.8,1c-5.8,1.5-10.2,6-11.5,11.8l-3.4,15.1l-2.2,10.9c-1.8,8.5-5.7,16.5-11.5,23
		l0,0c-0.6,0.7-1.2,1.5-1.7,2.3l-17.8,29.1c-1.1,1.9-2.7,3.5-4.5,4.7l-6.6,4.6c-3.1,2.2-5.3,5.3-6.3,9l-6.4,24.3
		c-0.9,3.3-0.7,6.8,0.6,9.9l1.8,4.6c0.7,1.9,1.1,3.9,1.1,5.9c0,5.6,0.8,11.2,2.3,16.5c0.1,0.3,0.2,0.5,0.2,0.8
		c-12.3-4.8-24.4-10.3-36.1-16.3l-5.5-19.3c-0.6-2.1-1-4.2-1.2-6.4l-4.5-41.3c-0.1-0.6-0.1-1.1-0.1-1.7v-75.6c0-0.6,0-1.1-0.1-1.7
		l-2.9-26.8c-0.5-4.3-2.6-8.2-6-10.8l-15.9-12.4c-4.2-3.3-7.5-7.6-9.5-12.5l-9.8-23.6c-0.4-0.9-0.8-1.8-1.4-2.6l-13.8-21.2
		c-1.7-2.6-2.6-5.6-2.6-8.6v-9.9c0-8.4,2.8-16.6,7.9-23.2l7.8-10c2.1-2.8,3.3-6.2,3.3-9.7v-5.5c0-13,5.4-25.4,14.9-34.3l1.1-1
		c5.3-5,12.4-7.8,19.7-7.8c3.4,0,6.9,0.4,10.2,1.1c1,0.2,1.9,0.5,2.8,0.7l0.3,0.1c6.1,1.8,11.8,4.7,16.8,8.7l3.6,2.9l1.4,1.1
		c0.6,0.5,1.3,0.9,2,1.3c0,0,14.2,9.5,18.8,14.7c1.2,1.3,38.3,34.8,45.3,42.8c1.2,1.4,2.6,2.5,4.1,3.4L433,583
		c2.8,1.6,5.5,3.5,7.9,5.7l6.3,5.8C454.2,600.8,458.1,609.7,458.1,619.1z"/>
	<path class="st1" d="M582.3,108.5l-3.3,1.6c-1.9,0.9-3.4,2.4-4.3,4.3l-12.7,26.6c-6.7,14-17.7,25.3-31.4,32.5l-34,17.7l-5,2.6
		c-0.2,0.1-0.4,0.2-0.6,0.3l-6.1,3.8c-16.3,10.1-37.6-0.6-39.3-19.8l-1.9-22.1c-0.7-7.8-5.4-14.6-12.4-17.9
		c-10.2-4.8-24-11.1-26.6-11.1c-1.8,0-5.5,2.1-9.3,4.5c-5.6,3.6-7.6,10.9-4.6,16.9l9.3,18.2c5,9.8,3.8,21.6-2.9,30.3
		c-1.3,1.6-1.9,3.6-1.9,5.5c0,1.1,0.2,2.3,0.7,3.4l10.3,25.4c0.1,0.4,0.3,0.7,0.4,1.1l4,15.1c5.4,20.8-8.2,41.8-29.5,45.3
		c-5.9,1-11.6,2.6-17.1,4.9c-5.5,2.3-10.7,5.2-15.5,8.7l-9.5,6.9L323.1,325c-8.9,6.5-16,15-20.6,25l-24.8,52.9
		c-3,6.3-11.7,7.1-15.6,1.3l-0.8-1.1c-4.5-6.4-14.5-4.5-16.3,3.1L244,411c-2.8,12.2-2.2,24.9,1.9,36.8l17.1,49.6
		c0.6,1.8,0.7,3.8,0.1,5.6c-1.2,4-4.9,6.4-8.7,6.4c-1.9,0-3.9-0.6-5.6-1.9L204,472.3l-30.2-21.7c-20.1-14.4-35.4-34.5-44.1-57.7
		l-8.3-22.3v0C175.2,213.2,324.4,100,500,100C528.2,100,555.8,102.9,582.3,108.5z"/>
	<path class="st1" d="M538.3,194.4l1.6,3.3c1.1,2.3,3.2,3.9,5.7,4.5l7.6,1.7c4.7,1,9.7,0,13.7-2.8l7.8-5.5l0.3-2.6
		c0.5-3.9-2.2-7.4-6-8l-11.1-1.8c-0.9-0.1-1.8-0.1-2.7,0.1l-12.9,3C538.6,187.1,536.7,191.1,538.3,194.4z"/>
	<path class="st1" d="M834.4,403.3l0.4,2.5c1.5,9,8.6,16.1,17.5,17.6l6.8,1.2c3.1,0.5,5.7,2,7.8,4c1.5,1.5,2.6,3.2,3.4,5.2
		c0.1,0.2,0.2,0.4,0.2,0.6c0,0.1,0.1,0.3,0.1,0.4c0,0.2,0.1,0.3,0.1,0.5c0.3,1,0.6,2.1,0.9,2.9c0.5,1.7,0.5,3.4,0.1,5.1l-1.4,5.7
		c-1.3,5.4-4.7,10.1-9.5,12.9l-2.9,1.7c-2,1.2-4.1,2-6.4,2.5l-20.6,4.1c-1.9,0.4-4,0.3-5.9-0.1l-10.9-2.7c-0.3-0.1-0.5-0.1-0.8-0.3
		c-3.4-1.2-6.3-3.7-8-6.8l-19.2-34.4c-2.4-4.3-7.7-6-12.1-4c-2.6,1.2-4.2,3.8-4.2,6.5c0,0.8,0.1,1.6,0.4,2.4l2.3,6.3
		c4.1,11.2,9.9,21.8,17.1,31.2l4.2,5.5c5.1,6.7,11.7,12,19.1,15.5c0.5,0.3,7.4,2.9,7.4,2.9l6.6,2c1.4,0.4,2.7,1.1,3.7,2.1l2.7,2.5
		c3.5,3.2,5.8,7.5,6.7,12.1l0.5,2.5c0.7,3.7,0.2,7.6-1.4,11c-1.3,2.8-8.9,10.8-13,14.1c-0.1,0.1-0.2,0.2-0.2,0.3L808,563.1
		c-11.9,16.3-17,36.5-14,56.5l1.5,10.4c1.4,9.4-1.4,18.9-7.6,26l-7.3,8.4c-3.3,3.8-5.8,8.1-7.5,12.8l-10.6,29
		c-0.7,1.8-1.5,3.5-2.5,5.1L739,745c-3.1,4.9-7.8,8.6-13.4,10.3l-3.5,1.1c-12.8,3.9-26.4-3.2-30.6-16l-5.8-17.9c0,0,0,0,0-0.1
		l-11.5-44.2c-1.4-5.3-1.7-10.8-0.9-16.2l1.7-11.5c2.3-15.5,1-31.3-3.9-46.1l-4.7-14.4c-2.2-6.5-3.2-13.3-3.2-20.2v-10.5
		c0-11.8-6.8-22.6-17.6-27.3c-7.4-3.2-15.7-3.5-23.4-0.8l-12.8,4.4c-0.1,0-0.1,0.1-0.2,0.1c-2.3,0.3-4.5,0.5-6.7,0.5
		c-10.6,0-21-3.6-29.4-10.3c-2.7-2.2-5-4.7-6.7-7.7l-12.2-20.2c-7.3-12.1-10.7-26.2-9.7-40.3l0.5-6.8c1-14.4,5.3-28.4,12.6-40.9
		l7.3-12.5c4.8-8.2,10.8-15.6,17.8-21.9l6.1-5.5c9.1-8.2,20.4-13.6,32.5-15.6c0.2,0,0.6-0.1,0.8-0.1l18.9-0.8
		c0.5-0.1,13.2-0.3,17.9,7.5c2.3,3.8,2.8,8.3,7,9.7l40.1,13.4c0.6,0.2,1.2-0.2,1.4-0.8c1.2-5.2,6.2-8.6,11.6-7.7l31.3,5.2
		c6.6,1.1,13.1-2.7,15.4-9l3.6-9.9c0.4-1,0.5-2,0.5-3c0-3.6-2.2-6.9-5.8-8.2l-21.4-9.8c-2.8-1.3-3.5-5-1.3-7.2l3.3-3.3
		c2.2-2.2,5.1-3.5,8.2-3.6l28.2-1.3c3-0.1,4.6-3.5,3-5.9l-1-1.5l-7.2-11.2c-0.3-0.6-0.7-1.1-1-1.7l-3.2-6.2c-2.4-4.7-7.8-7-12.8-5.4
		l-20.3,6.1c-6.4,1.9-11.4,6.9-13.5,13.2l-6.5,19.9c-2.8,8.6-12,13.2-20.5,10.2l-2.2-0.8c-6.3-2.2-12.1-5.7-17-10.3l-17.2-16.2
		c-1.8-1.8-3.9-3.2-6.1-4.4c-2.2-1.2-4.6-2-7.1-2.6c-7.6-1.7-15.4,1.5-19.7,8l-7.4,11.1c-0.7,1-1.5,1.9-2.4,2.6l-15.1,12.7
		c-3.4,2.9-7.7,4.4-12,4.4c-2.6,0-5.1-0.5-7.5-1.6c-3.3-1.5-5.4-4.7-5.4-8.2v-13.4c0-6.5,5-11.8,11.5-12.2l7.4-0.4
		c6.7-0.4,12.2-5.2,13.6-11.8l0.8-4c1.5-7.2,4.7-13.9,9.4-19.5l7.9-9.4c6-7.1,14.3-11.8,23.5-13.2l26.4-3.9
		c7.5-1.1,14.5-4.3,20.3-9.2l16.3-13.9c2.7-2.3,1.2-6.7-2.3-6.9l-14.3-0.7c-0.3,0-0.5-0.1-0.7-0.3l-3.7-4c-3.2-3.5-9-0.9-8.5,3.8
		l0.1,1.1c0.5,5.9-2,11.6-6.8,15l-0.2,0.2c-6.6,4.7-15.4,4.8-22.1,0.2l-10.2-7.1c0,0-0.1,0-0.1-0.1c-7.4-3.7-9.6-13.2-4.7-19.9
		L664,179c5.8-7.9,14.8-12.8,24.6-13.5l27.8-1.9c87.8,56.6,152,146.6,174.6,252l-12.2,0.3c-5,0.1-10-1.2-14.3-3.8l-22.9-13.7
		C838.1,396.2,833.7,399.2,834.4,403.3z"/>
	<path class="st1" d="M839.9,649.5l-0.9,11.9c-0.1,1.7-0.5,3.3-1.2,4.8l-6.7,15.7l-2.5,10.9c-0.3,1.3-0.8,2.6-1.5,3.7
		c-1.9,3.2-6,9.8-6.6,10.5c-0.1,0-0.1,0.1-0.2,0.1l-0.8,0.3l-3.4,1.3c-1.1,0.4-2.3,0.3-3.3-0.2l-1.6-0.9l0,0
		c-0.7-0.4-1.2-0.9-1.5-1.6c-1.6-3.1-5.7-12.1-5.3-17.2l0.7-9.6c0-0.6,0.1-1.3,0.3-1.9l2.7-13.1c0.8-3.9,3.3-7.3,6.9-9.1
		c1.7-0.9,6-7.2,7-11c1-3.8,6.5-9.5,10.7-11.9c2.7-1.5,4.3,0.1,5.2,1.5c0.5,0.7,0.7,1.6,0.8,2.4l1.4,11.9
		C839.9,648.5,839.9,649,839.9,649.5z"/>
	<path class="st1" d="M810.1,707l1,0.5c-0.3-0.1-0.5-0.2-0.7-0.3C810.3,707.2,810.2,707.1,810.1,707z"/>
	<path class="st1" d="M820.2,707.1c-0.2,0.1-0.4,0.2-0.8,0.3L820.2,707.1z"/>
	<path class="st1" d="M266.6,430.9h12.1c8.3,0,16.3,2.7,22.8,7.8l3,2.3l37.9,19.5l0,0c1.9,1.7,1.1,4.8-1.4,5.4
		c-4.3,1-10.2,1.5-13.4-1.7c-4.7-4.7-50.5-20.3-66-25.6c-2.2-0.7-2.7-3.6-0.8-5l1.5-1.2C263.5,431.4,265,430.9,266.6,430.9z"/>
</g>
<g id="Layer_4">
	<path class="st2" d="M900,500c0,220.9-179.1,400-400,400V100C720.9,100,900,279.1,900,500z"/>
</g>
</svg>
