<?xml version="1.0" encoding="utf-8"?>
<!-- Generator: Adobe Illustrator 22.0.0, SVG Export Plug-In . SVG Version: 6.00 Build 0)  -->
<svg version="1.1" id="Layer_1" xmlns="http://www.w3.org/2000/svg" xmlns:xlink="http://www.w3.org/1999/xlink" x="0px" y="0px"
	 viewBox="0 0 1000 1000" style="enable-background:new 0 0 1000 1000;" xml:space="preserve">
<style type="text/css">
	.st0{fill:#FFBE1A;}
	.st1{fill:#FFAE05;}
	.st2{opacity:0.1;}
</style>
<path class="st0" d="M950,307v386c0,58.8-48.2,107-107,107H157c-58.8,0-107-48.2-107-107V307c0-34.9,17-66.1,43.1-85.7
	c11.1-8.3,23.8-14.5,37.6-18c3.7-1,7.5-1.5,11.3-1.5c0.2,0,0.4,0,0.7,0H854v0.1c5.1-0.4,10.3,0.1,15.3,1.4
	c14.8,3.8,28.3,10.6,40,19.9C934,242.8,950,273.1,950,307z"/>
<path class="st1" d="M909.3,223.2L631.7,464.4c-16.3,14.2-36.2,21.8-56.6,21.8H429.4c-20.5,0-40.3-7.7-56.6-21.8L93.1,221.3
	c11.1-8.3,23.8-14.5,37.6-18c3.7-1,7.5-1.5,11.3-1.5c0.2,0,0.4,0,0.7,0H854v0.1c5.1-0.4,10.3,0.1,15.3,1.4
	C884.1,207.1,897.7,213.9,909.3,223.2z"/>
<path class="st2" d="M950,307v386c0,58.8-48.2,107-107,107H501.2V201.8H854v0.1c5.1-0.4,10.3,0.1,15.3,1.4
	c14.8,3.8,28.3,10.6,40,19.9C934,242.8,950,273.1,950,307z"/>
</svg>
