<?xml version="1.0" encoding="utf-8"?>
<!-- Generator: Adobe Illustrator 19.0.0, SVG Export Plug-In . SVG Version: 6.00 Build 0)  -->
<svg version="1.1" xmlns="http://www.w3.org/2000/svg" xmlns:xlink="http://www.w3.org/1999/xlink" x="0px" y="0px"
	 viewBox="0 0 2048 2048" style="enable-background:new 0 0 2048 2048;" xml:space="preserve">
<style type="text/css">
	.st0{fill-rule:evenodd;clip-rule:evenodd;fill:#FFFFFF;stroke:#313131;}
	.st1{fill-rule:evenodd;clip-rule:evenodd;fill:none;stroke:#000080;stroke-width:20;}
	.st2{fill-rule:evenodd;clip-rule:evenodd;fill:#000080;}
	.st3{fill-rule:evenodd;clip-rule:evenodd;fill:#4F8057;stroke:#313131;}
	.st4{fill-rule:evenodd;clip-rule:evenodd;fill:#FF9933;stroke:#313131;}
	.st5{fill:#000080;}
</style>
<g id="Layer_1">
	<rect id="white" x="576.4" y="895.1" class="st0" width="897.4" height="245.2"/>
	<path id="main_x5F_circle_2_" class="st1" d="M1025.1,1118.4L1025.1,1118.4c-54.6,0-99.3-44.7-99.3-99.3v0
		c0-54.6,44.7-99.3,99.3-99.3h0c54.6,0,99.3,44.7,99.3,99.3v0C1124.4,1073.7,1079.7,1118.4,1025.1,1118.4z"/>
	<circle id="Center_2_" class="st2" cx="1024.8" cy="1018.7" r="12.3"/>
	<path id="white_1_" class="st3" d="M1453.8,1385.6H596.4c-11,0-20-9-20-20v-225.2h897.4v225.2
		C1473.8,1376.6,1464.8,1385.6,1453.8,1385.6z"/>
	<path id="white_2_" class="st4" d="M1473.8,895.1H576.4V679.9c0-16.6,13.4-30,30-30h837.4c16.6,0,30,13.4,30,30V895.1z"/>
</g>
<g id="Diamonds">
	<path id="XMLID_17_" class="st5" d="M1033,1040.9v22.3c0,0.4,0.1,0.8,0.4,1.2l18.6,27.7c1.2,1.8,4.1,0.8,3.8-1.4l-4-32.4
		c0-0.4-0.2-0.8-0.5-1.1l-14.6-17.5C1035.4,1038,1033,1038.9,1033,1040.9z"/>
	<path id="XMLID_16_" class="st5" d="M1045.8,1028.8l15.7,15.7c0.3,0.3,0.7,0.5,1.1,0.6l32.7,6.4c2.2,0.4,3.4-2.3,1.7-3.7
		l-25.8-20.1c-0.3-0.2-0.7-0.4-1.1-0.4l-22.7-2C1045.5,1025.1,1044.4,1027.4,1045.8,1028.8z"/>
	<path id="XMLID_15_" class="st5" d="M1046.5,1011.1h22.3c0.4,0,0.8-0.1,1.2-0.4l27.7-18.6c1.8-1.2,0.8-4.1-1.4-3.8l-32.4,4
		c-0.4,0-0.8,0.2-1.1,0.5l-17.5,14.6C1043.7,1008.6,1044.6,1011.1,1046.5,1011.1z"/>
	<path id="XMLID_14_" class="st5" d="M1033.2,997.8l15.7-15.7c0.3-0.3,0.5-0.7,0.6-1.1l6.4-32.7c0.4-2.2-2.3-3.4-3.7-1.7l-20.1,25.8
		c-0.2,0.3-0.4,0.7-0.4,1.1l-2,22.7C1029.5,998.1,1031.8,999.2,1033.2,997.8z"/>
	<path id="XMLID_13_" class="st5" d="M1017.6,997.3v-22.3c0-0.4-0.1-0.8-0.4-1.2l-18.6-27.7c-1.2-1.8-4.1-0.8-3.8,1.4l4,32.4
		c0,0.4,0.2,0.8,0.5,1.1l14.6,17.5C1015.2,1000.2,1017.6,999.3,1017.6,997.3z"/>
	<path id="XMLID_12_" class="st5" d="M1004.3,1009.3l-15.7-15.7c-0.3-0.3-0.7-0.5-1.1-0.6l-32.7-6.4c-2.2-0.4-3.4,2.3-1.7,3.7
		l25.8,20.1c0.3,0.2,0.7,0.4,1.1,0.4l22.7,2C1004.6,1013,1005.7,1010.6,1004.3,1009.3z"/>
	<path id="XMLID_11_" class="st5" d="M1014.6,1039.9l-15.7,15.7c-0.3,0.3-0.5,0.7-0.6,1.1l-6.4,32.7c-0.4,2.2,2.3,3.4,3.7,1.7
		l20.1-25.8c0.2-0.3,0.4-0.7,0.4-1.1l2-22.7C1018.3,1039.6,1016,1038.5,1014.6,1039.9z"/>
	<path id="XMLID_10_" class="st5" d="M1003.3,1026.5H981c-0.4,0-0.8,0.1-1.2,0.4l-27.7,18.6c-1.8,1.2-0.8,4.1,1.4,3.8l32.4-4
		c0.4,0,0.8-0.2,1.1-0.5l17.5-14.6C1006.1,1028.9,1005.2,1026.5,1003.3,1026.5z"/>
</g>
<g id="Circles">
	<circle id="W_2_" class="st2" cx="935.1" cy="1019.1" r="12"/>
	<circle id="N_2_" class="st2" cx="1025.1" cy="928.9" r="12"/>
	<circle id="E_2_" class="st2" cx="1114.5" cy="1018.3" r="12"/>
	<circle id="S_1_" class="st2" cx="1025.1" cy="1108.4" r="12"/>
	<circle id="NW_2_" class="st2" cx="961.8" cy="955.1" r="12"/>
	<circle id="NE_2_" class="st2" cx="1089.1" cy="955" r="12"/>
	<circle id="SE_2_" class="st2" cx="1089.2" cy="1081.4" r="12"/>
	<circle id="SW_2_" class="st2" cx="961" cy="1083.1" r="12"/>
</g>
</svg>
