<?xml version="1.0" encoding="utf-8"?>
<!-- Generator: Adobe Illustrator 22.0.0, SVG Export Plug-In . SVG Version: 6.00 Build 0)  -->
<svg version="1.1" xmlns="http://www.w3.org/2000/svg" xmlns:xlink="http://www.w3.org/1999/xlink" x="0px" y="0px"
	 viewBox="0 0 2000 2000" style="enable-background:new 0 0 2000 2000;" xml:space="preserve">
<style type="text/css">
	.st0{fill:#FFFFFF;stroke:#000000;stroke-width:25;stroke-miterlimit:10;}
	.st1{fill:#FF3C40;stroke:#000000;stroke-width:25;stroke-miterlimit:10;}
</style>
<g id="Layer_1">
</g>
<g id="Layer_2">
	<path class="st0" d="M1007,862.4"/>
	<path class="st1" d="M1436.6,753.8c-1.5,37.5-7.9,73.8-18.4,108.3c-0.1,0.2-0.1,0.4-0.2,0.6l-42.2,94.6l-370.9,830.9
		c-1.8,4.1-7.7,4.1-9.5-0.1L630.4,943.7l-32.8-75.9c-0.1-0.2-0.1-0.3-0.2-0.5C584.2,825.9,577,781.8,577,736
		c0-228.9,178.9-416,404.4-429.3C1240.7,291.6,1447.2,494.3,1436.6,753.8z"/>
	<path class="st0" d="M1007,820.1"/>
	<circle class="st0" cx="1007" cy="761" r="168"/>
</g>
</svg>
