<?xml version="1.0" encoding="utf-8"?>
<!-- Generator: Adobe Illustrator 24.1.2, SVG Export Plug-In . SVG Version: 6.00 Build 0)  -->
<svg version="1.1" id="Layer_1" xmlns="http://www.w3.org/2000/svg" xmlns:xlink="http://www.w3.org/1999/xlink" x="0px" y="0px"
	 viewBox="0 0 2000 2000" style="enable-background:new 0 0 2000 2000;" xml:space="preserve">
<style type="text/css">
	.st0{fill:#FFFFFF;}
	.st1{fill:#FF0000;}
</style>
<rect class="st0" width="2000" height="2000"/>
<path class="st1" d="M1514.8,306.3c43.7-9.2,84.8,24.1,84.8,68.8v918.1c0,0.3,0,0.7,0,1c-0.5,110.1-90,199.1-200.3,199
	c-110.6-0.1-199.7-89.4-199.7-200c0-110.5,89.5-200,200-200c0.7,0,1.3,0,2,0V734.7c0-44.4-40.9-77.6-84.3-68.4l-461.1,97.2
	c-32.4,6.8-55.5,35.4-55.5,68.5v58.3h-0.1v605h-0.2c0,110.5-89.5,200-200,200c-110.8,0-200-89.2-200-200c0-110.5,89.5-200,200-200
	c0.7,0,1.5,0,2.2,0V890.2h0.1V555.5c0-33.1,23.2-61.7,55.6-68.5L1514.8,306.3z"/>
</svg>
