<?xml version="1.0" encoding="utf-8"?>
<!-- Generator: Adobe Illustrator 22.0.0, SVG Export Plug-In . SVG Version: 6.00 Build 0)  -->
<svg version="1.1" id="Layer_1" xmlns="http://www.w3.org/2000/svg" xmlns:xlink="http://www.w3.org/1999/xlink" x="0px" y="0px"
	 viewBox="0 0 1000 1000" style="enable-background:new 0 0 1000 1000;" xml:space="preserve">
<style type="text/css">
	.st0{fill:#E0E0E0;}
	.st1{fill:#B6B6B6;}
	.st2{fill:#EFEFEF;}
	.st3{fill:#BABABA;}
	.st4{opacity:5.000000e-02;}
</style>
<path class="st0" d="M643.3,212.6c0,10.2-0.9,20.3-2.5,30c-4.5,26.4-14.9,50.5-29.6,70.7c-0.9,1.2-2.8,4-2.8,4l-5.3,49.4L560,770
	H430.9l-43.1-403.3l-6.4-49.4c-0.2-1.4-0.7-2.8-1.6-4c-14.7-20.2-25.1-44.3-29.6-70.7c-1.7-9.7-2.5-19.7-2.5-30
	c0-12.1,1.2-23.9,3.5-35.3C365.8,105,424.9,50.9,495.5,50.9h0c70.6,0,129.6,54.1,144.3,126.5C642.1,188.7,643.3,200.5,643.3,212.6z"
	/>
<g id="Layer_2">
</g>
<path class="st1" d="M653.2,187v45.9c0,5.3-4.3,9.7-9.7,9.7H347.3c-5.3,0-9.7-4.3-9.7-9.7V187c0-5.3,4.3-9.7,9.7-9.7h296.2
	C648.9,177.3,653.2,181.7,653.2,187z"/>
<path class="st2" d="M495.5,665.8L495.5,665.8c-16,0-29-13-29-29v-78.6c0-16,13-29,29-29h0c16,0,29,13,29,29v78.6
	C524.5,652.8,511.5,665.8,495.5,665.8z"/>
<path class="st3" d="M495.5,651L495.5,651c-12.4,0-22.5-10.1-22.5-22.5v0c0-12.4,10.1-22.5,22.5-22.5h0c12.4,0,22.5,10.1,22.5,22.5
	v0C518,640.9,507.8,651,495.5,651z"/>
<path class="st3" d="M495.5,587.5L495.5,587.5c-12.4,0-22.5-10.1-22.5-22.5v0c0-12.4,10.1-22.5,22.5-22.5h0
	c12.4,0,22.5,10.1,22.5,22.5v0C518,577.4,507.8,587.5,495.5,587.5z"/>
<polygon class="st1" points="609,317.3 603.7,366.7 388.4,366.7 381.9,317.3 "/>
<path class="st0" d="M509.4,323.2c1.2-0.2,2.3,0.7,2.3,1.9V350c0,0,0,0,0,0c0,3-2.4,5.4-5.4,5.4c-3,0-5.4-2.4-5.4-5.4
	c0-3,2.4-5.4,5.4-5.4c0,0,0,0,0.1,0v-9.7c0-1.2-1.1-2.1-2.3-1.9l-12.5,2.6c-0.9,0.2-1.5,1-1.5,1.9v1.6h0v16.4h0c0,3-2.4,5.4-5.4,5.4
	c-3,0-5.4-2.4-5.4-5.4c0-3,2.4-5.4,5.4-5.4c0,0,0,0,0.1,0v-11h0V330c0-0.9,0.6-1.7,1.5-1.9L509.4,323.2z"/>
<path class="st1" d="M560,770l-4,37.4c-0.2,1.2-0.4,2.3-0.5,3.5v0c-2.5,23.3-22.1,40.9-45.5,40.9h-29.3c-23.4,0-43-17.6-45.5-40.9
	l-4.4-40.9H560z"/>
<path class="st4" d="M653.2,187v45.9c0,5.3-4.3,9.7-9.7,9.7h-2.8c-4.5,26.4-14.9,50.5-29.6,70.7c-0.9,1.2-2.8,4-2.8,4h0.6l-5.3,49.4
	h-0.6L560,770l-4,37.4c-0.2,1.2-0.4,2.3-0.5,3.5v0c-2.5,23.3-22.1,40.9-45.5,40.9h-14.5v-801c70.6,0,129.6,54.1,144.3,126.5h3.8
	C648.9,177.3,653.2,181.7,653.2,187z"/>
</svg>
