<?xml version="1.0" encoding="utf-8"?>
<!-- Generator: Adobe Illustrator 22.0.0, SVG Export Plug-In . SVG Version: 6.00 Build 0)  -->
<svg version="1.1" id="Layer_1" xmlns="http://www.w3.org/2000/svg" xmlns:xlink="http://www.w3.org/1999/xlink" x="0px" y="0px"
	 viewBox="0 0 1000 1000" style="enable-background:new 0 0 1000 1000;" xml:space="preserve">
<style type="text/css">
	.st0{fill:#FFFFFF;stroke:#000000;stroke-width:4;stroke-miterlimit:10;}
	.st1{fill:#744C00;stroke:#000000;stroke-width:4;stroke-miterlimit:10;}
	.st2{fill:#140700;stroke:#000000;stroke-width:4;stroke-miterlimit:10;}
	.st3{fill:#140700;stroke:#000000;stroke-miterlimit:10;}
</style>
<path class="st0" d="M401.2,495.8l16-25.7c7.5-12,24.9-11.9,32.3,0.1l15.6,25.4c7.4,12,24.9,12.1,32.3,0.1l32.2-51.6l-80.4-128.6
	c-7.5-11.9-24.8-11.9-32.3,0l-80.2,128.6l32.1,51.7C376.4,507.7,393.8,507.7,401.2,495.8z"/>
<path class="st1" d="M649.6,691.8H217c-14.9,0-24-16.4-16.1-29.1l136-218.2l32.2,51.6c7.4,12,24.8,12,32.3,0l15.8-25.4
	c7.4-11.9,24.8-11.9,32.3,0l15.8,25.4c7.4,12,24.8,12,32.3,0l32.2-51.6l136,218.2C673.6,675.4,664.5,691.8,649.6,691.8z"/>
<polygon class="st2" points="661.8,526.2 661.6,526.5 661.4,526.2 "/>
<polygon class="st2" points="661.8,526.2 661.6,526.5 661.4,526.2 "/>
<polygon class="st2" points="661.7,526.2 661.6,526.3 661.5,526.2 "/>
<polygon class="st2" points="661.7,526.2 661.6,526.3 661.5,526.2 "/>
<polygon class="st2" points="675.9,547.3 675.7,547.6 675.5,547.3 "/>
<path class="st1" d="M806.5,691.8H548c-8.9,0-14.4-9.8-9.6-17.4l81.3-130.4l19.2,30.8c4.5,7.1,14.8,7.1,19.3,0l9.5-15.2
	c4.5-7.1,14.8-7.1,19.3,0l9.5,15.2c4.5,7.1,14.8,7.1,19.3,0l19.2-30.8l81.3,130.4C820.9,682,815.4,691.8,806.5,691.8z"/>
<polygon class="st2" points="675.9,547.3 675.7,547.6 675.5,547.3 "/>
<polygon class="st2" points="675.7,547.3 675.7,547.4 675.6,547.3 "/>
<polygon class="st2" points="675.7,547.3 675.7,547.4 675.6,547.3 "/>
<path class="st0" d="M658.1,574.7l9.6-15.3c4.5-7.2,14.9-7.1,19.3,0.1l9.3,15.2c4.4,7.2,14.9,7.2,19.3,0.1l19.2-30.8l-48-76.9
	c-4.5-7.1-14.8-7.1-19.3,0l-47.9,76.9l19.2,30.9C643.2,581.8,653.6,581.8,658.1,574.7z"/>
<polygon class="st3" points="816.4,565.8 816.3,566 816.2,565.8 "/>
<polygon class="st3" points="816.4,565.8 816.3,566 816.2,565.8 "/>
<polygon class="st3" points="816.3,565.8 816.3,565.9 816.2,565.8 "/>
<polygon class="st3" points="816.3,565.8 816.3,565.9 816.2,565.8 "/>
<polygon class="st2" points="198.1,544 197.9,544.2 197.8,544 "/>
<path class="st1" d="M327.2,691.8H68.7c-8.9,0-14.4-9.8-9.6-17.4l81.3-130.4l19.2,30.8c4.5,7.1,14.8,7.1,19.3,0l9.5-15.2
	c4.5-7.1,14.8-7.1,19.3,0l9.5,15.2c4.5,7.1,14.8,7.1,19.3,0l19.2-30.8l81.3,130.4C341.6,682,336.1,691.8,327.2,691.8z"/>
<polygon class="st2" points="198.1,544 197.9,544.2 197.8,544 "/>
<polygon class="st2" points="198,544 197.9,544.1 197.9,544 "/>
<polygon class="st2" points="198,544 197.9,544.1 197.9,544 "/>
<path class="st0" d="M178.8,574.7l9.6-15.3c4.5-7.2,14.9-7.1,19.3,0.1l9.3,15.2c4.4,7.2,14.9,7.2,19.3,0.1l19.2-30.8l-48-76.9
	c-4.5-7.1-14.8-7.1-19.3,0l-47.9,76.9l19.2,30.9C163.9,581.8,174.3,581.8,178.8,574.7z"/>
<g>
</g>
<g>
</g>
<g>
</g>
<g>
</g>
<g>
</g>
</svg>
