<?xml version="1.0" encoding="utf-8"?>
<!-- Generator: Adobe Illustrator 22.0.0, SVG Export Plug-In . SVG Version: 6.00 Build 0)  -->
<svg version="1.1" id="Layer_1" xmlns="http://www.w3.org/2000/svg" xmlns:xlink="http://www.w3.org/1999/xlink" x="0px" y="0px"
	 viewBox="0 0 1000 1000" style="enable-background:new 0 0 1000 1000;" xml:space="preserve">
<style type="text/css">
	.st0{fill:#F6F6F6;}
	.st1{fill:none;stroke:#C1C1C1;stroke-width:10;stroke-miterlimit:10;}
	.st2{fill:#C1C1C1;}
	.st3{opacity:0.1;}
</style>
<path class="st0" d="M1000,120v760c0,66.3-53.7,120-120,120H120C53.7,1000,0,946.3,0,880V120C0,53.7,53.7,0,120,0h760
	C946.3,0,1000,53.7,1000,120z"/>
<path class="st1" d="M348.4,492.5h-260c-11,0-20-9-20-20v-114c0-11,9-20,20-20h260c11,0,20,9,20,20v114
	C368.4,483.5,359.5,492.5,348.4,492.5z"/>
<path class="st1" d="M911.6,847.3h-260c-11,0-20-9-20-20v-114c0-11,9-20,20-20h260c11,0,20,9,20,20v114
	C931.6,838.3,922.6,847.3,911.6,847.3z"/>
<g>
	<rect x="577.9" y="338.5" class="st2" width="353.7" height="9.6"/>
	<rect x="577.9" y="467.5" class="st2" width="353.7" height="9.6"/>
	<rect x="577.9" y="424.5" class="st2" width="353.7" height="9.6"/>
	<rect x="577.9" y="381.5" class="st2" width="353.7" height="9.6"/>
</g>
<g>
	<rect x="68.4" y="601.9" class="st2" width="863.1" height="9.6"/>
	<rect x="68.4" y="558.9" class="st2" width="863.1" height="9.6"/>
</g>
<g>
	<rect x="68.4" y="693.3" class="st2" width="353.7" height="9.6"/>
	<rect x="68.4" y="822.3" class="st2" width="353.7" height="9.6"/>
	<rect x="68.4" y="779.3" class="st2" width="353.7" height="9.6"/>
	<rect x="68.4" y="736.3" class="st2" width="353.7" height="9.6"/>
</g>
<g>
	<path class="st2" d="M741.1,166.4c-1.1,6.6-3.9,11.1-4.8,12.3c-5,7.5-12,10.5-15,11.8c-6.6,2.7-12,2.7-18.9,2.7
		c-7.8,0-13.9-1.3-17.2-2.2c-5-1.3-9.7-3.2-14.3-6c-3.9-2.3-5.8-3.6-6.7-5.8c0,0,0,0,0-0.1l8.2-15.1c4.1-0.7,4.5,3.5,11.7,6.9
		c5.1,2.5,9.6,2.6,15.9,3c6.6,0.4,11.5,0.6,16.2-2.4c1.5-1,4.5-3,5.6-6.8c1-3.2,0.4-6.9-1.5-9.5c-2.2-3.1-5.8-3.8-12.9-5.1
		c-19.1-3.4-20.3-3.3-23.5-4.9c-2.6-1.3-9.2-4.6-12.6-11.9c-2.4-5-2.2-9.6-2.1-14.6c0.1-4.9,0.3-9.6,3-14.7
		c3.9-7.4,10.6-10.7,13.4-12c7.3-3.6,13.8-3.5,20.2-3.4c8,0.1,13.3,1.7,22,4.3c10.5,3.1,11.3,4.9,11.8,5.9l-10.4,15.4
		c-3.2-2.7-6.2-3.8-10.2-5.2c-2-0.7-6.2-2-11.7-2.2c-3.6-0.1-7.4-0.3-11.6,1.6c-2.8,1.2-6.4,2.7-7.7,6.5c-1.7,4.8,1.7,9.3,1.9,9.6
		c2,2.6,4.6,3.4,9.6,5c3.5,1.1,5.6,1.4,8.7,2c8.7,1.7,13,2.5,17.6,4.9c2.4,1.2,7.2,3.8,10.9,9.2c0.7,1,2.4,3.6,3.6,7.4
		C742.2,159,741.4,164.1,741.1,166.4z"/>
	<polygon class="st2" points="327.1,189.9 345.4,189.9 345.4,116.9 381.5,189.9 405.6,189.9 405.6,87.9 386.8,87.9 386.8,163.3 
		350.3,87.9 327.1,87.9 	"/>
	<polygon class="st2" points="434.6,87.9 504,87.9 504,106.9 455.6,106.9 455.6,130.3 496.4,130.3 496.4,149.7 454.7,149.7 
		454.7,172 504,172 504,189.9 434.6,189.9 	"/>
	<polygon class="st2" points="649.7,88.6 625.3,190.5 607.4,190.5 589.3,118.7 587.7,118.7 569.5,190.5 551.7,190.5 527.3,88.6 
		548.2,88.6 560.7,154.2 579.8,88.6 597.2,88.6 616.3,154.2 628.8,88.6 	"/>
	<rect x="255.5" y="226" class="st2" width="486.1" height="8.6"/>
	<rect x="255.5" y="206.8" class="st2" width="486.1" height="8.6"/>
	<path class="st2" d="M272.6,189.5v-41.9c0-0.6-0.5-1-1.2-1h-14.8c-0.9,0-1.4-0.8-1-1.5l32.7-57.3c0.6-1,2.2-0.6,2.2,0.5v41.9
		c0,0.6,0.5,1,1.2,1h14.8c0.9,0,1.4,0.8,1,1.5L274.8,190C274.3,190.9,272.6,190.6,272.6,189.5z"/>
</g>
<g id="Layer_2">
	<path class="st3" d="M1000,120v760c0,66.3-53.7,120-120,120H504.2V0H880C946.3,0,1000,53.7,1000,120z"/>
</g>
</svg>
