<?xml version="1.0" encoding="utf-8"?>
<!-- Generator: Adobe Illustrator 22.0.0, SVG Export Plug-In . SVG Version: 6.00 Build 0)  -->
<svg version="1.1" id="Layer_1" xmlns="http://www.w3.org/2000/svg" xmlns:xlink="http://www.w3.org/1999/xlink" x="0px" y="0px"
	 viewBox="0 0 1000 1000" style="enable-background:new 0 0 1000 1000;" xml:space="preserve">
<style type="text/css">
	.st0{fill:#C1C1C1;}
	.st1{opacity:0.1;}
</style>
<path class="st0" d="M500,356c-83.1,0-150.5,67.4-150.5,150.5c0,83.1,67.4,150.5,150.5,150.5s150.5-67.4,150.5-150.5
	C650.5,423.4,583.1,356,500,356z M500,612.2c-58.4,0-105.7-47.3-105.7-105.7c0-58.4,47.3-105.7,105.7-105.7s105.7,47.3,105.7,105.7
	C605.7,564.8,558.4,612.2,500,612.2z"/>
<path class="st0" d="M781.8,466L676,282.7c-14.5-25-41.2-40.5-70.1-40.5H394.2c-28.9,0-55.6,15.4-70.1,40.5L218.2,466
	c-14.5,25-14.5,55.9,0,81L324,730.3c14.5,25,41.2,40.5,70.1,40.5h211.7c28.9,0,55.6-15.4,70.1-40.5L781.8,547
	C796.3,521.9,796.3,491,781.8,466z M500,690.4c-4,0-8-0.1-12-0.4c-96-6.2-171.9-86-171.9-183.5c0-97.5,75.9-177.3,171.9-183.5
	c4-0.3,8-0.4,12-0.4c101.6,0,183.9,82.3,183.9,183.9C683.9,608,601.6,690.4,500,690.4z"/>
<path class="st0" d="M500,356c-83.1,0-150.5,67.4-150.5,150.5c0,83.1,67.4,150.5,150.5,150.5s150.5-67.4,150.5-150.5
	C650.5,423.4,583.1,356,500,356z M500,612.2c-58.4,0-105.7-47.3-105.7-105.7c0-58.4,47.3-105.7,105.7-105.7s105.7,47.3,105.7,105.7
	C605.7,564.8,558.4,612.2,500,612.2z"/>
<path class="st0" d="M500,356c-83.1,0-150.5,67.4-150.5,150.5c0,83.1,67.4,150.5,150.5,150.5s150.5-67.4,150.5-150.5
	C650.5,423.4,583.1,356,500,356z M500,612.2c-58.4,0-105.7-47.3-105.7-105.7c0-58.4,47.3-105.7,105.7-105.7s105.7,47.3,105.7,105.7
	C605.7,564.8,558.4,612.2,500,612.2z"/>
<path class="st1" d="M650.5,506.5c0,83.1-67.4,150.5-150.5,150.5v-44.8c58.4,0,105.7-47.3,105.7-105.7
	c0-58.4-47.3-105.7-105.7-105.7V356C583.1,356,650.5,423.4,650.5,506.5z"/>
<path class="st1" d="M781.8,547L676,730.3c-14.5,25-41.2,40.5-70.1,40.5H500v-80.4c101.6,0,183.9-82.3,183.9-183.9
	c0-101.6-82.3-183.9-183.9-183.9v-80.4h105.8c28.9,0,55.6,15.4,70.1,40.5L781.8,466C796.3,491,796.3,521.9,781.8,547z"/>
</svg>
