<?xml version="1.0" encoding="utf-8"?>
<!-- Generator: Adobe Illustrator 22.0.0, SVG Export Plug-In . SVG Version: 6.00 Build 0)  -->
<svg version="1.1" xmlns="http://www.w3.org/2000/svg" xmlns:xlink="http://www.w3.org/1999/xlink" x="0px" y="0px"
	 viewBox="0 0 1000 1000" style="enable-background:new 0 0 1000 1000;" xml:space="preserve">
<g id="Layer_1">
	<path d="M843.8,640.4H142.5c-20.7,0.1-39.5,8.5-53.1,22.2c-13.7,13.7-22.2,32.6-22.2,53.5c0,41.8,33.9,75.6,75.6,75.6h700.9
		c20.9,0,39.8-8.5,53.5-22.2c13.7-13.7,22.2-32.6,22.2-53.5C919.4,674.3,885.6,640.4,843.8,640.4z M298.3,732.1c-8.8,0-16-7.2-16-16
		c0-8.9,7.2-16,16-16c8.9,0,16,7.2,16,16C314.3,724.9,307.2,732.1,298.3,732.1z M364,732.1c-8.8,0-16-7.2-16-16c0-8.9,7.2-16,16-16
		c8.9,0,16,7.2,16,16C380.1,724.9,372.9,732.1,364,732.1z M429.8,732.1c-8.8,0-16-7.2-16-16c0-8.9,7.2-16,16-16c8.9,0,16,7.2,16,16
		C445.8,724.9,438.6,732.1,429.8,732.1z M495.5,732.1c-8.8,0-16-7.2-16-16c0-8.9,7.2-16,16-16c8.9,0,16,7.2,16,16
		C511.5,724.9,504.4,732.1,495.5,732.1z"/>
	<path d="M238.1,640.4h-44.3l4.1-315c0.2-12.7,5-24.9,13.5-33.9l5.2-5.6c6.2-6.6,16.9-2,17,7.3L238.1,640.4z"/>
	<path d="M793,640.4h-44.3l4.1-315c0.2-12.7,5-24.9,13.5-33.9l5.2-5.6c6.2-6.6,16.9-2,17,7.3L793,640.4z"/>
	<path d="M645.7,371.7L645.7,371.7c-9.8,8.7-25.1,9.4-35.7,1.4c-32.8-24.9-74.8-39.8-120.4-39.8c-42.6,0-82,13-113.8,35
		c-10.9,7.6-26.2,6.3-35.7-2.8l0,0c-11.2-10.9-9.7-28.5,3.4-37.5c40.8-28.2,91.3-44.9,146.1-44.9c58.5,0,112.3,19.1,154.4,50.9
		C656.7,343.5,657.5,361.2,645.7,371.7z"/>
	<path d="M607.1,440.5l-3.1,2.8c-9.5,8.4-24.2,9.3-34.8,2.1c-22-15.1-49.2-24.1-78.7-24.1c-27.4,0-52.8,7.7-73.9,21
		c-10.9,6.8-25.5,5.5-34.6-3.3l-3.1-3c-11.6-11.2-9.5-29.4,4.3-38.2c30.6-19.4,67.5-30.7,107.3-30.7c42.8,0,82.3,13.1,114.1,35.2
		C618,411.5,619.2,429.7,607.1,440.5z"/>
	<path d="M561.8,516.3L561.8,516.3c-9.6,8.5-24.1,10.2-35.7,4.2c-10.3-5.3-22.1-8.3-34.7-8.3c-11.5,0-22.4,2.5-32.1,7
		c-11.9,5.5-26.2,3.2-35.4-5.7l0,0c-14.1-13.7-9.8-36.2,8.4-44.6c17.8-8.2,37.8-12.9,59.1-12.9c23.2,0,45.1,5.6,64.1,15.3
		C573.4,480.5,576.6,503.2,561.8,516.3z"/>
	<path d="M514.7,587.6l-1.1,1c-11.7,10.4-30.2,10-41.4-0.9l-1.1-1c-17.7-17.2-4.8-45.8,20.8-46c0.2,0,0.4,0,0.6,0
		c1.2,0,2.3,0,3.4,0.1C521.6,541.9,533.2,571.1,514.7,587.6z"/>
</g>
<g id="Layer_2">
</g>
</svg>
