<?xml version="1.0" encoding="utf-8"?>
<!-- Generator: Adobe Illustrator 22.0.0, SVG Export Plug-In . SVG Version: 6.00 Build 0)  -->
<svg version="1.1" xmlns="http://www.w3.org/2000/svg" xmlns:xlink="http://www.w3.org/1999/xlink" x="0px" y="0px"
	 viewBox="0 0 2000 2000" style="enable-background:new 0 0 2000 2000;" xml:space="preserve">
<style type="text/css">
	.st0{fill:#5590F4;}
	.st1{fill:#FFFFFF;}
</style>
<g id="Layer_2">
	<path class="st0" d="M1797,1000H203c0-440.2,356.8-797,797-797S1797,559.8,1797,1000z"/>
	<path class="st1" d="M1797,1000c0,440.2-356.8,797-797,797s-797-356.8-797-797H1797z"/>
</g>
<g id="Layer_1">
	<g>
		<g>
			<path class="st0" d="M980.9,1291.1c3.9-3.5,5.8-7.7,5.8-12.4v-54.8c0-5.1-1.9-9.4-5.8-12.9c-3.9-3.5-8.3-5.3-13.2-5.3H852.9
				c-4.9,0-9.1-1.7-12.6-5.1c-3.5-3.4-5.3-7.6-5.3-12.7v-11.7c0-4.7,1.8-8.8,5.3-12.2c3.5-3.4,7.7-5.1,12.6-5.1h114.8
				c4.9,0,9.3-1.8,13.2-5.3c3.9-3.5,5.8-7.7,5.8-12.4c0-4.7,1.8-8.8,5.3-12.2c3.5-3.4,7.7-5.1,12.6-5.1h12.1c4.9,0,9.2,1.7,12.9,5.1
				c3.7,3.4,5.5,7.4,5.5,12.2c0,4.7,1.8,8.9,5.5,12.4s8,5.3,12.9,5.3h114.8c4.9,0,9.1,1.7,12.6,5.1c3.5,3.4,5.3,7.4,5.3,12.2v11.7
				c0,5.1-1.8,9.3-5.3,12.7c-3.5,3.4-7.7,5.1-12.6,5.1h-114.8c-4.9,0-9.2,1.8-12.9,5.3c-3.7,3.6-5.5,7.9-5.5,12.9v54.8
				c0,4.7,1.8,8.9,5.5,12.4s8,5.3,12.9,5.3h109c4.9,0,9.1,1.7,12.6,5.1c3.5,3.4,5.3,7.4,5.3,12.2v11.7c0,5.1-1.8,9.3-5.3,12.7
				c-3.5,3.4-7.7,5.1-12.6,5.1H858.2c-5.3,0-9.7-1.7-13.2-5.1c-3.5-3.4-5.3-7.6-5.3-12.7v-11.7c0-4.7,1.8-8.8,5.3-12.2
				c3.5-3.4,7.9-5.1,13.2-5.1h109.5C972.6,1296.4,977,1294.6,980.9,1291.1z M1135.4,1586c-6.1,2.4-11.8,3.5-17.1,3.5H862.4
				c-4.9,0-9.2-1.8-12.9-5.3c-3.7-3.5-5.5-7.7-5.5-12.4v-168.4c0-4.7,1.8-8.9,5.5-12.4c3.7-3.5,8-5.3,12.9-5.3h295.4
				c5.3,0,9.6,1.8,13.2,5.3c3.5,3.5,5.3,7.7,5.3,12.4v130.8c0,5.1-1.2,10.5-3.7,16.2c-2.5,5.7-5.6,10.1-9.5,13.2l-12.6,13.2
				C1146.5,1580.5,1141.5,1583.6,1135.4,1586z M1121.4,1438.4c-3.5-3.4-7.7-5.1-12.6-5.1H911.4c-5.3,0-9.7,1.7-13.2,5.1
				c-3.5,3.4-5.3,7.4-5.3,12.2v74c0,5.1,1.8,9.3,5.3,12.7c3.5,3.4,7.9,5.1,13.2,5.1h197.4c4.9,0,9.1-1.7,12.6-5.1
				c3.5-3.4,5.3-7.6,5.3-12.7v-74C1126.7,1445.8,1125,1441.8,1121.4,1438.4z"/>
		</g>
	</g>
	<g>
		<path class="st1" d="M1095.1,593.7v-63.4c0-17.3-11.4-25.9-34.2-25.9H945.3c-22.8,0-34.2,8.6-34.2,25.9v295.2
			c0,17.3,11.4,25.9,34.2,25.9h115.6c22.8,0,34.2-8.6,34.2-25.9v-68.6c0-17.3-11.4-25.9-34.2-25.9h-20.5c-22.8,0-34.2-8.6-34.2-25.9
			V698c0-17.3,11.4-25.9,34.2-25.9h97.6c22.8,0,34.2,8.6,34.2,25.9v146.3c0,12.5-5.7,23.3-17.1,32.4l-27.4,20.7
			c-11.4,8.6-25.4,12.9-42,12.9H920.5c-17.1,0-31.4-4.3-42.8-12.9l-27.4-20.7c-11.4-8.6-17.1-19.2-17.1-31.7V511.5
			c0-12.5,5.7-23.1,17.1-31.7l28.3-21.4c11.4-8.6,25.4-12.9,42-12.9h165.3c16.5,0,30.5,4.5,42,13.6l27.4,20.7
			c11.4,8.6,17.1,19.2,17.1,31.7v82.2c0,17.3-11.4,25.9-34.2,25.9h-8.6C1106.6,619.6,1095.1,611,1095.1,593.7z"/>
	</g>
	<g>
	</g>
	<g>
	</g>
	<g>
	</g>
	<g>
	</g>
	<g>
	</g>
</g>
</svg>
