<?xml version="1.0" encoding="utf-8"?>
<!-- Generator: Adobe Illustrator 22.0.0, SVG Export Plug-In . SVG Version: 6.00 Build 0)  -->
<svg version="1.1" id="Layer_1" xmlns="http://www.w3.org/2000/svg" xmlns:xlink="http://www.w3.org/1999/xlink" x="0px" y="0px"
	 viewBox="0 0 2000 2000" style="enable-background:new 0 0 2000 2000;" xml:space="preserve">
<style type="text/css">
	.st0{fill:#754C24;}
	.st1{fill:#009245;}
	.st2{fill:#42210B;}
	.st3{fill:#006837;}
	.st4{fill:#A91D00;}
</style>
<path class="st0" d="M1118.8,1656H881.2c-28.5,0-49.2-35-41.8-70.7l61.8-297.4l19.6-94.2l34.8-167.6l2.6-12.6
	c4.7-22.6,19.6-38.8,37.3-41.2c1.5-0.2,3-0.3,4.6-0.3c3.9,0,7.7,0.7,11.3,2c5.5,1.9,10.6,5.2,15,9.6c7.4,7.3,12.9,17.7,15.5,30
	l2.6,12.6l32.1,154.7l22.2,107.1l17.3,83.5l0,0c0.9,4.3-0.4,8.7-3.5,11.8l-94.6,94.6c-13,13-8,35,9.3,41.1l122,43
	c4.3,1.5,7.5,5.2,8.4,9.6l2.9,13.7c0.3,1.6,0.6,3.2,0.8,4.8C1166.1,1624,1146,1656,1118.8,1656z"/>
<path class="st1" d="M1422.1,972.5c-7.3,7.3-15,13.9-23,19.8c10.8,62-7.7,128.1-55.6,176c-48.5,48.5-115.6,66.8-178.3,55.2
	c-7.4,11.3-16.1,22-26,31.9c-13,13-27.3,23.8-42.6,32.5c-61.1,34.8-136.6,34.8-197.6,0c-15.3-8.7-29.6-19.5-42.6-32.5
	c-8.4-8.4-15.9-17.4-22.5-26.8c-61.2,9.8-126.1-8.9-173.2-56c-49.1-49.1-67.3-117.4-54.7-180.8c-9.9-6.8-19.3-14.6-28.2-23.5
	c-78.1-78.1-78.1-204.7,0-282.8c8.6-8.6,17.8-16.3,27.4-23c-11.2-62.3,7.3-128.9,55.4-177c48.1-48.1,114.7-66.6,177-55.4
	c6.7-9.7,14.4-18.9,23-27.5c78.1-78.1,204.7-78.1,282.8,0c8.4,8.4,15.9,17.4,22.5,26.8c61.2-9.8,126.1,8.9,173.2,56
	c49.1,49.1,67.4,117.4,54.7,180.8c9.9,6.8,19.3,14.6,28.2,23.4C1500.3,767.8,1500.3,894.4,1422.1,972.5z"/>
<path class="st0" d="M1344.2,1557.3c-3.7,8.9-12,14.2-20.7,14.2c-2.9,0-5.9-0.6-8.8-1.9l-132.2-58.3l-4.6-52.2l-0.1-0.6l154.5,68.2
	C1343.7,1531.7,1349.1,1545.4,1344.2,1557.3z"/>
<path class="st2" d="M1167.7,1542.4l-107.1-39.8c-10.8-4-13.6-17.8-5.4-25.8l68.8-66.5c4.3-4.2,10.6-5.5,16.2-3.4l7.7,2.8
	c0.1,0,0.1,0,0.2,0.1l21.8,8.1c5.6,2.1,9.5,7.2,10.1,13.2l0.9,9.6l0.1,0.7l5.5,60.4l2.2,24.6
	C1189.7,1537.8,1178.5,1546.4,1167.7,1542.4z"/>
<path class="st3" d="M1295.3,802.8v-41.9c0-2.6,2.1-4.7,4.7-4.7l0,0c2.6,0,4.7,2.1,4.7,4.7v41.9c0,2.6-2.1,4.7-4.7,4.7l0,0
	C1297.4,807.5,1295.3,805.4,1295.3,802.8z"/>
<path class="st3" d="M672.4,800.9v-41.9c0-2.6,2.1-4.7,4.7-4.7l0,0c2.6,0,4.7,2.1,4.7,4.7v41.9c0,2.6-2.1,4.7-4.7,4.7l0,0
	C674.5,805.6,672.4,803.5,672.4,800.9z"/>
<path class="st3" d="M995.3,511.8V470c0-2.6,2.1-4.7,4.7-4.7l0,0c2.6,0,4.7,2.1,4.7,4.7v41.9c0,2.6-2.1,4.7-4.7,4.7l0,0
	C997.4,516.5,995.3,514.4,995.3,511.8z"/>
<path class="st3" d="M995.3,1118.8V1077c0-2.6,2.1-4.7,4.7-4.7l0,0c2.6,0,4.7,2.1,4.7,4.7v41.9c0,2.6-2.1,4.7-4.7,4.7l0,0
	C997.4,1123.5,995.3,1121.4,995.3,1118.8z"/>
<path class="st4" d="M1300,876.2L1300,876.2c-25.9,0-47.2-21.2-47.2-47.2v0c0-25.9,21.2-47.2,47.2-47.2h0
	c25.9,0,47.2,21.2,47.2,47.2v0C1347.1,854.9,1325.9,876.2,1300,876.2z"/>
<path class="st4" d="M677.1,876.2L677.1,876.2c-25.9,0-47.2-21.2-47.2-47.2v0c0-25.9,21.2-47.2,47.2-47.2h0
	c25.9,0,47.2,21.2,47.2,47.2v0C724.2,854.9,703,876.2,677.1,876.2z"/>
<path class="st4" d="M1000,585.7L1000,585.7c-25.9,0-47.2-21.2-47.2-47.2v0c0-25.9,21.2-47.2,47.2-47.2h0
	c25.9,0,47.2,21.2,47.2,47.2v0C1047.2,564.5,1025.9,585.7,1000,585.7z"/>
<path class="st4" d="M1000,1192.7L1000,1192.7c-25.9,0-47.2-21.2-47.2-47.2v0c0-25.9,21.2-47.2,47.2-47.2h0
	c25.9,0,47.2,21.2,47.2,47.2v0C1047.2,1171.5,1025.9,1192.7,1000,1192.7z"/>
</svg>
