<?xml version="1.0" encoding="utf-8"?>
<!-- Generator: Adobe Illustrator 22.0.0, SVG Export Plug-In . SVG Version: 6.00 Build 0)  -->
<svg version="1.1" id="Layer_1" xmlns="http://www.w3.org/2000/svg" xmlns:xlink="http://www.w3.org/1999/xlink" x="0px" y="0px"
	 viewBox="0 0 2000 2000" style="enable-background:new 0 0 2000 2000;" xml:space="preserve">
<style type="text/css">
	.st0{fill:#754C24;stroke:#000000;stroke-width:10;stroke-miterlimit:10;}
	.st1{fill:#009245;stroke:#000000;stroke-width:10;stroke-miterlimit:10;}
	.st2{fill:#FF0000;stroke:#000000;stroke-width:10;stroke-miterlimit:10;}
	.st3{fill:#808080;stroke:#000000;stroke-width:10;stroke-miterlimit:10;}
	.st4{fill:#754C24;}
	.st5{fill:none;stroke:#000000;stroke-width:10;stroke-miterlimit:10;}
	.st6{fill:#A91D00;stroke:#000000;stroke-width:10;stroke-miterlimit:10;}
</style>
<path class="st0" d="M1133.9,1685H866.1c-34.9,0-61.7-30.9-56.8-65.4L906,934.3c4-28.3,28.2-49.4,56.8-49.4h74.3
	c28.6,0,52.8,21,56.8,49.4l68.5,485.1h-137.3c-14.3,0-27.2,5.8-36.6,15.2c-9.4,9.4-15.2,22.4-15.2,36.6c0,28.5,23.3,51.9,51.9,51.9
	h151.9l13.6,96.4C1195.6,1654.1,1168.8,1685,1133.9,1685z"/>
<path class="st1" d="M1422.1,943.5c-7.3,7.3-15,13.9-23,19.8c10.8,62-7.7,128.1-55.6,176c-48.5,48.5-115.6,66.8-178.3,55.2
	c-7.4,11.3-16.1,22-26,31.9c-13,13-27.3,23.8-42.6,32.5c-61.1,34.8-136.6,34.8-197.6,0c-15.3-8.7-29.6-19.5-42.6-32.5
	c-8.4-8.4-15.9-17.4-22.5-26.8c-61.2,9.8-126.1-8.9-173.2-56c-49.1-49.1-67.3-117.4-54.7-180.8c-9.9-6.8-19.3-14.6-28.2-23.5
	c-78.1-78.1-78.1-204.7,0-282.8c8.6-8.6,17.8-16.3,27.4-23c-11.2-62.3,7.3-128.9,55.4-177c48.1-48.1,114.7-66.6,177-55.4
	c6.7-9.7,14.4-18.9,23-27.5c78.1-78.1,204.7-78.1,282.8,0c8.4,8.4,15.9,17.4,22.5,26.8c61.2-9.8,126.1,8.9,173.2,56
	c49.1,49.1,67.4,117.4,54.7,180.8c9.9,6.8,19.3,14.6,28.2,23.4C1500.3,738.8,1500.3,865.4,1422.1,943.5z"/>
<path class="st2" d="M1381.1,1460.3v27.6c0,8-2,15.5-5.6,22.1c-1.7,3.1-3.8,6-6.1,8.7c-8.5,9.5-20.9,15.6-34.6,15.6h-78.5
	c-21.9,0-40.2-15.1-45.1-35.5h14.2c6.8,0,12.9-2.8,17.4-7.2c4.5-4.5,7.2-10.6,7.2-17.4c0-13.6-11.1-24.6-24.6-24.6h-14.2
	c4.9-20.4,23.2-35.5,45.1-35.5h78.5c9.1,0,17.5,2.6,24.7,7.1c3.7,2.3,7,5.2,9.9,8.4c2.4,2.6,4.4,5.6,6.1,8.7
	C1379.1,1444.8,1381.1,1452.3,1381.1,1460.3z"/>
<path class="st2" d="M1250,1474.1c0,6.8-2.8,12.9-7.2,17.4c-4.5,4.5-10.6,7.2-17.4,7.2h-14.2c-0.8-3.5-1.3-7.1-1.3-10.9v-27.6
	c0-3.7,0.4-7.4,1.3-10.9h14.2C1238.9,1449.5,1250,1460.6,1250,1474.1z"/>
<path class="st3" d="M1250,1474.1c0,6.8-2.8,12.9-7.2,17.4c-4.5,4.5-10.6,7.2-17.4,7.2h-157.9c-13.6,0-24.6-11.1-24.6-24.6
	c0-6.8,2.8-12.9,7.2-17.4c4.5-4.5,10.6-7.2,17.4-7.2h157.9C1238.9,1449.5,1250,1460.6,1250,1474.1z"/>
<polygon points="1072.8,1433.8 1063.8,1449.5 1081.9,1449.5 "/>
<polygon points="1102.6,1433.8 1093.6,1449.5 1111.7,1449.5 "/>
<polygon points="1131,1433.8 1122,1449.5 1140.1,1449.5 "/>
<polygon points="1160.8,1433.8 1151.7,1449.5 1169.8,1449.5 "/>
<polygon points="1189.9,1433.8 1180.8,1449.5 1198.9,1449.5 "/>
<polygon points="1189.9,1514.4 1198.9,1498.8 1180.8,1498.8 "/>
<polygon points="1072.8,1512.7 1063.8,1497.1 1081.9,1497.1 "/>
<polygon points="1102.6,1512.7 1093.6,1497.1 1111.7,1497.1 "/>
<polygon points="1131,1512.7 1122,1497.1 1140.1,1497.1 "/>
<polygon points="1160.8,1512.7 1151.7,1497.1 1169.8,1497.1 "/>
<path class="st2" d="M1402.2,1460v28.2c0,1.7-0.1,3.4-0.2,5.1c-0.6,9.8-12.1,17.6-26.2,17.6l0,0c-3.1,0-6-1.6-8.4-4.3
	c-1.3-1.4-2.4-3.2-3.4-5.2c-2.5-5-4-11.6-4-18.8v-16.8c0-7.2,1.5-13.8,4-18.8c2.9-5.8,7.1-9.5,11.9-9.5l0,0c14,0,25.6,7.7,26.2,17.6
	C1402.2,1456.6,1402.2,1458.3,1402.2,1460z"/>
<path class="st4" d="M1161.2,1559.5"/>
<path class="st5" d="M1295.3,773.8v-41.9c0-2.6,2.1-4.7,4.7-4.7l0,0c2.6,0,4.7,2.1,4.7,4.7v41.9c0,2.6-2.1,4.7-4.7,4.7l0,0
	C1297.4,778.5,1295.3,776.4,1295.3,773.8z"/>
<path class="st5" d="M672.4,771.9v-41.9c0-2.6,2.1-4.7,4.7-4.7l0,0c2.6,0,4.7,2.1,4.7,4.7v41.9c0,2.6-2.1,4.7-4.7,4.7l0,0
	C674.5,776.6,672.4,774.5,672.4,771.9z"/>
<path class="st5" d="M995.3,482.8V441c0-2.6,2.1-4.7,4.7-4.7l0,0c2.6,0,4.7,2.1,4.7,4.7v41.9c0,2.6-2.1,4.7-4.7,4.7l0,0
	C997.4,487.5,995.3,485.4,995.3,482.8z"/>
<path class="st5" d="M995.3,1089.8V1048c0-2.6,2.1-4.7,4.7-4.7l0,0c2.6,0,4.7,2.1,4.7,4.7v41.9c0,2.6-2.1,4.7-4.7,4.7l0,0
	C997.4,1094.5,995.3,1092.4,995.3,1089.8z"/>
<path class="st6" d="M1300,847.2L1300,847.2c-25.9,0-47.2-21.2-47.2-47.2v0c0-25.9,21.2-47.2,47.2-47.2h0
	c25.9,0,47.2,21.2,47.2,47.2v0C1347.1,825.9,1325.9,847.2,1300,847.2z"/>
<path class="st6" d="M677.1,847.2L677.1,847.2c-25.9,0-47.2-21.2-47.2-47.2v0c0-25.9,21.2-47.2,47.2-47.2h0
	c25.9,0,47.2,21.2,47.2,47.2v0C724.2,825.9,703,847.2,677.1,847.2z"/>
<path class="st6" d="M1000,556.7L1000,556.7c-25.9,0-47.2-21.2-47.2-47.2v0c0-25.9,21.2-47.2,47.2-47.2h0
	c25.9,0,47.2,21.2,47.2,47.2v0C1047.2,535.5,1025.9,556.7,1000,556.7z"/>
<path class="st6" d="M1000,1163.7L1000,1163.7c-25.9,0-47.2-21.2-47.2-47.2l0,0c0-25.9,21.2-47.2,47.2-47.2h0
	c25.9,0,47.2,21.2,47.2,47.2l0,0C1047.2,1142.5,1025.9,1163.7,1000,1163.7z"/>
</svg>
