<?xml version="1.0" encoding="utf-8"?>
<!-- Generator: Adobe Illustrator 22.0.0, SVG Export Plug-In . SVG Version: 6.00 Build 0)  -->
<svg version="1.1" xmlns="http://www.w3.org/2000/svg" xmlns:xlink="http://www.w3.org/1999/xlink" x="0px" y="0px"
	 viewBox="0 0 2000 2000" style="enable-background:new 0 0 2000 2000;" xml:space="preserve">
<style type="text/css">
	.st0{fill:#CDCDCD;}
	.st1{fill:#FFFF00;}
	.st2{opacity:5.000000e-02;}
</style>
<g id="Layer_1">
	<path class="st0" d="M1641.7,1080.8v0.5c0,25.8-21.2,46.6-47,46.6H405.3c-25.8,0-47-20.8-47-46.6v-0.4c0-67,26.2-127.8,69-172.8
		c33.6-35.4,77.3-60.9,126.6-72c17.8-4,36.4-6.1,55.5-6.1c1.6,0,3.1-0.5,4.4-1.3c1.3-0.8,2.4-2,3.1-3.4c4.5-9.1,9.3-18.1,14.4-26.8
		C703.4,674,835.8,589,988.3,583c3.9-0.2,7.8-0.3,11.7-0.3c15.8,0.2,31.5,1.3,46.9,3.1c48.4,5.9,94.3,19.7,136.4,40.2
		c23.1,11.2,45.1,24.4,65.6,39.4c7,5.1,13.8,10.4,20.5,15.9c10.3,8.5,20.1,17.3,29.5,26.7c1,1,2,2,3,3c2,2,3.9,4,5.8,6
		c1,1,1.9,2,2.9,3c24.6,26.3,46,55.7,63.5,87.5c0.5,1,1.1,1.9,1.6,2.9c0.3,0.6,0.6,1.2,0.9,1.8c0.2,0.4,0.4,0.8,0.6,1.1
		c2.1,3.9,4.1,7.8,6,11.8c0.1,0.2,0.2,0.4,0.3,0.5c0.2,0.3,0.4,0.6,0.6,0.9c0.2,0.3,0.4,0.5,0.7,0.8c0.1,0.1,0.2,0.2,0.3,0.3
		c0,0,0,0,0,0c0.1,0.1,0.2,0.2,0.4,0.3h0c0.3,0.2,0.5,0.4,0.8,0.6c0.3,0.2,0.6,0.3,0.9,0.5c0.9,0.4,1.9,0.7,3,0.8c0.2,0,0.4,0,0.6,0
		h0c6.2,0,12.3,0.2,18.3,0.7c25.9,1.9,50.7,7.7,73.8,16.8c6.2,2.4,12.2,5.1,18.1,8c75.9,37.2,130.2,111.5,139.4,199.3
		C1641.2,1063.2,1641.7,1071.9,1641.7,1080.8z"/>
	<path class="st1" d="M697.8,1275.1v-143.6c0-2-1.6-3.5-3.5-3.5H649c-2.6,0-4.4-2.8-3.2-5.1l99.8-196.4c1.7-3.3,6.7-2.1,6.7,1.6
		v143.6c0,2,1.6,3.5,3.5,3.5h45.2c2.6,0,4.4,2.8,3.2,5.1l-99.8,196.4C702.8,1280.1,697.8,1278.9,697.8,1275.1z"/>
	<path class="st1" d="M1123.9,1091.5l-18.5,36.3l-117.1,230.4l-35.2,69.3c-2.9,5.7-11.5,3.6-11.5-2.7V1179c0-3.4-2.7-6.1-6.1-6.1
		h-77.4c-4.5,0-7.5-4.8-5.4-8.8l18.5-36.3l117.1-230.4l35.2-69.3c2.9-5.7,11.5-3.6,11.5,2.8v245.8c0,3.3,2.7,6.1,6.1,6.1h77.4
		C1123,1082.7,1125.9,1087.4,1123.9,1091.5z"/>
	<path class="st1" d="M1330.9,1080.3l-24.1,47.5l-75.7,148.9c-1.7,3.3-6.7,2.1-6.7-1.6v-143.6c0-2-1.6-3.5-3.5-3.5h-45.3
		c-0.4,0-0.7-0.1-1-0.1c-2-0.6-3.2-3-2.1-5l99.8-196.4c1.7-3.3,6.7-2.1,6.7,1.6v143.6c0,2,1.6,3.5,3.5,3.5h45.2
		C1330.3,1075.2,1332.1,1078,1330.9,1080.3z"/>
</g>
<g id="Layer_3">
	<path class="st2" d="M1641.7,1080.8v0.5c0,25.8-21.2,46.6-47,46.6h-287.9l-75.7,148.9c-1.7,3.3-6.7,2.1-6.7-1.6v-143.6
		c0-2-1.6-3.5-3.5-3.5h-45.3c-0.4,0-0.7-0.1-1-0.1h-69.1l-117.1,230.4V583c3.9-0.2,7.8-0.3,11.7-0.3c15.8,0.2,31.5,1.3,46.9,3.1
		c48.4,5.9,94.3,19.7,136.4,40.2c23.1,11.2,45.1,24.4,65.6,39.4c7,5.1,13.8,10.4,20.5,15.9c10.3,8.5,20.1,17.3,29.5,26.7
		c1,1,2,2,3,3c2,2,3.9,4,5.8,6c1,1,1.9,2,2.9,3c24.6,26.3,46,55.7,63.5,87.5c0.5,1,1.1,1.9,1.6,2.9c0.3,0.6,0.6,1.2,0.9,1.8
		c0.2,0.4,0.4,0.8,0.6,1.1c2.1,3.9,4.1,7.8,6,11.8c0.1,0.2,0.2,0.4,0.3,0.5c0.2,0.3,0.4,0.6,0.6,0.9c0.2,0.3,0.4,0.5,0.7,0.8
		c0.1,0.1,0.2,0.2,0.3,0.3c0,0,0,0,0,0c0.1,0.1,0.2,0.2,0.4,0.3h0c0.3,0.2,0.5,0.4,0.8,0.6c0.3,0.2,0.6,0.3,0.9,0.5
		c0.9,0.4,1.9,0.7,3,0.8c0.2,0,0.4,0,0.6,0h0c6.2,0,12.3,0.2,18.3,0.7c25.9,1.9,50.7,7.7,73.8,16.8c6.2,2.4,12.2,5.1,18.1,8
		c75.9,37.2,130.2,111.5,139.4,199.3C1641.2,1063.2,1641.7,1071.9,1641.7,1080.8z"/>
</g>
</svg>
