<?xml version="1.0" encoding="utf-8"?>
<!-- Generator: Adobe Illustrator 22.0.0, SVG Export Plug-In . SVG Version: 6.00 Build 0)  -->
<svg version="1.1" id="Layer_1" xmlns="http://www.w3.org/2000/svg" xmlns:xlink="http://www.w3.org/1999/xlink" x="0px" y="0px"
	 viewBox="0 0 1000 1000" style="enable-background:new 0 0 1000 1000;" xml:space="preserve">
<style type="text/css">
	.st0{fill:#555555;stroke:#000000;stroke-miterlimit:10;}
	.st1{fill:#ED2000;stroke:#000000;stroke-miterlimit:10;}
	.st2{fill:#FFFFFF;}
</style>
<polygon class="st0" points="635.3,485 635.3,845 604.7,875 604.7,515 "/>
<rect x="364.7" y="515" class="st0" width="240" height="360"/>
<rect x="364.7" y="155" class="st1" width="240" height="360"/>
<polygon class="st1" points="635.3,125 635.3,485 604.7,515 604.7,155 364.7,155 395.3,125 "/>
<g>
	<path class="st2" d="M433.1,259.6h30.1l49.7,94.1l-2.6,2.6v-96.7h26v128h-30.3l-49.4-91.4l2.6-2.7v94.2h-26.1V259.6z"/>
</g>
<line class="st1" x1="604.7" y1="155" x2="635.3" y2="125"/>
<g>
	<g>
		<path class="st2" d="M471.8,752.1c0,0-3.4-0.9-10.1-2.8c-6.8-1.8-12.6-4.6-17.7-8.3s-9-8.3-12-13.7l23-15
			c3.3,5.2,7.6,9.2,12.9,11.9c5.3,2.7,11.2,4,17.7,3.9c7.1-0.1,12.6-1.4,16.5-4c3.9-2.6,5.9-6.1,5.8-10.6l0-3.9
			c0-3.2-1.1-5.8-3.3-7.8c-2.2-2-4.9-3.5-8.3-4.6c-3.3-1.1-7.8-2.2-13.3-3.4c-0.2-0.1-0.4-0.1-0.6-0.1c-0.2,0-0.3-0.1-0.5-0.1
			l-1.4-0.3c-9.3-1.8-16.9-3.8-22.8-5.9c-5.9-2.2-10.9-5.7-15.2-10.8c-4.2-5-6.4-12-6.5-20.8l0-2.4c-0.1-8.1,1.8-15.1,5.8-20.9
			c3.9-5.8,9.7-10.3,17.3-13.4c7.6-3.1,16.8-4.7,27.6-4.9c6.8-0.1,13.1,0.7,19,2.4c5.9,1.7,11.1,4.3,15.6,7.8
			c4.5,3.5,8.3,7.7,11.3,12.8l-21.3,15.4c-3.5-4.8-7.4-8.4-11.9-11c-4.5-2.5-9.2-3.7-14.2-3.7c-6.8,0.1-12,1.3-15.7,3.7
			c-3.7,2.4-5.5,5.6-5.5,9.8l0,2.9c0,3.6,1.2,6.4,3.6,8.5c2.3,2.1,5.2,3.7,8.6,4.9c3.4,1.2,8.1,2.4,14.2,3.6
			c0.4,0.1,0.7,0.1,1.1,0.2c0.4,0.1,0.7,0.2,1.1,0.3c0.4,0.1,0.7,0.2,1,0.3c0.3,0.1,0.7,0.1,1,0.2c8.5,1.9,15.6,4,21.2,6.3
			c5.6,2.3,10.4,5.9,14.2,10.8c3.8,4.9,5.8,11.5,5.9,19.8l0,3.8c0.1,8-1.9,15-5.9,20.8c-4,5.8-10,10.3-17.8,13.4
			c-7.8,3.1-17.2,4.8-28.1,4.9C475.9,752,471.8,752.1,471.8,752.1z"/>
	</g>
</g>
<g>
</g>
<g>
</g>
<g>
</g>
<g>
</g>
<g>
</g>
</svg>
