<?xml version="1.0" encoding="utf-8"?>
<!-- Generator: Adobe Illustrator 22.0.0, SVG Export Plug-In . SVG Version: 6.00 Build 0)  -->
<svg version="1.1" id="Layer_1" xmlns="http://www.w3.org/2000/svg" xmlns:xlink="http://www.w3.org/1999/xlink" x="0px" y="0px"
	 viewBox="0 0 1000 1000" style="enable-background:new 0 0 1000 1000;" xml:space="preserve">
<style type="text/css">
	.st0{fill:none;stroke:#000000;stroke-width:15;stroke-miterlimit:10;}
</style>
<path class="st0" d="M672.5,620.6c0,9.6-0.1,18.9-0.4,28c-0.5,21.4-1.6,41.2-3.3,58.8c-1.1,11.9-2.6,22.8-4.3,32.5
	c-0.4,2.3-0.8,4.5-1.3,6.7c-2.6,12.7-5.7,23-9.4,30.3c-1.6,3.2-5.5,11-11.9,21c-1.8,2.9-3.9,6-6.2,9.3c-5.7,8.1-12.8,18.2-23.8,28.4
	c0,0-14.7,13.8-35,23.9c-6.5,3.2-13.5,5.9-20.9,8.1c-0.9,0.3-1.7,0.5-2.6,0.8c-36.8,10.3-81.4,9.2-111.5,6.5v-361
	c0-20.9-2.7-41.1-7.7-60.5C408.9,355.1,322.8,281.2,218.4,274c3.4-9.2,7-17,10.5-23.1c17.1-29.1,42.4-54.4,71.9-74.5
	c79.5-54.3,189.8-71.6,254.3-29.8c9.2,6,17.7,13.2,25.3,21c7.2,7.3,13.7,15.1,19.3,22.5c1.7,2.3,3.3,4.5,4.9,6.6
	c11.4,16.1,18.4,29.6,19.8,32.2c12.7,24.8,17.1,44.5,22.2,76.9c0.5,3.3,1.1,6.8,1.6,10.4c0.1,0.6,0.2,1.3,0.3,1.9
	c0.7,4.5,1.4,9.3,2.2,14.3c5.8,38,10.6,79.3,14.2,120.9C669.9,510.9,672.6,569.1,672.5,620.6z"/>
<path class="st0" d="M442,513.9v361c-20.4-1.8-34.2-4.2-34.2-4.2c-34.9-7.9-65.2-15.9-89.9-22.9c-63.1-17.9-90.5-29.5-117.1-51.7
	c-5.4-4.5-10.2-8.5-14.4-13.2c-27-30.4-23.5-190.3-5.6-329.4c9.3-72.5,22.6-139.4,37.6-179.4c104.4,7.2,190.5,81.1,215.9,179.4
	C439.3,472.7,442,493,442,513.9z"/>
<path class="st0" d="M832.6,453.4c-0.2,2.8-0.3,5.5-0.5,8.1c-1.9,30.9-6.8,97-61.7,175.2c-4.9,7-41.4,58.1-107.2,109.9
	c0.4-2.2,0.9-4.4,1.3-6.7c1.7-9.7,3.1-20.6,4.3-32.5c1.7-17.6,2.8-37.4,3.3-58.8c0.2-9.1,0.3-18.4,0.4-28
	c33.6-47.4,50.2-109.5,45.9-167.2c-3.6-48-21.6-93-56.3-124.1c-3.9-3.5-8.4-7.3-13.4-11.1c-0.1-0.7-0.2-1.3-0.3-1.9
	c-0.6-3.6-1.1-7.1-1.6-10.4c-5.1-32.4-9.6-52.1-22.2-76.9c-1.3-2.6-8.3-16.1-19.8-32.2c-1.6-2.2-3.2-4.4-4.9-6.6
	c46.2,11.9,90.6,29.2,125.7,52.1c60.1,39.4,82.3,88.8,90.3,106.6C834.3,390.1,834.1,425.7,832.6,453.4z"/>
<path class="st0" d="M556.1,451.4v399.3c0,6.2-0.9,12-2.6,17.6c-36.8,10.3-81.4,9.2-111.5,6.5v-361c0-20.9-2.7-41.1-7.7-60.5
	C408.9,355.1,322.8,281.2,218.4,274c3.4-9.2,7-17,10.5-23.1c17.1-29.1,42.4-54.4,71.9-74.5C452.4,227.8,556.1,331.7,556.1,451.4z"/>
</svg>
