<?xml version="1.0" encoding="utf-8"?>
<!-- Generator: Adobe Illustrator 22.0.0, SVG Export Plug-In . SVG Version: 6.00 Build 0)  -->
<svg version="1.1" xmlns="http://www.w3.org/2000/svg" xmlns:xlink="http://www.w3.org/1999/xlink" x="0px" y="0px"
	 viewBox="0 0 1000 1000" style="enable-background:new 0 0 1000 1000;" xml:space="preserve">
<style type="text/css">
	.st0{fill:#16FF77;}
	.st1{display:none;fill:#FF7756;}
	.st2{display:none;}
	.st3{display:inline;fill:#51FFFA;stroke:#000000;stroke-miterlimit:10;}
	.st4{display:inline;}
	.st5{fill:#1D35FF;}
	.st6{fill:#3EFFCB;}
</style>
<g id="Layer_3">
	<path class="st0" d="M882.5,102.2c-2.4-2.1-5.1-3.8-8.2-5V85.2L882.5,102.2z"/>
	<path d="M830.9,500c0,3.1,0,6.3-0.1,9.4c0,0.2,0,0.4,0,0.6c-1.3,56.1-13.9,109.1-35.3,156.2c-0.6,1.4-1.3,2.9-2,4.3
		c-2.3,5-4.8,9.9-7.3,14.7c-0.7,1.4-1.4,2.7-2.2,4.1c-26.2,48.8-62.3,90.1-105.1,120.5v-58.6c10.2-4,17.5-14,17.5-25.6
		c0-11.3-6.9-21.1-16.7-25.3V633c7.8-3,13.8-9.5,16.3-17.5c0.2,0.5,0.4,1,0.6,1.6h44.2c4,10.2,14,17.5,25.6,17.5
		c15.2,0,27.5-12.3,27.5-27.5c0-15.2-12.3-27.5-27.5-27.5c-11.7,0-21.6,7.3-25.6,17.5l-45.6,0c-4.1-10.1-14-17.2-25.5-17.2
		c-15.2,0-27.5,12.3-27.5,27.5c0,11.7,7.3,21.6,17.5,25.6v66.7c-6.4,2.3-11.8,6.9-15,12.8h-55.7c-4-10.4-14.1-17.7-25.9-17.7
		c-15.4,0-27.8,12.5-27.8,27.8s12.5,27.8,27.8,27.8c11.8,0,21.9-7.3,25.9-17.7h53.3c2.3,8.5,8.5,15.3,16.6,18.5v71.7
		c-8.9,5.3-18,10.2-27.3,14.7c-37,17.5-77.5,6.7-102.3-20c-14.4-15.5-23.5-36.3-23.5-60.1V572.1h43.9c4,10.3,14,17.5,25.6,17.5
		c15.2,0,27.5-12.3,27.5-27.5c0-0.2,0-0.3,0-0.5v-0.1c0-0.2,0-0.4,0-0.6c0-11.7-7.3-21.6-17.5-25.6V491c10.3-4,17.5-13.9,17.5-25.6
		c0-11.7-7.3-21.6-17.5-25.6v-43.2c7.2-2.8,12.8-8.5,15.6-15.6h31.8c4,10.2,14,17.5,25.6,17.5c11.7,0,21.6-7.3,25.6-17.5h29.6
		c1.3,3.4,3.4,6.7,6.2,9.5c2.8,2.8,6,4.8,9.5,6.2v43.2c-10.3,4-17.5,14-17.5,25.6c0,15.2,12.3,27.5,27.5,27.5s27.5-12.3,27.5-27.5
		c0-11.7-7.3-21.6-17.5-25.6v-43.2c3.4-1.3,6.6-3.4,9.4-6.2c8.2-8.3,10.1-20.4,5.7-30.5l29.5-29.5c22.2,47.7,35.3,101.7,36.8,158.9
		c0,0.2,0,0.4,0,0.6C830.8,493.3,830.9,496.6,830.9,500z"/>
	<path d="M784.5,311.6l-34.3,34.2c-10.1-4.4-22.3-2.5-30.5,5.8c-2.8,2.8-4.8,6-6.2,9.5h-29.6c-4-10.3-14-17.5-25.6-17.5
		c-11.7,0-21.6,7.3-25.6,17.5H601c-4-10.3-14-17.5-25.6-17.5c-15.2,0-27.5,12.3-27.5,27.5c0,11.7,7.3,21.6,17.5,25.6v43.2
		c-10.3,4-17.5,14-17.5,25.6c0,11.7,7.3,21.6,17.5,25.6v44.3c-7.5,2.9-13.4,9.1-16,16.8h-43.5V242.5c0-23.8,9.1-44.6,23.5-60.1
		c24.8-26.7,65.3-37.5,102.3-20c9.3,4.4,18.4,9.3,27.3,14.7v69.6c-8.1,3.1-14.3,10-16.6,18.5h-53.3c-4-10.4-14.1-17.7-25.9-17.7
		c-15.4,0-27.8,12.5-27.8,27.8s12.5,27.8,27.8,27.8c11.8,0,21.9-7.4,25.9-17.7h55.7c4.6,8.6,13.7,14.4,24.2,14.4
		c15.2,0,27.5-12.3,27.5-27.5c0-11.7-7.3-21.6-17.5-25.6v-56.5c42.6,30.2,78.5,71.2,104.6,119.7C783.9,310.4,784.2,311,784.5,311.6z
		"/>
	<path class="st0" d="M882.5,102.2c-2.4-2.1-5.1-3.8-8.2-5V85.2L882.5,102.2z"/>
	<path class="st1" d="M739.8,1258.5v515c0,64.7-67.3,107.7-125.8,80.1c-9.3-4.4-18.4-9.3-27.3-14.7l-20-13.1
		c-42.8-30.4-78.9-71.7-105.1-120.5c-0.7-1.4-1.5-2.7-2.2-4.1c-2.5-4.8-5-9.7-7.3-14.7c-0.7-1.4-1.3-2.8-2-4.3
		c-21.4-47.1-33.9-100.1-35.3-156.2c0-0.2,0-0.4,0-0.6c-0.1-3.1-0.1-6.2-0.1-9.4c0-3.3,0-6.7,0.1-10c0-0.2,0-0.4,0-0.6
		c1.5-57.2,14.6-111.2,36.8-158.9l9.4-18.9c0.3-0.6,0.6-1.2,0.9-1.8c26.2-48.4,62.1-89.4,104.6-119.6l20-13.1
		c8.9-5.4,18-10.2,27.3-14.7C672.5,1150.8,739.8,1193.8,739.8,1258.5z"/>
	<path class="st1" d="M699.7,1586.1v515c0,64.7-67.3,107.7-125.8,80.1c-9.3-4.4-18.4-9.3-27.3-14.7l-20-13.1
		c-42.8-30.4-78.9-71.7-105.1-120.5c-0.7-1.4-1.5-2.7-2.2-4.1c-2.5-4.8-5-9.7-7.3-14.7c-0.7-1.4-1.3-2.8-2-4.3
		c-21.4-47.1-33.9-100.1-35.3-156.2c0-0.2,0-0.4,0-0.6c-0.1-3.1-0.1-6.2-0.1-9.4c0-3.3,0-6.7,0.1-10c0-0.2,0-0.4,0-0.6
		c1.5-57.2,14.6-111.2,36.8-158.9l9.4-18.9c0.3-0.6,0.6-1.2,0.9-1.8c26.2-48.4,62.1-89.4,104.6-119.7l20-13.1
		c8.9-5.3,18-10.2,27.3-14.7C632.4,1478.4,699.7,1521.5,699.7,1586.1z"/>
	<path d="M505.9,572.1v185.4c0,23.8-9.1,44.6-23.5,60.1c-24.8,26.7-65.3,37.5-102.3,20c-9.3-4.4-18.4-9.3-27.3-14.7v-71.7
		c8.1-3.2,14.3-10,16.6-18.5h53.3c4,10.4,14.1,17.7,25.9,17.7c15.4,0,27.8-12.5,27.8-27.8s-12.5-27.8-27.8-27.8
		c-11.8,0-21.9,7.4-25.9,17.7H367c-3.2-5.9-8.6-10.6-15-12.8V633c10.2-4,17.5-14,17.5-25.6c0-15.2-12.3-27.5-27.5-27.5
		c-11.5,0-21.4,7.1-25.5,17.2l-45.6,0c-4-10.2-14-17.5-25.6-17.5c-15.2,0-27.5,12.3-27.5,27.5c0,15.2,12.3,27.5,27.5,27.5
		c11.7,0,21.6-7.3,25.6-17.5h44.2c0.2-0.5,0.4-1,0.6-1.6c2.5,8,8.5,14.5,16.3,17.5v67.3c-9.8,4.2-16.7,13.9-16.7,25.3
		c0,11.7,7.3,21.6,17.5,25.6v58.6c-42.8-30.4-78.9-71.7-105.1-120.5c-0.7-1.4-1.5-2.7-2.2-4.1c-2.5-4.8-5-9.7-7.3-14.7
		c-0.7-1.4-1.3-2.8-2-4.3C194.9,619.1,182.3,566.1,181,510c0-0.2,0-0.4,0-0.6c-0.1-3.1-0.1-6.2-0.1-9.4c0-3.4,0-6.7,0.1-10
		c0-0.2,0-0.4,0-0.6c1.4-57.2,14.6-111.2,36.8-158.9l29.5,29.5c-4.4,10.1-2.5,22.2,5.7,30.5c2.8,2.8,6,4.8,9.4,6.2v43.2
		c-10.2,4-17.5,14-17.5,25.6c0,15.2,12.3,27.5,27.5,27.5s27.5-12.3,27.5-27.5c0-11.7-7.3-21.6-17.5-25.6v-43.2
		c3.4-1.3,6.7-3.4,9.5-6.2c2.8-2.8,4.8-6,6.2-9.5h29.6c4,10.2,14,17.5,25.6,17.5c11.7,0,21.6-7.3,25.6-17.5h31.8
		c2.8,7.1,8.5,12.8,15.6,15.6v43.2c-10.3,4-17.5,14-17.5,25.6c0,11.7,7.3,21.6,17.5,25.6v44.3c-10.3,4-17.5,14-17.5,25.6
		c0,0.2,0,0.4,0,0.6v0.1c0,0.2,0,0.3,0,0.5c0,15.2,12.3,27.5,27.5,27.5c11.6,0,21.6-7.3,25.6-17.5H505.9z"/>
	<path d="M505.9,242.5v309.6h-43.5c-2.6-7.7-8.5-13.8-16-16.8V491c10.3-4,17.5-13.9,17.5-25.6c0-11.7-7.3-21.6-17.5-25.6v-43.2
		c10.3-4,17.5-14,17.5-25.6c0-15.2-12.3-27.5-27.5-27.5c-11.7,0-21.6,7.3-25.6,17.5h-31.8c-4-10.2-14-17.5-25.6-17.5
		c-11.7,0-21.6,7.3-25.6,17.5h-29.6c-1.3-3.4-3.4-6.7-6.2-9.5c-8.2-8.3-20.4-10.2-30.5-5.8l-34.3-34.2c0.3-0.6,0.6-1.2,0.9-1.8
		c26.2-48.4,62.1-89.4,104.6-119.7v56.5c-10.2,4-17.5,14-17.5,25.6c0,15.2,12.3,27.5,27.5,27.5c10.4,0,19.5-5.8,24.2-14.4h55.7
		c4,10.4,14.1,17.7,25.9,17.7c15.4,0,27.8-12.5,27.8-27.8s-12.5-27.8-27.8-27.8c-11.8,0-21.9,7.3-25.9,17.7h-53.3
		c-2.3-8.5-8.5-15.3-16.6-18.5v-69.6c8.9-5.4,18-10.2,27.3-14.7c37-17.5,77.5-6.7,102.3,20C496.8,197.9,505.9,218.7,505.9,242.5z"/>
	<path d="M529.4,572.1v245.5c-14.4-15.5-23.5-36.3-23.5-60.1c0,23.8-9.1,44.6-23.5,60.1V572.1H529.4z"/>
	<path d="M529.4,182.4v369.7h-47V182.4c14.4,15.5,23.5,36.3,23.5,60.1C505.9,218.7,515,197.9,529.4,182.4z"/>
</g>
<g id="Layer_1" class="st2">
	<polygon class="st3" points="119,883 119,883 119,883 119,883 	"/>
	<g class="st4">
		<path class="st5" d="M237.9,248.5"/>
		<path class="st6" d="M317,267.3c67.2,0,122.7,50.1,131,115.1c1.2,9.1-6,17.1-15.1,17.1h0c-7.6,0-14.1-5.7-15.1-13.3
			c-6.5-49.9-49.2-88.5-100.9-88.5c-51.7,0-94.4,38.5-100.9,88.5c-1,7.6-7.4,13.3-15.1,13.3h0c-9.1,0-16.2-8-15.1-17.1
			C194.3,317.4,249.8,267.3,317,267.3z"/>
		<path class="st6" d="M317,315.8c42,0,76.7,31.3,81.9,71.9c0.7,5.7-3.7,10.7-9.4,10.7l0,0c-4.8,0-8.8-3.5-9.4-8.3
			c-4-31.2-30.7-55.3-63.1-55.3c-32.3,0-59,24.1-63.1,55.3c-0.6,4.7-4.7,8.3-9.4,8.3h0c-5.7,0-10.2-5-9.4-10.7
			C240.3,347.1,275,315.8,317,315.8z"/>
		<path class="st6" d="M317,358.1c21,0,38.3,15.6,40.9,35.9c0.4,2.9-1.8,5.4-4.7,5.4h0c-2.4,0-4.4-1.8-4.7-4.1
			c-2-15.6-15.4-27.7-31.5-27.7c-16.2,0-29.5,12.1-31.5,27.7c-0.3,2.4-2.3,4.1-4.7,4.1l0,0c-2.9,0-5.1-2.5-4.7-5.4
			C278.7,373.7,296,358.1,317,358.1z"/>
	</g>
</g>
<g id="Layer_2">
</g>
</svg>
