<?xml version="1.0" encoding="utf-8"?>
<!-- Generator: Adobe Illustrator 22.0.0, SVG Export Plug-In . SVG Version: 6.00 Build 0)  -->
<svg version="1.1" id="Layer_1" xmlns="http://www.w3.org/2000/svg" xmlns:xlink="http://www.w3.org/1999/xlink" x="0px" y="0px"
	 viewBox="0 0 1000 1000" style="enable-background:new 0 0 1000 1000;" xml:space="preserve">
<style type="text/css">
	.st0{fill:#FFD800;}
	.st1{fill:#E3E3E3;}
	.st2{opacity:0.1;}
</style>
<path class="st0" d="M471.9,225.6L180.3,517.2l-16.5-16.5l291.4-291.4l0,0.6c0,4.4,1.8,8.3,4.7,11.2c2.8,2.8,6.7,4.5,11,4.5
	L471.9,225.6z"/>
<path class="st1" d="M227,485.8c5.4,0,8.1,6.5,4.3,10.3l-72,72c-3.8,3.8-10.3,1.1-10.3-4.3v-25.7c0-1.7-0.7-3.2-1.8-4.3
	c-1.1-1.1-2.6-1.8-4.3-1.8h-25.7c-5.4,0-8.1-6.5-4.3-10.3l72-72c3.8-3.8,10.3-1.1,10.3,4.3v25.7c0,1.7,0.7,3.2,1.8,4.3
	c1.1,1.1,2.6,1.8,4.3,1.8H227z"/>
<path class="st1" d="M570.6,120.8L535,215.5c-2.3,6.1-8.2,10.2-14.7,10.2h-48.4l-1,0c-4.3,0-8.2-1.7-11-4.5
	c-2.9-2.9-4.7-6.8-4.7-11.2l0-0.6l0-48.4c0-6.7,4.3-12.7,10.6-14.9l96.8-33.5c1.9-0.7,3.8-0.4,5.3,0.5
	C570.3,114.6,571.7,117.7,570.6,120.8z"/>
<path class="st2" d="M570.6,120.8L535,215.5c-2.3,6.1-8.2,10.2-14.7,10.2h-48.4L211.8,485.8H227c5.4,0,8.1,6.5,4.3,10.3l-72,72
	c-3.8,3.8-10.3,1.1-10.3-4.3v-25.7c0-1.7-0.7-3.2-1.8-4.3l420.7-420.7C570.3,114.6,571.7,117.7,570.6,120.8z"/>
<path class="st0" d="M753.3,262.1L461.8,553.7l-16.5-16.5l291.4-291.4l0,0.6c0,4.4,1.8,8.3,4.7,11.2c2.8,2.8,6.7,4.5,11,4.5
	L753.3,262.1z"/>
<path class="st1" d="M508.4,522.2c5.4,0,8.1,6.5,4.3,10.3l-72,72c-3.8,3.8-10.3,1.1-10.3-4.3v-25.7c0-1.7-0.7-3.2-1.8-4.3
	s-2.6-1.8-4.3-1.8h-25.7c-5.4,0-8.1-6.5-4.3-10.3l72-72c3.8-3.8,10.3-1.1,10.3,4.3v25.7c0,1.7,0.7,3.2,1.8,4.3
	c1.1,1.1,2.6,1.8,4.3,1.8H508.4z"/>
<path class="st1" d="M852,157.3l-35.6,94.7c-2.3,6.1-8.2,10.2-14.7,10.2h-48.4l-1,0c-4.3,0-8.2-1.7-11-4.5
	c-2.9-2.9-4.7-6.8-4.7-11.2l0-0.6l0-48.4c0-6.7,4.3-12.7,10.6-14.9l96.8-33.5c1.9-0.7,3.8-0.4,5.3,0.5
	C851.8,151,853.2,154.1,852,157.3z"/>
<path class="st2" d="M852,157.3l-35.6,94.7c-2.3,6.1-8.2,10.2-14.7,10.2h-48.4L493.2,522.2h15.2c5.4,0,8.1,6.5,4.3,10.3l-72,72
	c-3.8,3.8-10.3,1.1-10.3-4.3v-25.7c0-1.7-0.7-3.2-1.8-4.3l420.7-420.7C851.8,151,853.2,154.1,852,157.3z"/>
<path class="st0" d="M789.8,543.5L498.2,835.1l-16.5-16.5l291.4-291.4l0,0.6c0,4.4,1.8,8.3,4.7,11.2c2.8,2.8,6.7,4.5,11,4.5
	L789.8,543.5z"/>
<path class="st1" d="M544.9,803.7c5.4,0,8.1,6.5,4.3,10.3l-72,72c-3.8,3.8-10.3,1.1-10.3-4.3V856c0-1.7-0.7-3.2-1.8-4.3
	c-1.1-1.1-2.6-1.8-4.3-1.8H435c-5.4,0-8.1-6.5-4.3-10.3l72-72c3.8-3.8,10.3-1.1,10.3,4.3v25.7c0,1.7,0.7,3.2,1.8,4.3
	c1.1,1.1,2.6,1.8,4.3,1.8H544.9z"/>
<path class="st1" d="M888.5,438.7l-35.6,94.7c-2.3,6.1-8.2,10.2-14.7,10.2h-48.4l-1,0c-4.3,0-8.2-1.7-11-4.5
	c-2.9-2.9-4.7-6.8-4.7-11.2l0-0.6l0-48.4c0-6.7,4.3-12.7,10.6-14.9l96.8-33.5c1.9-0.7,3.8-0.4,5.3,0.5
	C888.2,432.5,889.7,435.6,888.5,438.7z"/>
<path class="st2" d="M888.5,438.7l-35.6,94.7c-2.3,6.1-8.2,10.2-14.7,10.2h-48.4L529.7,803.7h15.2c5.4,0,8.1,6.5,4.3,10.3l-72,72
	c-3.8,3.8-10.3,1.1-10.3-4.3V856c0-1.7-0.7-3.2-1.8-4.3L885.8,431C888.2,432.5,889.7,435.6,888.5,438.7z"/>
</svg>
