<?xml version="1.0" encoding="utf-8"?>
<!-- Generator: Adobe Illustrator 22.0.0, SVG Export Plug-In . SVG Version: 6.00 Build 0)  -->
<svg version="1.1" id="Layer_1" xmlns="http://www.w3.org/2000/svg" xmlns:xlink="http://www.w3.org/1999/xlink" x="0px" y="0px"
	 viewBox="0 0 1000 1000" style="enable-background:new 0 0 1000 1000;" xml:space="preserve">
<style type="text/css">
	.st0{fill:#555555;stroke:#000000;stroke-miterlimit:10;}
	.st1{fill:#ED2000;stroke:#000000;stroke-miterlimit:10;}
	.st2{fill:#FFFFFF;}
</style>
<path class="st0" d="M762.1,500L539,946.4c-16.1,32.2-62.1,32.2-78.2,0l-91.4-183L237.9,500H762.1z"/>
<path class="st1" d="M762.1,500H237.9L460.7,53.6c16.1-32.2,62.1-32.3,78.2,0l92.4,184.9L762.1,500z"/>
<g>
	<path class="st2" d="M442.2,287.9h33.7l55.5,105.2l-2.9,3V287.9h29.1V431h-33.9l-55.2-102.3l2.9-3.1V431h-29.2V287.9z"/>
</g>
<g>
	<g>
		<path class="st2" d="M485.9,714.9c0,0-3.7-1-11.1-2.9c-7.4-1.9-13.8-4.9-19.3-8.8c-5.5-3.9-9.9-8.8-13.1-14.6l25.1-16
			c3.6,5.5,8.3,9.7,14.2,12.6c5.8,2.9,12.3,4.2,19.4,4.2c7.7-0.1,13.8-1.5,18.1-4.2c4.3-2.7,6.4-6.5,6.4-11.3l0-4.1
			c0-3.4-1.3-6.2-3.6-8.3c-2.4-2.1-5.4-3.7-9.1-4.9c-3.7-1.1-8.5-2.3-14.6-3.6c-0.2-0.1-0.4-0.1-0.6-0.1c-0.2,0-0.4-0.1-0.5-0.1
			l-1.5-0.3c-10.2-1.9-18.5-4-24.9-6.3s-11.9-6.1-16.6-11.4c-4.6-5.3-7-12.7-7.1-22.1l0-2.6c-0.1-8.6,2-16,6.3-22.2
			c4.3-6.2,10.6-10.9,18.9-14.3c8.3-3.3,18.4-5,30.2-5.2c7.4-0.1,14.4,0.8,20.8,2.6c6.5,1.8,12.1,4.5,17.1,8.2
			c4.9,3.7,9,8.2,12.4,13.5l-23.3,16.3c-3.8-5.1-8.1-9-13-11.6c-4.9-2.7-10.1-4-15.6-3.9c-7.4,0.1-13.2,1.4-17.2,3.9s-6,6-6,10.4
			l0,3.1c0,3.8,1.3,6.8,3.9,9.1c2.5,2.2,5.7,4,9.4,5.2c3.7,1.2,8.9,2.5,15.5,3.8c0.4,0.1,0.8,0.1,1.2,0.2c0.4,0.1,0.8,0.2,1.2,0.3
			c0.4,0.1,0.8,0.2,1.1,0.3c0.3,0.1,0.7,0.1,1.1,0.2c9.3,2,17.1,4.2,23.2,6.7c6.1,2.5,11.3,6.3,15.5,11.5c4.2,5.2,6.4,12.2,6.5,21
			l0,4c0.1,8.5-2.1,15.9-6.5,22c-4.4,6.2-10.9,10.9-19.5,14.2c-8.6,3.3-18.8,5.1-30.7,5.2C490.4,714.8,485.9,714.9,485.9,714.9z"/>
	</g>
</g>
<g>
</g>
<g>
</g>
<g>
</g>
<g>
</g>
<g>
</g>
</svg>
