<?xml version="1.0" encoding="utf-8"?>
<!-- Generator: Adobe Illustrator 22.0.0, SVG Export Plug-In . SVG Version: 6.00 Build 0)  -->
<svg version="1.1" id="SOcial" xmlns="http://www.w3.org/2000/svg" xmlns:xlink="http://www.w3.org/1999/xlink" x="0px" y="0px"
	 viewBox="0 0 1000 1000" style="enable-background:new 0 0 1000 1000;" xml:space="preserve">
<style type="text/css">
	.st0{fill:#00B70B;}
</style>
<g id="_x32_">
	<g>
		<circle id="Head_5_" class="st0" cx="102.2" cy="383.2" r="36.9"/>
		<g id="Legs_5_">
			<path class="st0" d="M70.2,618.6v-75.5c0-6.4,5.3-11.7,11.7-11.7h0c6.4,0,11.7,5.3,11.7,11.7v75.5c0,6.4-5.3,11.7-11.7,11.7h0
				C75.5,630.3,70.2,625,70.2,618.6z"/>
			<path class="st0" d="M110.7,617.7v-75.5c0-6.4,5.3-11.7,11.7-11.7h0c6.4,0,11.7,5.3,11.7,11.7v75.5c0,6.4-5.3,11.7-11.7,11.7h0
				C116,629.4,110.7,624.1,110.7,617.7z"/>
		</g>
		<path id="Body_5_" class="st0" d="M143.4,457.1v88.6c0,10.3-8.4,18.7-18.7,18.7H79.6c-10.3,0-18.7-8.4-18.7-18.7v-88.6
			c0-22.8,18.5-41.2,41.2-41.2C125,415.8,143.4,434.3,143.4,457.1z"/>
	</g>
	<g>
		<circle id="Head_6_" class="st0" cx="899.6" cy="385" r="36.9"/>
		<g id="Legs_6_">
			<path class="st0" d="M867.7,620.4v-75.5c0-6.4,5.3-11.7,11.7-11.7l0,0c6.4,0,11.7,5.3,11.7,11.7v75.5c0,6.4-5.3,11.7-11.7,11.7
				l0,0C873,632.1,867.7,626.8,867.7,620.4z"/>
			<path class="st0" d="M908.2,619.5V544c0-6.4,5.3-11.7,11.7-11.7h0c6.4,0,11.7,5.3,11.7,11.7v75.5c0,6.4-5.3,11.7-11.7,11.7h0
				C913.4,631.2,908.2,625.9,908.2,619.5z"/>
		</g>
		<path id="Body_6_" class="st0" d="M940.9,458.9v88.6c0,10.3-8.4,18.7-18.7,18.7h-45.1c-10.3,0-18.7-8.4-18.7-18.7v-88.6
			c0-22.8,18.5-41.2,41.2-41.2C922.4,417.6,940.9,436.1,940.9,458.9z"/>
	</g>
	<g>
		<circle id="Head_9_" class="st0" cx="286.5" cy="214" r="36.9"/>
		<g id="Legs_9_">
			<path class="st0" d="M254.5,449.4v-75.5c0-6.4,5.3-11.7,11.7-11.7h0c6.4,0,11.7,5.3,11.7,11.7v75.5c0,6.4-5.3,11.7-11.7,11.7h0
				C259.8,461.1,254.5,455.8,254.5,449.4z"/>
			<path class="st0" d="M295,448.5V373c0-6.4,5.3-11.7,11.7-11.7l0,0c6.4,0,11.7,5.3,11.7,11.7v75.5c0,6.4-5.3,11.7-11.7,11.7l0,0
				C300.3,460.2,295,454.9,295,448.5z"/>
		</g>
		<path id="Body_9_" class="st0" d="M327.7,287.9v88.6c0,10.3-8.4,18.7-18.7,18.7h-45.1c-10.3,0-18.7-8.4-18.7-18.7v-88.6
			c0-22.8,18.5-41.2,41.2-41.2C309.2,246.6,327.7,265.1,327.7,287.9z"/>
	</g>
	<g>
		<circle id="Head_8_" class="st0" cx="713.5" cy="211.3" r="36.9"/>
		<g id="Legs_8_">
			<path class="st0" d="M681.6,446.6v-75.5c0-6.4,5.3-11.7,11.7-11.7l0,0c6.4,0,11.7,5.3,11.7,11.7v75.5c0,6.4-5.3,11.7-11.7,11.7
				l0,0C686.9,458.3,681.6,453.1,681.6,446.6z"/>
			<path class="st0" d="M722.1,445.7v-75.5c0-6.4,5.3-11.7,11.7-11.7l0,0c6.4,0,11.7,5.3,11.7,11.7v75.5c0,6.4-5.3,11.7-11.7,11.7
				l0,0C727.3,457.4,722.1,452.2,722.1,445.7z"/>
		</g>
		<path id="Body_8_" class="st0" d="M754.8,285.1v88.6c0,10.3-8.4,18.7-18.7,18.7h-45c-10.3,0-18.7-8.4-18.7-18.7v-88.6
			c0-22.8,18.5-41.2,41.2-41.2C736.3,243.9,754.8,262.3,754.8,285.1z"/>
	</g>
	<g>
		<circle id="Head_7_" class="st0" cx="500" cy="56" r="36.9"/>
		<g id="Legs_7_">
			<path class="st0" d="M468.1,291.4v-75.5c0-6.4,5.3-11.7,11.7-11.7h0c6.4,0,11.7,5.3,11.7,11.7v75.5c0,6.4-5.3,11.7-11.7,11.7h0
				C473.3,303.1,468.1,297.8,468.1,291.4z"/>
			<path class="st0" d="M508.5,290.5V215c0-6.4,5.3-11.7,11.7-11.7h0c6.4,0,11.7,5.3,11.7,11.7v75.5c0,6.4-5.3,11.7-11.7,11.7h0
				C513.8,302.2,508.5,296.9,508.5,290.5z"/>
		</g>
		<path id="Body_7_" class="st0" d="M541.2,129.9v88.6c0,10.3-8.4,18.7-18.7,18.7h-45.1c-10.3,0-18.7-8.4-18.7-18.7v-88.6
			c0-22.8,18.5-41.2,41.2-41.2C522.8,88.6,541.2,107.1,541.2,129.9z"/>
	</g>
</g>
<g id="_x31_">
	<g>
		<circle id="Head_10_" class="st0" cx="101.3" cy="737.3" r="36.9"/>
		<g id="Legs_10_">
			<path class="st0" d="M69.3,972.6v-75.5c0-6.4,5.3-11.7,11.7-11.7h0c6.4,0,11.7,5.3,11.7,11.7v75.5c0,6.4-5.3,11.7-11.7,11.7h0
				C74.6,984.3,69.3,979,69.3,972.6z"/>
			<path class="st0" d="M109.8,971.7v-75.5c0-6.4,5.3-11.7,11.7-11.7h0c6.4,0,11.7,5.3,11.7,11.7v75.5c0,6.4-5.3,11.7-11.7,11.7h0
				C115.1,983.4,109.8,978.1,109.8,971.7z"/>
		</g>
		<path id="Body_10_" class="st0" d="M142.5,811.1v88.6c0,10.3-8.4,18.7-18.7,18.7H78.7c-10.3,0-18.7-8.4-18.7-18.7v-88.6
			c0-22.8,18.5-41.2,41.2-41.2C124,769.9,142.5,788.3,142.5,811.1z"/>
	</g>
	<g>
		<circle id="Head_4_" class="st0" cx="898.7" cy="739.1" r="36.9"/>
		<g id="Legs_4_">
			<path class="st0" d="M866.8,974.4v-75.5c0-6.4,5.3-11.7,11.7-11.7l0,0c6.4,0,11.7,5.3,11.7,11.7v75.5c0,6.4-5.3,11.7-11.7,11.7
				l0,0C872.1,986.1,866.8,980.8,866.8,974.4z"/>
			<path class="st0" d="M907.3,973.5V898c0-6.4,5.3-11.7,11.7-11.7h0c6.4,0,11.7,5.3,11.7,11.7v75.5c0,6.4-5.3,11.7-11.7,11.7h0
				C912.5,985.2,907.3,980,907.3,973.5z"/>
		</g>
		<path id="Body_4_" class="st0" d="M940,812.9v88.6c0,10.3-8.4,18.7-18.7,18.7h-45.1c-10.3,0-18.7-8.4-18.7-18.7v-88.6
			c0-22.8,18.5-41.2,41.2-41.2C921.5,771.7,940,790.1,940,812.9z"/>
	</g>
	<g>
		<circle id="Head_3_" class="st0" cx="285.6" cy="568.1" r="36.9"/>
		<g id="Legs_3_">
			<path class="st0" d="M253.6,803.4v-75.5c0-6.4,5.3-11.7,11.7-11.7h0c6.4,0,11.7,5.3,11.7,11.7v75.5c0,6.4-5.3,11.7-11.7,11.7h0
				C258.9,815.1,253.6,809.8,253.6,803.4z"/>
			<path class="st0" d="M294.1,802.5V727c0-6.4,5.3-11.7,11.7-11.7h0c6.4,0,11.7,5.3,11.7,11.7v75.5c0,6.4-5.3,11.7-11.7,11.7h0
				C299.4,814.2,294.1,808.9,294.1,802.5z"/>
		</g>
		<path id="Body_3_" class="st0" d="M326.8,641.9v88.6c0,10.3-8.4,18.7-18.7,18.7H263c-10.3,0-18.7-8.4-18.7-18.7v-88.6
			c0-22.8,18.5-41.2,41.2-41.2C308.3,600.7,326.8,619.1,326.8,641.9z"/>
	</g>
	<g>
		<circle id="Head_2_" class="st0" cx="712.6" cy="565.3" r="36.9"/>
		<g id="Legs_2_">
			<path class="st0" d="M680.7,800.7v-75.5c0-6.4,5.3-11.7,11.7-11.7l0,0c6.4,0,11.7,5.3,11.7,11.7v75.5c0,6.4-5.3,11.7-11.7,11.7
				l0,0C686,812.4,680.7,807.1,680.7,800.7z"/>
			<path class="st0" d="M721.2,799.8v-75.5c0-6.4,5.3-11.7,11.7-11.7l0,0c6.4,0,11.7,5.3,11.7,11.7v75.5c0,6.4-5.3,11.7-11.7,11.7
				l0,0C726.4,811.5,721.2,806.2,721.2,799.8z"/>
		</g>
		<path id="Body_2_" class="st0" d="M753.9,639.2v88.6c0,10.3-8.4,18.7-18.7,18.7h-45.1c-10.3,0-18.7-8.4-18.7-18.7v-88.6
			c0-22.8,18.5-41.2,41.2-41.2C735.4,597.9,753.9,616.4,753.9,639.2z"/>
	</g>
	<g>
		<circle id="Head_1_" class="st0" cx="499.1" cy="410.1" r="36.9"/>
		<g id="Legs_1_">
			<path class="st0" d="M467.2,645.4v-75.5c0-6.4,5.3-11.7,11.7-11.7l0,0c6.4,0,11.7,5.3,11.7,11.7v75.5c0,6.4-5.3,11.7-11.7,11.7
				l0,0C472.4,657.1,467.2,651.8,467.2,645.4z"/>
			<path class="st0" d="M507.6,644.5V569c0-6.4,5.3-11.7,11.7-11.7h0c6.4,0,11.7,5.3,11.7,11.7v75.5c0,6.4-5.3,11.7-11.7,11.7h0
				C512.9,656.2,507.6,650.9,507.6,644.5z"/>
		</g>
		<path id="Body_1_" class="st0" d="M540.3,483.9v88.6c0,10.3-8.4,18.7-18.7,18.7h-45.1c-10.3,0-18.7-8.4-18.7-18.7v-88.6
			c0-22.8,18.5-41.2,41.2-41.2C521.9,442.6,540.3,461.1,540.3,483.9z"/>
	</g>
</g>
</svg>
