<?xml version="1.0" encoding="utf-8"?>
<!-- Generator: Adobe Illustrator 22.0.0, SVG Export Plug-In . SVG Version: 6.00 Build 0)  -->
<svg version="1.1" id="Layer_1" xmlns="http://www.w3.org/2000/svg" xmlns:xlink="http://www.w3.org/1999/xlink" x="0px" y="0px"
	 viewBox="0 0 1000 1000" style="enable-background:new 0 0 1000 1000;" xml:space="preserve">
<style type="text/css">
	.st0{fill:#0088EE;}
	.st1{fill:#4BE900;}
	.st2{opacity:0.1;}
	.st3{opacity:0.15;}
</style>
<path class="st0" d="M847.6,199.6l-61.1,413.9l-13.3,90.3c-2,13.4-10.6,25-22.9,30.7l-142.6,66.3L517,842.9
	c-5.1,2.4-10.5,3.6-16,3.7c-0.3,0-0.6,0-1,0c-5.8,0-11.6-1.3-17-3.8L249.7,734.5c-12.3-5.7-20.9-17.3-22.9-30.7l-74.4-504.2
	c-3.6-24.3,15.3-46.2,39.9-46.2h60c10.7,0,21,4.3,28.6,11.9l92.1,92.8c7.6,7.6,17.9,11.9,28.6,11.9h196.1c10.8,0,21.2-4.3,28.8-12.1
	l90.9-92.5c7.6-7.7,18-12.1,28.8-12.1h61.6C832.3,153.4,851.2,175.2,847.6,199.6z"/>
<g id="Middle">
	<path class="st1" d="M577.9,404.9c-6.5-12.7-16.9-23.1-29.6-29.6c-1.6-0.8-3.2-1.6-4.9-2.3c-8.1-3.4-16.9-5.2-26.2-5.2h-34.4
		c-18.8,0-35.9,7.6-48.2,20c-12.4,12.4-20,29.4-20,48.2c0,36.8,29.2,66.9,65.7,68.2v80h-20c-2.8,0-5,2.2-5,5v18.1h-20
		c-2.8,0-5,2.2-5,5v13.1c0,2.8,2.2,5,5,5h20v18.1c0,2.8,2.2,5,5,5h54.3c2.8,0,5-2.2,5-5V504.2c17.9-0.6,34-8.1,45.8-19.9
		c12.4-12.3,20-29.4,20-48.2C585.4,424.8,582.7,414.2,577.9,404.9z M542.9,465.2c-2.6,2.6-5.5,4.8-8.7,6.6c-6,3.5-13,5.4-20.5,5.4
		h-27.5c-22.8,0-41.2-18.5-41.2-41.2c0-11.4,4.6-21.7,12.1-29.2c7.5-7.5,17.8-12.1,29.2-12.1h27.5c10.2,0,19.5,3.7,26.7,9.8
		c8.9,7.6,14.5,18.8,14.5,31.4C555,447.4,550.4,457.7,542.9,465.2z"/>
	<path class="st2" d="M500,584.1v69.3h-39.7c-2.8,0-5-2.2-5-5v-18.1h-20c-2.8,0-5-2.2-5-5v-13.1c0-2.8,2.2-5,5-5h20v-18.1
		c0-2.8,2.2-5,5-5h20v0H500z"/>
</g>
<path class="st3" d="M847.6,199.6l-74.4,504.2c-2,13.4-10.6,25-22.9,30.7L517,842.9c-5.1,2.4-10.5,3.6-16,3.7c-0.3,0-0.6,0-1,0V270
	h97.7c10.8,0,21.2-4.3,28.8-12.1l90.9-92.5c7.6-7.7,18-12.1,28.8-12.1h61.6C832.3,153.4,851.2,175.2,847.6,199.6z"/>
</svg>
