<?xml version="1.0" encoding="utf-8"?>
<!-- Generator: Adobe Illustrator 22.0.0, SVG Export Plug-In . SVG Version: 6.00 Build 0)  -->
<svg version="1.1" id="Layer_1" xmlns="http://www.w3.org/2000/svg" xmlns:xlink="http://www.w3.org/1999/xlink" x="0px" y="0px"
	 viewBox="0 0 1000 1000" style="enable-background:new 0 0 1000 1000;" xml:space="preserve">
<style type="text/css">
	.st0{fill:#0088EE;}
	.st1{fill:#BB3300;}
	.st2{fill:#FFFFFF;}
	.st3{fill:#A02E00;}
	.st4{opacity:0.1;}
</style>
<path class="st0" d="M847.6,199.6l-74.4,504.2c-2,13.4-10.6,25-22.9,30.7L517,842.9c-5.1,2.4-10.5,3.6-16,3.7c-0.3,0-0.6,0-1,0
	c-5.8,0-11.6-1.3-17-3.8L249.7,734.5c-12.3-5.7-20.9-17.3-22.9-30.7l-74.4-504.2c-3.6-24.3,15.3-46.2,39.9-46.2h60
	c10.7,0,21,4.3,28.6,11.9l92.1,92.8c7.6,7.6,17.9,11.9,28.6,11.9h196.1c10.8,0,21.2-4.3,28.8-12.1l90.9-92.5
	c7.6-7.7,18-12.1,28.8-12.1h61.6C832.3,153.4,851.2,175.2,847.6,199.6z"/>
<g id="Middle">
	<path class="st1" d="M701.4,490.2c5,5.2,5,14.4,0,19.6c-56.3,59.1-135.3,87.9-201.4,87.9s-145.2-28.8-201.4-87.9
		c-5-5.2-5-14.4,0-19.6c56.3-59.1,135.3-87.9,201.4-87.9S645.2,431.1,701.4,490.2z"/>
	<path class="st2" d="M562.5,500c0,26.5-22.6,48.5-52.2,52.7c-1.8,0.3-3.4-1.2-3.4-3v-26.1c0-1.8-1.6-3.3-3.4-3
		c-1.1,0.2-2.3,0.3-3.5,0.3s-2.3-0.1-3.5-0.3c-1.8-0.3-3.4,1.1-3.4,3v26.1c0,1.8-1.6,3.2-3.4,3c-29.6-4.2-52.2-26.2-52.2-52.7
		s22.6-48.5,52.2-52.7c1.8-0.3,3.4,1.2,3.4,3v26.1c0,1.8,1.6,3.3,3.4,3c1.1-0.2,2.3-0.3,3.5-0.3s2.3,0.1,3.5,0.3
		c1.8,0.3,3.4-1.1,3.4-3v-26.1c0-1.8,1.6-3.2,3.4-3C539.9,451.5,562.5,473.5,562.5,500z"/>
	<path class="st3" d="M523.8,500c0,10.4-6.6,19.2-15.9,22.5c-2.5,0.9-5.1,1.3-7.9,1.3s-5.4-0.5-7.9-1.3
		c-9.3-3.2-15.9-12.1-15.9-22.5s6.6-19.2,15.9-22.5c2.5-0.9,5.1-1.3,7.9-1.3s5.4,0.5,7.9,1.3C517.1,480.8,523.8,489.6,523.8,500z"/>
</g>
<path class="st4" d="M847.6,199.6l-74.4,504.2c-2,13.4-10.6,25-22.9,30.7L517,842.9c-5.1,2.4-10.5,3.6-16,3.7c-0.3,0-0.6,0-1,0V270
	h97.7c10.8,0,21.2-4.3,28.8-12.1l90.9-92.5c7.6-7.7,18-12.1,28.8-12.1h61.6C832.3,153.4,851.2,175.2,847.6,199.6z"/>
</svg>
