<?xml version="1.0" encoding="utf-8"?>
<!-- Generator: Adobe Illustrator 22.0.0, SVG Export Plug-In . SVG Version: 6.00 Build 0)  -->
<svg version="1.1" id="Layer_1" xmlns="http://www.w3.org/2000/svg" xmlns:xlink="http://www.w3.org/1999/xlink" x="0px" y="0px"
	 viewBox="0 0 1000 1000" style="enable-background:new 0 0 1000 1000;" xml:space="preserve">
<style type="text/css">
	.st0{fill:#0088EE;}
	.st1{fill:#BB3300;}
	.st2{fill:#D3B900;}
	.st3{opacity:0.15;}
</style>
<path class="st0" d="M847.6,199.6l-74.4,504.2c-2,13.4-10.6,25-22.9,30.7L517,842.9c-5.1,2.4-10.5,3.6-16,3.7c-0.3,0-0.6,0-1,0
	c-5.8,0-11.6-1.3-17-3.8L249.7,734.5c-12.3-5.7-20.9-17.3-22.9-30.7l-74.4-504.2c-3.6-24.3,15.3-46.2,39.9-46.2h60
	c10.7,0,21,4.3,28.6,11.9l92.1,92.8c7.6,7.6,17.9,11.9,28.6,11.9h196.1c10.8,0,21.2-4.3,28.8-12.1l90.9-92.5
	c7.6-7.7,18-12.1,28.8-12.1h61.6C832.3,153.4,851.2,175.2,847.6,199.6z"/>
<path class="st1" d="M449.6,392.8L359.4,549c-22.4,38.8,5.6,87.4,50.4,87.4h180.3c44.8,0,72.8-48.5,50.4-87.4l-90.2-156.2
	C528,354,472,354,449.6,392.8z"/>
<path class="st2" d="M500.9,590.4h-1.8c-0.1,0-0.1,0-0.1-0.1l0,0c0-0.1,0-0.1,0.1-0.1h1.8C500.9,590.2,501,590.2,500.9,590.4
	L500.9,590.4C501,590.3,500.9,590.4,500.9,590.4z"/>
<circle class="st2" cx="500" cy="590.3" r="17.6"/>
<path class="st2" d="M500,559.4L500,559.4c-9.9,0-18-8-18-18V433.9c0-9.9,8-18,18-18h0c9.9,0,18,8,18,18v107.6
	C518,551.4,509.9,559.4,500,559.4z"/>
<path class="st3" d="M847.6,199.6l-74.4,504.2c-2,13.4-10.6,25-22.9,30.7L517,842.9c-5.1,2.4-10.5,3.6-16,3.7c-0.3,0-0.6,0-1,0V270
	h97.7c10.8,0,21.2-4.3,28.8-12.1l90.9-92.5c7.6-7.7,18-12.1,28.8-12.1h61.6C832.3,153.4,851.2,175.2,847.6,199.6z"/>
</svg>
