<?xml version="1.0" encoding="utf-8"?>
<!-- Generator: Adobe Illustrator 22.0.0, SVG Export Plug-In . SVG Version: 6.00 Build 0)  -->
<svg version="1.1" id="Layer_1" xmlns="http://www.w3.org/2000/svg" xmlns:xlink="http://www.w3.org/1999/xlink" x="0px" y="0px"
	 viewBox="0 0 1000 1000" style="enable-background:new 0 0 1000 1000;" xml:space="preserve">
<style type="text/css">
	.st0{fill:#0088EE;}
	.st1{display:none;opacity:0.42;fill:#FFFFFF;}
	.st2{fill:none;stroke:#BB3300;stroke-width:25;stroke-miterlimit:10;}
	.st3{fill:#BB3300;}
	.st4{opacity:0.15;}
</style>
<path id="BG" class="st0" d="M847.6,199.6l-61.1,413.9l-13.3,90.3c-2,13.4-10.6,25-22.9,30.7l-142.6,66.3L517,842.9
	c-5.1,2.4-10.5,3.6-16,3.7c-0.3,0-0.6,0-1,0c-5.8,0-11.6-1.3-17-3.8L249.7,734.5c-12.3-5.7-20.9-17.3-22.9-30.7l-74.4-504.2
	c-3.6-24.3,15.3-46.2,39.9-46.2h60c10.7,0,21,4.3,28.6,11.9l92.1,92.8c7.6,7.6,17.9,11.9,28.6,11.9h196.1c10.8,0,21.2-4.3,28.8-12.1
	l90.9-92.5c7.6-7.7,18-12.1,28.8-12.1h61.6C832.3,153.4,851.2,175.2,847.6,199.6z"/>
<g id="CENTER">
	<rect x="171.1" y="270.3" class="st1" width="652.9" height="455.7"/>
	<circle class="st2" cx="500" cy="534.4" r="115"/>
	<circle class="st2" cx="500" cy="534.4" r="68"/>
	<circle class="st3" cx="500" cy="534.4" r="9.4"/>
	<path class="st3" d="M510.3,370.6v128.6c-3.3-1-6.7-1.5-10.3-1.5s-7,0.5-10.3,1.5V370.6c0-8,4.6-14.4,10.3-14.4
		c2.8,0,5.4,1.6,7.3,4.2C509.2,363,510.3,366.6,510.3,370.6z"/>
	<path class="st3" d="M679.8,534.4c0,2.8-1.6,5.4-4.2,7.3c-2.6,1.9-6.3,3-10.3,3h-130c1-3.3,1.5-6.7,1.5-10.3c0-3.6-0.5-7-1.5-10.3
		h130C673.3,524.1,679.8,528.7,679.8,534.4z"/>
	<path class="st3" d="M510.3,569.6v132c0,6-4.6,10.9-10.3,10.9c-2.8,0-5.4-1.2-7.3-3.2c-1.9-2-3-4.7-3-7.7v-132
		c3.3,1,6.7,1.5,10.3,1.5S507.1,570.6,510.3,569.6z"/>
	<path class="st3" d="M463.3,534.4c0,3.6,0.5,7,1.5,10.3H334.9c-6.2,0-11.2-4.6-11.2-10.3c0-2.9,1.3-5.4,3.3-7.3c2-1.9,4.8-3,7.9-3
		h129.9C463.8,527.4,463.3,530.8,463.3,534.4z"/>
</g>
<path id="Shdow" class="st4" d="M847.6,199.6l-74.4,504.2c-2,13.4-10.6,25-22.9,30.7L517,842.9c-5.1,2.4-10.5,3.6-16,3.7
	c-0.3,0-0.6,0-1,0V270h97.7c10.8,0,21.2-4.3,28.8-12.1l90.9-92.5c7.6-7.7,18-12.1,28.8-12.1h61.6
	C832.3,153.4,851.2,175.2,847.6,199.6z"/>
</svg>
