<?xml version="1.0" encoding="utf-8"?>
<!-- Generator: Adobe Illustrator 22.0.0, SVG Export Plug-In . SVG Version: 6.00 Build 0)  -->
<svg version="1.1" id="Layer_1" xmlns="http://www.w3.org/2000/svg" xmlns:xlink="http://www.w3.org/1999/xlink" x="0px" y="0px"
	 viewBox="0 0 1000 1000" style="enable-background:new 0 0 1000 1000;" xml:space="preserve">
<style type="text/css">
	.st0{fill:#0088EE;}
	.st1{fill:#FFFFFF;}
	.st2{fill:#525252;}
	.st3{fill:#4C4C4C;}
	.st4{opacity:0.1;}
</style>
<path class="st0" d="M847.6,199.6l-61.1,413.9l-13.3,90.3c-2,13.4-10.6,25-22.9,30.7l-142.6,66.3L517,842.9
	c-5.1,2.4-10.5,3.6-16,3.7c-0.3,0-0.6,0-1,0c-5.8,0-11.6-1.3-17-3.8L249.7,734.5c-12.3-5.7-20.9-17.3-22.9-30.7l-74.4-504.2
	c-3.6-24.3,15.3-46.2,39.9-46.2h60c10.7,0,21,4.3,28.6,11.9l92.1,92.8c7.6,7.6,17.9,11.9,28.6,11.9h196.1c10.8,0,21.2-4.3,28.8-12.1
	l90.9-92.5c7.6-7.7,18-12.1,28.8-12.1h61.6C832.3,153.4,851.2,175.2,847.6,199.6z"/>
<g id="Middle">
	<circle class="st1" cx="499.9" cy="465.8" r="65.6"/>
	<path class="st2" d="M529.4,713.1h-59c-34.8,0-63.3-28.5-63.3-63.3V572c0-34.8,28.5-63.3,63.3-63.3h59c34.8,0,63.3,28.5,63.3,63.3
		v77.9C592.6,684.7,564.2,713.1,529.4,713.1z"/>
	<circle class="st1" cx="499.9" cy="610.9" r="14.2"/>
	<circle class="st1" cx="499.9" cy="662.8" r="14.2"/>
	<circle class="st1" cx="499.9" cy="559" r="14.2"/>
	<path class="st2" d="M564.3,421.5H435.4c-6.4,0-8.8-8.5-3.3-11.8l29.3-17.4v-27c0-4.3,4-7.5,8.3-6.5c8.9,2.1,19.2,3.3,30.1,3.3
		s21.2-1.2,30.1-3.3c4.2-1,8.3,2.2,8.3,6.5v27l29.3,17.4C573.1,413,570.8,421.5,564.3,421.5z"/>
	<path class="st3" d="M553.7,457c-1.3-7.2-13.6-11-27.5-8.6c-10.3,1.8-18.6,6.6-21.7,11.9c-0.9,1.6-2.5,2.6-4.3,2.6h-0.5
		c-1.8,0-3.4-1-4.3-2.6c-3.1-5.3-11.4-10.1-21.7-11.9c-13.9-2.5-26.3,1.4-27.5,8.6c-1.3,7.2,9,15.1,22.9,17.5
		c11.9,2.1,22.6-0.4,26.3-5.6c0.9-1.3,2.4-2.1,4-2.1h1.2c1.6,0,3.1,0.8,4,2.1c3.7,5.2,14.4,7.7,26.3,5.6
		C544.7,472,555,464.2,553.7,457z M483,469.7c-3,0-5.4-2.4-5.4-5.4c0-3,2.4-5.4,5.4-5.4c3,0,5.4,2.4,5.4,5.4
		C488.4,467.3,486,469.7,483,469.7z M516.8,469.7c-3,0-5.4-2.4-5.4-5.4c0-3,2.4-5.4,5.4-5.4c3,0,5.4,2.4,5.4,5.4
		C522.1,467.3,519.7,469.7,516.8,469.7z"/>
</g>
<path class="st4" d="M847.6,199.6l-74.4,504.2c-2,13.4-10.6,25-22.9,30.7L517,842.9c-5.1,2.4-10.5,3.6-16,3.7c-0.3,0-0.6,0-1,0V270
	h97.7c10.8,0,21.2-4.3,28.8-12.1l90.9-92.5c7.6-7.7,18-12.1,28.8-12.1h61.6C832.3,153.4,851.2,175.2,847.6,199.6z"/>
</svg>
