<?xml version="1.0" encoding="utf-8"?>
<!-- Generator: Adobe Illustrator 22.0.0, SVG Export Plug-In . SVG Version: 6.00 Build 0)  -->
<svg version="1.1" id="Layer_1" xmlns="http://www.w3.org/2000/svg" xmlns:xlink="http://www.w3.org/1999/xlink" x="0px" y="0px"
	 viewBox="0 0 1000 1000" style="enable-background:new 0 0 1000 1000;" xml:space="preserve">
<style type="text/css">
	.st0{fill:#0088EE;}
	.st1{fill:#BB3300;}
	.st2{fill:#454545;}
	.st3{opacity:0.15;}
</style>
<path id="BG" class="st0" d="M847.6,199.6l-61.1,413.9l-13.3,90.3c-2,13.4-10.6,25-22.9,30.7l-142.6,66.3L517,842.9
	c-5.1,2.4-10.5,3.6-16,3.7c-0.3,0-0.6,0-1,0c-5.8,0-11.6-1.3-17-3.8L249.7,734.5c-12.3-5.7-20.9-17.3-22.9-30.7l-74.4-504.2
	c-3.6-24.3,15.3-46.2,39.9-46.2h60c10.7,0,21,4.3,28.6,11.9l92.1,92.8c7.6,7.6,17.9,11.9,28.6,11.9h196.1c10.8,0,21.2-4.3,28.8-12.1
	l90.9-92.5c7.6-7.7,18-12.1,28.8-12.1h61.6C832.3,153.4,851.2,175.2,847.6,199.6z"/>
<g id="CENTER">
	<path class="st1" d="M617.2,526.6c0,24.9-5.1,48.4-14.2,68.9c-13.6,30.8-44.4,50.4-78,50.4h-50c-33.7,0-64.5-19.6-78-50.4
		c-9-20.5-14.2-43.9-14.2-68.9c0-22.9,4.3-44.6,12.1-63.9c12.9-32.3,44.5-53.1,79.2-53.1h51.8c34.7,0,66.3,20.9,79.2,53.1
		C612.9,482,617.2,503.6,617.2,526.6z"/>
	<path class="st2" d="M541.9,392.3h-80.7c-9.3,0-12.3-23.4-4.1-31.2c13.7-12.9,28.7-20.1,44.4-20.1s30.7,7.1,44.4,20.1
		C554.2,368.9,551.1,392.3,541.9,392.3z"/>
	<path class="st2" d="M344.5,394.5l-6.2,6.2c-5.2,5.2-5.2,13.7,0,18.9l17.3,17.3c5.2,5.2,13.7,5.2,18.9,0l6.2-6.2
		c5.2-5.2,5.2-13.7,0-18.9l-17.3-17.3C358.2,389.3,349.7,389.3,344.5,394.5z"/>
	<path class="st2" d="M305.3,521.8v8.7c0,7.4,6,13.4,13.4,13.4h24.4c7.4,0,13.4-6,13.4-13.4v-8.7c0-7.4-6-13.4-13.4-13.4h-24.4
		C311.3,508.4,305.3,514.4,305.3,521.8z"/>
	<path class="st2" d="M338.3,651.6l6.2,6.2c5.2,5.2,13.7,5.2,18.9,0l17.3-17.3c5.2-5.2,5.2-13.7,0-18.9l-6.2-6.2
		c-5.2-5.2-13.7-5.2-18.9,0l-17.3,17.3C333.1,637.8,333.1,646.3,338.3,651.6z"/>
	<path class="st2" d="M652.3,394.5l6.2,6.2c5.2,5.2,5.2,13.7,0,18.9l-17.3,17.3c-5.2,5.2-13.7,5.2-18.9,0l-6.2-6.2
		c-5.2-5.2-5.2-13.7,0-18.9l17.3-17.3C638.6,389.3,647.1,389.3,652.3,394.5z"/>
	<path class="st2" d="M691.4,521.8v8.7c0,7.4-6,13.4-13.4,13.4h-24.4c-7.4,0-13.4-6-13.4-13.4v-8.7c0-7.4,6-13.4,13.4-13.4H678
		C685.4,508.4,691.4,514.4,691.4,521.8z"/>
	<path class="st2" d="M658.5,651.6l-6.2,6.2c-5.2,5.2-13.7,5.2-18.9,0l-17.3-17.3c-5.2-5.2-5.2-13.7,0-18.9l6.2-6.2
		c5.2-5.2,13.7-5.2,18.9,0l17.3,17.3C663.7,637.8,663.7,646.3,658.5,651.6z"/>
</g>
<path id="Shdow" class="st3" d="M847.6,199.6l-74.4,504.2c-2,13.4-10.6,25-22.9,30.7L517,842.9c-5.1,2.4-10.5,3.6-16,3.7
	c-0.3,0-0.6,0-1,0V270h97.7c10.8,0,21.2-4.3,28.8-12.1l90.9-92.5c7.6-7.7,18-12.1,28.8-12.1h61.6
	C832.3,153.4,851.2,175.2,847.6,199.6z"/>
</svg>
