<?xml version="1.0" encoding="utf-8"?>
<!-- Generator: Adobe Illustrator 22.0.0, SVG Export Plug-In . SVG Version: 6.00 Build 0)  -->
<svg version="1.1" id="Layer_1" xmlns="http://www.w3.org/2000/svg" xmlns:xlink="http://www.w3.org/1999/xlink" x="0px" y="0px"
	 viewBox="0 0 1000 1000" style="enable-background:new 0 0 1000 1000;" xml:space="preserve">
<style type="text/css">
	.st0{stroke:#201600;stroke-width:15;stroke-miterlimit:10;}
	.st1{fill:none;stroke:#201600;stroke-width:15;stroke-miterlimit:10;}
</style>
<path id="HEAD" class="st0" d="M655.1,261.2H344.9c-10,0-16.5-10.6-11.8-19.5c31.7-60.6,94.6-101.8,166.9-101.8
	s135.2,41.2,166.9,101.8C671.6,250.5,665.1,261.2,655.1,261.2z"/>
<path id="FACE" class="st1" d="M662.9,320.9c0,12.1-1.3,23.9-3.8,35.3c-16.1,73-81.2,127.7-159.1,127.7
	c-82.3,0-150.3-61-161.4-140.2c-1-7.4-1.6-15-1.6-22.8c0-21.1,4-41.3,11.3-59.8h303.2C658.9,279.7,662.9,299.8,662.9,320.9z"/>
<path id="BODY" class="st1" d="M638.9,860.2H361.1c-54.6,0-87.1-47.8-73.8-100.1l59.2-233c6.2-24.6,37.7-43.2,70.4-43.2h166.4
	c32.7,0,64.2,18.7,70.4,43.2l59.2,233C726,812.3,693.5,860.2,638.9,860.2z"/>
<path id="smile" class="st1" d="M563.5,401.5c4.6,0,7.3,5.2,4.7,8.9c-14.9,21.7-39.9,35.9-68.2,35.9c-28.3,0-53.3-14.2-68.2-35.9
	c-2.6-3.8,0.1-8.9,4.7-8.9H563.5z"/>
<circle id="L_x5F_EYE" cx="418" cy="319.2" r="28.7"/>
<circle id="R_x5F_EYE" cx="588.9" cy="321.1" r="28.7"/>
<path id="Tie" class="st1" d="M526.5,542.9l16.9,110c0.5,3.3,0,6.7-1.4,9.7l-29.2,60.5c-5.6,11.6-20.1,11.6-25.7,0L458,662.6
	c-1.4-3-1.9-6.4-1.4-9.7l16.9-110c1-6.4,6.5-11.2,12.9-11.2h27.3C520,531.7,525.5,536.5,526.5,542.9z"/>
</svg>
