<?xml version="1.0" encoding="utf-8"?>
<!-- Generator: Adobe Illustrator 22.0.0, SVG Export Plug-In . SVG Version: 6.00 Build 0)  -->
<svg version="1.1" id="Layer_1" xmlns="http://www.w3.org/2000/svg" xmlns:xlink="http://www.w3.org/1999/xlink" x="0px" y="0px"
	 viewBox="0 0 1000 1000" style="enable-background:new 0 0 1000 1000;" xml:space="preserve">
<style type="text/css">
	.st0{fill:none;stroke:#000000;stroke-width:20;stroke-miterlimit:10;}
</style>
<path class="st0" d="M834,500c0,81.2-29,155.6-77.2,213.5C695.6,787.1,603.3,834,500,834s-195.6-46.9-256.8-120.5
	C195,655.6,166,581.2,166,500s29-155.6,77.2-213.5C304.4,212.9,396.7,166,500,166s195.6,46.9,256.8,120.5
	C805,344.4,834,418.8,834,500z"/>
<path class="st0" d="M676.1,547l9.1,15.7C668.6,717.2,592,834,500,834c-104.1,0-188.5-149.5-188.5-334S395.9,166,500,166
	c93.4,0,171,120.4,185.9,278.4L635,415.2c-5.8-3.3-13,0.9-13,7.6v131.7c0,6.7,7.3,10.9,13.1,7.6l30.8-17.8
	C669.4,542.1,674,543.4,676.1,547z"/>
<path class="st0" d="M756.8,713.5C695.6,787.1,603.3,834,500,834s-195.6-46.9-256.8-120.5c26.3-17.8,58.2-32.9,94.3-44.2
	c48.1-15.1,103.5-23.8,162.5-23.8s114.4,8.6,162.5,23.8C698.6,680.6,730.6,695.7,756.8,713.5z"/>
<path class="st0" d="M756.8,286.5c-26.3,17.8-58.2,32.8-94.3,44.2C614.4,345.9,559,354.5,500,354.5s-114.4-8.6-162.5-23.8
	c-36.1-11.4-68.1-26.4-94.3-44.2C304.4,212.9,396.7,166,500,166S695.6,212.9,756.8,286.5z"/>
<line class="st0" x1="500" y1="834" x2="500" y2="166"/>
<path class="st0" d="M751.3,587.1l-32.5,18.7c-3.6,2.1-8.2,0.9-10.3-2.8l-23.3-40.4l-9.1-15.7c-2.1-3.6-6.7-4.8-10.3-2.8L635,562.1
	c-5.8,3.4-13.1-0.9-13.1-7.6V422.8c0-6.7,7.3-10.9,13-7.6l50.9,29.2l63.5,36.3c5.8,3.3,5.9,11.7,0,15.1l-25,14.5
	c-3.6,2.1-4.8,6.7-2.8,10.3l32.4,56.2C756.2,580.4,754.9,585,751.3,587.1z"/>
</svg>
