<?xml version="1.0" encoding="utf-8"?>
<!-- Generator: Adobe Illustrator 22.0.0, SVG Export Plug-In . SVG Version: 6.00 Build 0)  -->
<svg version="1.1" id="Layer_1" xmlns="http://www.w3.org/2000/svg" xmlns:xlink="http://www.w3.org/1999/xlink" x="0px" y="0px"
	 viewBox="0 0 1080 1080" style="enable-background:new 0 0 1080 1080;" xml:space="preserve">
<style type="text/css">
	.st0{fill:url(#SVGID_1_);}
	.st1{fill:url(#SVGID_2_);}
	.st2{fill:url(#SVGID_3_);}
	.st3{fill:url(#SVGID_4_);}
	.st4{fill:url(#SVGID_5_);}
	.st5{fill:url(#SVGID_6_);}
	.st6{fill:url(#SVGID_7_);}
	.st7{fill:url(#SVGID_8_);}
	.st8{fill:url(#SVGID_9_);}
</style>
<linearGradient id="SVGID_1_" gradientUnits="userSpaceOnUse" x1="419" y1="-114" x2="423" y2="-114">
	<stop  offset="0" style="stop-color:#7300BD"/>
	<stop  offset="9.436651e-02" style="stop-color:#6A00C6"/>
	<stop  offset="0.2192" style="stop-color:#5700DA"/>
	<stop  offset="0.4562" style="stop-color:#7500CE"/>
	<stop  offset="0.9703" style="stop-color:#C100AF"/>
	<stop  offset="0.9944" style="stop-color:#C500AE"/>
</linearGradient>
<rect x="419" y="-116" class="st0" width="4" height="4"/>
<g>
	<g>
		<linearGradient id="SVGID_2_" gradientUnits="userSpaceOnUse" x1="549.6479" y1="538.5527" x2="926.8222" y2="538.5527">
			<stop  offset="0" style="stop-color:#B4882D"/>
			<stop  offset="5.848028e-02" style="stop-color:#BD9131"/>
			<stop  offset="0.1554" style="stop-color:#D7A93C"/>
			<stop  offset="0.198" style="stop-color:#E4B542"/>
			<stop  offset="0.3818" style="stop-color:#ECCB71"/>
			<stop  offset="0.5739" style="stop-color:#F7EEAF"/>
			<stop  offset="0.8652" style="stop-color:#C59C4A"/>
			<stop  offset="0.9944" style="stop-color:#BE9542"/>
		</linearGradient>
		<path class="st1" d="M739.8,1005.6c56.2-62.3,54.4-158.4-5.7-218.6L596.1,649c-62-62.1-62-162.6,0-224.5l128.4-128.4
			c62-62.1,62-162.6,0-224.5l9.6,9.5C989.1,336.1,991,748.3,739.8,1005.6z"/>
		<linearGradient id="SVGID_3_" gradientUnits="userSpaceOnUse" x1="152.7325" y1="540.0338" x2="529.896" y2="540.0338">
			<stop  offset="0" style="stop-color:#B4882D"/>
			<stop  offset="5.848028e-02" style="stop-color:#BD9131"/>
			<stop  offset="0.1554" style="stop-color:#D7A93C"/>
			<stop  offset="0.198" style="stop-color:#E4B542"/>
			<stop  offset="0.3818" style="stop-color:#ECCB71"/>
			<stop  offset="0.5739" style="stop-color:#F7EEAF"/>
			<stop  offset="0.8652" style="stop-color:#C59C4A"/>
			<stop  offset="0.9944" style="stop-color:#BE9542"/>
		</linearGradient>
		<path class="st2" d="M483.4,657L355,785.5c-62,62.1-62,162.6,0,224.5l-9.6-9.5c-256.9-257-256.9-673.6,0-930.5
			c-62,62-62,162.4,0,224.5l138,137.9C545.4,494.6,545.4,595.1,483.4,657z"/>
	</g>
	<linearGradient id="SVGID_4_" gradientUnits="userSpaceOnUse" x1="455.6138" y1="191.8515" x2="623.941" y2="191.8515">
		<stop  offset="0" style="stop-color:#B4882D"/>
		<stop  offset="5.848028e-02" style="stop-color:#BD9131"/>
		<stop  offset="0.1554" style="stop-color:#D7A93C"/>
		<stop  offset="0.198" style="stop-color:#E4B542"/>
		<stop  offset="0.3818" style="stop-color:#ECCB71"/>
		<stop  offset="0.5739" style="stop-color:#F7EEAF"/>
		<stop  offset="0.8652" style="stop-color:#C59C4A"/>
		<stop  offset="0.9944" style="stop-color:#BE9542"/>
	</linearGradient>
	<circle class="st3" cx="539.8" cy="191.9" r="84.2"/>
</g>
<g>
	<linearGradient id="SVGID_5_" gradientUnits="userSpaceOnUse" x1="377.1949" y1="870.9578" x2="434.4163" y2="870.9578">
		<stop  offset="0" style="stop-color:#B4882D"/>
		<stop  offset="7.594340e-02" style="stop-color:#BD9131"/>
		<stop  offset="0.2018" style="stop-color:#D7A93C"/>
		<stop  offset="0.2571" style="stop-color:#E4B542"/>
		<stop  offset="0.5246" style="stop-color:#ECCB71"/>
		<stop  offset="0.7315" style="stop-color:#F7EEAF"/>
		<stop  offset="0.8652" style="stop-color:#C59C4A"/>
		<stop  offset="0.9944" style="stop-color:#BE9542"/>
	</linearGradient>
	<path class="st4" d="M402.4,889.1v1.2l0,7.9v1h-25.2l0-2.5l0.2-29.1l-0.2-13.8l0-9.4l0-1.7h18.9c7.7,0,13.6,0.3,17.6,1
		c4,0.7,7.3,1.8,10,3.6c3.6,2.3,6.5,5.5,8.4,9.6c1.5,3.1,2.3,6.4,2.3,9.8c0,3.7-0.9,7.2-2.6,10.6c-2,4-4.9,7.1-8.7,9.3
		c-3.7,2.2-8.1,3.2-13,3.2C408.4,889.8,405.8,889.5,402.4,889.1z M402.4,845.5v2.8l-0.2,27.6l0.1,10.3c2.2,0.6,5,0.9,8.5,0.9
		c3.1,0,6.1-0.6,8.9-1.9c2.8-1.2,5.1-3,7.1-5.3c3.3-3.8,4.9-8.3,4.9-13.4c0-4.8-1.6-9.2-4.9-13.1c-2.3-2.8-5.3-4.8-9-6.1
		c-3.7-1.3-8.4-1.9-14.2-1.9H402.4z"/>
	<linearGradient id="SVGID_6_" gradientUnits="userSpaceOnUse" x1="439.2158" y1="870.9578" x2="499.2507" y2="870.9578">
		<stop  offset="0" style="stop-color:#B4882D"/>
		<stop  offset="7.594340e-02" style="stop-color:#BD9131"/>
		<stop  offset="0.2018" style="stop-color:#D7A93C"/>
		<stop  offset="0.2571" style="stop-color:#E4B542"/>
		<stop  offset="0.5246" style="stop-color:#ECCB71"/>
		<stop  offset="0.7315" style="stop-color:#F7EEAF"/>
		<stop  offset="0.8652" style="stop-color:#C59C4A"/>
		<stop  offset="0.9944" style="stop-color:#BE9542"/>
	</linearGradient>
	<path class="st5" d="M469.2,841c4.4,0,8.6,0.9,12.6,2.8c6,2.7,10.5,6.9,13.7,12.6c2.5,4.6,3.8,9.5,3.8,14.9c0,4.3-1,8.5-2.9,12.5
		c-2.8,6-7.3,10.6-13.3,13.7c-4.4,2.3-9,3.4-13.9,3.4c-5.1,0-10-1.3-14.6-3.9c-6.1-3.4-10.4-8.2-13-14.4c-1.6-3.8-2.4-7.7-2.4-11.7
		c0-5,1.3-9.9,3.8-14.4c3.1-5.6,7.6-9.8,13.5-12.6C460.5,842,464.7,841.1,469.2,841z M465.9,843.8l-0.2,26.9l0.2,22.4l0,5
		c0.9,0.2,1.8,0.2,2.7,0.2c6.1,0,11.5-1.7,16.3-5c4.4-3.1,7.6-7.1,9.5-11.9c1.4-3.4,2.1-6.9,2.1-10.6c0-4.8-1.2-9.3-3.5-13.4
		c-2.8-5.1-6.8-8.8-12-11.2c-3.9-1.8-7.9-2.7-12.2-2.7C467.9,843.5,466.9,843.6,465.9,843.8z"/>
	<linearGradient id="SVGID_7_" gradientUnits="userSpaceOnUse" x1="497.0164" y1="871.9922" x2="584.7311" y2="871.9922">
		<stop  offset="0" style="stop-color:#B4882D"/>
		<stop  offset="7.594340e-02" style="stop-color:#BD9131"/>
		<stop  offset="0.2018" style="stop-color:#D7A93C"/>
		<stop  offset="0.2571" style="stop-color:#E4B542"/>
		<stop  offset="0.5246" style="stop-color:#ECCB71"/>
		<stop  offset="0.7315" style="stop-color:#F7EEAF"/>
		<stop  offset="0.8652" style="stop-color:#C59C4A"/>
		<stop  offset="0.9944" style="stop-color:#BE9542"/>
	</linearGradient>
	<path class="st6" d="M569.2,872.4c4.5-10.7,8.1-19.9,11-27.6c0.5-1.3,0.8-2.1,1.1-2.4c0.3-0.3,0.7-0.5,1.4-0.5c0.6,0,1,0.1,1.4,0.4
		c0.4,0.3,0.6,0.6,0.6,1c0,0.4-1.1,3-3.2,7.9l-2.4,5.4l-20.5,46.6L548.3,884l-8-14.3l-6.3,11.6l-9.6,18.1l-2,3.9l-8-19.7l-7-17.1
		c-3.5-8.6-6.8-16.3-10.1-23.1l-0.2-0.5h25.9l3.6,9.1c3.6,9.1,6.5,15.9,8.7,20.5l7.7-14.1l2.8-5.3l1.9-3.6l3.2-6
		c0.5-1,1-1.8,1.4-2.6l6.1,11.9C561.8,859.5,565.4,866.1,569.2,872.4z"/>
	<linearGradient id="SVGID_8_" gradientUnits="userSpaceOnUse" x1="588.4135" y1="870.9578" x2="640.1734" y2="870.9578">
		<stop  offset="0" style="stop-color:#B4882D"/>
		<stop  offset="7.594340e-02" style="stop-color:#BD9131"/>
		<stop  offset="0.2018" style="stop-color:#D7A93C"/>
		<stop  offset="0.2571" style="stop-color:#E4B542"/>
		<stop  offset="0.5246" style="stop-color:#ECCB71"/>
		<stop  offset="0.7315" style="stop-color:#F7EEAF"/>
		<stop  offset="0.8652" style="stop-color:#C59C4A"/>
		<stop  offset="0.9944" style="stop-color:#BE9542"/>
	</linearGradient>
	<path class="st7" d="M613.6,860.8c-0.1,1.3-0.1,2.8-0.1,4.6v2.5l0.3,28.5l14-0.1l9.9-0.1c1.6,0,2.4,0.5,2.4,1.5
		c0,0.8-0.4,1.3-1.2,1.4c-0.2,0-1.3,0.1-3.4,0.1h-47l0-2.2l0-13.8l0.2-14.8l-0.3-25.7h43.9c2,0,3.1,0,3.4,0.1c0.6,0.2,1,0.6,1,1.4
		c0,1-0.6,1.4-1.8,1.4h-0.3l-20.7-0.2l-0.2,12.8l4.5,0l14.5-0.2l3.2,0c1.2,0,1.9,0.1,2.3,0.3c0.4,0.2,0.6,0.6,0.6,1.2
		c0,1.1-0.9,1.6-2.7,1.6l-3.3-0.1L613.6,860.8z"/>
	<linearGradient id="SVGID_9_" gradientUnits="userSpaceOnUse" x1="645.1797" y1="871.4129" x2="702.3598" y2="871.4129">
		<stop  offset="0" style="stop-color:#B4882D"/>
		<stop  offset="7.594340e-02" style="stop-color:#BD9131"/>
		<stop  offset="0.2018" style="stop-color:#D7A93C"/>
		<stop  offset="0.2571" style="stop-color:#E4B542"/>
		<stop  offset="0.5246" style="stop-color:#ECCB71"/>
		<stop  offset="0.7315" style="stop-color:#F7EEAF"/>
		<stop  offset="0.8652" style="stop-color:#C59C4A"/>
		<stop  offset="0.9944" style="stop-color:#BE9542"/>
	</linearGradient>
	<path class="st8" d="M679.6,889.8c2.6,1.8,5.5,3.4,8.6,4.6c3.1,1.3,6.4,2.3,9.9,3c0.9,0.2,1.3,0.6,1.3,1.2c0,0.9-0.6,1.4-1.9,1.4
		c-2.9,0-7-1.3-12.2-3.8c-4.4-2.1-9.3-5.4-15-9.8v1.7l0,7v4h-25.2v-1.9l0.1-13.5l0.1-16.1l-0.1-25h16.6c7.4,0,13.1,0.2,16.9,0.6
		c3.8,0.4,7,1.2,9.7,2.3c4.4,1.8,7.8,4.8,10.3,9c2.3,3.9,3.5,7.9,3.5,12.2c0,4.5-1.3,8.8-3.9,12.8C694.2,886,688,889.4,679.6,889.8z
		 M675.7,887.3l2,0c5.7,0,10.5-1.6,14.4-4.8c2.5-2,4.4-4.5,5.7-7.4c1.2-2.7,1.9-5.5,1.9-8.4c0-4.8-1.6-9.1-4.7-13
		c-2.4-3-5.4-5-9-6.2c-3.6-1.2-8.7-1.9-15.2-1.9l-0.4,27.7v7.5l0,1.9C672,884.4,673.8,885.9,675.7,887.3z"/>
</g>
</svg>
