<?xml version="1.0" encoding="utf-8"?>
<!-- Generator: Moho 12.5 build 22438 -->
<!DOCTYPE svg PUBLIC "-//W3C//DTD SVG 1.1//EN" "http://www.w3.org/Graphics/SVG/1.1/DTD/svg11.dtd">
<svg version="1.1" id="Frame_0" xmlns="http://www.w3.org/2000/svg" xmlns:xlink="http://www.w3.org/1999/xlink" width="1280px" height="720px">
<g id="Layer_4">
<path fill="#239e46" fill-rule="evenodd" stroke="#239e46" stroke-width="1" stroke-linecap="round" stroke-linejoin="round" d="M 1318.956 -34.139 C 1318.822 -34.139 -27.213 -34.139 -27.348 -34.139 C -27.348 -34.059 -27.348 757.726 -27.348 757.805 C -27.213 757.805 1318.822 757.805 1318.956 757.805 C 1318.956 757.726 1318.956 -34.059 1318.956 -34.139 Z"/>
</g>
<g id="Layer_6">
<g id="Layer_3">
<path fill="#fdc111" fill-rule="evenodd" stroke="none" d="M 659.403 676.887 C 655.695 684.724 649.516 694.537 645.278 702.101 C 645.277 702.099 636.445 688.947 633.265 682.960 C 627.640 672.369 621.124 657.667 617.424 646.261 C 614.675 637.786 611.956 626.146 610.791 617.314 C 609.474 607.331 609.346 593.834 609.625 583.768 C 609.886 574.335 611.021 561.768 612.430 552.437 C 613.603 544.669 615.524 534.321 617.845 526.815 C 619.190 522.469 621.806 516.967 623.503 512.747 C 623.507 512.747 650.745 512.907 662.420 512.976 C 664.400 517.109 667.385 522.471 669.020 526.751 C 671.442 533.093 673.849 541.867 675.189 548.522 C 677.357 559.299 678.915 573.944 679.336 584.928 C 679.637 592.809 679.329 603.362 678.491 611.205 C 677.464 620.805 675.233 633.554 672.604 642.844 C 669.622 653.384 664.088 666.985 659.403 676.887 M 662.420 512.976 C 662.420 512.976 662.420 512.976 662.420 512.976 Z"/>
<path fill="none" stroke="#fdc111" stroke-width="1" stroke-linecap="round" stroke-linejoin="round" d="M 645.278 702.101 C 645.278 702.101 645.278 702.101 645.278 702.101 C 649.516 694.537 655.695 684.724 659.403 676.887 C 664.088 666.985 669.622 653.384 672.604 642.844 C 675.233 633.554 677.464 620.805 678.491 611.205 C 679.329 603.362 679.637 592.809 679.336 584.928 C 678.915 573.944 677.357 559.299 675.189 548.522 C 673.849 541.867 671.442 533.093 669.020 526.751 C 667.385 522.471 664.400 517.109 662.420 512.976 C 662.420 512.976 662.420 512.976 662.420 512.976 C 650.745 512.907 623.507 512.747 623.503 512.747 C 623.503 512.747 623.503 512.747 623.503 512.747 C 621.806 516.967 619.190 522.469 617.845 526.815 C 615.524 534.321 613.603 544.669 612.430 552.437 C 611.021 561.768 609.886 574.335 609.625 583.768 C 609.346 593.834 609.474 607.331 610.791 617.314 C 611.956 626.146 614.675 637.786 617.424 646.261 C 621.124 657.667 627.640 672.369 633.265 682.960 C 636.445 688.947 645.277 702.099 645.278 702.101 "/>
<path fill="#fde666" fill-rule="evenodd" stroke="none" d="M 656.075 516.340 C 656.075 516.340 656.075 516.340 656.075 516.340 C 648.466 516.247 638.321 516.121 630.713 516.028 C 630.713 516.028 630.713 516.028 630.713 516.028 C 629.657 519.115 627.729 523.100 627.194 526.319 C 626.983 527.589 627.082 530.607 627.082 530.607 C 627.033 541.415 626.920 566.629 626.920 566.632 C 627.058 567.529 627.158 568.742 627.380 569.622 C 629.281 577.144 633.321 586.788 636.926 593.658 C 638.896 597.412 644.630 605.502 644.631 605.503 C 646.839 601.846 650.109 597.148 651.991 593.313 C 655.400 586.366 659.714 576.782 661.038 569.158 C 661.168 568.407 661.120 567.380 661.135 566.618 C 661.360 555.689 661.607 541.092 660.968 530.179 C 660.885 528.776 660.872 526.874 660.509 525.515 C 659.720 522.562 656.075 516.341 656.075 516.340 C 656.075 516.340 656.075 516.340 656.075 516.340 Z"/>
<path fill="none" stroke="#fde666" stroke-width="1" stroke-linecap="round" stroke-linejoin="round" d="M 644.631 605.503 C 644.631 605.503 644.631 605.503 644.631 605.503 C 644.630 605.502 638.896 597.412 636.926 593.658 C 633.321 586.788 629.281 577.144 627.380 569.622 C 627.158 568.742 627.058 567.529 626.920 566.632 C 626.920 566.632 626.920 566.632 626.920 566.632 C 626.920 566.629 627.033 541.415 627.082 530.607 C 627.082 530.607 627.082 530.607 627.082 530.607 C 627.082 530.607 626.983 527.589 627.194 526.319 C 627.729 523.100 629.657 519.115 630.713 516.028 C 638.321 516.121 648.466 516.247 656.075 516.340 C 656.075 516.340 656.075 516.340 656.075 516.340 C 656.075 516.341 659.720 522.562 660.509 525.515 C 660.872 526.874 660.885 528.776 660.968 530.179 C 661.607 541.092 661.360 555.689 661.135 566.618 C 661.120 567.380 661.168 568.407 661.038 569.158 C 659.714 576.782 655.400 586.366 651.991 593.313 C 650.109 597.148 646.839 601.846 644.631 605.503 M 630.713 516.028 C 630.713 516.028 630.713 516.028 630.713 516.028 M 656.075 516.340 C 656.075 516.340 656.075 516.340 656.075 516.340 "/>
<path fill="#002a64" fill-rule="evenodd" stroke="#002a64" stroke-width="1" stroke-linecap="round" stroke-linejoin="round" d="M 673.034 503.597 C 673.028 503.597 613.756 503.597 613.750 503.597 C 613.750 503.599 613.750 520.096 613.750 520.097 C 613.756 520.097 673.028 520.097 673.034 520.097 C 673.034 520.096 673.034 503.599 673.034 503.597 Z"/>
<path fill="#205c92" fill-rule="evenodd" stroke="#205c92" stroke-width="1" stroke-linecap="round" stroke-linejoin="round" d="M 676.291 486.248 C 676.284 486.248 611.577 486.248 611.570 486.248 C 611.570 486.250 611.570 504.341 611.570 504.342 C 611.577 504.342 676.284 504.342 676.291 504.342 C 676.291 504.341 676.291 486.250 676.291 486.248 Z"/>
</g>
<g id="Layer_4">
<path fill="#c92700" fill-rule="evenodd" stroke="none" d="M 717.568 505.085 C 720.871 507.941 724.669 512.392 727.712 515.523 C 727.712 515.513 731.094 447.311 732.543 418.077 C 732.542 418.077 724.986 421.585 721.536 421.440 C 718.082 421.295 713.656 419.159 710.836 417.159 C 707.546 414.827 704.254 410.359 702.071 406.968 C 700.255 404.146 698.475 399.991 697.321 396.840 C 696.312 394.087 695.158 390.315 694.749 387.412 C 694.391 384.865 694.620 381.413 694.607 378.841 C 694.558 369.456 694.575 356.938 694.892 347.558 C 695.327 334.686 696.706 317.561 697.466 304.705 C 698.062 294.647 699.263 281.252 699.422 271.178 C 699.647 257.009 699.145 238.089 698.025 223.962 C 696.979 210.763 694.727 193.222 692.396 180.188 C 688.844 160.328 682.354 134.177 677.045 114.713 C 672.281 97.244 665.114 74.166 659.124 57.079 C 655.339 46.279 650.911 31.505 645.338 21.509 C 644.863 20.658 644.040 19.641 643.484 18.841 C 643.453 167.713 643.412 366.209 643.381 515.081 C 647.102 511.443 652.047 506.574 655.786 502.954 C 659.358 499.496 663.391 493.877 667.749 491.483 C 670.780 489.818 675.436 488.643 678.893 488.533 C 686.009 488.307 695.528 490.974 701.999 493.941 C 707.221 496.334 713.223 501.328 717.568 505.085 M 643.381 515.081 C 643.381 515.081 643.381 515.081 643.381 515.081 M 643.484 18.841 C 643.484 18.841 643.484 18.841 643.484 18.841 Z"/>
<path fill="none" stroke="#c92700" stroke-width="1" stroke-linecap="round" stroke-linejoin="round" d="M 727.712 515.523 C 727.712 515.523 727.712 515.523 727.712 515.523 C 724.669 512.392 720.871 507.941 717.568 505.085 C 713.223 501.328 707.221 496.334 701.999 493.941 C 695.528 490.974 686.009 488.307 678.893 488.533 C 675.436 488.643 670.780 489.818 667.749 491.483 C 663.391 493.877 659.358 499.496 655.786 502.954 C 652.047 506.574 647.102 511.443 643.381 515.081 C 643.381 515.081 643.381 515.081 643.381 515.081 C 643.412 366.209 643.453 167.713 643.484 18.841 C 643.484 18.841 643.484 18.841 643.484 18.841 C 644.040 19.641 644.863 20.658 645.338 21.509 C 650.911 31.505 655.339 46.279 659.124 57.079 C 665.114 74.166 672.281 97.244 677.045 114.713 C 682.354 134.177 688.844 160.328 692.396 180.188 C 694.727 193.222 696.979 210.763 698.025 223.962 C 699.145 238.089 699.647 257.009 699.422 271.178 C 699.263 281.252 698.062 294.647 697.466 304.705 C 696.706 317.561 695.327 334.686 694.892 347.558 C 694.575 356.938 694.558 369.456 694.607 378.841 C 694.620 381.413 694.391 384.865 694.749 387.412 C 695.158 390.315 696.312 394.087 697.321 396.840 C 698.475 399.991 700.255 404.146 702.071 406.968 C 704.254 410.359 707.546 414.827 710.836 417.159 C 713.656 419.159 718.082 421.295 721.536 421.440 C 724.986 421.585 732.542 418.077 732.543 418.077 C 732.543 418.077 732.543 418.077 732.543 418.077 C 731.094 447.311 727.712 515.513 727.712 515.523 "/>
<path fill="#db4014" fill-rule="evenodd" stroke="none" d="M 569.366 505.085 C 566.061 507.940 562.262 512.392 559.217 515.523 C 559.217 515.513 555.834 447.311 554.384 418.077 C 554.385 418.077 561.944 421.585 565.395 421.440 C 568.851 421.295 573.279 419.160 576.101 417.159 C 579.392 414.827 582.686 410.359 584.870 406.968 C 586.687 404.146 588.467 399.991 589.622 396.840 C 590.631 394.087 591.786 390.315 592.195 387.412 C 592.553 384.865 592.324 381.413 592.338 378.841 C 592.387 369.456 592.369 356.938 592.052 347.558 C 591.617 334.686 590.238 317.561 589.477 304.705 C 588.881 294.647 587.679 281.252 587.520 271.178 C 587.295 257.009 587.797 238.089 588.917 223.962 C 589.964 210.763 592.218 193.222 594.550 180.188 C 598.103 160.328 604.596 134.177 609.907 114.713 C 614.674 97.244 621.844 74.166 627.836 57.079 C 631.624 46.279 636.053 31.504 641.629 21.509 C 642.104 20.658 642.927 19.641 643.484 18.841 C 643.136 167.713 642.673 366.209 642.325 515.081 C 638.980 511.443 634.634 506.485 631.176 502.954 C 627.696 499.401 623.567 493.877 619.208 491.483 C 616.175 489.818 611.517 488.643 608.059 488.533 C 600.940 488.307 591.417 490.974 584.942 493.941 C 579.718 496.334 573.713 501.328 569.366 505.085 M 642.325 515.081 C 642.325 515.081 642.325 515.081 642.325 515.081 M 643.484 18.841 C 643.484 18.841 643.484 18.841 643.484 18.841 Z"/>
<path fill="none" stroke="#db4014" stroke-width="1" stroke-linecap="round" stroke-linejoin="round" d="M 559.217 515.523 C 559.217 515.523 559.217 515.523 559.217 515.523 C 562.262 512.392 566.061 507.940 569.366 505.085 C 573.713 501.328 579.718 496.334 584.942 493.941 C 591.417 490.974 600.940 488.307 608.059 488.533 C 611.517 488.643 616.175 489.818 619.208 491.483 C 623.567 493.877 627.696 499.401 631.176 502.954 C 634.634 506.485 638.980 511.443 642.325 515.081 C 642.325 515.081 642.325 515.081 642.325 515.081 C 642.673 366.209 643.136 167.713 643.484 18.841 C 643.484 18.841 643.484 18.841 643.484 18.841 C 642.927 19.641 642.104 20.658 641.629 21.509 C 636.053 31.504 631.624 46.279 627.836 57.079 C 621.844 74.166 614.674 97.244 609.907 114.713 C 604.596 134.177 598.103 160.328 594.550 180.188 C 592.218 193.222 589.964 210.763 588.917 223.962 C 587.797 238.089 587.295 257.009 587.520 271.178 C 587.679 281.252 588.881 294.647 589.477 304.705 C 590.238 317.561 591.617 334.686 592.052 347.558 C 592.369 356.938 592.387 369.456 592.338 378.841 C 592.324 381.413 592.553 384.865 592.195 387.412 C 591.786 390.315 590.631 394.087 589.622 396.840 C 588.467 399.991 586.687 404.146 584.870 406.968 C 582.686 410.359 579.392 414.827 576.101 417.159 C 573.279 419.160 568.851 421.295 565.395 421.440 C 561.944 421.585 554.385 418.077 554.384 418.077 C 554.384 418.077 554.384 418.077 554.384 418.077 C 555.834 447.311 559.217 515.513 559.217 515.523 "/>
</g>
<g id="Layer_5">
<path fill="#fc611f" fill-rule="evenodd" stroke="#fc611f" stroke-width="1" stroke-linecap="round" stroke-linejoin="round" d="M 653.226 98.519 C 656.230 108.527 660.031 121.938 662.484 132.095 C 665.553 144.800 668.977 161.901 671.289 174.765 C 673.208 185.438 675.745 199.697 676.806 210.489 C 678.155 224.225 678.582 242.657 678.644 256.458 C 678.705 269.899 678.447 287.851 677.266 301.239 C 675.801 317.851 672.768 339.957 669.085 356.221 C 666.889 365.915 664.229 379.173 659.594 387.966 C 656.690 393.473 652.301 401.358 646.830 404.330 C 646.156 404.696 645.088 404.762 644.325 404.842 C 643.308 404.948 641.910 405.084 640.917 404.842 C 640.176 404.662 639.233 404.189 638.644 403.706 C 634.591 400.382 631.356 393.809 629.066 389.095 C 624.623 379.952 621.114 366.698 618.839 356.790 C 614.994 340.055 612.559 317.189 611.066 300.083 C 609.912 286.853 609.211 269.133 609.282 255.853 C 609.357 241.865 610.317 223.208 611.682 209.287 C 612.682 199.096 614.840 185.601 616.490 175.496 C 618.604 162.543 621.688 145.309 624.463 132.482 C 626.611 122.550 629.679 109.338 632.556 99.592 C 635.375 90.043 640.144 77.633 643.396 68.222 C 643.396 68.222 643.396 68.222 643.396 68.222 C 643.444 68.192 650.479 89.367 653.226 98.519 Z"/>
<path fill="#fefefe" fill-rule="evenodd" stroke="none" d="M 738.285 441.903 C 739.031 470.579 738.976 508.832 739.273 537.516 C 739.272 537.516 737.943 542.625 736.172 543.716 C 734.444 544.780 731.277 544.505 729.408 543.716 C 727.259 542.809 725.659 539.770 724.053 538.079 C 724.053 538.072 723.390 485.991 723.771 463.671 C 723.816 461.049 723.879 457.550 724.053 454.933 C 724.768 444.154 725.929 429.742 727.999 419.139 C 728.868 414.687 730.006 408.647 731.932 404.541 C 732.644 403.023 734.090 401.277 735.014 399.879 C 735.584 401.943 736.552 404.650 736.913 406.761 C 738.691 417.161 738.011 431.356 738.285 441.903 M 735.014 399.879 C 735.014 399.879 735.014 399.879 735.014 399.879 Z"/>
<path fill="none" stroke="#fefefe" stroke-width="1" stroke-linecap="round" stroke-linejoin="round" d="M 739.273 537.516 C 739.273 537.516 739.273 537.516 739.273 537.516 C 738.976 508.832 739.031 470.579 738.285 441.903 C 738.011 431.356 738.691 417.161 736.913 406.761 C 736.552 404.650 735.584 401.943 735.014 399.879 C 735.014 399.879 735.014 399.879 735.014 399.879 C 734.090 401.277 732.644 403.023 731.932 404.541 C 730.006 408.647 728.868 414.687 727.999 419.139 C 725.929 429.742 724.768 444.154 724.053 454.933 C 723.879 457.550 723.816 461.049 723.771 463.671 C 723.390 485.991 724.053 538.072 724.053 538.079 C 724.053 538.079 724.053 538.079 724.053 538.079 C 725.659 539.770 727.259 542.809 729.408 543.716 C 731.277 544.505 734.444 544.780 736.172 543.716 C 737.943 542.625 739.272 537.516 739.273 537.516 "/>
<path fill="#fefefe" fill-rule="evenodd" stroke="none" d="M 549.997 441.903 C 549.278 470.579 549.331 508.832 549.045 537.516 C 549.045 537.516 550.282 542.624 552.035 543.716 C 553.695 544.751 556.761 544.492 558.557 543.716 C 560.662 542.807 562.172 539.770 563.721 538.079 C 563.721 538.072 564.360 485.991 563.993 463.671 C 563.949 461.049 563.888 457.551 563.721 454.933 C 563.031 444.157 561.914 429.751 559.916 419.139 C 559.079 414.692 557.991 408.662 556.123 404.541 C 555.439 403.030 554.043 401.277 553.151 399.879 C 552.602 401.943 551.669 404.653 551.321 406.761 C 549.602 417.170 550.262 431.357 549.997 441.903 M 553.151 399.879 C 553.151 399.879 553.151 399.879 553.151 399.879 Z"/>
<path fill="none" stroke="#fefefe" stroke-width="1" stroke-linecap="round" stroke-linejoin="round" d="M 549.045 537.516 C 549.045 537.516 549.045 537.516 549.045 537.516 C 549.331 508.832 549.278 470.579 549.997 441.903 C 550.262 431.357 549.602 417.170 551.321 406.761 C 551.669 404.653 552.602 401.943 553.151 399.879 C 553.151 399.879 553.151 399.879 553.151 399.879 C 554.043 401.277 555.439 403.030 556.123 404.541 C 557.991 408.662 559.079 414.692 559.916 419.139 C 561.914 429.751 563.031 444.157 563.721 454.933 C 563.888 457.551 563.949 461.049 563.993 463.671 C 564.360 485.991 563.721 538.072 563.721 538.079 C 563.721 538.079 563.721 538.079 563.721 538.079 C 562.172 539.770 560.662 542.807 558.557 543.716 C 556.761 544.492 553.695 544.751 552.035 543.716 C 550.282 542.624 549.045 537.516 549.045 537.516 "/>
<path fill="#fefefe" fill-rule="evenodd" stroke="#fefefe" stroke-width="1" stroke-linecap="round" stroke-linejoin="round" d="M 651.167 438.212 C 652.036 445.048 652.839 454.213 653.150 461.098 C 653.458 467.926 653.296 477.047 653.239 483.882 C 653.130 496.809 653.362 514.082 652.277 526.965 C 651.933 531.053 652.020 536.728 650.449 540.518 C 649.896 541.853 648.811 543.544 647.709 544.478 C 646.763 545.278 645.225 546.222 643.987 546.265 C 642.781 546.306 641.128 545.607 640.247 544.782 C 639.396 543.986 638.934 542.387 638.571 541.280 C 637.275 537.326 636.846 531.715 636.440 527.574 C 635.169 514.611 635.438 497.197 635.221 484.173 C 635.104 477.138 634.910 467.755 635.069 460.721 C 635.223 453.889 635.483 444.764 636.240 437.972 C 636.756 433.346 637.656 427.180 638.809 422.671 C 639.996 418.030 642.484 412.116 644.059 407.592 C 644.059 407.592 644.059 407.592 644.059 407.592 C 645.438 412.210 647.574 418.289 648.657 422.986 C 649.697 427.497 650.583 433.619 651.167 438.212 Z"/>
</g>
<g id="Layer_4">
<path fill="#425f7d" fill-rule="evenodd" stroke="#425f7d" stroke-width="1" stroke-linecap="round" stroke-linejoin="round" d="M 642.754 129.743 C 632.035 130.012 622.709 138.905 622.709 151.257 C 622.709 163.609 632.036 172.461 642.754 172.771 C 653.899 173.093 664.612 164.311 664.688 151.467 C 664.763 138.499 654.008 129.461 642.754 129.743 Z"/>
<path fill="#d2effd" fill-rule="evenodd" stroke="#d2effd" stroke-width="1" stroke-linecap="round" stroke-linejoin="round" d="M 643.121 134.886 C 634.874 134.886 626.172 140.944 626.172 151.257 C 626.172 161.570 634.874 167.628 643.121 167.628 C 651.368 167.628 660.070 161.570 660.070 151.257 C 660.070 140.944 651.368 134.886 643.121 134.886 Z"/>
</g>
</g>
</svg>
