<?xml version="1.0" encoding="utf-8"?>
<!-- Generator: Adobe Illustrator 22.0.0, SVG Export Plug-In . SVG Version: 6.00 Build 0)  -->
<svg version="1.1" id="Layer_1" xmlns="http://www.w3.org/2000/svg" xmlns:xlink="http://www.w3.org/1999/xlink" x="0px" y="0px"
	 viewBox="0 0 1000 1000" style="enable-background:new 0 0 1000 1000;" xml:space="preserve">
<style type="text/css">
	.st0{fill:#00B70B;}
</style>
<g id="Ring2">
	<path class="st0" d="M212.9,615.5c0,4.3-0.4,8.5-1.2,12.5c-1.4,7.6-4.1,14.7-7.8,21.1c-5.9,10.3-14.6,19-24.9,24.9
		c-9.9,5.7-21.4,8.9-33.6,8.9c-12.3,0-23.7-3.3-33.6-8.9c-10.3-6-18.9-14.6-24.9-24.9c-5.7-9.9-9-21.4-9-33.6c0-5,0.5-9.8,1.6-14.4
		c1.5-6.8,4-13.3,7.4-19.2c6-10.3,14.6-18.9,24.9-24.9c9.9-5.7,21.4-9,33.6-9c12.3,0,23.7,3.3,33.6,9c10.3,6,18.9,14.6,24.9,24.9
		C209.7,591.8,212.9,603.3,212.9,615.5z"/>
	<path class="st0" d="M500,276C240.2,276,29.5,376.3,29.5,500S240.2,724,500,724s470.5-100.3,470.5-224S759.8,276,500,276z
		 M116.4,557.2C97.4,536.3,87,514.8,88,494c4.6-93.2,239.7-169.5,431-164c134.8,3.9,298.1,49.9,364.6,112.9
		c19,20.9,29.4,42.4,28.4,63.1c-4.6,93.2-239.7,169.5-431,164C346.3,666.1,183.1,620.1,116.4,557.2
		C116.5,557.2,116.4,557.2,116.4,557.2z"/>
	<path class="st0" d="M787.1,384.5c0-4.3,0.4-8.5,1.2-12.5c1.4-7.6,4.1-14.7,7.8-21.1c5.9-10.3,14.6-19,24.9-24.9
		c9.9-5.7,21.4-8.9,33.6-8.9s23.7,3.3,33.6,8.9c10.3,6,18.9,14.6,24.9,24.9c5.7,9.9,9,21.4,9,33.6c0,5-0.5,9.8-1.6,14.4
		c-1.5,6.8-4,13.3-7.4,19.2c-6,10.3-14.6,18.9-24.9,24.9c-9.9,5.7-21.4,9-33.6,9s-23.7-3.3-33.6-9c-10.3-6-18.9-14.6-24.9-24.9
		C790.3,408.2,787.1,396.7,787.1,384.5z"/>
</g>
<g id="Ring1">
	<path class="st0" d="M384.5,212.9c-4.3,0-8.5-0.4-12.5-1.2c-7.6-1.4-14.7-4.1-21.1-7.8c-10.3-5.9-19-14.6-24.9-24.9
		c-5.7-9.9-8.9-21.4-8.9-33.6s3.3-23.7,8.9-33.6c6-10.3,14.6-18.9,24.9-24.9c9.9-5.7,21.4-9,33.6-9c5,0,9.8,0.5,14.4,1.6
		c6.8,1.5,13.3,4,19.2,7.4c10.3,6,18.9,14.6,24.9,24.9c5.7,9.9,9,21.4,9,33.6s-3.3,23.7-9,33.6c-6,10.3-14.6,18.9-24.9,24.9
		C408.2,209.7,396.7,212.9,384.5,212.9z"/>
	<path class="st0" d="M724,500c0-259.8-100.3-470.5-224-470.5S276,240.2,276,500s100.3,470.5,224,470.5S724,759.9,724,500z
		 M442.8,116.4C463.7,97.4,485.2,87,506,88c93.2,4.6,169.5,239.7,164,431c-3.9,134.8-49.9,298.1-112.9,364.6
		c-20.9,19-42.4,29.4-63.1,28.4c-93.2-4.6-169.5-239.7-164-431C333.9,346.3,379.9,183.1,442.8,116.4
		C442.8,116.5,442.8,116.4,442.8,116.4z"/>
	<path class="st0" d="M615.5,787.1c4.3,0,8.5,0.4,12.5,1.2c7.6,1.4,14.7,4.1,21.1,7.8c10.3,5.9,19,14.6,24.9,24.9
		c5.7,9.9,8.9,21.4,8.9,33.6s-3.3,23.7-8.9,33.6c-6,10.3-14.6,18.9-24.9,24.9c-9.9,5.7-21.4,9-33.6,9c-5,0-9.8-0.5-14.4-1.6
		c-6.8-1.5-13.3-4-19.2-7.4c-10.3-6-18.9-14.6-24.9-24.9c-5.7-9.9-9-21.4-9-33.6s3.3-23.7,9-33.6c6-10.3,14.6-18.9,24.9-24.9
		C591.8,790.3,603.3,787.1,615.5,787.1z"/>
</g>
<path id="Electric_1_" class="st0" d="M569,481.5l-69,135.8l-17.9,35.3c-1.5,2.9-5.8,1.8-5.8-1.4V526.1c0-1.7-1.4-3.1-3.1-3.1h-39.4
	c-2.3,0-3.8-2.4-2.8-4.5l69-135.8l17.9-35.3c1.5-2.9,5.8-1.8,5.8,1.4v125.2c0,1.7,1.4,3.1,3.1,3.1h39.4
	C568.6,477,570.1,479.4,569,481.5z"/>
</svg>
