<?xml version="1.0" encoding="utf-8"?>
<!-- Generator: Adobe Illustrator 22.0.0, SVG Export Plug-In . SVG Version: 6.00 Build 0)  -->
<svg version="1.1" id="Layer_3" xmlns="http://www.w3.org/2000/svg" xmlns:xlink="http://www.w3.org/1999/xlink" x="0px" y="0px"
	 viewBox="0 0 1000 1000" style="enable-background:new 0 0 1000 1000;" xml:space="preserve">
<style type="text/css">
	.st0{fill:#00B70B;}
</style>
<g>
	<circle class="st0" cx="139.9" cy="440.3" r="23.2"/>
	<circle class="st0" cx="174.7" cy="352" r="33.3"/>
	<circle class="st0" cx="221" cy="246.3" r="46.3"/>
	<path class="st0" d="M181,730.8v19.6c0,11.8-9.6,21.3-21.3,21.3H73.9c-11.8,0-21.3-9.6-21.3-21.3V731c0-0.5,0-1.2,0.1-1.7
		l18.9-233.6c0.8-9.7,8.9-17.2,18.6-17.2h53.3c9.7,0,17.9,7.5,18.6,17.2l18.9,233.6C180.9,729.8,181,730.3,181,730.8z"/>
</g>
<g>
	<circle class="st0" cx="370.2" cy="440.3" r="23.2"/>
	<circle class="st0" cx="404.9" cy="352" r="33.3"/>
	<circle class="st0" cx="451.2" cy="246.3" r="46.3"/>
	<path class="st0" d="M411.2,730.8v19.6c0,11.8-9.6,21.3-21.3,21.3h-85.7c-11.8,0-21.3-9.6-21.3-21.3V731c0-0.5,0-1.2,0.1-1.7
		l18.9-233.6c0.8-9.7,8.9-17.2,18.6-17.2h53.3c9.7,0,17.9,7.5,18.6,17.2l18.9,233.6C411.2,729.8,411.2,730.3,411.2,730.8z"/>
</g>
<g>
	<circle class="st0" cx="600.4" cy="440.3" r="23.2"/>
	<circle class="st0" cx="635.2" cy="352" r="33.3"/>
	<circle class="st0" cx="681.5" cy="246.3" r="46.3"/>
	<path class="st0" d="M641.5,730.8v19.6c0,11.8-9.6,21.3-21.3,21.3h-85.7c-11.8,0-21.3-9.6-21.3-21.3V731c0-0.5,0-1.2,0.1-1.7
		L532,495.7c0.8-9.7,8.9-17.2,18.6-17.2h53.3c9.7,0,17.9,7.5,18.6,17.2l18.9,233.6C641.4,729.8,641.5,730.3,641.5,730.8z"/>
</g>
<g>
	<circle class="st0" cx="830.7" cy="440.3" r="23.2"/>
	<circle class="st0" cx="865.4" cy="352" r="33.3"/>
	<circle class="st0" cx="911.8" cy="246.3" r="46.3"/>
	<path class="st0" d="M871.7,730.8v19.6c0,11.8-9.6,21.3-21.3,21.3h-85.7c-11.8,0-21.3-9.6-21.3-21.3V731c0-0.5,0-1.2,0.1-1.7
		l18.9-233.6c0.8-9.7,8.9-17.2,18.6-17.2h53.3c9.7,0,17.9,7.5,18.6,17.2l18.9,233.6C871.7,729.8,871.7,730.3,871.7,730.8z"/>
</g>
</svg>
