<?xml version="1.0" encoding="utf-8"?>
<!-- Generator: Adobe Illustrator 22.0.0, SVG Export Plug-In . SVG Version: 6.00 Build 0)  -->
<svg version="1.1" id="Layer_1" xmlns="http://www.w3.org/2000/svg" xmlns:xlink="http://www.w3.org/1999/xlink" x="0px" y="0px"
	 viewBox="0 0 1000 1000" style="enable-background:new 0 0 1000 1000;" xml:space="preserve">
<style type="text/css">
	.st0{fill:#FFA33C;}
	.st1{fill:#B6B6B6;}
	.st2{fill:#CFCFCF;}
	.st3{fill:#FFF343;}
	.st4{fill:none;stroke:#FFF343;stroke-width:25;stroke-miterlimit:10;}
	.st5{opacity:0.1;}
</style>
<path id="XMLID_12_" class="st0" d="M1000,500c0,13.3-0.5,26.5-1.5,39.5c-20,256.7-233.9,458.9-495.4,460.5c-1,0-2.1,0-3.1,0
	C223.9,1000,0,776.1,0,500S223.9,0,500,0S1000,223.9,1000,500z"/>
<path id="XMLID_3_" class="st1" d="M524.8,896.7h-43.4c-5.6,0-10.1-4.5-10.1-10.1v-1.9c0-5.6,4.5-10.1,10.1-10.1h43.4
	c5.6,0,10.1,4.5,10.1,10.1v1.9C534.9,892.2,530.3,896.7,524.8,896.7z"/>
<path id="XMLID_29_" class="st2" d="M561.2,793.2l-1.8,14l-1.3,10.2v0l-1.2,9.4l-2.1,16.3l-0.4,3.3l-2.6,19.6l-0.6,4.6l-0.2,1.2
	c-0.1,0.5-0.2,0.9-0.3,1.4c-1.6,5.9-8.6,10.4-16.4,10.4l-61.8,0.1c-1.3,0-2.6-0.1-3.9-0.4c-3.4-0.6-6.6-2.2-8.9-4.2
	c-2.2-2-3.7-4.4-4.1-7.1l-0.8-6l-1.4-10l-1.3-9.6l-1.8-13.5l-0.8-6l-2-15l-0.2-1.3l-0.4-3.3l-1.9-14c-0.2-1.2,0.9-2.2,2.2-2.2H559
	C560.4,791,561.4,792,561.2,793.2z"/>
<path id="XMLID_9_" class="st3" d="M683.2,411.5c7.9,42.8,1.2,83.7-16,118.4l-73.5,240.4c-5.2,17.1-25.7,29.8-46.1,29.8h-96.9
	c-20.3,0-40.8-12.7-46.1-29.8L331.1,530c-12.4-25-19.3-53.1-19.3-82.9c0-115.1,103.8-206,222.9-184
	C603.4,275.7,670.6,342.8,683.2,411.5z"/>
<line id="XMLID_1_" class="st4" x1="207.6" y1="284.3" x2="305.4" y2="339.9"/>
<line id="XMLID_4_" class="st4" x1="352.6" y1="209.4" x2="381.1" y2="253.5"/>
<line id="XMLID_5_" class="st4" x1="197" y1="592.4" x2="305.4" y2="562.6"/>
<line id="XMLID_7_" class="st4" x1="230.3" y1="441.6" x2="282.7" y2="443.1"/>
<line id="XMLID_17_" class="st4" x1="290.5" y1="670.5" x2="339.4" y2="651.5"/>
<line id="XMLID_14_" class="st4" x1="792.4" y1="286" x2="694.6" y2="341.6"/>
<line id="XMLID_11_" class="st4" x1="647.4" y1="211.1" x2="618.9" y2="255.2"/>
<line id="XMLID_10_" class="st4" x1="803" y1="594.1" x2="694.6" y2="564.3"/>
<line id="XMLID_6_" class="st4" x1="769.7" y1="443.3" x2="717.3" y2="444.8"/>
<line id="XMLID_2_" class="st4" x1="709.5" y1="672.2" x2="660.6" y2="653.2"/>
<line id="XMLID_15_" class="st4" x1="499.1" y1="103.3" x2="499.1" y2="215.7"/>
<path id="SHADOW" class="st5" d="M1000,500c0,13.3-0.5,26.5-1.5,39.5c-20,256.7-233.9,458.9-495.4,460.5c-1,0-2.1,0-3.1,0V0
	C776.1,0,1000,223.9,1000,500z"/>
</svg>
