<?xml version="1.0" encoding="utf-8"?>
<!-- Generator: Adobe Illustrator 22.0.0, SVG Export Plug-In . SVG Version: 6.00 Build 0)  -->
<svg version="1.1" id="Forest" xmlns="http://www.w3.org/2000/svg" xmlns:xlink="http://www.w3.org/1999/xlink" x="0px" y="0px"
	 viewBox="0 0 1000 1000" style="enable-background:new 0 0 1000 1000;" xml:space="preserve">
<style type="text/css">
	.st0{fill:#754C24;}
	.st1{fill:#00B70B;}
</style>
<g id="_x33_">
	<path class="st0" d="M914.5,787.2c-0.9,3-3.2,5.9-6.6,5.9c-6.8,0-13.6,0-20.4,0c-6.2,0-12.4,0.1-18.6,0c-1.3,0-2.6,0-3.8-0.5
		c-2.7-1.1-4.4-4.4-4.8-7.2c-0.5-3.7,0.8-7.4,1.5-11c0.7-3.3,1.4-6.6,2.1-9.9c1.3-6.2,2.6-12.3,3.8-18.5c0.6-2.7,1.1-5.4,1.7-8.1
		l1.5-7.1l0-0.2l3.3-16l0.1-0.5h26.7l0.1,0.5l3.3,16l0,0.2l1.4,6.7l1.5,7.3v0.1c0.9,4.2,1.8,8.5,2.6,12.7c1.3,6.2,2.6,12.4,3.9,18.6
		C914.7,779.5,915.5,783.8,914.5,787.2z"/>
	<path class="st1" d="M959.5,685c-1.2,1.2-2.5,2.4-3.9,3.4c1.8,10.5-1.3,21.8-9.5,29.9c-8.2,8.2-19.6,11.4-30.3,9.4
		c-1.3,1.9-2.7,3.7-4.4,5.4c-1.7,1.7-3.5,3.2-5.5,4.4c-0.5,0.3-1,0.6-1.5,0.9c-0.1,0.1-0.2,0.1-0.3,0.2c-4.8,2.8-10.2,4.2-15.6,4.4
		c-0.3,0-0.6,0-0.8,0c-5.8,0.1-11.6-1.4-16.8-4.2c-0.1-0.1-0.2-0.1-0.3-0.2c-0.4-0.2-0.8-0.4-1.1-0.7c-2.2-1.3-4.2-2.9-6.1-4.8
		c-1.4-1.4-2.7-2.9-3.8-4.5c-10.4,1.7-21.4-1.5-29.4-9.5c-8.3-8.4-11.4-20-9.3-30.7c-1.7-1.2-3.3-2.5-4.8-4
		c-13.3-13.3-13.3-34.8,0-48.1c1.5-1.5,3-2.8,4.7-3.9c-1.9-10.6,1.2-21.9,9.4-30.1c8.2-8.2,19.5-11.3,30.1-9.4
		c1.1-1.6,2.4-3.2,3.9-4.7c6.5-6.5,15.1-9.8,23.7-9.9c0.3,0,0.6,0,0.8,0c8.5,0.1,17,3.4,23.6,9.9c1.4,1.4,2.7,3,3.8,4.6
		c10.4-1.7,21.4,1.5,29.4,9.5c8.4,8.3,11.4,20,9.3,30.7c1.7,1.2,3.3,2.5,4.8,4c6.6,6.6,10,15.3,10,24
		C969.4,669.6,966.1,678.3,959.5,685z"/>
</g>
<g id="_x32_">
	<path class="st0" d="M679.4,783.1c-1.5,5.1-5.4,10-11,10c-11.5,0-22.9,0-34.4,0c-10.4,0-20.9,0.1-31.3,0c-2.1,0-4.3-0.1-6.3-0.9
		c-4.5-1.9-7.3-7.4-8-12.1c-0.9-6.3,1.3-12.5,2.6-18.5c1.2-5.6,2.3-11.1,3.5-16.7c2.2-10.4,4.3-20.7,6.5-31.1
		c0.9-4.6,1.9-9.1,2.8-13.7l2.5-11.9l0-0.3l5.6-26.9l0.2-0.9h44.9l0.2,0.9l5.6,26.9l0.1,0.3l2.3,11.2l2.6,12.3v0.1
		c1.5,7.1,3,14.3,4.5,21.4c2.2,10.4,4.3,20.8,6.5,31.2C679.7,770.2,681,777.4,679.4,783.1z"/>
	<path class="st1" d="M755,611.2c-2.1,2.1-4.3,4-6.6,5.6c3.1,17.7-2.2,36.6-15.9,50.3c-13.8,13.8-33,19.1-50.9,15.8
		c-2.1,3.2-4.6,6.3-7.4,9.1c-2.8,2.9-5.9,5.3-9.2,7.5c-0.8,0.5-1.6,1-2.5,1.5c-0.2,0.1-0.3,0.2-0.5,0.3c-8.1,4.6-17.1,7.1-26.2,7.4
		c-0.5,0-0.9,0-1.4,0c-9.8,0.1-19.5-2.3-28.3-7.1c-0.2-0.1-0.3-0.2-0.5-0.3c-0.7-0.4-1.3-0.7-1.9-1.2c-3.6-2.2-7.1-5-10.3-8.1
		c-2.4-2.4-4.6-5-6.5-7.6c-17.5,2.8-36-2.5-49.5-16c-14-14.1-19.2-33.6-15.6-51.7c-2.8-2-5.5-4.2-8-6.7c-22.3-22.3-22.3-58.5,0-80.8
		c2.5-2.5,5.1-4.6,7.8-6.6c-3.2-17.8,2.1-36.8,15.8-50.6c13.8-13.8,32.8-19,50.6-15.8c1.9-2.8,4.1-5.4,6.6-7.9
		c11-11,25.4-16.6,39.8-16.7c0.5,0,0.9,0,1.4,0c14.4,0.2,28.7,5.8,39.6,16.7c2.4,2.4,4.5,5,6.4,7.7c17.5-2.8,36,2.5,49.5,16
		c14.1,14,19.2,33.6,15.6,51.7c2.8,2,5.5,4.2,8,6.7c11.2,11.2,16.7,25.8,16.7,40.4C771.7,585.4,766.2,600,755,611.2z"/>
</g>
<g id="_x31_">
	<path class="st0" d="M326.3,776.9c-2.4,8.2-8.7,16.2-17.9,16.2c-18.6,0-37.2,0-55.7,0c-16.9,0-33.9,0.1-50.8,0
		c-3.5,0-7-0.1-10.2-1.4c-7.4-3-11.9-12.1-13-19.6c-1.4-10.2,2.1-20.2,4.1-30.1c1.9-9,3.8-18.1,5.6-27.1c3.5-16.8,7-33.6,10.5-50.4
		c1.5-7.4,3.1-14.8,4.6-22.2l4-19.3l0.1-0.5l9.1-43.7l0.3-1.4h72.8l0.3,1.4l9.1,43.7l0.1,0.5l3.8,18.2l4.2,20v0.2
		c2.4,11.6,4.8,23.2,7.2,34.7c3.5,16.9,7,33.8,10.5,50.7C326.8,755.9,329,767.6,326.3,776.9z"/>
	<path class="st1" d="M448.9,498.1c-3.3,3.4-6.9,6.4-10.6,9.2c5,28.7-3.6,59.4-25.8,81.6c-22.4,22.4-53.6,31-82.6,25.6
		c-3.4,5.2-7.5,10.2-12,14.8c-4.6,4.6-9.6,8.7-14.9,12.1c-1.3,0.8-2.6,1.7-4,2.5c-0.3,0.2-0.6,0.4-0.9,0.5
		c-13.2,7.5-27.8,11.5-42.5,12c-0.8,0-1.5,0-2.3,0c-15.8,0.2-31.7-3.7-45.9-11.6c-0.3-0.1-0.6-0.3-0.9-0.5c-1.1-0.6-2.1-1.2-3.1-1.9
		c-5.9-3.6-11.5-8-16.6-13.2c-3.9-3.9-7.4-8-10.5-12.4c-28.4,4.5-58.4-4.1-80.3-26C73.4,568,64.9,536.4,70.8,507
		c-4.6-3.2-8.9-6.8-13-10.8c-36.2-36.2-36.2-94.9,0-131.1c4-4,8.2-7.5,12.7-10.6c-5.2-28.9,3.4-59.7,25.7-82
		c22.3-22.3,53.2-30.9,82-25.7c3.1-4.5,6.7-8.7,10.7-12.7c17.8-17.8,41.2-26.8,64.5-27.1c0.8,0,1.5,0,2.3,0
		c23.3,0.4,46.5,9.4,64.2,27.1c3.9,3.9,7.4,8.1,10.4,12.4c28.4-4.5,58.4,4.1,80.3,26c22.8,22.8,31.2,54.4,25.4,83.8
		c4.6,3.2,8.9,6.8,13,10.9c18.1,18.1,27.2,41.8,27.2,65.5C476.1,456.3,467.1,480,448.9,498.1z"/>
</g>
</svg>
