<?xml version="1.0" encoding="utf-8"?>
<!-- Generator: Adobe Illustrator 22.0.0, SVG Export Plug-In . SVG Version: 6.00 Build 0)  -->
<svg version="1.1" xmlns="http://www.w3.org/2000/svg" xmlns:xlink="http://www.w3.org/1999/xlink" x="0px" y="0px"
	 viewBox="0 0 2000 2000" style="enable-background:new 0 0 2000 2000;" xml:space="preserve">
<style type="text/css">
	.st0{fill:none;stroke:#000000;stroke-width:20;stroke-miterlimit:10;}
	.st1{fill:#FFFFFF;stroke:#000000;stroke-width:20;stroke-miterlimit:10;}
</style>
<g id="Layer_2">
	<path class="st0" d="M1000.1,24.6v975.5h-975V543.4c0-286.5,232.3-518.8,518.8-518.8H1000.1z"/>
	<path class="st0" d="M1000.1,1000.1v975.5H543.9c-286.5,0-518.8-232.3-518.8-518.8v-456.8H1000.1z"/>
	<path class="st0" d="M1975.1,543.4v456.8h-975V24.6h456.3C1742.9,24.6,1975.1,256.9,1975.1,543.4z"/>
	<path class="st0" d="M1975.1,1000.1v456.8c0,286.5-232.3,518.8-518.7,518.8h-456.3v-975.5H1975.1z"/>
</g>
<g id="Layer_3">
	<path class="st1" d="M700.9,596.6H297.4c-55.1,0-99.7-44.7-99.7-99.7v0c0-55.1,44.7-99.7,99.7-99.7h403.5
		c55.1,0,99.7,44.7,99.7,99.7v0C800.6,552,755.9,596.6,700.9,596.6z"/>
	<path class="st1" d="M701.8,1514.7H298.3c-55.1,0-99.7-44.7-99.7-99.7v0c0-55.1,44.7-99.7,99.7-99.7h403.5
		c55.1,0,99.7,44.7,99.7,99.7v0C801.6,1470.1,756.9,1514.7,701.8,1514.7z"/>
	<circle class="st1" cx="500.1" cy="1215.3" r="100"/>
	<circle class="st1" cx="500.1" cy="1614.7" r="100"/>
	<path class="st1" d="M1693.2,1628.2c-19.5,19.5-45,29.2-70.5,29.2c-25.5,0-51.1-9.7-70.5-29.2l-72.1-72.1l-72.1,72.1
		c-39,39-102.1,39-141.1,0c-19.5-19.5-29.2-45-29.2-70.5c0-25.5,9.7-51,29.2-70.5l72.1-72.1l-72.1-72.1c-39-39-39-102.1,0-141.1
		c19.5-19.5,45-29.2,70.5-29.2c25.5,0,51.1,9.7,70.5,29.2l72.1,72.1l72.1-72.1c39-39,102.1-39,141.1,0c19.5,19.5,29.2,45,29.2,70.5
		c0,25.5-9.7,51-29.2,70.5l-72.1,72.1l72.1,72.1C1732.1,1526.1,1732.1,1589.2,1693.2,1628.2z"/>
	<path class="st1" d="M1801.5,500c0,27.5-11.2,52.5-29.2,70.5s-43,29.2-70.5,29.2h-102v102c0,55.1-44.7,99.7-99.8,99.7
		c-27.5,0-52.5-11.2-70.5-29.2c-18.1-18-29.2-43-29.2-70.5v-102h-102c-55.1,0-99.7-44.7-99.7-99.7c0-27.5,11.2-52.5,29.2-70.5
		s43-29.2,70.5-29.2h102v-102c0-55.1,44.7-99.7,99.8-99.7c27.5,0,52.5,11.2,70.5,29.2s29.2,43,29.2,70.5v102h102
		C1756.8,400.3,1801.5,444.9,1801.5,500z"/>
</g>
</svg>
