<?xml version="1.0" encoding="utf-8"?>
<!-- Generator: Adobe Illustrator 24.1.2, SVG Export Plug-In . SVG Version: 6.00 Build 0)  -->
<svg version="1.1" id="Layer_1" xmlns="http://www.w3.org/2000/svg" xmlns:xlink="http://www.w3.org/1999/xlink" x="0px" y="0px"
	 viewBox="0 0 1100 740" style="enable-background:new 0 0 1100 740;" xml:space="preserve">
<style type="text/css">
	.st0{fill:#FFFFFF;}
	.st1{fill:#FCC607;}
	.st2{fill:#00B733;}
	.st3{fill:#EE1C23;}
</style>
<g>
	<rect x="0.5" y="0.5" class="st0" width="1099" height="739"/>
	<path d="M1099,1v738H1V1H1099 M1100,0H0v740h1100V0L1100,0z"/>
</g>
<g>
	<path class="st1" d="M253.47,423.08l-50.07-7.24l10-7.77l-29.19-35.63l-3.27,0.75l6.86,39.73l10.57,13.37l-63.28-8.44l11.32-9.93
		l5.98-81.26l-12.27-9.34l50.64-7.32l-14.15,13l4.21,31.67l22.2-31.37l-6.23-9.04l46.11,2.02l-32.71,31.22L253.47,423.08z"/>
	<polygon class="st1" points="309.4,420.46 244.23,422.85 258.26,416.13 262.66,352.5 245.49,344.43 308.27,341.67 288.14,350.11 
		296,415.53 	"/>
	<path class="st2" d="M302.42,324.44c0,3.38-2.2,6.17-6.6,8.38c-4.4,2.21-10.15,3.32-17.24,3.32c-7.09,0-12.84-1.11-17.27-3.32
		c-4.42-2.21-6.64-5-6.64-8.38c0-3.38,2.22-6.19,6.67-8.42c4.44-2.24,10.19-3.35,17.24-3.35c7.09,0,12.83,1.12,17.24,3.35
		C300.22,318.25,302.42,321.06,302.42,324.44z"/>
	<path class="st1" d="M386.72,420.02l-35.16,2.69c2.35-3.14,4.11-6.36,5.28-9.67c1.17-3.31,1.76-6.66,1.76-10.05
		c0-4.53-0.9-8.27-2.7-11.2c-1.8-2.94-4.07-4.41-6.79-4.41c-3.14,0-5.76,1.53-7.83,4.59c-2.08,3.06-3.11,6.93-3.11,11.61
		c0,3.19,0.42,6.06,1.26,8.63c0.84,2.56,2.1,4.79,3.77,6.68l-34.53,4.78l7.86-9.78l2.7-61.39l-10.32-6.12l32.83-4.26l-7.61,18.22
		c5.28-5.98,10.42-10.48,15.41-13.52c4.99-3.04,9.73-4.56,14.22-4.56c6.96,0,12.53,2.73,16.7,8.18c4.17,5.45,6.26,12.73,6.26,21.85
		c0,7.17-1.07,14.33-3.21,21.47c-2.14,7.15-5.28,14.1-9.44,20.87L386.72,420.02z"/>
	<path class="st1" d="M473.79,343.83l-9.25,6.12c2.89,11.4,5.07,21.85,6.54,31.33c1.47,9.48,2.2,17.84,2.2,25.06
		c0,15.48-3.22,27.52-9.66,36.11c-6.44,8.59-15.46,12.88-27.08,12.88c-4.87,0-9.66-0.67-14.37-2.02c-4.72-1.34-9.59-3.44-14.62-6.27
		l-9,8.74l13.02-31.82c3.73,5.03,7.66,8.84,11.79,11.43c4.13,2.59,8.4,3.88,12.8,3.88c4.99,0,9.29-2.44,12.89-7.32
		c3.61-4.88,5.41-10.65,5.41-17.33c0-2.59-0.24-5.09-0.72-7.51c-0.48-2.41-1.23-4.87-2.23-7.36c-3.73,7.12-7.86,12.35-12.39,15.68
		c-4.53,3.34-9.77,5-15.73,5c-7.88,0-14.49-3.56-19.81-10.68c-5.33-7.12-7.99-15.96-7.99-26.52c0-12.15,2.81-22.19,8.43-30.14
		c5.62-7.94,12.68-11.91,21.2-11.91c4.7,0,9.28,1.42,13.74,4.26c4.47,2.84,8.86,7.12,13.18,12.85l-5.79-17.1L473.79,343.83z
		 M431.52,356.83c-1.09,1.44-1.92,3.04-2.48,4.78c-0.57,1.74-0.85,3.61-0.85,5.6c0,4.28,1.22,8.03,3.65,11.24
		c2.43,3.21,5.2,4.82,8.3,4.82c1.55,0,3.03-0.38,4.43-1.16c1.4-0.77,2.86-2,4.37-3.7c-2.39-5.63-5.01-10.21-7.86-13.74
		C438.23,361.14,435.04,358.52,431.52,356.83z"/>
	<path class="st3" d="M549.09,357.13c9.43,0.7,16.61,3.19,21.51,7.47c4.91,4.28,7.36,10.21,7.36,17.78
		c0,10.56-3.52,18.59-10.57,24.09c-7.05,5.5-18.81,9.3-35.29,11.39l-55.54,6.87l26.17-14.56l-12.58-90.37L472.1,310l64.29,3.96
		c12.37,0.75,21,2.61,25.88,5.6c4.88,2.99,7.33,7.69,7.33,14.12c0,5.43-1.69,10.07-5.06,13.93
		C561.16,351.47,556.01,354.64,549.09,357.13z M516.89,398.73c6.42-4.48,11.18-8.54,14.31-12.17c3.12-3.63,4.69-6.92,4.69-9.86
		c0-1.89-0.64-3.46-1.92-4.71c-1.28-1.24-2.88-1.87-4.81-1.87c-1.34,0-2.85,0.21-4.53,0.64c-1.68,0.42-3.44,1.03-5.28,1.83
		L516.89,398.73z M521.42,348.24c4.69-0.65,8.49-1.93,11.38-3.85c2.89-1.92,4.34-4.04,4.34-6.39c0-3.39-1.53-6.06-4.59-8.03
		c-3.06-1.97-7.32-3.02-12.77-3.17L521.42,348.24z"/>
	<path class="st3" d="M665.79,341.97l-15.66,10.08c5.2,4.73,9.05,9.7,11.54,14.9c2.49,5.2,3.74,10.89,3.74,17.07
		c0,4.68-0.75,9.11-2.23,13.29c-1.49,4.18-3.66,7.92-6.51,11.2c-4.11,4.83-9.04,8.54-14.78,11.13c-5.75,2.59-11.93,3.88-18.56,3.88
		c-10.44,0-19.01-3.32-25.7-9.97c-6.69-6.65-10.03-15.05-10.03-25.21c0-6.82,1.27-13.36,3.81-19.61
		c2.54-6.25,6.38-12.31,11.54-18.19l-15.73-3.66l36.48-4.93c-2.73,3.64-4.8,7.36-6.23,11.17c-1.43,3.81-2.14,7.53-2.14,11.17
		c0,4.33,0.84,7.71,2.52,10.12c1.68,2.42,4,3.62,6.98,3.62c3.48,0,6.33-1.43,8.55-4.3c2.22-2.86,3.33-6.56,3.33-11.09
		c0-2.84-0.44-5.45-1.32-7.84c-0.88-2.39-2.24-4.73-4.09-7.02L665.79,341.97z"/>
	<path class="st3" d="M750.34,342.56l-9.94,47.43c-2.94-4.28-6.12-7.47-9.56-9.56c-3.44-2.09-7.19-3.14-11.26-3.14
		c-5.2,0-9.47,2-12.8,6.01c-3.33,4.01-5,9.1-5,15.27c0,3.88,0.78,7.53,2.33,10.94c1.55,3.41,4.09,7.01,7.61,10.79l-40.32,2.54
		l7.17-7.02l3.52-66.03l-9.94-4.93l31.83-2.02l-5.28,17.03c4.74-5.87,9.26-10.23,13.55-13.07c4.3-2.84,8.54-4.26,12.74-4.26
		c3.4,0,6.52,0.83,9.37,2.5c2.85,1.67,5.26,4.05,7.23,7.13L750.34,342.56z"/>
	<path class="st3" d="M831,343.83l-9.25,6.12c2.89,11.4,5.07,21.85,6.54,31.33c1.47,9.48,2.2,17.84,2.2,25.06
		c0,15.48-3.22,27.52-9.66,36.11c-6.44,8.59-15.46,12.88-27.08,12.88c-4.87,0-9.66-0.67-14.37-2.02c-4.72-1.34-9.59-3.44-14.62-6.27
		l-8.99,8.74l13.02-31.82c3.73,5.03,7.66,8.84,11.79,11.43c4.13,2.59,8.4,3.88,12.8,3.88c4.99,0,9.29-2.44,12.89-7.32
		c3.61-4.88,5.41-10.65,5.41-17.33c0-2.59-0.24-5.09-0.72-7.51c-0.48-2.41-1.23-4.87-2.23-7.36c-3.73,7.12-7.86,12.35-12.39,15.68
		c-4.53,3.34-9.77,5-15.73,5c-7.88,0-14.49-3.56-19.81-10.68s-7.99-15.96-7.99-26.52c0-12.15,2.81-22.19,8.43-30.14
		c5.62-7.94,12.68-11.91,21.2-11.91c4.7,0,9.28,1.42,13.74,4.26c4.47,2.84,8.86,7.12,13.18,12.85l-5.79-17.1L831,343.83z
		 M788.72,356.83c-1.09,1.44-1.92,3.04-2.48,4.78c-0.57,1.74-0.85,3.61-0.85,5.6c0,4.28,1.22,8.03,3.65,11.24
		c2.43,3.21,5.2,4.82,8.3,4.82c1.55,0,3.03-0.38,4.43-1.16c1.4-0.77,2.86-2,4.37-3.7c-2.39-5.63-5.01-10.21-7.86-13.74
		C795.43,361.14,792.25,358.52,788.72,356.83z"/>
	<path class="st3" d="M918.32,423.08l-5.66-12.4c-5.58,4.18-11.15,7.3-16.73,9.34c-5.58,2.04-11.34,3.06-17.3,3.06
		c-11.62,0-20.92-3.42-27.9-10.27c-6.98-6.85-10.47-15.92-10.47-27.22c0-5.97,0.95-11.74,2.86-17.29c1.91-5.55,4.6-10.39,8.08-14.53
		c3.35-3.98,7.24-7,11.67-9.04c4.42-2.04,9.3-3.06,14.62-3.06c10.19,0,18.6,2.61,25.22,7.84c6.63,5.23,9.94,11.8,9.94,19.72
		c0,7.97-3.05,14.64-9.15,20.02s-13.74,8.07-22.93,8.07c-2.26,0-4.38-0.21-6.35-0.63c-1.97-0.42-3.86-1.06-5.66-1.91
		c3.94,3.19,7.81,5.54,11.61,7.06c3.79,1.52,7.71,2.28,11.73,2.28c4.91,0,9.41-1.29,13.52-3.88c4.11-2.59,7.63-6.35,10.57-11.28
		L918.32,423.08z M855.73,369.83c1.34,1.3,2.91,2.3,4.72,3.02c1.8,0.72,3.65,1.08,5.54,1.08c3.31,0,6.02-1.14,8.11-3.44
		c2.1-2.29,3.15-5.23,3.15-8.81c0-1.74-0.21-3.31-0.63-4.71c-0.42-1.39-1.07-2.71-1.95-3.96c-4.49,0.8-8.31,2.6-11.48,5.41
		C860.02,361.25,857.53,365.05,855.73,369.83z"/>
	<path class="st3" d="M1000.6,342.56l-9.94,47.43c-2.94-4.28-6.12-7.47-9.56-9.56c-3.44-2.09-7.19-3.14-11.26-3.14
		c-5.2,0-9.47,2-12.8,6.01c-3.33,4.01-5,9.1-5,15.27c0,3.88,0.78,7.53,2.33,10.94c1.55,3.41,4.09,7.01,7.61,10.79l-40.32,2.54
		l7.17-7.02l3.52-66.03l-9.94-4.93l31.83-2.02l-5.28,17.03c4.74-5.87,9.26-10.23,13.55-13.07c4.3-2.84,8.54-4.26,12.74-4.26
		c3.4,0,6.52,0.83,9.37,2.5c2.85,1.67,5.26,4.05,7.23,7.13L1000.6,342.56z"/>
</g>
</svg>
