<?xml version="1.0" encoding="utf-8"?>
<!-- Generator: Adobe Illustrator 22.0.0, SVG Export Plug-In . SVG Version: 6.00 Build 0)  -->
<svg version="1.1" id="Layer_1" xmlns="http://www.w3.org/2000/svg" xmlns:xlink="http://www.w3.org/1999/xlink" x="0px" y="0px"
	 viewBox="0 0 2000 2000" style="enable-background:new 0 0 2000 2000;" xml:space="preserve">
<style type="text/css">
	.st0{display:none;fill:none;stroke:#000000;stroke-width:0.25;stroke-miterlimit:10;}
	.st1{fill:#D81F26;}
</style>
<rect x="1225.5" y="1225.1" class="st0" width="149" height="149.8"/>
<path class="st1" d="M668.6,929L279.7,540.1c-39.1-39.1-39.1-102.5,0-141.5l122.9-122.9c39.1-39.1,102.5-39.1,141.5,0l387,387
	c39.1,39.1,102.5,39.1,141.5,0l383-383c39.1-39.1,102.5-39.1,141.5,0l121.2,121.2c39.1,39.1,39.1,102.5,0,141.5l-385.2,385.2
	c-39.1,39.1-39.1,102.5,0,141.5l387.2,387.2c39.1,39.1,39.1,102.5,0,141.5l-122.4,122.4c-39.1,39.1-102.5,39.1-141.5,0l-384.6-384.6
	c-39.1-39.1-102.5-39.1-141.5,0l-388.7,388.7c-39.1,39.1-102.5,39.1-141.5,0l-118.4-118.4c-38.8-38.8-39.1-101.7-0.6-140.9
	l388.2-395C707.7,1030.8,707.4,967.9,668.6,929z"/>
</svg>
