<?xml version="1.0" encoding="utf-8"?>
<!-- Generator: Adobe Illustrator 19.0.0, SVG Export Plug-In . SVG Version: 6.00 Build 0)  -->
<svg version="1.1" xmlns="http://www.w3.org/2000/svg" xmlns:xlink="http://www.w3.org/1999/xlink" x="0px" y="0px"
	 viewBox="0 0 2000 2000" style="enable-background:new 0 0 2000 2000;" xml:space="preserve">
<style type="text/css">
	.st0{display:none;}
	.st1{display:inline;fill:#FFFFFF;stroke:#201600;stroke-miterlimit:10;}
	.st2{fill:#201600;}
	.st3{fill:none;stroke:#201600;stroke-width:50;stroke-miterlimit:10;}
</style>
<g id="Ref" class="st0">
	<rect id="XMLID_1_" class="st1" width="2000" height="2000"/>
</g>
<g id="Layer_3">
	<path id="XMLID_18_" class="st2" d="M1042,360h-84c-15.2,0-24.7,16.4-17.1,29.6l42,72.8c7.6,13.1,26.5,13.1,34.1,0l42-72.8
		C1066.7,376.4,1057.2,360,1042,360z M1000,436.6c-11.3,0-20.5-9.2-20.5-20.5c0-11.3,9.2-20.5,20.5-20.5s20.5,9.2,20.5,20.5
		C1020.5,427.4,1011.3,436.6,1000,436.6z"/>
	<path id="XMLID_14_" class="st3" d="M1360,408.5v1183c0,26.8-21.7,48.5-48.5,48.5h-623c-26.8,0-48.5-21.7-48.5-48.5v-1183
		c0-26.8,21.7-48.5,48.5-48.5h623C1338.3,360,1360,381.7,1360,408.5z"/>
</g>
</svg>
