<?xml version="1.0" encoding="utf-8"?>
<!-- Generator: Adobe Illustrator 22.0.0, SVG Export Plug-In . SVG Version: 6.00 Build 0)  -->
<svg version="1.1" id="Recycle" xmlns="http://www.w3.org/2000/svg" xmlns:xlink="http://www.w3.org/1999/xlink" x="0px" y="0px"
	 viewBox="0 0 1000 1000" style="enable-background:new 0 0 1000 1000;" xml:space="preserve">
<style type="text/css">
	.st0{fill:#00B70B;}
</style>
<path id="Tturn" class="st0" d="M738.1,235.2l-62.9,119.2c-1.7,3.2-5.1,5.1-8.7,4.9L542.6,353c-3.8-0.2-6.6-2.4-7.9-5.3
	c-0.3-0.5-0.5-1.1-0.6-1.7c-0.4-1.6-0.4-3.2,0-4.8c0.1-0.6,0.4-1.1,0.6-1.6c0.8-1.6,2-2.9,3.8-3.9l18.6-10.6c4.5-2.5,6-8.3,3.4-12.7
	l-25.7-43.9c0-0.1-0.1-0.1-0.1-0.2c-0.2-0.3-0.4-0.6-0.6-0.9c-3.3-4.8-8.8-7.7-14.6-7.7h-38.4c-6.3,0-12.2,3.4-15.4,8.8L404,377.4
	c-4.7,8.4-15.9,11-25,5.8l-119.2-67.5c-9.1-5.1-12.6-16.1-7.8-24.4l37.7-67.1c46-81.9,128.1-122.8,210.1-122.5h0.2
	c11.4,0,22.8,0.9,34.1,2.5c0.2,0,0.4,0.1,0.6,0.1c68.6,10.1,133.4,49.5,172.8,118.2c1.7,3,4.8,4.6,8,4.6c1.6,0,3.2-0.4,4.7-1.3
	l5.1-3C733.3,218.1,742.5,226.9,738.1,235.2z"/>
<path id="Rturn" class="st0" d="M908.1,660c-13.1,114.4-108.6,213.7-239,213.7c-3.4,0-6.4,1.9-8,4.7c-0.8,1.4-1.2,3-1.2,4.7l0.1,5.9
	c0.1,9.3-12.1,12.9-17.1,5.1l-72.2-113.8c-1.9-3-1.9-6.9,0-10l67.1-104.4c5-7.8,17.1-4.2,17,5l-0.1,21.4c0,5.2,4.2,9.3,9.4,9.3
	L715,701c6.3-0.1,12.1-3.5,15.2-8.9l18.4-32.1l0.7-1.3c3.1-5.5,3.1-12.2,0-17.7l-63.9-107.6c-4.9-8.2-1.6-19.3,7.3-24.6l117.8-69.9
	c9-5.3,20.2-2.9,25.1,5.3l39.5,66C904.1,558.5,913.8,610.7,908.1,660z"/>
<path id="Lturn" class="st0" d="M425.5,721.9l-0.9,137c-0.1,10.4-7.9,18.8-17.5,18.7l-76.9-0.2C198.7,877,102.9,775.7,91.5,660
	c-1.7-16.8-1.5-33.9,0.5-51c3.8-32.3,14.6-64.8,33.1-95.6c1.7-2.9,1.7-6.5,0.1-9.2c-0.8-1.4-1.9-2.6-3.4-3.4l-5.1-3
	c-8-4.7-4.8-17,4.5-17.2l134.7-3.2c3.6-0.1,6.9,1.9,8.5,5.2l54.9,111.3c4.1,8.3-5.2,16.8-13.1,12L288,594.7
	c-4.4-2.7-10.2-1.2-12.8,3.2l-6.5,11.1l-19.3,32.7c-3.2,5.4-3.3,12.2-0.2,17.7l0.3,0.6l18.4,33c3.1,5.5,8.9,9,15.2,9.1l125.2,0.8
	C417.9,703,425.6,711.5,425.5,721.9z"/>
</svg>
