<?xml version="1.0" encoding="utf-8"?>
<!-- Generator: Adobe Illustrator 22.0.0, SVG Export Plug-In . SVG Version: 6.00 Build 0)  -->
<svg version="1.1" id="Router" xmlns="http://www.w3.org/2000/svg" xmlns:xlink="http://www.w3.org/1999/xlink" x="0px" y="0px"
	 viewBox="0 0 1000 1000" style="enable-background:new 0 0 1000 1000;" xml:space="preserve">
<style type="text/css">
	.st0{fill:#FFFFFF;}
</style>
<path id="BODY" d="M962.5,693.2c0,22.7-9.2,43.2-24.1,58.1c-14.9,14.9-35.4,24.1-58.1,24.1H119.6c-45.3,0-82.1-36.8-82.1-82.1
	c0-22.7,9.2-43.2,24.1-58.1c14.8-14.8,35.1-23.9,57.6-24.1h761.3C925.8,611.1,962.5,647.9,962.5,693.2z"/>
<g id="DOTS">
	<path id="_x31__1_" class="st0" d="M410.4,693.2c0,9.6-7.8,17.4-17.4,17.4c-9.6,0-17.4-7.8-17.4-17.4s7.8-17.4,17.4-17.4
		C402.6,675.8,410.4,683.6,410.4,693.2z"/>
	<path id="_x34__1_" class="st0" d="M624.4,693.2c0,9.6-7.8,17.4-17.4,17.4c-9.6,0-17.4-7.8-17.4-17.4s7.8-17.4,17.4-17.4
		C616.6,675.8,624.4,683.6,624.4,693.2z"/>
	<path id="_x32__1_" class="st0" d="M481.7,693.2c0,9.6-7.8,17.4-17.4,17.4c-9.6,0-17.4-7.8-17.4-17.4s7.8-17.4,17.4-17.4
		C473.9,675.8,481.7,683.6,481.7,693.2z"/>
	<path id="_x33__1_" class="st0" d="M553.1,693.2c0,9.6-7.8,17.4-17.4,17.4c-9.6,0-17.4-7.8-17.4-17.4s7.8-17.4,17.4-17.4
		C545.3,675.8,553.1,683.6,553.1,693.2z"/>
</g>
<g id="Antenna">
	<g id="WIFI">
		<path id="_x34_" d="M516.7,555.3l-1.2,1.1c-12.7,11.3-32.8,10.9-45-0.9l-1.1-1.1c-19.2-18.7-5.2-49.7,22.6-49.9c0.2,0,0.4,0,0.6,0
			c1.3,0,2.5,0,3.7,0.1C524.2,505.6,536.8,537.4,516.7,555.3z"/>
		<path id="_x33_" d="M567.8,477.9L567.8,477.9c-10.4,9.3-26.1,11.1-38.8,4.6c-11.2-5.7-24-9-37.6-9c-12.5,0-24.3,2.7-34.8,7.6
			c-12.9,6-28.5,3.5-38.4-6.2l0,0c-15.3-14.9-10.7-39.3,9.1-48.5c19.3-9,41.1-14,64.1-14c25.2,0,48.9,6,69.5,16.6
			C580.4,439,583.9,463.6,567.8,477.9z"/>
		<path id="_x32_" d="M617,395.5l-3.4,3c-10.3,9.2-26.3,10.1-37.7,2.2c-23.9-16.4-53.4-26.2-85.4-26.2c-29.7,0-57.3,8.4-80.2,22.7
			c-11.9,7.4-27.7,6-37.6-3.6l-3.4-3.3c-12.5-12.2-10.3-31.9,4.7-41.4c33.2-21,73.3-33.3,116.5-33.3c46.4,0,89.3,14.2,123.9,38.2
			C628.8,364,630.1,383.9,617,395.5z"/>
		<path id="_x31_" d="M658.9,320.9L658.9,320.9c-10.7,9.5-27.3,10.2-38.7,1.5c-35.7-27-81.2-43.2-130.8-43.2
			c-46.3,0-89,14.1-123.5,38c-11.9,8.2-28.5,6.9-38.7-3.1l0,0c-12.2-11.8-10.5-30.9,3.6-40.7c44.3-30.6,99.2-48.8,158.6-48.8
			c63.5,0,121.9,20.7,167.6,55.3C670.8,290.3,671.8,309.5,658.9,320.9z"/>
	</g>
	<path id="L" d="M209,246.5v375.1c0,4.4-2.9,7.9-6.4,7.9h-35.7c-3.5,0-6.4-3.5-6.4-7.9c-1.7-193.3-1.5-331,0.5-346.1
		c1.4-10.6,5-20.5,5-20.5c2.1-5.9,5-12.2,9.4-18.3c3.8-5.3,6.7-9.2,11.6-11c1-0.4,5.8-2.2,10.4,0C204.2,229,209,237.3,209,246.5z"/>
	<path id="R" d="M840.7,246.5v375.1c0,4.4-2.9,7.9-6.4,7.9h-35.7c-3.5,0-6.4-3.5-6.4-7.9c-1.7-193.3-1.5-331,0.5-346.1
		c1.4-10.6,5-20.5,5-20.5c2.1-5.9,5-12.2,9.4-18.3c3.8-5.3,6.7-9.2,11.6-11c1-0.4,5.8-2.2,10.4,0C835.9,229,840.7,237.3,840.7,246.5
		z"/>
</g>
</svg>
