<?xml version="1.0" encoding="utf-8"?>
<!-- Generator: Adobe Illustrator 22.0.0, SVG Export Plug-In . SVG Version: 6.00 Build 0)  -->
<svg version="1.1" id="Layer_1" xmlns="http://www.w3.org/2000/svg" xmlns:xlink="http://www.w3.org/1999/xlink" x="0px" y="0px"
	 viewBox="0 0 1000 1000" style="enable-background:new 0 0 1000 1000;" xml:space="preserve">
<style type="text/css">
	.st0{fill:#BB3300;}
	.st1{fill:#454545;}
	.st2{opacity:0.1;}
</style>
<path class="st0" d="M750.8,550.3c0,41.1-6.6,80.3-18.6,116.1C705,747.6,628.6,802,543,802h-79.2c-85.6,0-162-54.4-189.2-135.6
	c-12-35.8-18.6-75-18.6-116.1c0-36.8,5.3-72,15-104.7c25.1-84.6,103.1-142.3,191.4-142.3h82.1c88.2,0,166.3,57.8,191.4,142.3
	C745.5,478.2,750.8,513.5,750.8,550.3z"/>
<path class="st1" d="M591.8,266.8H421.5c-19.5,0-26-49.5-8.5-65.9c27-25.5,56.3-40.3,87-42.2c2.2-0.1,4.5-0.2,6.7-0.2
	c33.2,0,64.8,15.1,93.7,42.4C617.8,217.3,611.4,266.8,591.8,266.8z"/>
<path class="st1" d="M168.6,278L168.6,278c-14.6,14.6-14.6,38.4,0,53l23.4,23.4c14.6,14.6,38.4,14.6,53,0l0,0
	c14.6-14.6,14.6-38.4,0-53L221.6,278C207,263.3,183.2,263.3,168.6,278z"/>
<path class="st1" d="M92.6,549.3L92.6,549.3c0,20.7,16.8,37.5,37.5,37.5h33.1c20.7,0,37.5-16.8,37.5-37.5v0
	c0-20.7-16.8-37.5-37.5-37.5H130C109.3,511.8,92.6,528.6,92.6,549.3z"/>
<path class="st1" d="M168.6,820.6L168.6,820.6c14.6,14.6,38.4,14.6,53,0l23.4-23.4c14.6-14.6,14.6-38.4,0-53l0,0
	c-14.6-14.6-38.4-14.6-53,0l-23.4,23.4C154,782.2,154,805.9,168.6,820.6z"/>
<path class="st1" d="M831.4,331L808,354.4c-14.6,14.6-38.4,14.6-53,0l0,0c-14.6-14.6-14.6-38.4,0-53l23.4-23.4
	c14.6-14.6,38.4-14.6,53,0l0,0C846,292.6,846,316.3,831.4,331z"/>
<path class="st1" d="M907.5,549.3L907.5,549.3c0,20.7-16.8,37.5-37.5,37.5h-38.1c-17.9,0-32.5-14.5-32.5-32.5v-10
	c0-17.9,14.5-32.5,32.5-32.5H870C890.7,511.8,907.5,528.6,907.5,549.3z"/>
<path class="st1" d="M835,817l-7.1,7.1c-12.7,12.7-33.2,12.7-45.9,0l-30.5-30.5c-12.7-12.7-12.7-33.2,0-45.9l7.1-7.1
	c12.7-12.7,33.2-12.7,45.9,0l30.5,30.5C847.6,783.8,847.6,804.3,835,817z"/>
<path class="st2" d="M591.8,266.8H505c-2.8,0-5-2.2-5-5v-98.2c0-2.8,2.2-5,5-5c0.6,0,1.1,0,1.7,0c33.2,0,64.8,15.1,93.7,42.4
	C617.8,217.3,611.4,266.8,591.8,266.8z"/>
<path class="st2" d="M750.8,550.3c0,41.1-6.6,80.3-18.6,116.1C705,747.6,628.6,802,543,802h-38c-2.8,0-5-2.2-5-5V308.3
	c0-2.8,2.2-5,5-5h39.4c88.2,0,166.3,57.8,191.4,142.3C745.5,478.2,750.8,513.5,750.8,550.3z"/>
<path class="st2" d="M835,771.1c12.7,12.7,12.7,33.2,0,45.9l-7.1,7.1c-12.7,12.7-33.2,12.7-45.9,0l-30.5-30.5
	c-12.7-12.7-12.7-33.2,0-45.9l7.1-7.1c12.7-12.7,33.2-12.7,45.9,0L835,771.1z"/>
<path class="st2" d="M755,354.4c-14.6-14.6-14.6-38.4,0-53l23.4-23.4c14.6-14.6,38.4-14.6,53,0l0,0c14.6,14.6,14.6,38.4,0,53
	L808,354.4C793.4,369,769.6,369,755,354.4L755,354.4z"/>
<path class="st2" d="M907.5,549.3L907.5,549.3c0,20.7-16.8,37.5-37.5,37.5h-38.1c-17.9,0-32.5-14.5-32.5-32.5v-10
	c0-17.9,14.5-32.5,32.5-32.5H870C890.7,511.8,907.5,528.6,907.5,549.3z"/>
</svg>
