<?xml version="1.0" encoding="utf-8"?>
<!-- Generator: Adobe Illustrator 22.0.0, SVG Export Plug-In . SVG Version: 6.00 Build 0)  -->
<svg version="1.1" id="Layer_2" xmlns="http://www.w3.org/2000/svg" xmlns:xlink="http://www.w3.org/1999/xlink" x="0px" y="0px"
	 viewBox="0 0 1000 1000" style="enable-background:new 0 0 1000 1000;" xml:space="preserve">
<style type="text/css">
	.st0{fill:#E1E1E1;}
	.st1{opacity:0.1;}
	.st2{fill:#FFFFFF;}
</style>
<path class="st0" d="M888,500c0,214.3-173.7,388-388,388c-3,0-6,0-9-0.1C280.9,883.1,112,711.3,112,500s168.9-383.1,379-387.9
	c3-0.1,6-0.1,9-0.1C714.3,112,888,285.7,888,500z"/>
<ellipse transform="matrix(0.7071 -0.7071 0.7071 0.7071 -12.8178 554.305)" class="st1" cx="662.7" cy="292.6" rx="54.6" ry="69.8"/>
<ellipse transform="matrix(0.7071 -0.7071 0.7071 0.7071 -12.8178 554.305)" class="st2" cx="662.7" cy="292.6" rx="46.5" ry="59.5"/>
<path class="st1" d="M888,500c0,214.3-173.7,388-388,388c-3,0-6,0-9-0.1V112.1c3-0.1,6-0.1,9-0.1C714.3,112,888,285.7,888,500z"/>
<ellipse transform="matrix(0.7071 -0.7071 0.7071 0.7071 -218.2908 292.0684)" class="st1" cx="243.4" cy="409.5" rx="38.8" ry="49.6"/>
<ellipse transform="matrix(0.7071 -0.7071 0.7071 0.7071 -218.2908 292.0684)" class="st2" cx="243.4" cy="409.5" rx="33" ry="42.2"/>
<ellipse transform="matrix(0.7071 -0.7071 0.7071 0.7071 -191.9932 534.9551)" class="st1" cx="549.8" cy="499.2" rx="25.2" ry="32.2"/>
<ellipse transform="matrix(0.7071 -0.7071 0.7071 0.7071 -191.9932 534.9551)" class="st2" cx="549.8" cy="499.2" rx="20.3" ry="25.9"/>
<ellipse transform="matrix(0.7071 -0.7071 0.7071 0.7071 -133.6467 675.1408)" class="st1" cx="748.1" cy="498.9" rx="28.6" ry="36.5"/>
<ellipse transform="matrix(0.7071 -0.7071 0.7071 0.7071 -133.6467 675.1408)" class="st2" cx="748.1" cy="498.9" rx="23" ry="29.3"/>
<ellipse transform="matrix(0.7071 -0.7071 0.7071 0.7071 -316.9799 656.5577)" class="st1" cx="634" cy="710.9" rx="30.5" ry="39"/>
<ellipse transform="matrix(0.7071 -0.7071 0.7071 0.7071 -316.9799 656.5577)" class="st2" cx="634" cy="710.9" rx="26" ry="33.2"/>
<ellipse transform="matrix(0.7071 -0.7071 0.7071 0.7071 -402.6152 436.7326)" class="st1" cx="325.9" cy="704.4" rx="57.3" ry="73.2"/>
<ellipse transform="matrix(0.7071 -0.7071 0.7071 0.7071 -402.6152 436.7326)" class="st2" cx="325.9" cy="704.4" rx="49.8" ry="63.7"/>
<ellipse transform="matrix(0.7071 -0.7071 0.7071 0.7071 -262.5102 454.1252)" class="st1" cx="416.9" cy="543.9" rx="20.4" ry="26.1"/>
<ellipse transform="matrix(0.7071 -0.7071 0.7071 0.7071 -262.5102 454.1252)" class="st2" cx="416.9" cy="543.9" rx="16.4" ry="20.9"/>
<ellipse transform="matrix(0.7071 -0.7071 0.7071 0.7071 -71.6122 369.2537)" class="st1" cx="409.9" cy="271.1" rx="21.9" ry="27.9"/>
<ellipse transform="matrix(0.7071 -0.7071 0.7071 0.7071 -71.2467 369.1023)" class="st2" cx="409.9" cy="270.6" rx="16.4" ry="20.9"/>
</svg>
