<?xml version="1.0" encoding="utf-8"?>
<!-- Generator: Adobe Illustrator 19.0.0, SVG Export Plug-In . SVG Version: 6.00 Build 0)  -->
<svg version="1.1" xmlns="http://www.w3.org/2000/svg" xmlns:xlink="http://www.w3.org/1999/xlink" x="0px" y="0px"
	 viewBox="0 0 1000 1000" style="enable-background:new 0 0 1000 1000;" xml:space="preserve">
<style type="text/css">
	.st0{display:none;}
	.st1{display:inline;fill:#FFFFFF;}
	.st2{fill:#201600;}
	.st3{fill:#08E800;}
	.st4{fill:#0023FD;}
	.st5{fill:#F94900;}
	.st6{fill:none;stroke:#201600;stroke-width:10;stroke-miterlimit:10;}
	.st7{display:none;fill:#201600;}
	.st8{font-family:'TheJukeBox-FFP';}
	.st9{font-size:74.8909px;}
</style>
<g id="Layer_1">
	<g id="Layer_3" class="st0">
		<rect id="BG" y="0" class="st1" width="1000" height="1000"/>
	</g>
	<path id="S2" class="st2" d="M297.9,680.6c1.4,0,2.4,1.3,2.1,2.6l-6.5,27.7c-0.1,0.3-0.2,0.7-0.2,1c-0.2,1-1.1,1.6-2.1,1.6h-28.8
		c-1.7,0-2.7-1.9-1.7-3.3l19.8-28.6c0.4-0.6,1-0.9,1.7-0.9H297.9z"/>
	<path id="S1" class="st2" d="M702.1,680.6c-1.4,0-2.4,1.3-2.1,2.6l6.5,27.7c0.1,0.3,0.2,0.7,0.2,1c0.2,1,1.1,1.6,2.1,1.6h28.8
		c1.7,0,2.7-1.9,1.7-3.3l-19.8-28.6c-0.4-0.6-1-0.9-1.7-0.9H702.1z"/>
	<rect id="G" x="593.4" y="323.6" class="st3" width="189.6" height="361.2"/>
	<rect id="B" x="400.3" y="319.6" class="st4" width="193.1" height="361.2"/>
	<rect id="R" x="212.2" y="319.6" class="st5" width="188.2" height="361.2"/>
	<path id="BEZEL" class="st6" d="M776.5,680.6H223.5c-6.2,0-11.3-5.1-11.3-11.3V330.7c0-6.2,5.1-11.3,11.3-11.3h553.1
		c6.2,0,11.3,5.1,11.3,11.3v338.6C787.8,675.5,782.8,680.6,776.5,680.6z"/>
	<text id="TV_x5F_TEXT" transform="matrix(3.0661 0 0 1 661.9932 413.6349)" class="st7 st8 st9">TV</text>
</g>
<g id="Layer_2">
	<rect id="DASH_1_" x="660.1" y="351.1" class="st2" width="96" height="4.3"/>
	<rect id="DASH" x="660.1" y="409.4" class="st2" width="96" height="4.3"/>
	<polygon id="Tv" class="st2" points="660.1,359.2 660.1,364.4 672.6,364.4 672.6,406.1 691,406.1 691,364.8 701,364.8 715,406.1 
		737.8,406.1 753.4,359.2 734.3,359.2 726.4,393.4 718.9,359.2 	"/>
</g>
</svg>
