<?xml version="1.0" encoding="utf-8"?>
<!-- Generator: Adobe Illustrator 22.0.0, SVG Export Plug-In . SVG Version: 6.00 Build 0)  -->
<svg version="1.1" id="Layer_1" xmlns="http://www.w3.org/2000/svg" xmlns:xlink="http://www.w3.org/1999/xlink" x="0px" y="0px"
	 viewBox="0 0 1000 1000" style="enable-background:new 0 0 1000 1000;" xml:space="preserve">
<style type="text/css">
	.st0{fill:#00B70B;}
</style>
<g id="LeftRight">
	<g>
		<path class="st0" d="M755.6,604.3c0,10.1-8.2,18.3-18.3,18.3h-88.4v70.8h52.4c10.1,0,18.3,8.2,18.3,18.3
			c0,10.1-8.2,18.3-18.3,18.3h-52.5V270h52.5c10.1,0,18.3,8.2,18.3,18.3c0,10.1-8.2,18.3-18.3,18.3h-52.4v64.7h88.4
			c10.1,0,18.3,8.2,18.3,18.3s-8.2,18.3-18.3,18.3h-88.4v70.8h52.4c10.1,0,18.3,8.2,18.3,18.3c0,10.1-8.2,18.3-18.3,18.3h-52.4v70.8
			h88.4C747.3,586.1,755.5,594.3,755.6,604.3z"/>
	</g>
	<g>
		<path class="st0" d="M244.3,397.1c0-10.1,8.2-18.3,18.3-18.3h88.4V308h-52.4c-10.1,0-18.3-8.2-18.3-18.3
			c0-10.1,8.2-18.3,18.3-18.3h52.5v460h-52.5c-10.1,0-18.3-8.2-18.3-18.3c0-10.1,8.2-18.3,18.3-18.3h52.4v-64.7h-88.4
			c-10.1,0-18.3-8.2-18.3-18.3s8.2-18.3,18.3-18.3h88.4v-70.8h-52.4c-10.1,0-18.3-8.2-18.3-18.3c0-10.1,8.2-18.3,18.3-18.3h52.4
			v-70.8h-88.4C252.5,415.3,244.3,407.1,244.3,397.1z"/>
	</g>
</g>
<g id="TopBottom">
	<g>
		<path class="st0" d="M534.4,856.9V803h36.6v53.9c0,11.6-8.2,21.1-18.3,21.1S534.4,868.6,534.4,856.9z"/>
		<path class="st0" d="M428.9,889.6V803h36.6v86.6c0,10.1-8.2,18.3-18.3,18.3C437.1,907.9,428.9,899.7,428.9,889.6z"/>
	</g>
	<g>
		<path class="st0" d="M465.6,144.5v53.9h-36.6v-53.9c0-11.6,8.2-21.1,18.3-21.1C457.4,123.5,465.6,132.9,465.6,144.5z"/>
		<path class="st0" d="M571.1,111.9v86.6h-36.6v-86.6c0-10.1,8.2-18.3,18.3-18.3S571.1,101.8,571.1,111.9z"/>
	</g>
</g>
<path id="Body" class="st0" d="M658.6,271.4c-4.1-46.6-41.3-83.6-87.9-87.5v-0.4H428.6v0.4c-43.2,3.9-78.1,36.3-85.9,78.2l-1.6,9.3
	V723c0,50.3,38.4,91.5,87.5,96v0.3h142.1V819c6.6-0.5,13-1.8,19.1-3.6c0.1,0,0.1,0,0.2-0.1c37.2-11,65.1-44,68.6-83.9h0.2v-460
	H658.6z M613.7,632.4c0,23.8-8.6,45.6-22.9,62.4c-9.8,11.5-22.3,20.7-36.5,26.6c-11.4,4.7-23.9,7.3-37,7.3h-34.6
	c-15.3,0-29.8-3.6-42.7-10c-15.3-7.6-28.3-19.1-37.7-33.2c-10.1-15.2-16-33.5-16-53.2V369.8c0.2-28.1,12.5-53.3,31.9-70.8
	c8.6-7.7,18.6-14,29.6-18.2c10.8-4.2,22.6-6.5,34.9-6.5h34.6c13.1,0,25.6,2.6,37,7.3c14.2,5.9,26.7,15.1,36.5,26.6
	c14.3,16.8,22.9,38.6,22.9,62.4V632.4z"/>
<g id="Dots">
	
		<ellipse id="Dot_2_" transform="matrix(0.1602 -0.9871 0.9871 0.1602 29.6145 825.6077)" class="st0" cx="500" cy="395.4" rx="26.6" ry="26.6"/>
	<circle id="Dot_1_" class="st0" cx="500" cy="501.7" r="26.6"/>
	
		<ellipse id="Dot" transform="matrix(0.9239 -0.3827 0.3827 0.9239 -194.6113 237.623)" class="st0" cx="500" cy="608" rx="26.6" ry="26.6"/>
</g>
</svg>
