<?xml version="1.0" encoding="utf-8"?>
<!-- Generator: Adobe Illustrator 22.0.0, SVG Export Plug-In . SVG Version: 6.00 Build 0)  -->
<svg version="1.1" id="Chip" xmlns="http://www.w3.org/2000/svg" xmlns:xlink="http://www.w3.org/1999/xlink" x="0px" y="0px"
	 viewBox="0 0 1000 1000" style="enable-background:new 0 0 1000 1000;" xml:space="preserve">
<style type="text/css">
	.st0{fill:#00B70B;}
	.st1{fill:#663300;}
</style>
<g>
	<path class="st0" d="M878.9,96.5c3.5-0.2,5.4,4,2.8,6.4c-52.5,49.3-98,105.6-148.9,156.5c-24.3,24.2-50,47.4-79.3,65.2
		c-29.3,17.8-62.5,30.2-96.8,31.3c-14.7,0.5-29.1-1-43.3-3.9c-16.5-3.3-26.2-20.5-20.7-36.4C498,300.2,504.4,285,511,270
		c15.4-35.5,32.4-71.5,60.4-98.2c38.6-36.7,93.2-51,145.8-59.3C770.7,104,824.8,100.1,878.9,96.5z"/>
	<path class="st0" d="M82.1,160.3c-3.5,0.2-4.9,4.6-2.1,6.7c57.8,43,109.4,93.7,165.8,138.5c26.9,21.3,55,41.4,86.2,55.7
		c31.1,14.4,65.5,22.9,99.7,20.1c14.7-1.2,28.8-4.3,42.5-8.8c16-5.2,23.7-23.3,16.4-38.5c-7-14.8-15.2-29.2-23.4-43.4
		c-19.4-33.5-40.3-67.4-71.2-90.7c-42.6-32.1-98.4-40-151.6-42.3C190.3,155.4,136.2,157.7,82.1,160.3z"/>
	<path class="st0" d="M490.5,842.2L490.5,842.2c-22,0-36.7-20.7-27.8-39.1c23.4-48.5,49-120.5,51.1-209.6
		c2.3-100-26.1-180.4-51.1-232.2c-8.9-18.4,5.9-38.9,27.8-38.9h0c11.9,0,22.7,6.4,27.7,16.3c25.8,51.8,60.8,141.9,57.9,256.8
		c-2.5,101.5-33.5,181.4-58,230.5C513.3,835.9,502.5,842.2,490.5,842.2z"/>
	<path class="st0" d="M933.6,386.1c3.5-0.2,5.4,4,2.8,6.4c-52.5,49.3-98,105.6-148.9,156.5c-24.3,24.2-50,47.4-79.3,65.2
		c-29.3,17.8-62.5,30.2-96.8,31.3c-14.7,0.5-29.1-1-43.3-3.9c-16.5-3.3-26.2-20.5-20.7-36.4c5.3-15.5,11.7-30.7,18.3-45.7
		c15.4-35.5,32.4-71.5,60.4-98.2c38.6-36.7,93.2-51,145.8-59.3C825.4,393.5,879.5,389.6,933.6,386.1z"/>
	<path class="st0" d="M113.5,445.6c-3.5,0.2-4.9,4.6-2.1,6.7c57.8,43,109.4,93.7,165.8,138.5c26.9,21.3,55,41.4,86.2,55.7
		c31.1,14.4,65.5,22.9,99.7,20.1c14.7-1.2,28.8-4.3,42.5-8.8c16-5.2,23.7-23.3,16.4-38.5c-7-14.8-15.2-29.2-23.4-43.4
		c-19.4-33.5-40.3-67.4-71.2-90.7c-42.6-32.1-98.4-40-151.6-42.3C221.8,440.7,167.6,443,113.5,445.6z"/>
</g>
<path id="Soil" class="st1" d="M921.5,835L921.5,835c0,37.8-30.7,68.5-68.5,68.5H180.3c-36.1,0-65.4-29.3-65.4-65.4v-0.7
	c0-19.5,11.1-37.4,28.7-45.7c14.4-6.8,31-10.7,48.6-10.7c33.3,0,62.9,13.9,81.4,35.4h0c18.5-21.5,48.1-35.4,81.4-35.4
	c33.8,0,63.8,14.4,82.3,36.4c18.5-22.1,48.4-36.4,82.3-36.4c33.3,0,62.8,13.9,81.4,35.4c18.6-21.5,48.1-35.4,81.4-35.4
	c33.9,0,63.8,14.4,82.3,36.4c18.4-22.1,48.4-36.4,82.3-36.4c16.3,0,31.7,3.3,45.4,9.3C910,797.9,921.5,815.5,921.5,835z"/>
</svg>
