<?xml version="1.0" encoding="utf-8"?>
<!-- Generator: Adobe Illustrator 22.0.0, SVG Export Plug-In . SVG Version: 6.00 Build 0)  -->
<svg version="1.1" xmlns="http://www.w3.org/2000/svg" xmlns:xlink="http://www.w3.org/1999/xlink" x="0px" y="0px"
	 viewBox="0 0 2000 2000" style="enable-background:new 0 0 2000 2000;" xml:space="preserve">
<style type="text/css">
	.st0{fill:#9B9190;stroke:#E2E2E2;stroke-width:13;stroke-miterlimit:10;}
	.st1{fill:#C88962;stroke:#E2E2E2;stroke-width:13;stroke-miterlimit:10;}
	.st2{fill:#1A1C29;stroke:#E2E2E2;stroke-width:13;stroke-miterlimit:10;}
	.st3{fill:#5EAF61;stroke:#E2E2E2;stroke-width:13;stroke-miterlimit:10;}
	.st4{fill:#FFFFFF;}
</style>
<g id="Layer_1">
	<path id="TIP" class="st0" d="M1535.5,1069h-68c-17.6,0-32-14.4-32-32v-85c0-17.6,14.4-32,32-32h68c24.8,0,45,20.3,45,45v59
		C1580.5,1048.8,1560.3,1069,1535.5,1069z"/>
	<path id="ORG_x5F_BAND" class="st1" d="M1330.5,784.5H1481c24.8,0,45,20.3,45,45v341c0,24.8-20.3,45-45,45h-150.6V784.5z"/>
	<path id="BLK_x5F_BAND" class="st2" d="M1330.5,1215.5h-866c-24.8,0-45-20.3-45-45v-341c0-24.8,20.3-45,45-45h866V1215.5z"/>
	<rect id="G_x5F_BAND" x="1252.5" y="784.5" class="st3" width="78" height="431"/>
	
		<rect id="POS_1_" x="1383.7" y="989" transform="matrix(2.922622e-11 1 -1 2.922622e-11 2428.2332 -428.2332)" class="st4" width="89" height="22"/>
	
		<rect id="POS" x="1383.7" y="989" transform="matrix(-1 7.404687e-11 -7.404687e-11 -1 2856.4663 2000)" class="st4" width="89" height="22"/>
	
		<rect id="POS_2_" x="476.2" y="989" transform="matrix(-1 7.404687e-11 -7.404687e-11 -1 1041.4762 2000)" class="st4" width="89" height="22"/>
</g>
<g id="AAA">
	<path id="A_6_" class="st4" d="M800.7,1022.3l-3.5-10.9l-22.9-72.2l-15.8,0.3h-32.9l-22.5,71.9l-8.4,26.8l-7.1,22.6h33.4l7.1-22.6
		h37.6l7.2,22.6h40L800.7,1022.3z M736.6,1011.4l10.3-32.9l0-0.1l0.5,1.7l9.9,31.2H736.6z"/>
	<path id="A_2_" class="st4" d="M928.4,1022.3l-3.5-10.9L902,939.2l-15.8,0.3h-32.9l-22.5,71.9l-8.4,26.8l-7.1,22.6h33.4l7.1-22.6
		h37.6l7.2,22.6h40L928.4,1022.3z M864.2,1011.4l10.3-32.9l0-0.1l0.5,1.7l9.9,31.2H864.2z"/>
	<path id="A_1_" class="st4" d="M1057.8,1022.3l-3.5-10.9l-22.9-72.2l-15.8,0.3h-32.9l-22.5,71.9l-8.4,26.8l-7.1,22.6h33.4l7.1-22.6
		h37.6l7.2,22.6h40L1057.8,1022.3z M993.6,1011.4l10.3-32.9l0-0.1l0.5,1.7l9.9,31.2H993.6z"/>
</g>
</svg>
