<?xml version="1.0" encoding="utf-8"?>
<!-- Generator: Adobe Illustrator 22.0.0, SVG Export Plug-In . SVG Version: 6.00 Build 0)  -->
<svg version="1.1" id="Fuel" xmlns="http://www.w3.org/2000/svg" xmlns:xlink="http://www.w3.org/1999/xlink" x="0px" y="0px"
	 viewBox="0 0 1000 1000" style="enable-background:new 0 0 1000 1000;" xml:space="preserve">
<style type="text/css">
	.st0{fill:#00B70B;}
	.st1{fill:#FFFFFF;}
</style>
<g id="Fuel_1_">
	<path id="Body" class="st0" d="M598.6,163.2v742.3H172.4V163.2c0-61.5,49.9-111.4,111.4-111.4h203.4
		C548.7,51.9,598.6,101.7,598.6,163.2z"/>
	<path id="Bottom" class="st0" d="M651,948.1H120c-30.2,0-46.3-36.6-25.1-58.1c0.1-0.2,0.3-0.3,0.4-0.4c12.2-12.2,29-19.8,47.7-19.8
		h485c18.6,0,35.5,7.6,47.7,19.8c0.2,0.1,0.3,0.3,0.4,0.4C697.3,911.6,681.1,948.1,651,948.1z"/>
	<path id="Box_1_" class="st1" d="M526.5,243.5v192.8c0,40.7-33,73.7-73.7,73.7H318.2c-40.7,0-73.7-33-73.7-73.7V243.5
		c0-40.7,33-73.7,73.7-73.7h134.5C493.5,169.8,526.5,202.8,526.5,243.5z"/>
	<path id="Drop" class="st0" d="M385.5,444.1h-0.2c-29.9,0-50.5-6-63.9-16.1c-4.2-3.1-7.7-6.6-10.6-10.5
		c-42.7-56.8,50.6-185.9,61.9-193.9c4.4-3.1,9-4.4,12.6-4.5c0.1,0,0.1,0,0.2,0c3.6,0,8.4,1.3,12.8,4.5c4.1,2.9,19.1,22,34.5,47.7
		c2.9,4.9,5.9,10.1,8.8,15.4C476.8,352,502.9,444.1,385.5,444.1z"/>
	<path id="Electtric" class="st1" d="M374.8,413.4v-56.2c0-0.8-0.6-1.4-1.4-1.4h-17.7c-1,0-1.7-1.1-1.2-2l39-76.8
		c0.7-1.3,2.6-0.8,2.6,0.6v56.2c0,0.8,0.6,1.4,1.4,1.4h17.7c1,0,1.7,1.1,1.2,2l-39,76.8C376.8,415.3,374.8,414.9,374.8,413.4z"/>
</g>
<g id="Handle_1_">
	<path id="Handle" class="st0" d="M914.7,323.5v356.7c0,61.5-49.9,111.4-111.4,111.4h-25.4c-55.6,0-100.8-45.1-100.8-100.8V604
		c0-44.2-34.8-80.4-78.5-82.5c-1.3,0-2.7-0.1-4.1-0.1c-8.2,0-15.6-3.3-21-8.7c-5.4-5.4-8.7-12.8-8.7-21v-1.2
		c0-16.4,13.3-29.7,29.7-29.7c1.4,0,2.7,0,4.1,0c78.2,2.2,141,66.3,141,145.1v82.8c0,23.3,19,42.2,42.3,42.2h7.4
		c34,0,61.6-27.6,61.6-61.6V410.1c0-16.4-13.3-29.7-29.7-29.7c-22,0-41.9-8.9-56.3-23.3c-14.4-14.4-23.3-34.4-23.3-56.3V160.2
		c0-7.9-3.2-15.4-8.7-21l-11.7-11.7c-18.7-18.7-5.4-50.6,21-50.6c7.8,0,15.4,3.1,20.9,8.6l90.4,90.4c5.8,5.8,11.2,11.9,16.2,18.2
		c0.9,1.2,1.8,2.3,2.6,3.4C899.7,233.7,914.7,277.8,914.7,323.5z"/>
	<circle id="circle" class="st1" cx="828.3" cy="285" r="48.7"/>
</g>
</svg>
