<?xml version="1.0" encoding="utf-8"?>
<!-- Generator: Adobe Illustrator 22.0.0, SVG Export Plug-In . SVG Version: 6.00 Build 0)  -->
<svg version="1.1" id="Layer_3" xmlns="http://www.w3.org/2000/svg" xmlns:xlink="http://www.w3.org/1999/xlink" x="0px" y="0px"
	 viewBox="0 0 1000 1000" style="enable-background:new 0 0 1000 1000;" xml:space="preserve">
<style type="text/css">
	.st0{fill:#FFCC99;}
	.st1{fill:#1CA3EC;}
	.st2{fill:#FFFFFF;}
</style>
<path id="hand" class="st0" d="M587.3,542.8c-4.9,0.1-13.7,0.4-24.6,0.8c-47.2,1.7-135.4,5.7-135.4,5.7c-22.1,0-40.3,16.5-43,37.8
	c-0.3,1.9-0.4,3.7-0.4,5.6v0.4c0,18.3,7.4,34.9,19.4,46.8c12,12,28.6,19.4,46.9,19.4c11.8,0,21.6,4.6,28.7,11.7
	c0.5,0.5,1.1,1.1,1.5,1.6c19.4,21.7,3.3,56.3-25.8,56.7l-51.1,0.7c-16.7,0.2-32.8-6.3-44.6-18.2L167.9,521
	c-9.7-9.7-22.6-14.6-35.3-14.6c-12.8,0-25.6,4.9-35.3,14.6c-23.8,23.8-23.8,62.3,0,86l176,176c18.3,18.2,38.4,34.4,60,48.3
	c21.6,13.9,44.7,25.5,68.8,34.5l10.4,3.8c17.1,6.4,56.7,16.8,97.9,26.6c12.5,3,31.2,5.3,52.4,7.1c11.8,1,24.4,1.8,37.1,2.5
	c53.8,2.8,223.8-36.9,259.8-66.4c35-28.7,56.9-63,60.5-99.8c0.4-4.3,0.6-8.6,0.5-13C918.6,621.7,769.4,539.4,587.3,542.8z"/>
<path id="Drop_x28_Compund_x29_" class="st1" d="M694.8,227H476.8c-10.5,20.3-20.4,41.8-28.5,63.5h275
	C715.2,268.8,705.3,247.3,694.8,227z M736.7,333.5H434.9c-5.4,22-8.1,43.5-7.1,63.5h315.9C744.8,377.1,742.1,355.5,736.7,333.5z
	 M448.1,457.5c5.3,7,11.8,13.5,19.5,19.3c24.8,18.5,62.7,29.6,117.8,29.6h0.7c85.5-0.1,129.7-26.7,147.8-66.3h-296
	C440.6,446.2,444,452,448.1,457.5z M609.4,100c-8.2-5.9-16.9-8.3-23.6-8.3c-0.1,0-0.3,0-0.4,0h0c-6.6,0.1-15.2,2.5-23.2,8.3
	c-7.4,5.3-33.7,38.5-61.2,84h169.6C643.1,138.6,616.8,105.3,609.4,100z"/>
<path class="st2" d="M694.8,227H476.8c7.8-15.1,16-29.6,24.2-43h169.6c0.8,1.3,1.6,2.6,2.4,4c5.4,9,10.9,18.6,16.2,28.4
	C691,219.9,692.9,223.4,694.8,227z"/>
<path class="st2" d="M736.7,333.5H434.9c3.5-14.2,8.1-28.7,13.4-43h275C728.7,304.9,733.2,319.3,736.7,333.5z"/>
<path class="st2" d="M743.8,397.1c-0.8,15.4-4,29.9-9.9,43h-296c-6-13.1-9.1-27.6-9.9-43H743.8z"/>
</svg>
