<?xml version="1.0" encoding="utf-8"?>
<!-- Generator: Adobe Illustrator 19.0.0, SVG Export Plug-In . SVG Version: 6.00 Build 0)  -->
<svg version="1.1" xmlns="http://www.w3.org/2000/svg" xmlns:xlink="http://www.w3.org/1999/xlink" x="0px" y="0px"
	 viewBox="0 0 2000 2000" style="enable-background:new 0 0 2000 2000;" xml:space="preserve">
<style type="text/css">
	.st0{display:none;}
	.st1{display:inline;fill:#FFFFFF;stroke:#201600;stroke-miterlimit:10;}
	.st2{fill:none;stroke:#201600;stroke-width:10;stroke-miterlimit:10;}
	.st3{fill:#F9F9F9;stroke:#201600;stroke-width:10;stroke-miterlimit:10;}
</style>
<g id="Ref" class="st0">
	<rect id="XMLID_1_" class="st1" width="2000" height="2000"/>
</g>
<g id="Layer_3">
	<path id="Body" class="st2" d="M1360,375v1250c0,8.3-6.7,15-15,15H655c-8.3,0-15-6.7-15-15V375c0-8.3,6.7-15,15-15h690
		C1353.3,360,1360,366.7,1360,375z"/>
	<rect id="Camera" x="1047" y="263" class="st2" width="138" height="97"/>
	<path id="camera" class="st2" d="M1116,335L1116,335c-12.9,0-23.5-10.6-23.5-23.5v0c0-12.9,10.6-23.5,23.5-23.5l0,0
		c12.9,0,23.5,10.6,23.5,23.5v0C1139.5,324.4,1128.9,335,1116,335z"/>
</g>
<g id="Bottom">
	<path id="XMLID_5_" class="st2" d="M1348.9,1640H651.1c-6.1,0-11.1-5-11.1-11.1V1571h720v57.9C1360,1635,1355,1640,1348.9,1640z"/>
	<path id="TypeC" class="st2" d="M1043,1619.5h-86c-6.6,0-12-5.4-12-12v-4c0-6.6,5.4-12,12-12h86c6.6,0,12,5.4,12,12v4
		C1055,1614.1,1049.6,1619.5,1043,1619.5z"/>
	<circle id="_x33_.5mm" class="st3" cx="1270" cy="1605.3" r="16.7"/>
	<circle id="XMLID_10_" class="st3" cx="795.2" cy="1605.6" r="2.8"/>
	<circle id="XMLID_11_" class="st3" cx="768.2" cy="1605.6" r="2.8"/>
	<circle id="XMLID_9_" class="st3" cx="741.2" cy="1605.6" r="2.8"/>
	<circle id="XMLID_8_" class="st3" cx="714.2" cy="1605.6" r="2.8"/>
</g>
</svg>
