<?xml version="1.0" encoding="utf-8"?>
<!-- Generator: Adobe Illustrator 22.0.0, SVG Export Plug-In . SVG Version: 6.00 Build 0)  -->
<svg version="1.1" xmlns="http://www.w3.org/2000/svg" xmlns:xlink="http://www.w3.org/1999/xlink" x="0px" y="0px"
	 viewBox="0 0 2000 2000" style="enable-background:new 0 0 2000 2000;" xml:space="preserve">
<style type="text/css">
	.st0{display:none;}
	.st1{display:inline;fill:#FFFFFF;stroke:#201600;stroke-miterlimit:10;}
	.st2{fill:none;stroke:#201600;stroke-width:20;stroke-miterlimit:10;}
	.st3{fill:#201600;}
</style>
<g id="Ref" class="st0">
	<rect id="XMLID_1_" class="st1" width="2000" height="2000"/>
</g>
<g id="Layer_3">
	<path id="Body" class="st2" d="M1360,409v1182c0,27.1-21.9,49-49,49H689c-27.1,0-49-21.9-49-49V409c0-27.1,21.9-49,49-49h622
		C1338.1,360,1360,381.9,1360,409z"/>
	<path id="camera" class="st2" d="M1116,335L1116,335c-12.9,0-23.5-10.6-23.5-23.5v0c0-12.9,10.6-23.5,23.5-23.5l0,0
		c12.9,0,23.5,10.6,23.5,23.5v0C1139.5,324.4,1128.9,335,1116,335z"/>
	<path class="st2" d="M1047,360v-95c0-1.1,0.9-2,2-2h134c1.1,0,2,0.9,2,2v95"/>
</g>
<g id="Bottom">
	<path id="XMLID_2_" class="st3" d="M1065,1622.6H934.1c-5.5,0-9.9-4.4-9.9-9.9l0,0c0-5.5,4.4-9.9,9.9-9.9H1065
		c5.5,0,9.9,4.4,9.9,9.9l0,0C1074.9,1618.1,1070.4,1622.6,1065,1622.6z"/>
	<path id="XMLID_5_" class="st3" d="M839,1622.6H708.2c-5.5,0-9.9-4.4-9.9-9.9l0,0c0-5.5,4.4-9.9,9.9-9.9H839c5.5,0,9.9,4.4,9.9,9.9
		l0,0C848.9,1618.1,844.5,1622.6,839,1622.6z"/>
	<path id="XMLID_3_" class="st3" d="M1291.8,1622.6H1161c-5.5,0-9.9-4.4-9.9-9.9l0,0c0-5.5,4.4-9.9,9.9-9.9h130.8
		c5.5,0,9.9,4.4,9.9,9.9l0,0C1301.8,1618.1,1297.3,1622.6,1291.8,1622.6z"/>
</g>
</svg>
