<?xml version="1.0" encoding="utf-8"?>
<!-- Generator: Adobe Illustrator 22.0.0, SVG Export Plug-In . SVG Version: 6.00 Build 0)  -->
<svg version="1.1" xmlns="http://www.w3.org/2000/svg" xmlns:xlink="http://www.w3.org/1999/xlink" x="0px" y="0px"
	 viewBox="0 0 1000 1000" style="enable-background:new 0 0 1000 1000;" xml:space="preserve">
<style type="text/css">
	.st0{fill:#00B70B;}
	.st1{fill:#FF4D07;}
	.st2{fill:#FFFFFF;}
</style>
<g id="Waves">
	<g>
		<path class="st0" d="M955.8,291.6c0,22.8-9.3,43.5-24.2,58.5c-15,15-35.7,24.2-58.5,24.2H127c-45.3,0-82.1-36.4-82.7-81.5
			c0-0.8-0.1-1.5-0.1-2.3c0-42.5,48.3-77,108-77c33.2,0,63,10.7,82.8,27.6c1.3,1.1,2.5,2.2,3.7,3.4c1.2-1.2,2.4-2.3,3.7-3.4
			c19.8-16.8,49.5-27.6,82.8-27.6s63,10.7,82.8,27.6c1.6,1.4,3.2,2.8,4.7,4.3c1.5-1.5,3-2.9,4.6-4.3c19.8-16.8,49.5-27.6,82.8-27.6
			c33.2,0,63,10.7,82.8,27.6c1.3,1.1,2.5,2.2,3.7,3.4c1.2-1.1,2.4-2.3,3.7-3.4c19.8-16.8,49.5-27.6,82.8-27.6s63,10.7,82.8,27.6
			c1.6,1.4,3.2,2.8,4.7,4.3c1.5-1.5,3-2.9,4.6-4.3c19.8-16.8,49.5-27.6,82.8-27.6c59.1,0,107.1,33.9,107.9,75.9c0,0.4,0,0.7,0,1.1v0
			C955.7,290.8,955.8,291.2,955.8,291.6z"/>
		<path class="st0" d="M955.8,703.7c0,22.8-9.3,43.5-24.2,58.5c-15,15-35.7,24.2-58.5,24.2H127c-45.3,0-82.1-36.4-82.7-81.5
			c0-0.8-0.1-1.5-0.1-2.3c0-42.5,48.3-77,108-77c33.2,0,63,10.7,82.8,27.6c1.3,1.1,2.5,2.2,3.7,3.4c1.2-1.2,2.4-2.3,3.7-3.4
			c19.8-16.8,49.5-27.6,82.8-27.6s63,10.7,82.8,27.6c1.6,1.4,3.2,2.8,4.7,4.3c1.5-1.5,3-2.9,4.6-4.3c19.8-16.8,49.5-27.6,82.8-27.6
			c33.2,0,63,10.7,82.8,27.6c1.3,1.1,2.5,2.2,3.7,3.4c1.2-1.1,2.4-2.3,3.7-3.4c19.8-16.8,49.5-27.6,82.8-27.6s63,10.7,82.8,27.6
			c1.6,1.4,3.2,2.8,4.7,4.3c1.5-1.5,3-2.9,4.6-4.3c19.8-16.8,49.5-27.6,82.8-27.6c59.1,0,107.1,33.9,107.9,75.9c0,0.4,0,0.7,0,1.1v0
			C955.7,703,955.8,703.4,955.8,703.7z"/>
	</g>
</g>
<g id="Fishes_1_">
	<g>
		<g>
			<ellipse id="FishBody_11_" class="st1" cx="276.8" cy="455.6" rx="52.8" ry="40.6"/>
			<path id="FishTail_11_" class="st1" d="M304.5,460.4l47.9,27.6c1.3,0.8,3-0.2,3-1.7V431c0-1.6-1.7-2.5-3-1.7l-47.9,27.6
				C303.2,457.7,303.2,459.6,304.5,460.4z"/>
			<circle id="FishEye_11_" class="st2" cx="254.2" cy="448.5" r="8.3"/>
		</g>
		<g>
			<ellipse id="FishBody_10_" class="st1" cx="443.3" cy="458.7" rx="52.8" ry="40.6"/>
			<path id="FishTail_10_" class="st1" d="M471,463.5l47.9,27.6c1.3,0.8,3-0.2,3-1.7v-55.3c0-1.6-1.7-2.5-3-1.7L471,460
				C469.7,460.8,469.7,462.7,471,463.5z"/>
			<circle id="FishEye_10_" class="st2" cx="420.7" cy="451.6" r="8.3"/>
		</g>
		<g>
			<path id="FishTail_9_" class="st1" d="M637.5,464.4l47.9,27.6c1.3,0.8,3-0.2,3-1.7V435c0-1.6-1.7-2.5-3-1.7l-47.9,27.6
				C636.2,461.6,636.2,463.6,637.5,464.4z"/>
			<ellipse id="FishBody_9_" class="st1" cx="609.8" cy="459.5" rx="52.8" ry="40.6"/>
			<circle id="FishEye_9_" class="st2" cx="587.2" cy="452.4" r="8.3"/>
		</g>
		<g>
			<ellipse id="FishBody_8_" class="st1" cx="364.4" cy="540.5" rx="52.8" ry="40.6"/>
			<path id="FishTail_8_" class="st1" d="M392,545.3l47.9,27.6c1.3,0.8,3-0.2,3-1.7v-55.3c0-1.6-1.7-2.5-3-1.7L392,541.8
				C390.7,542.6,390.7,544.5,392,545.3z"/>
			<circle id="FishEye_8_" class="st2" cx="341.8" cy="533.4" r="8.3"/>
		</g>
		<g>
			<ellipse id="FishBody_7_" class="st1" cx="530.9" cy="543.6" rx="52.8" ry="40.6"/>
			<path id="FishTail_7_" class="st1" d="M558.5,548.4l47.9,27.6c1.3,0.8,3-0.2,3-1.7V519c0-1.6-1.7-2.5-3-1.7l-47.9,27.6
				C557.2,545.7,557.2,547.6,558.5,548.4z"/>
			<circle id="FishEye_7_" class="st2" cx="508.3" cy="536.5" r="8.3"/>
		</g>
		<g>
			<ellipse id="FishBody_6_" class="st1" cx="697.4" cy="544.4" rx="52.8" ry="40.6"/>
			<path id="FishTail_6_" class="st1" d="M725,549.3l47.9,27.6c1.3,0.8,3-0.2,3-1.7v-55.3c0-1.6-1.7-2.5-3-1.7L725,545.8
				C723.7,546.5,723.7,548.5,725,549.3z"/>
			<circle id="FishEye_6_" class="st2" cx="674.8" cy="537.3" r="8.3"/>
		</g>
	</g>
</g>
</svg>
