<?xml version="1.0" encoding="utf-8"?>
<!-- Generator: Adobe Illustrator 22.0.0, SVG Export Plug-In . SVG Version: 6.00 Build 0)  -->
<svg version="1.1" id="Layer_1" xmlns="http://www.w3.org/2000/svg" xmlns:xlink="http://www.w3.org/1999/xlink" x="0px" y="0px"
	 viewBox="0 0 1000 1000" style="enable-background:new 0 0 1000 1000;" xml:space="preserve">
<path id="Electric_1_" d="M569,481.5l-69,135.8l-17.9,35.3c-1.5,2.9-5.8,1.8-5.8-1.4V526.1c0-1.7-1.4-3.1-3.1-3.1h-39.4
	c-2.3,0-3.8-2.4-2.8-4.5l69-135.8l17.9-35.3c1.5-2.9,5.8-1.8,5.8,1.4V474c0,1.7,1.4,3.1,3.1,3.1h39.4
	C568.6,477,570.1,479.4,569,481.5z"/>
<g>
	<path d="M724,500c0-259.8-100.3-470.5-224-470.5S276,240.2,276,500s100.3,470.5,224,470.5S724,759.8,724,500z M442.8,116.4
		C463.7,97.4,485.2,87,506,88c93.2,4.6,169.5,239.7,164,431c-3.9,134.8-49.9,298.1-112.9,364.6c-20.9,19-42.4,29.4-63.1,28.4
		c-93.2-4.6-169.5-239.7-164-431C333.9,346.3,379.9,183.1,442.8,116.4C442.8,116.5,442.8,116.4,442.8,116.4z"/>
	<circle cx="384.6" cy="145.4" r="72.5"/>
	<circle cx="615.5" cy="854.6" r="72.5"/>
</g>
<g>
	<path d="M500,276C240.2,276,29.5,376.3,29.5,500S240.2,724,500,724s470.5-100.3,470.5-224S759.8,276,500,276z M116.4,557.2
		C97.4,536.3,87,514.8,88,494c4.6-93.2,239.7-169.5,431-164c134.8,3.9,298.1,49.9,364.6,112.9c19,20.9,29.4,42.4,28.4,63.1
		c-4.6,93.2-239.7,169.5-431,164C346.3,666.1,183.1,620.1,116.4,557.2C116.5,557.2,116.4,557.2,116.4,557.2z"/>
	<circle cx="145.4" cy="615.4" r="72.5"/>
	<circle cx="854.6" cy="384.5" r="72.5"/>
</g>
</svg>
