<?xml version="1.0" encoding="utf-8"?>
<!-- Generator: Adobe Illustrator 22.0.0, SVG Export Plug-In . SVG Version: 6.00 Build 0)  -->
<svg version="1.1" id="Forest" xmlns="http://www.w3.org/2000/svg" xmlns:xlink="http://www.w3.org/1999/xlink" x="0px" y="0px"
	 viewBox="0 0 1000 1000" style="enable-background:new 0 0 1000 1000;" xml:space="preserve">
<g id="left">
	<path id="stem_2_" d="M326.8,757.4c-2.4,8.2-8.7,16.2-17.9,16.2h-55.7c-16.9,0-33.9,0.1-50.8,0c-3.5,0-7-0.1-10.2-1.4
		c-7.4-3-11.9-12.1-13-19.6c-1.4-10.2,2.1-20.2,4.1-30.1c1.9-9,3.8-18.1,5.6-27.1l10.5-50.4c1.5-7.4,3.1-14.8,4.6-22.2l4-19.3
		l0.1-0.5v0c2-9.5,10.4-16.3,20.1-16.3h51.4c9.7,0,18.1,6.8,20.1,16.3l0,0l0.1,0.5l3.8,18.2l4.2,20v0.2c2.4,11.6,4.8,23.2,7.2,34.7
		c3.5,16.9,7,33.8,10.5,50.7C327.3,736.4,329.5,748.1,326.8,757.4z"/>
	<path id="leaves_2_" d="M448.9,498.1c-3.3,3.4-6.9,6.4-10.6,9.2c5,28.7-3.6,59.4-25.8,81.6c-22.4,22.4-53.6,31-82.6,25.6
		c-3.4,5.2-7.5,10.2-12,14.8c-4.6,4.6-9.6,8.7-14.9,12.1c-1.3,0.8-2.6,1.7-4,2.5c-0.3,0.2-0.6,0.4-0.9,0.5
		c-13.2,7.5-27.8,11.5-42.5,12c-0.8,0-1.5,0-2.3,0c-15.8,0.2-31.7-3.7-45.9-11.6c-0.3-0.1-0.6-0.3-0.9-0.5c-1.1-0.6-2.1-1.2-3.1-1.9
		c-5.9-3.6-11.5-8-16.6-13.2c-3.9-3.9-7.4-8-10.5-12.4c-28.4,4.5-58.4-4.1-80.3-26C73.4,568,64.9,536.4,70.8,507
		c-4.6-3.2-8.9-6.8-13-10.8c-36.2-36.2-36.2-94.9,0-131.1c4-4,8.2-7.5,12.7-10.6c-5.2-28.9,3.4-59.7,25.7-82s53.2-30.9,82-25.7
		c3.1-4.5,6.7-8.7,10.7-12.7c17.8-17.8,41.2-26.8,64.5-27.1c0.8,0,1.5,0,2.3,0c23.3,0.4,46.5,9.4,64.2,27.1
		c3.9,3.9,7.4,8.1,10.4,12.4c28.4-4.5,58.4,4.1,80.3,26c22.8,22.8,31.2,54.4,25.4,83.8c4.6,3.2,8.9,6.8,13,10.9
		c18.1,18.1,27.2,41.8,27.2,65.5C476.1,456.3,467.1,480,448.9,498.1z"/>
</g>
<g id="center">
	<path id="stem_1_" d="M641.9,764.9c-1.3,4.4-4.7,8.7-9.7,8.7h-30c-9.1,0-18.3,0.1-27.4,0c-1.9,0-3.8-0.1-5.5-0.8
		c-4-1.6-6.4-6.5-7-10.6c-0.8-5.5,1.1-10.9,2.2-16.2c1-4.9,2-9.8,3-14.6l5.7-27.2c0.8-4,1.7-8,2.5-12l2.2-10.4l0.1-0.3l0,0
		c1.1-5.1,5.6-8.8,10.8-8.8h27.7c5.2,0,9.8,3.7,10.8,8.8v0l0.1,0.3l2,9.8l2.3,10.8v0.1c1.3,6.3,2.6,12.5,3.9,18.7
		c1.9,9.1,3.8,18.2,5.7,27.3C642.1,753.5,643.3,759.9,641.9,764.9z"/>
	<path id="leaves_1_" d="M707.8,625c-1.8,1.8-3.7,3.5-5.7,5c2.7,15.5-1.9,32-13.9,44c-12.1,12.1-28.9,16.7-44.6,13.8
		c-1.8,2.8-4,5.5-6.5,8c-2.5,2.5-5.2,4.7-8,6.5c-0.7,0.4-1.4,0.9-2.2,1.3c-0.2,0.1-0.3,0.2-0.5,0.3c-7.1,4-15,6.2-22.9,6.5
		c-0.4,0-0.8,0-1.2,0c-8.5,0.1-17.1-2-24.8-6.3c-0.2-0.1-0.3-0.2-0.5-0.3c-0.6-0.3-1.1-0.6-1.7-1c-3.2-1.9-6.2-4.3-9-7.1
		c-2.1-2.1-4-4.3-5.7-6.7c-15.3,2.4-31.5-2.2-43.3-14c-12.2-12.3-16.8-29.3-13.6-45.2c-2.5-1.7-4.8-3.7-7-5.8
		c-19.5-19.5-19.5-51.2,0-70.7c2.2-2.2,4.4-4,6.9-5.7c-2.8-15.6,1.8-32.2,13.9-44.2c12-12,28.7-16.7,44.2-13.9
		c1.7-2.4,3.6-4.7,5.8-6.9c9.6-9.6,22.2-14.5,34.8-14.6c0.4,0,0.8,0,1.2,0c12.6,0.2,25.1,5.1,34.6,14.6c2.1,2.1,4,4.4,5.6,6.7
		c15.3-2.4,31.5,2.2,43.3,14c12.3,12.3,16.8,29.3,13.7,45.2c2.5,1.7,4.8,3.7,7,5.9c9.8,9.8,14.7,22.5,14.7,35.3
		C722.4,602.5,717.6,615.2,707.8,625z"/>
</g>
<g id="right">
	<path id="stem" d="M880.7,768c-0.8,2.9-3,5.7-6.3,5.7H855c-5.9,0-11.9,0-17.8,0c-1.2,0-2.4,0-3.6-0.5c-2.6-1-4.2-4.2-4.5-6.9
		c-0.5-3.6,0.7-7.1,1.4-10.5c0.7-3.1,1.3-6.3,2-9.5l3.7-17.6c0.5-2.6,1.1-5.2,1.6-7.8l1.4-6.8l0-0.2l0,0c0.7-3.3,3.6-5.7,7-5.7h18
		c3.4,0,6.3,2.4,7,5.7v0l0,0.2l1.3,6.4l1.5,7v0.1c0.8,4.1,1.7,8.1,2.5,12.1c1.2,5.9,2.4,11.8,3.7,17.7
		C880.9,760.6,881.7,764.7,880.7,768z"/>
	<path id="leaves" d="M923.4,677.2c-1.2,1.2-2.4,2.2-3.7,3.2c1.7,10-1.3,20.8-9,28.5c-7.8,7.8-18.8,10.8-28.9,9
		c-1.2,1.8-2.6,3.6-4.2,5.2c-1.6,1.6-3.4,3-5.2,4.2c-0.5,0.3-0.9,0.6-1.4,0.9c-0.1,0.1-0.2,0.1-0.3,0.2c-4.6,2.6-9.7,4-14.9,4.2
		c-0.3,0-0.5,0-0.8,0c-5.5,0.1-11.1-1.3-16.1-4.1c-0.1,0-0.2-0.1-0.3-0.2c-0.4-0.2-0.7-0.4-1.1-0.7c-2.1-1.3-4-2.8-5.8-4.6
		c-1.4-1.4-2.6-2.8-3.7-4.3c-9.9,1.6-20.4-1.4-28.1-9.1c-7.9-8-10.9-19-8.8-29.3c-1.6-1.1-3.1-2.4-4.5-3.8
		c-12.7-12.7-12.7-33.2,0-45.9c1.4-1.4,2.9-2.6,4.4-3.7c-1.8-10.1,1.2-20.9,9-28.7c7.8-7.8,18.6-10.8,28.7-9c1.1-1.6,2.3-3,3.7-4.4
		c6.2-6.2,14.4-9.4,22.6-9.5c0.3,0,0.5,0,0.8,0c8.2,0.1,16.3,3.3,22.5,9.5c1.4,1.4,2.6,2.8,3.6,4.3c9.9-1.6,20.4,1.4,28.1,9.1
		c8,8,10.9,19,8.9,29.3c1.6,1.1,3.1,2.4,4.5,3.8c6.3,6.3,9.5,14.6,9.5,22.9C933,662.6,929.8,670.9,923.4,677.2z"/>
</g>
</svg>
