<?xml version="1.0" encoding="utf-8"?>
<!-- Generator: Adobe Illustrator 22.0.0, SVG Export Plug-In . SVG Version: 6.00 Build 0)  -->
<svg version="1.1" id="Plastic" xmlns="http://www.w3.org/2000/svg" xmlns:xlink="http://www.w3.org/1999/xlink" x="0px" y="0px"
	 viewBox="0 0 1000 1000" style="enable-background:new 0 0 1000 1000;" xml:space="preserve">
<g>
	<path d="M588.9,132.6v141c0,6.1-6.2,10.3-11.9,8c-1-0.4-2-0.8-3-1.2c-11.3-4.1-23.4-6.3-36.1-6.3h-76.4c-13.7,0-26.8,2.7-38.8,7.6
		c0,0-0.1,0-0.1,0c-5.7,2.3-11.9-1.8-11.9-8V132.8c0-24.8,20.3-45.3,45.3-45.3h87.7C568.6,87.3,588.9,107.8,588.9,132.6z"/>
	<path d="M642.7,361.5v24.9c0,6.1-4.2,11.4-10.2,12.7c-40.7,9.3-85.5,14.5-132.6,14.5s-91.9-5.2-132.6-14.5
		c-5.9-1.4-10.2-6.6-10.2-12.7v-24.9c0-7.7,0.9-15.3,2.5-22.7c2.3-11,6.5-21.2,12-30.4c5-8.6,11.1-16.4,18.3-23
		c0.5-0.5,1.1-1.1,1.8-1.6c5.9-5.2,12.4-9.9,19.2-13.8c4-2.2,7.9-4.1,12-5.8c12-4.9,25.2-7.6,38.8-7.6h76.4
		c12.8,0,24.8,2.3,36.1,6.5c5.2,2,10.1,4.1,14.9,6.8c7,4,13.5,8.5,19.2,13.8c0.5,0.5,1.1,1.1,1.8,1.6c7.2,6.8,13.5,14.6,18.3,23l0,0
		c5.6,9.3,9.5,19.6,12,30.4C641.9,346.2,642.7,353.7,642.7,361.5z"/>
	<path d="M499.9,590.9c45,0,87.9-4.7,127.2-13.3c8.1-1.8,15.7,4.5,15.7,12.8v35.1c0,6.1-4.2,11.4-10.2,12.7
		c-40.7,9.3-85.7,14.5-132.8,14.5c-47.1,0-91.9-5.2-132.6-14.5c-5.9-1.4-10.2-6.6-10.2-12.7v-35.1c0-8.3,7.6-14.5,15.7-12.8
		C412.1,586.1,454.9,590.9,499.9,590.9z"/>
	<path d="M499.9,711.2c45,0,87.9-4.7,127.2-13.3c8.1-1.8,15.7,4.5,15.7,12.8V744c0,6.1-4.2,11.4-10.2,12.7
		C592,766,547,771.2,499.9,771.2c-47.1,0-91.9-5.2-132.6-14.5c-5.9-1.4-10.2-6.6-10.2-12.7v-33.3c0-8.3,7.6-14.5,15.7-12.8
		C412.1,706.4,454.9,711.2,499.9,711.2z"/>
	<path d="M499.9,829.7c45,0,87.9-4.7,127.2-13.3c8.1-1.8,15.7,4.5,15.7,12.8v26.9c0,31.2-25.3,56.5-56.5,56.5H413.6
		c-31.3,0-56.5-25.4-56.5-56.5v-26.9c0-8.3,7.6-14.5,15.7-12.8C412.1,824.9,454.9,829.7,499.9,829.7z"/>
	<path d="M499.9,471.3c45,0,87.9-4.7,127.2-13.3c8.1-1.8,15.7,4.5,15.7,12.8V506c0,6.1-4.2,11.4-10.2,12.7
		C592,528,547,533.2,499.9,533.2c-47.1,0-91.9-5.2-132.6-14.5c-5.9-1.4-10.2-6.6-10.2-12.7v-35.1c0-8.3,7.6-14.5,15.7-12.8
		C412.1,466.6,454.9,471.3,499.9,471.3z"/>
</g>
</svg>
