<?xml version="1.0" encoding="utf-8"?>
<!-- Generator: Adobe Illustrator 22.0.0, SVG Export Plug-In . SVG Version: 6.00 Build 0)  -->
<svg version="1.1" id="Layer_1" xmlns="http://www.w3.org/2000/svg" xmlns:xlink="http://www.w3.org/1999/xlink" x="0px" y="0px"
	 viewBox="0 0 2400 2400" style="enable-background:new 0 0 2400 2400;" xml:space="preserve">
<style type="text/css">
	.st0{fill:#FFFFFF;}
</style>
<g id="Mosquito">
	<rect id="Bg" class="st0" width="2400" height="2400"/>
	<g id="Left_5_">
		<path d="M396.9,1115.7c32.7,75.6,122.6,194.2,198.3,200.3c99.2,8,201.8,14.3,420.8-31c15.8-3.3,44-9.4,76.1-25.3c1-0.5,2-1,3-1.5
			c6.1-3.1,12.3-6.5,18.5-10.3v-99.1c-6.9-1.3-13.8-2.6-20.7-3.8c-0.6-0.1-1.3-0.2-1.9-0.4c-167.2-31-334.3-62.1-501.5-93.1
			c-38.8-7.2-78.6-8.1-117.6-1.8C425.6,1057.2,379.1,1074.8,396.9,1115.7z M505.9,1076.8c31.2-5.1,63.1-4.3,94.2,1.4
			c163.6,30.4,327.2,60.8,490.8,91.2v51.1c-12.1,6.4-27.1,13.3-45.7,20.6c-91.7,36-380,54.1-440.6,49.1
			c-60.6-4.9-132.7-99.9-158.9-160.5C431.6,1096.9,468.8,1082.8,505.9,1076.8z"/>
		<path d="M972.4,1402.8c8.5,58,18.5,115.8,26.9,173.7c2.4,16.5,9.4,33.2-2.4,50.2c-30.2,43.8-57,89.4-88.8,132.3
			c-33.4,45-72.2,86.8-125.6,117.1c-1,0.6-1.7,1.5-2.3,2.5c-3.1,5.8,0.8,12.9,7.2,13.8c3.7,0.6,7,0.7,8.9-0.5
			c23-15.5,46.8-30.7,66.5-49c70.4-65.4,119.9-142.2,163.2-221.9c2.7-4.9,2.8-11.5,1.9-17.1c-9.8-64.7-20.3-129.3-29.9-194
			c-1-6.5,1-14.6,5-20.1c32.7-44.3,66.2-88.3,99.6-132.3v-38.6c-41.5,54.4-82.6,109-123.3,163.8
			C975,1388.6,971.5,1396.5,972.4,1402.8z"/>
		<path d="M667.5,681.2c3.4,2.2,6.8,4.6,10.3,6.8c49.4,32,99.2,63.7,148,96.4c7.9,5.3,14.8,14.3,17.1,22.6
			c16,60,30.3,120.3,46.3,180.3c2.4,8.9,9.3,18.4,17.4,24.6c37.6,29.2,76.4,57.3,114.7,85.8c26.6,19.8,53,39.7,79.5,59.5v-33.3
			c-2.8-1.6-5.7-3.1-8.2-4.9c-55.2-41-110.6-81.8-165.3-123.3c-6.3-4.8-10.6-12.9-12.5-20c-15.8-60.6-30.4-121.4-46.6-181.8
			c-2.4-8.8-9.8-18.1-18.1-23.8c-33.8-23.2-68.8-45.2-103.4-67.6c-20.8-13.4-41.2-27.4-62.8-39.7c-5.4-3.1-18-3.7-22.3-0.6
			C652,669.2,659.5,676,667.5,681.2z"/>
		<path d="M1085.6,1224.3c0.9-0.1,1.7-0.3,2.6-0.4c-54,37.4-109,71.5-163.3,106.5c-6.8,4.4-12.6,12.7-13.9,19.8
			c-12.4,68.3-23.6,136.8-35.8,205.2c-1.1,6.2-4.9,13.3-10.2,17.5c-77.4,60.8-158.3,117.1-260.9,146c-0.8,0.2-1.5,0.6-2.2,1.1
			c-6.2,4.5-4.4,14,2.7,16.6c2.4,0.9,4.8,1.4,6.9,1c13.1-2.3,25.9-6.7,38.3-11.3c92.5-34,168.9-87,240.8-145.3
			c3.8-3.1,6.3-8.5,7.1-13.1c12.1-68.8,23.5-137.7,36.1-206.5c1.3-7.1,7.4-15.2,14.1-19.6c32-21.2,65.1-41.2,97.7-61.7
			c19.2-12.1,38.3-24.2,57-36v-25.1C1096.7,1220.4,1091.1,1221.9,1085.6,1224.3z"/>
	</g>
	<g id="Right_5_">
		<path d="M1928.1,1047.9c-39-6.3-78.8-5.4-117.6,1.8c-167.2,31-334.3,62.1-501.5,93.1c-0.6,0.1-1.3,0.2-1.9,0.4
			c-6.9,1.3-13.8,2.6-20.7,3.8v99.1c6.3,3.8,12.5,7.3,18.5,10.3c1,0.5,2,1,3,1.5c32.1,15.8,60.2,22,76.1,25.3
			c219,45.3,321.6,39.1,420.8,31c75.6-6.1,165.5-124.7,198.3-200.3C2020.9,1073,1974.4,1055.4,1928.1,1047.9z M1954.3,1127.9
			c-26.2,60.6-98.3,155.6-158.9,160.5c-60.6,4.9-348.9-13.1-440.6-49.1c-18.6-7.3-33.6-14.2-45.7-20.5v-51.1
			c163.6-30.4,327.2-60.8,490.8-91.2c31.1-5.8,63-6.5,94.2-1.4C1931.2,1081,1968.4,1095.1,1954.3,1127.9z"/>
		<path d="M1424.1,1401.1c-8.5,58-18.5,115.8-26.9,173.7c-2.4,16.5-9.4,33.2,2.4,50.2c30.2,43.8,57,89.4,88.8,132.3
			c33.4,45,72.2,86.8,125.6,117.1c1,0.6,1.7,1.5,2.3,2.5c3.1,5.8-0.8,12.9-7.2,13.8c-3.7,0.6-7,0.7-8.9-0.5
			c-23-15.5-46.8-30.7-66.5-49c-70.4-65.4-119.9-142.2-163.2-221.9c-2.7-4.9-2.8-11.5-1.9-17.1c9.8-64.7,20.3-129.3,29.9-194
			c1-6.5-1-14.6-5-20.1c-32.7-44.3-66.2-88.3-99.6-132.3v-38.6c41.5,54.4,82.6,109,123.3,163.8
			C1421.5,1386.9,1425,1394.7,1424.1,1401.1z"/>
		<path d="M1729,679.5c-3.4,2.2-6.8,4.6-10.3,6.8c-49.4,32-99.2,63.7-148,96.4c-7.9,5.3-14.8,14.3-17.1,22.6
			c-16,60-30.3,120.3-46.3,180.3c-2.4,8.9-9.3,18.4-17.4,24.6c-37.6,29.2-76.4,57.3-114.7,85.8c-26.6,19.8-53,39.7-79.5,59.5v-33.3
			c2.8-1.6,5.7-3.1,8.2-4.9c55.2-41,110.6-81.8,165.3-123.3c6.3-4.8,10.6-12.9,12.5-20c15.8-60.6,30.4-121.4,46.6-181.8
			c2.4-8.8,9.8-18.1,18.1-23.8c33.8-23.2,68.8-45.2,103.4-67.6c20.8-13.4,41.2-27.4,62.8-39.7c5.4-3.1,18-3.7,22.3-0.6
			C1744.5,667.4,1737.1,674.3,1729,679.5z"/>
		<path d="M1310.9,1222.6c-0.9-0.1-1.7-0.3-2.6-0.4c54,37.4,109,71.5,163.3,106.5c6.8,4.4,12.6,12.7,13.9,19.8
			c12.4,68.3,23.6,136.8,35.8,205.2c1.1,6.2,4.9,13.3,10.2,17.5c77.4,60.8,158.3,117.1,260.9,146c0.8,0.2,1.5,0.6,2.2,1.1
			c6.2,4.5,4.4,14-2.7,16.6c-2.4,0.9-4.8,1.4-6.9,1c-13.1-2.3-25.9-6.7-38.3-11.3c-92.5-34-168.9-87-240.8-145.3
			c-3.8-3.1-6.3-8.5-7.1-13.1c-12.1-68.8-23.5-137.7-36.1-206.5c-1.3-7.1-7.4-15.2-14.1-19.6c-32-21.2-65.1-41.2-97.7-61.7
			c-19.2-12.1-38.3-24.2-57-36v-25.1C1299.8,1218.6,1305.5,1220.2,1310.9,1222.6z"/>
	</g>
	<g id="Body_5_">
		<path d="M1259.2,907.3h-114.6c-5,0-31.9,0.7-53.5,28.8c-13.7,17.8-22.2,42.4-22.2,69.6c0,37.5,16.1,70,39.8,86.6
			c0.6,0.4,1.1,0.8,1.6,1.1c5.6,3.7,11.6,6.5,17.9,8.4c5.3,1.5,10.7,2.3,16.4,2.3h114.6c5.6,0,11.1-0.8,16.4-2.3
			c6.3-1.8,12.3-4.6,17.9-8.4c0.5-0.3,1.1-0.7,1.6-1.1c6.5-4.6,12.4-10.3,17.6-17c13.7-17.8,22.2-42.4,22.2-69.6
			C1334.9,951.4,1301,907.3,1259.2,907.3z M1284.8,1057.7c-2.9,3.7-6.1,7.1-9.5,9.9c-1.6,1.4-3.3,2.6-5.1,3.8
			c-7.6,5-16.3,7.8-25.5,7.8h-85.7c-9.2,0-17.8-2.8-25.5-7.9c-1.8-1.1-3.4-2.4-5.1-3.7c-15.7-13.1-26.1-35.9-26.1-61.9
			c0-34.8,18.6-63.9,43.6-71.6c4.2-1.3,8.5-2,13-2h85.7c2,0,4,0.1,5.9,0.4c28.5,3.8,50.7,35.1,50.7,73.1
			C1301.4,1026,1295,1044.4,1284.8,1057.7z"/>
		<path d="M1310,1130.2V1243c0,6.6-0.7,13-2.1,19.2c-3.3,14.8-10.5,28.1-20.3,39c-5.9,6.5-12.7,12-20.3,16.5
			c-12.8,7.5-27.8,11.9-43.7,11.9h-43.2c-16,0-30.9-4.3-43.8-11.9c-7.6-4.4-14.4-10-20.3-16.5c-9.8-10.8-16.9-24.1-20.3-38.8
			c-1.4-6.2-2.2-12.7-2.2-19.4v-112.8c0-19,6.1-36.5,16.5-50.8c5.6,3.7,11.6,6.5,17.9,8.4c5.3,1.5,10.7,2.3,16.4,2.3h4.3
			c-19.3,14.5-32.3,37-34.2,62.6c-0.2,2.1-0.2,4.3-0.2,6.5v55.6c0,11.7,2.3,23,6.6,33.2c5,12,12.6,22.6,22.1,31.2
			c7.4,6.7,16,12,25.3,15.8c10,4.1,21,6.3,32.5,6.3c11.8,0,23-2.4,33.3-6.7c9.3-3.9,17.9-9.4,25.2-16.1c9.5-8.7,17.1-19.6,21.9-31.7
			c4-9.9,6.1-20.7,6.1-32v-55.6c0-2-0.1-4.1-0.2-6.1c-1.5-21.5-10.8-40.8-25.1-55.1c-2.8-2.8-5.9-5.5-9.1-7.9h6.2
			c5.6,0,11.1-0.8,16.4-2.3c6.3-1.8,12.3-4.6,17.9-8.4C1303.9,1093.7,1310,1111.2,1310,1130.2z"/>
		<path d="M1224.3,920.7h-43.8l17.1-408.4c0.3-6.1,9.3-6.1,9.5,0L1224.3,920.7z"/>
	</g>
</g>
</svg>
