<?xml version="1.0" encoding="utf-8"?>
<!-- Generator: Adobe Illustrator 22.0.0, SVG Export Plug-In . SVG Version: 6.00 Build 0)  -->
<svg version="1.1" id="Layer_1" xmlns="http://www.w3.org/2000/svg" xmlns:xlink="http://www.w3.org/1999/xlink" x="0px" y="0px"
	 viewBox="0 0 1000 1000" style="enable-background:new 0 0 1000 1000;" xml:space="preserve">
<style type="text/css">
	.st0{fill:#2C3135;}
</style>
<g>
	<path d="M505.8,430.3c0-8.2-4.6-15.5-10.8-15.5H391c-4,0-7.6,3.1-9.5,8.2l-28.9,77.5c-3.8,10.3,1.4,22.8,9.5,22.8h131.6
		c7.1,0,12.3-9.7,10.4-19.6l-2-10.3c-3.6-18.9-2.6-39,2.8-57C505.5,434.4,505.8,432.3,505.8,430.3z M479.3,496.2
		c-4.1,5.9-9.8,9.6-16.1,9.6H404c-12.6,0-22.8-14.7-22.8-32.7c0-9,2.6-17.2,6.7-23.2c4.1-5.9,9.8-9.6,16.1-9.6h59.2
		c12.6,0,22.8,14.7,22.8,32.7C486,482,483.4,490.2,479.3,496.2z"/>
	<path d="M376.9,444.2c0.2,0.2,0.3,0.4,0.5,0.6l14.4,12.7l5.7,4.8c4.9,4.1,10,7.9,15.4,11.3l19.1,12c1.8,1.1,4.2,0.9,5.8-0.6l0,0
		c1.7-1.6,2-4.2,0.6-6.2l-3-4.3l-1.4-1.9c-8.6-11.3-12-25.8-9.4-39.7l0,0c0.1-0.5,0.1-1,0.1-1.4l-1.9-16.6l-22,4.9
		c-3.1,0.7-6.1,1.7-9,3.1l-17.8,8.4c-2.8,1.3-3.6,4.9-1.7,7.3L376.9,444.2z"/>
</g>
<path class="st0" d="M-209.7,591.7L-209.7,591.7z"/>
<path d="M73.5,462.5"/>
<path d="M789.3,382.1V403c0,23.4-18.9,42.3-42.3,42.3H461.5c-32.6,0-62.2,18.9-75.9,48.4l-7.5,16c-4.1,8.7-7.8,17.7-11.1,26.7
	l-47.6,129.1c-3.8,10.4-13.8,17.3-24.9,17.3H181.9c-4.4,0-8.4-1.8-11.2-4.6c-2.9-2.9-4.7-6.9-4.7-11.2c0-5,1-10,2.8-14.7l13.9-34.6
	c3.2-7.9,7-15.5,11.4-22.7l22.2-36.2c11.4-18.5,19.9-38.7,25.4-59.7l2.5-9.7c2.5-9.5,1.9-19.4-1.5-28.6l-2.1-5.6
	c-0.2-0.5-0.5-1.2-0.9-1.8c-2.7-4.7-7.5-7.7-12.8-8.6c-20.1-3.3-35.5-20.7-35.5-41.8v-20.9c0-23.4,18.9-42.3,42.3-42.3H747
	C770.4,339.7,789.3,358.7,789.3,382.1z"/>
</svg>
