<?xml version="1.0" encoding="utf-8"?>
<!-- Generator: Adobe Illustrator 22.0.0, SVG Export Plug-In . SVG Version: 6.00 Build 0)  -->
<svg version="1.1" id="Layer_1" xmlns="http://www.w3.org/2000/svg" xmlns:xlink="http://www.w3.org/1999/xlink" x="0px" y="0px"
	 viewBox="0 0 1000 1000" style="enable-background:new 0 0 1000 1000;" xml:space="preserve">
<style type="text/css">
	.st0{fill:#F2F2F2;}
	.st1{opacity:0.1;}
	.st2{fill:#D3D3D3;}
</style>
<g>
	<polygon class="st0" points="647,339 647,372.7 368.3,718.7 368.3,339 	"/>
	<polygon class="st0" points="647,433.7 647,502.9 368.3,848.9 368.3,779.7 	"/>
	<polygon class="st0" points="647,566.8 647,636 439.2,894 397.9,945.3 370,910.6 	"/>
	<polygon class="st0" points="647,699.4 647,768.6 495.2,957 439.5,957 	"/>
	<polygon class="st0" points="647,836.2 647,905.4 605.4,957 549.7,957 	"/>
</g>
<path class="st0" d="M784.6,219.2v48.5c0,15.6-9.3,29.3-22.9,33.6L650,337.6c-2.6,0.8-5.3,1.3-8.1,1.4h0c-0.3,0-0.6,0-0.9,0H374.2
	c-0.3,0-0.6,0-0.9,0c-1.5,0-3-0.2-4.5-0.5c-1.2-0.2-2.4-0.5-3.5-0.9l-111.7-36.2c-13.6-4.4-22.9-18.1-22.9-33.6v-48.5
	c0-7.9,2.4-15.3,6.5-21.3c1.6-2.3,3.4-4.3,5.4-6.1c3.2-2.8,6.8-5,10.9-6.3l111.7-36.2c1.2-0.4,2.3-0.7,3.5-0.9
	c1.8-0.3,3.6-0.5,5.5-0.5H641c0.3,0,0.6,0,0.9,0c2.7,0.1,5.4,0.6,8.1,1.4l111.7,36.2c4.1,1.3,7.7,3.5,10.9,6.3
	c2,1.8,3.8,3.8,5.4,6.1C782.2,203.9,784.6,211.3,784.6,219.2z"/>
<rect x="368.3" y="235.7" class="st1" width="278.8" height="103.3"/>
<path class="st2" d="M778,197.9c-0.2,0.1-0.4,0.1-0.6,0.2l-118.6,36.2c-3.1,1-6.3,1.4-9.5,1.4H366c-3.2,0-6.4-0.5-9.5-1.4
	l-118.6-36.2c-0.2-0.1-0.4-0.1-0.6-0.2c1.6-2.3,3.4-4.3,5.4-6.1c3.2-2.8,6.8-5,10.9-6.3l111.7-36.2c1.2-0.4,2.3-0.7,3.5-0.9
	c1.8-0.3,3.6-0.5,5.5-0.5h266.9c0.3,0,0.6,0,0.9,0c2.7,0.1,5.4,0.6,8.1,1.4l111.7,36.2c4.1,1.3,7.7,3.5,10.9,6.3
	C774.6,193.6,776.4,195.7,778,197.9z"/>
</svg>
