<?xml version="1.0" encoding="utf-8"?>
<!-- Generator: Adobe Illustrator 22.0.0, SVG Export Plug-In . SVG Version: 6.00 Build 0)  -->
<svg version="1.1" id="Layer_2" xmlns="http://www.w3.org/2000/svg" xmlns:xlink="http://www.w3.org/1999/xlink" x="0px" y="0px"
	 viewBox="0 0 1000 1000" style="enable-background:new 0 0 1000 1000;" xml:space="preserve">
<style type="text/css">
	.st0{fill:#00B70B;}
	.st1{fill:#FFCC99;}
</style>
<path id="Electric" class="st0" d="M628.6,324.2l-88.3,173.8l-22.9,45.2c-1.9,3.7-7.5,2.4-7.5-1.8V381.3c0-2.2-1.8-3.9-3.9-3.9
	h-50.4c-2.9,0-4.9-3.1-3.5-5.7l88.3-173.8l22.9-45.2c1.9-3.7,7.5-2.4,7.5,1.8v160.1c0,2.2,1.8,3.9,3.9,3.9H625
	C628,318.5,629.9,321.6,628.6,324.2z"/>
<path id="hand" class="st1" d="M587.3,581.8c-4.9,0.1-13.7,0.4-24.6,0.8c-47.2,1.7-135.4,5.7-135.4,5.7c-22.1,0-40.3,16.5-43,37.8
	c-0.3,1.9-0.4,3.7-0.4,5.6v0.4c0,18.3,7.4,34.9,19.4,46.8c12,12,28.6,19.4,46.9,19.4c11.8,0,21.6,4.6,28.7,11.7
	c0.5,0.5,1.1,1.1,1.5,1.6c19.4,21.7,3.3,56.3-25.8,56.7l-51.1,0.7c-16.7,0.2-32.8-6.3-44.6-18.2L167.9,560
	c-9.7-9.7-22.6-14.6-35.3-14.6c-12.8,0-25.6,4.9-35.3,14.6c-23.8,23.8-23.8,62.3,0,86l176,176c18.3,18.2,38.4,34.4,60,48.3
	c21.6,13.9,44.7,25.5,68.8,34.5l10.4,3.8c17.1,6.4,56.7,16.8,97.9,26.6c12.5,3,31.2,5.3,52.4,7.1c11.8,1,24.4,1.8,37.1,2.5
	c53.8,2.8,223.8-36.9,259.8-66.4c35-28.7,56.9-63,60.5-99.8c0.4-4.3,0.6-8.6,0.5-13C918.6,660.7,769.4,578.4,587.3,581.8z"/>
</svg>
