<?xml version="1.0" encoding="utf-8"?>
<!-- Generator: Adobe Illustrator 22.0.0, SVG Export Plug-In . SVG Version: 6.00 Build 0)  -->
<svg version="1.1" xmlns="http://www.w3.org/2000/svg" xmlns:xlink="http://www.w3.org/1999/xlink" x="0px" y="0px"
	 viewBox="0 0 1000 1000" style="enable-background:new 0 0 1000 1000;" xml:space="preserve">
<style type="text/css">
	.st0{fill:#E6E6E6;stroke:#000000;stroke-width:5;stroke-miterlimit:10;}
	.st1{display:none;fill:#7E91FF;}
	.st2{fill:#7E91FF;stroke:#000000;stroke-width:5;stroke-miterlimit:10;}
	.st3{opacity:7.000000e-02;fill:#040000;stroke:#000000;stroke-miterlimit:10;}
	.st4{fill:#F2F2F2;stroke:#000000;stroke-width:5;stroke-miterlimit:10;}
	.st5{fill:#FFFCFC;stroke:#000000;stroke-width:5;stroke-miterlimit:10;}
	.st6{fill:#1CF300;stroke:#000000;stroke-width:5;stroke-miterlimit:10;}
	.st7{fill:#0000FF;stroke:#000000;stroke-width:5;stroke-miterlimit:10;}
	.st8{fill:#FF0000;stroke:#000000;stroke-width:5;stroke-miterlimit:10;}
	.st9{fill:#D0E300;stroke:#000000;stroke-width:5;stroke-miterlimit:10;}
</style>
<g id="Layer_1">
	<path class="st0" d="M974,501c0,262.3-212.7,475-475,475c-5.6,0-11.1-0.1-16.6-0.3c-9-0.3-17.9-0.9-26.7-1.7
		C213.6,952.1,24,748.7,24,501C24,238.7,236.7,26,499,26c250.4,0,455.5,193.7,473.7,439.4c0.6,8.4,1,17,1.2,25.5
		C974,494.3,974,497.6,974,501z"/>
	<rect x="-1" y="1" class="st1" width="1000" height="1000"/>
	<polygon class="st2" points="55.5,74.5 55.5,74.5 55.5,74.5 55.5,74.5 	"/>
</g>
<g id="Layer_4">
	<path class="st3" d="M974,501c0,262.3-212.7,475-475,475c-5.6,0-11.1-0.1-16.6-0.3c-9-0.3-17.9-0.9-26.7-1.7L263.9,784l-5.3-5.3
		c0,0,0.1-0.1,0.2-0.2c0.1-0.1,0.3-0.3,0.5-0.5c9.9-9.9,135.9-135.2,260.6-259.3c0.3-0.3,0.7-0.7,1-1
		c126.8-126.1,251.9-250.6,251.9-250.6l0.4,0.4l3.3,3.2l8.8,8.7l187.4,186c0.6,8.4,1,17,1.2,25.5C974,494.3,974,497.6,974,501z"/>
	<path id="XMLID_2_" class="st4" d="M716.2,784h-432c-34,0-61.5-27.5-61.5-61.5v-432c0-34,27.5-61.5,61.5-61.5h432
		c34,0,61.5,27.5,61.5,61.5v432C777.7,756.5,750.2,784,716.2,784z"/>
</g>
<g id="Layer_2">
	<g id="Layer_3">
	</g>
	<path id="XMLID_7_" class="st5" d="M401.4,727.8H290.2c-11.4,0-20.6-9.2-20.6-20.6V596c0-11.4,9.2-20.6,20.6-20.6h111.2
		c11.4,0,20.6,9.2,20.6,20.6v111.2C422,718.6,412.8,727.8,401.4,727.8z"/>
	<path id="XMLID_6_" class="st6" d="M401.4,576H290.2c-11.4,0-20.6-9.2-20.6-20.6V444.1c0-11.4,9.2-20.6,20.6-20.6h111.2
		c11.4,0,20.6,9.2,20.6,20.6v111.2C422,566.7,412.8,576,401.4,576z"/>
	<path id="XMLID_3_" class="st7" d="M401.4,423.5H290.2c-11.4,0-20.6-9.2-20.6-20.6V291.7c0-11.4,9.2-20.6,20.6-20.6h111.2
		c11.4,0,20.6,9.2,20.6,20.6v111.2C422,414.3,412.8,423.5,401.4,423.5z"/>
	<path id="XMLID_8_" class="st8" d="M553.9,727.8H442.7c-11.4,0-20.6-9.2-20.6-20.6V596c0-11.4,9.2-20.6,20.6-20.6h111.2
		c11.4,0,20.6,9.2,20.6,20.6v111.2C574.5,718.6,565.3,727.8,553.9,727.8z"/>
	<path id="XMLID_5_" class="st7" d="M553.9,575.9H442.7c-11.4,0-20.6-9.2-20.6-20.6V444.1c0-11.4,9.2-20.6,20.6-20.6h111.2
		c11.4,0,20.6,9.2,20.6,20.6v111.2C574.5,566.7,565.3,575.9,553.9,575.9z"/>
	<path id="XMLID_4_" class="st9" d="M553.9,423.5H442.7c-11.4,0-20.6-9.2-20.6-20.6V291.7c0-11.4,9.2-20.6,20.6-20.6h111.2
		c11.4,0,20.6,9.2,20.6,20.6v111.2C574.5,414.3,565.3,423.5,553.9,423.5z"/>
	<path id="XMLID_11_" class="st6" d="M706.3,727.8H595.1c-11.4,0-20.6-9.2-20.6-20.6V596c0-11.4,9.2-20.6,20.6-20.6h111.2
		c11.4,0,20.6,9.2,20.6,20.6v111.2C726.9,718.6,717.7,727.8,706.3,727.8z"/>
	<path id="XMLID_10_" class="st5" d="M706.3,575.9H595.1c-11.4,0-20.6-9.2-20.6-20.6V444.1c0-11.4,9.2-20.6,20.6-20.6h111.2
		c11.4,0,20.6,9.2,20.6,20.6v111.2C726.9,566.7,717.7,575.9,706.3,575.9z"/>
	<path id="XMLID_9_" class="st8" d="M706.3,423.5H595.1c-11.4,0-20.6-9.2-20.6-20.6V291.7c0-11.4,9.2-20.6,20.6-20.6h111.2
		c11.4,0,20.6,9.2,20.6,20.6v111.2C726.9,414.3,717.7,423.5,706.3,423.5z"/>
</g>
</svg>
