<?xml version="1.0" encoding="utf-8"?>
<!-- Generator: Adobe Illustrator 22.0.0, SVG Export Plug-In . SVG Version: 6.00 Build 0)  -->
<svg version="1.1" id="Layer_1" xmlns="http://www.w3.org/2000/svg" xmlns:xlink="http://www.w3.org/1999/xlink" x="0px" y="0px"
	 viewBox="0 0 2000 2000" style="enable-background:new 0 0 2000 2000;" xml:space="preserve">
<style type="text/css">
	.st0{fill:#C70003;}
	.st1{fill:#0043D7;}
</style>
<path class="st0" d="M1344.7,1600H655.3c-251.5,0-455.3-203.9-455.3-455.3V855.3C200,603.9,403.9,400,655.3,400h689.4
	c251.5,0,455.3,203.9,455.3,455.3v289.4C1800,1396.1,1596.1,1600,1344.7,1600z"/>
<path class="st1" d="M1394.3,1033.4l-382,220.6c-26.2,15.1-59-3.8-59-34.1v-94.6l-224,129.3c-26.2,15.1-59-3.8-59-34V779.4
	c0-30.3,32.8-49.2,59-34l224,129.3v-96c0-30.3,32.8-49.2,59-34.1l382,220.6C1420.6,980.4,1420.6,1018.3,1394.3,1033.4z"/>
</svg>
