<?xml version="1.0" encoding="utf-8"?>
<!-- Generator: Adobe Illustrator 22.0.0, SVG Export Plug-In . SVG Version: 6.00 Build 0)  -->
<svg version="1.1" id="Layer_1" xmlns="http://www.w3.org/2000/svg" xmlns:xlink="http://www.w3.org/1999/xlink" x="0px" y="0px"
	 viewBox="0 0 1000 1000" style="enable-background:new 0 0 1000 1000;" xml:space="preserve">
<style type="text/css">
	.st0{fill:#789042;}
	.st1{fill:#E1EEB9;}
	.st2{opacity:0.5;fill:#789042;}
	.st3{opacity:5.000000e-02;}
</style>
<path class="st0" d="M943.9,292.5v357.2c0,11.2-9.1,20.2-20.2,20.2H106.5c-11.2,0-20.2-9.1-20.2-20.2V292.5
	c0-11.2,9.1-20.2,20.2-20.2h817.2C934.9,272.3,943.9,281.4,943.9,292.5z"/>
<path class="st1" d="M927.2,353.7v234.9c-26.7,0-48.4,21.7-48.4,48.4H151.3c0-26.7-21.7-48.4-48.4-48.4V353.7
	c26.7,0,48.4-21.7,48.4-48.4h727.5C878.8,332,900.5,353.7,927.2,353.7z"/>
<ellipse class="st0" cx="515.1" cy="471.1" rx="102.8" ry="114.3"/>
<ellipse class="st1" cx="515.1" cy="471.1" rx="87.4" ry="97.2"/>
<circle class="st0" cx="255.1" cy="471.1" r="53.8"/>
<circle class="st0" cx="775.1" cy="471.1" r="53.8"/>
<rect x="182.1" y="539.8" class="st2" width="146" height="17.5"/>
<rect x="165.3" y="572.3" class="st2" width="179.6" height="17.5"/>
<rect x="702.1" y="385" transform="matrix(-1 -1.224647e-16 1.224647e-16 -1 1550.1379 787.431)" class="st2" width="146" height="17.5"/>
<rect x="685.3" y="352.5" transform="matrix(-1 -1.224647e-16 1.224647e-16 -1 1550.1379 722.5632)" class="st2" width="179.6" height="17.5"/>
<rect x="516.1" y="272.3" class="st3" width="427.9" height="397.7"/>
<path class="st1" d="M602.5,471.2c0,53.7-39.1,97.2-87.4,97.2c-28.4,0-53.6-15-69.5-38.3c-11.2-16.3-17.9-36.8-17.9-58.9
	c0-53.7,39.2-97.2,87.4-97.2c24.5,0,46.7,11.2,62.6,29.3C593,420.8,602.5,444.7,602.5,471.2z"/>
</svg>
