<?xml version="1.0" encoding="utf-8"?>
<!-- Generator: Adobe Illustrator 22.0.0, SVG Export Plug-In . SVG Version: 6.00 Build 0)  -->
<svg version="1.1" id="Drop_Electric" xmlns="http://www.w3.org/2000/svg" xmlns:xlink="http://www.w3.org/1999/xlink" x="0px"
	 y="0px" viewBox="0 0 1000 1000" style="enable-background:new 0 0 1000 1000;" xml:space="preserve">
<style type="text/css">
	.st0{fill:#00B70B;}
	.st1{fill:#FFFFFF;}
</style>
<path id="Drop_x28_Compund_x29_" class="st0" d="M737.6,323.4c-11.9-22.1-24.1-43.5-36.3-63.7C638,153.4,576,74.9,559,62.8
	c-18.3-13.1-38-18.6-52.9-18.6c-0.3,0-0.6,0-0.9,0.1h0c-14.8,0.2-34.1,5.7-52.1,18.5C406.6,96,21.3,628.8,197.6,863.4
	c11.9,15.8,26.3,30.3,43.6,43.1c55.6,41.4,140.5,66.2,264,66.4h1.5C990.6,972.6,883,592.7,737.6,323.4z"/>
<path id="Electric" class="st1" d="M602,538.8l-95,187l-0.9,1.8l-24.9,49c-2,4-8.1,2.6-8.1-1.9V600.8c0-2.4-1.9-4.3-4.3-4.3H414
	c-3.2,0-5.3-3.4-3.8-6.2l95.9-188.8l0.9-1.8l24-47.3c2-4,8.1-2.6,8.1,1.9v174c0,2.3,1.9,4.3,4.3,4.3h54.8
	C601.4,532.6,603.4,536,602,538.8z"/>
</svg>
