<?xml version="1.0" encoding="utf-8"?>
<!-- Generator: Adobe Illustrator 22.0.0, SVG Export Plug-In . SVG Version: 6.00 Build 0)  -->
<svg version="1.1" id="Layer_2_1_" xmlns="http://www.w3.org/2000/svg" xmlns:xlink="http://www.w3.org/1999/xlink" x="0px" y="0px"
	 viewBox="0 0 1000 1000" style="enable-background:new 0 0 1000 1000;" xml:space="preserve">
<style type="text/css">
	.st0{fill:#393E42;}
	.st1{fill:#F86357;}
	.st2{fill:#00BAE3;}
	.st3{opacity:0.5;fill:#FFFFFF;enable-background:new    ;}
	.st4{fill:#FFF84A;}
</style>
<path class="st0" d="M841.1,661.2c-2.3,41.3-12.1,56.8-22,66c-18.3,17.1-41.7,17-44,17c-21.7-0.4-37.3-13.5-44-19
	c-1.8-1.5-3.2-2.5-4.3-3.4c25.7-20.2,42.2-51.6,42.2-86.8V365c0-3.2-0.1-6.4-0.4-9.5c6.3,10.2,12.9,28.1,21.5,51.7
	c13.7,37.6,21.5,68.3,39,152C838.3,603.3,843,627.5,841.1,661.2z"/>
<path class="st1" d="M769,365v270c0,35.2-16.5,66.6-42.2,86.8c-18.8,14.8-42.5,23.7-68.3,23.7h-55v-491h55
	c57.8,0,105.3,44.4,110.1,101C768.9,358.6,769,361.8,769,365z"/>
<rect x="396.5" y="254.5" class="st0" width="206.9" height="491"/>
<path class="st0" d="M273.2,721.8c-1.1,0.9-2.5,1.9-4.3,3.4c-6.7,5.5-22.3,18.6-44,19c-2.3,0-25.7,0.1-44-17
	c-9.9-9.2-19.7-24.7-22-66c-1.9-33.7,2.8-57.9,12-102c17.5-83.7,25.3-114.4,39-152c8.6-23.6,15.3-41.6,21.5-51.7
	c-0.3,3.1-0.4,6.3-0.4,9.5v270C231,670.2,247.5,701.6,273.2,721.8z"/>
<path class="st2" d="M396.5,254.5v491h-55c-25.8,0-49.5-8.9-68.3-23.7C247.5,701.6,231,670.2,231,635V365c0-3.2,0.1-6.4,0.4-9.5
	c4.8-56.5,52.3-101,110.1-101H396.5z"/>
<g>
	<path class="st0" d="M648.6,324.7h-24.1c-1.9,0-3.4-1.5-3.4-3.4v-6.5c0-1.9,1.5-3.4,3.4-3.4h24.1c1.9,0,3.4,1.5,3.4,3.4v6.5
		C652,323.2,650.5,324.7,648.6,324.7z"/>
	<path class="st0" d="M629.8,330.1V306c0-1.9,1.5-3.4,3.4-3.4h6.5c1.9,0,3.4,1.5,3.4,3.4v24.1c0,1.9-1.5,3.4-3.4,3.4h-6.5
		C631.3,333.5,629.8,332,629.8,330.1z"/>
</g>
<path class="st0" d="M375.5,324.7h-24c-1.9,0-3.5-1.6-3.5-3.5v-6.4c0-1.9,1.6-3.5,3.5-3.5h24c1.9,0,3.5,1.6,3.5,3.5v6.4
	C379,323.1,377.4,324.7,375.5,324.7z"/>
<circle class="st0" cx="313.8" cy="427" r="33"/>
<g>
	<g>
		<circle class="st0" cx="318.1" cy="517.1" r="17.1"/>
		<polygon class="st3" points="318.7,507 310.1,521.9 327.3,521.9 		"/>
	</g>
	<g>
		<circle class="st0" cx="318.1" cy="591.6" r="17.1"/>
		<polygon class="st3" points="317.5,601.7 326.1,586.8 308.9,586.8 		"/>
	</g>
	<g>
		<circle class="st0" cx="354.7" cy="555.5" r="17.1"/>
		<polygon class="st3" points="364.8,556.1 349.9,547.5 349.9,564.7 		"/>
	</g>
	<g>
		<circle class="st0" cx="279.4" cy="556.1" r="17.1"/>
		<polygon class="st3" points="269.3,555.5 284.2,564.1 284.2,546.9 		"/>
	</g>
</g>
<rect x="340.5" y="611.5" class="st0" width="31.3" height="31.3"/>
<circle class="st3" cx="356.1" cy="627.1" r="9.6"/>
<circle class="st0" cx="687.9" cy="556.1" r="33"/>
<circle class="st0" cx="645.3" cy="629.9" r="17.1"/>
<path class="st3" d="M653.5,628.2v9c0,1.4-1.2,2.6-2.6,2.6h-11.1c-1.4,0-2.6-1.2-2.6-2.6v-9c0-0.7,0.3-1.3,0.8-1.8l5.5-5.6
	c1-1,2.7-1,3.7,0l5.5,5.6C653.2,626.8,653.5,627.5,653.5,628.2z"/>
<path class="st3" d="M477.4,548.9h-15c-11.1,0-20.1-9-20.1-20.1v-57.5c0-11.1,9-20.1,20.1-20.1h15c7.3,0,13.3,5.9,13.3,13.3v71.2
	C490.7,542.9,484.7,548.9,477.4,548.9z"/>
<circle class="st0" cx="468.7" cy="479.5" r="9.9"/>
<path class="st3" d="M522.6,451.2h15c11.1,0,20.1,9,20.1,20.1v57.5c0,11.1-9,20.1-20.1,20.1h-15c-7.3,0-13.3-5.9-13.3-13.3v-71.2
	C509.3,457.2,515.3,451.2,522.6,451.2z"/>
<circle class="st0" cx="531.3" cy="520.5" r="9.9"/>
<path class="st4" d="M455.3,861.8c-0.6,0.4-1.2,0.9-1.7,1.4v-1.4H455.3z"/>
<g>
	<g>
		<circle class="st0" cx="690.1" cy="389.8" r="17.1"/>
		<circle class="st3" cx="690.1" cy="389.8" r="9.6"/>
	</g>
	<g>
		<circle class="st0" cx="726.6" cy="428.3" r="17.1"/>
		<circle class="st3" cx="726.6" cy="428.3" r="9.6"/>
	</g>
	<g>
		<circle class="st0" cx="690.1" cy="464.3" r="17.1"/>
		<circle class="st3" cx="690.1" cy="464.3" r="9.6"/>
	</g>
	<g>
		<circle class="st0" cx="651.4" cy="428.3" r="17.1"/>
		<circle class="st3" cx="650.9" cy="428.3" r="9.6"/>
	</g>
</g>
</svg>
