<?xml version="1.0" encoding="utf-8"?>
<!-- Generator: Adobe Illustrator 22.0.0, SVG Export Plug-In . SVG Version: 6.00 Build 0)  -->
<svg version="1.1" xmlns="http://www.w3.org/2000/svg" xmlns:xlink="http://www.w3.org/1999/xlink" x="0px" y="0px"
	 viewBox="0 0 1000 1000" style="enable-background:new 0 0 1000 1000;" xml:space="preserve">
<style type="text/css">
	.st0{display:none;}
	.st1{display:inline;fill:#66FF58;}
	.st2{display:inline;opacity:0.15;fill:#030000;}
	.st3{fill:none;stroke:#000000;stroke-width:8;stroke-miterlimit:10;}
	.st4{opacity:0.22;fill:#FFFFFF;}
</style>
<g id="Layer_1" class="st0">
	<path id="XMLID_37_" class="st1" d="M1000,500c0,248.3-181,454.3-418.2,493.3c-26.6,4.4-53.9,6.7-81.8,6.7
		C223.9,1000,0,776.1,0,500S223.9,0,500,0c263.2,0,478.9,203.4,498.5,461.5C999.5,474.2,1000,487.1,1000,500z"/>
	<path id="XMLID_31_" class="st2" d="M1000,500c0,248.3-181,454.3-418.2,493.3L398,809.8L508,733v-91l-33-33l335.5-335.5l188,188
		C999.5,474.2,1000,487.1,1000,500z"/>
</g>
<g id="Layer_2">
	<path id="XMLID_2_" class="st3" d="M802.4,662H197.6c-6.5,0-11.7-5.2-11.7-11.7V282.4c0-6.5,5.2-11.7,11.7-11.7h604.8
		c6.5,0,11.7,5.2,11.7,11.7v367.9C814.1,656.7,808.9,662,802.4,662z"/>
	<rect id="XMLID_3_" x="488.2" y="662.6" width="23.6" height="49.7"/>
	<path id="XMLID_15_" d="M436.5,720.6l-44.9,53c-13.9,16.4-2.3,41.7,19.3,41.7h178.2c21.6,0,33.2-25.2,19.3-41.7l-44.9-53
		c-4.8-5.7-11.9-8.9-19.3-8.9h-88.4C448.4,711.7,441.3,715,436.5,720.6z"/>
	<circle id="XMLID_14_" class="st4" cx="500" cy="763" r="25.3"/>
</g>
<g id="Layer_4">
</g>
</svg>
