<?xml version="1.0" encoding="utf-8"?>
<!-- Generator: Adobe Illustrator 22.0.0, SVG Export Plug-In . SVG Version: 6.00 Build 0)  -->
<svg version="1.1" id="View" xmlns="http://www.w3.org/2000/svg" xmlns:xlink="http://www.w3.org/1999/xlink" x="0px" y="0px"
	 viewBox="0 0 1000 1000" style="enable-background:new 0 0 1000 1000;" xml:space="preserve">
<style type="text/css">
	.st0{fill:#754C24;}
	.st1{fill:#42210B;}
	.st2{fill:#00B70B;}
</style>
<g id="Axe">
	<path id="_x32_" class="st0" d="M756.2,914.9c-2.7,6.6-8.9,10.5-15.4,10.5c-2.2,0-4.5-0.4-6.6-1.4l-94.7-41.7l-3.7-1.6l-3.5-38.8
		l0-0.4l3.6,1.6l111.4,49.1C755.9,895.8,759.9,906,756.2,914.9z"/>
	<path id="_x31_" class="st1" d="M624.9,903.8l-79.7-29.6c-8-2.9-10.2-13.3-4-19.2l51.2-49.5c3.2-3.1,7.9-4.1,12.1-2.5l5.7,2.1
		c0.1,0,0.1,0,0.1,0l16.2,6.1c4.2,1.5,7.1,5.3,7.5,9.8l0.7,7.1l0,0.5l1.3,14.3l2.8,30.6l0.8,8.7l0.9,9.6
		C641.2,900.4,632.8,906.8,624.9,903.8z"/>
</g>
<g id="Tree_1_">
	<path id="Stem" class="st0" d="M588.4,988.3H411.6c-21.2,0-36.6-26.1-31.1-52.6l45.8-220.6l0.1-0.7l14.6-70.1l25.9-124.7l2-9.4
		c3.5-16.8,14.6-28.9,27.7-30.7c1.1-0.2,2.3-0.3,3.4-0.3c1.2,0,2.5,0.1,3.7,0.3c1.6,0.2,3.2,0.6,4.8,1.2c4,1.4,7.8,3.9,11.1,7.2
		c5.5,5.5,9.6,13.2,11.5,22.3l2,9.4L557,634.6l16.4,78.8l0.2,0.9l12.9,62.2c0.1,0.7,0.2,1.3,0.2,2c0,2.5-1,5-2.8,6.8l-70.5,70.4
		c-9.7,9.7-5.9,26.1,7,30.6l90.8,32c3.2,1.2,5.6,3.9,6.3,7.2l2.1,10.2c0.3,1.2,0.4,2.4,0.6,3.6C623.7,964.6,608.7,988.3,588.4,988.3
		z"/>
	<path id="Tree" class="st2" d="M814.3,479.6c-5.4,5.4-11.1,10.3-17.1,14.7c8,46.2-5.8,95.4-41.4,131
		c-36.1,36.1-86.1,49.8-132.7,41.1c-5.5,8.4-12,16.3-19.3,23.7c-9.2,9.3-19.5,17.1-30.3,23.4c-0.5,0.3-0.9,0.6-1.4,0.9
		c-21.2,12.1-44.6,18.5-68.3,19.3c-26.6,0.9-53.5-5.2-77.4-18.6c-0.5-0.2-0.9-0.5-1.4-0.7c-11.4-6.5-22.1-14.5-31.7-24.2
		c-6.3-6.2-11.8-12.9-16.8-19.9c-45.5,7.3-93.8-6.6-128.9-41.7c-36.6-36.6-50.1-87.4-40.7-134.6c-7.4-5.1-14.4-10.9-20.9-17.5
		c-58.2-58.2-58.2-152.4,0-210.6c6.4-6.4,13.3-12.1,20.4-17.1c-8.4-46.4,5.4-96,41.3-131.8c35.8-35.8,85.4-49.6,131.8-41.2
		c5-7.2,10.7-14,17.1-20.5c29.6-29.6,68.6-44.1,107.4-43.6c37.4,0.5,74.6,15,103.2,43.6c6.3,6.3,11.8,13,16.8,20
		c45.5-7.3,93.8,6.6,128.9,41.7c36.6,36.6,50.1,87.4,40.7,134.6c7.4,5.1,14.4,10.9,20.9,17.5C872.4,327.1,872.4,421.4,814.3,479.6z"
		/>
</g>
</svg>
